<?xml version="1.0" encoding="UTF-8"?>
<svg xmlns="http://www.w3.org/2000/svg" xmlns:xlink="http://www.w3.org/1999/xlink" width="648pt" height="252pt" viewBox="0 0 648 252" version="1.1">
<defs>
<clipPath id="clip1">
  <path d="M 0 0 L 216 0 L 216 252 L 0 252 Z M 0 0 "/>
</clipPath>
<clipPath id="clip2">
  <path d="M 20.808594 5.480469 L 210.519531 5.480469 L 210.519531 231.191406 L 20.808594 231.191406 Z M 20.808594 5.480469 "/>
</clipPath>
<clipPath id="clip3">
  <path d="M 216 0 L 432 0 L 432 252 L 216 252 Z M 216 0 "/>
</clipPath>
<clipPath id="clip4">
  <path d="M 236.808594 5.480469 L 426.519531 5.480469 L 426.519531 231.191406 L 236.808594 231.191406 Z M 236.808594 5.480469 "/>
</clipPath>
<clipPath id="clip5">
  <path d="M 432 0 L 648 0 L 648 252 L 432 252 Z M 432 0 "/>
</clipPath>
<clipPath id="clip6">
  <path d="M 452.808594 5.480469 L 642.519531 5.480469 L 642.519531 231.191406 L 452.808594 231.191406 Z M 452.808594 5.480469 "/>
</clipPath>
</defs>
<g id="surface29">
<rect x="0" y="0" width="648" height="252" style="fill:rgb(100%,100%,100%);fill-opacity:1;stroke:none;"/>
<path style=" stroke:none;fill-rule:nonzero;fill:rgb(0%,12.941176%,27.058824%);fill-opacity:1;" d="M 0 252 L 216 252 L 216 0 L 0 0 Z M 0 252 "/>
<g clip-path="url(#clip1)" clip-rule="nonzero">
<path style="fill:none;stroke-width:1.066978;stroke-linecap:round;stroke-linejoin:round;stroke:rgb(100%,100%,100%);stroke-opacity:1;stroke-miterlimit:10;" d="M 0 252 L 216 252 L 216 0 L 0 0 Z M 0 252 "/>
</g>
<g clip-path="url(#clip2)" clip-rule="nonzero">
<path style=" stroke:none;fill-rule:nonzero;fill:rgb(0%,12.941176%,27.058824%);fill-opacity:1;" d="M 20.808594 231.191406 L 210.519531 231.191406 L 210.519531 5.480469 L 20.808594 5.480469 Z M 20.808594 231.191406 "/>
</g>
<path style="fill:none;stroke-width:1.066978;stroke-linecap:butt;stroke-linejoin:round;stroke:rgb(26.666667%,0.392157%,32.941176%);stroke-opacity:1;stroke-miterlimit:10;" d="M 29.433594 216.300781 L 44.378906 216.300781 L 45.53125 214.5625 L 51.277344 214.5625 L 52.429688 199.332031 L 53.578125 199.332031 L 54.726562 177.140625 L 61.625 177.140625 L 62.777344 135.363281 L 63.925781 135.363281 L 65.074219 85.757812 L 71.972656 85.757812 L 73.125 80.535156 L 77.722656 80.535156 L 78.871094 53.121094 L 80.023438 53.121094 L 81.171875 15.738281 L 92.667969 15.738281 L 93.820312 43.984375 L 94.96875 52.292969 L 106.46875 52.292969 L 107.617188 135.363281 L 108.765625 135.363281 L 109.917969 139.933594 L 113.367188 139.933594 L 114.515625 171.917969 L 115.664062 171.917969 L 116.816406 185.625 L 120.265625 185.625 L 121.414062 210.753906 L 129.460938 210.753906 L 130.613281 220.929688 L 154.757812 220.929688 L 155.90625 218.625 L 165.105469 218.625 L 166.253906 190.195312 L 167.40625 190.195312 L 168.554688 185.625 L 176.601562 185.625 L 177.753906 135.363281 L 178.902344 135.363281 L 180.050781 104.90625 L 185.800781 104.90625 L 186.949219 51.292969 L 191.550781 51.292969 L 192.699219 43.984375 L 193.847656 32.5625 L 201.898438 32.5625 "/>
<path style="fill:none;stroke-width:1.066978;stroke-linecap:butt;stroke-linejoin:round;stroke:rgb(23.137255%,37.254902%,54.509804%);stroke-opacity:1;stroke-miterlimit:10;" d="M 29.433594 206.640625 L 51.277344 206.640625 L 52.429688 199.332031 L 53.578125 199.332031 L 54.726562 177.140625 L 61.625 177.140625 L 62.777344 135.363281 L 63.925781 135.363281 L 65.074219 85.757812 L 71.972656 85.757812 L 73.125 80.535156 L 77.722656 80.535156 L 78.871094 53.121094 L 80.023438 53.121094 L 81.171875 48.554688 L 93.820312 48.554688 L 94.96875 52.292969 L 106.46875 52.292969 L 107.617188 135.363281 L 108.765625 135.363281 L 109.917969 139.933594 L 113.367188 139.933594 L 114.515625 171.917969 L 115.664062 171.917969 L 116.816406 185.625 L 120.265625 185.625 L 121.414062 208.9375 L 165.105469 208.9375 L 166.253906 190.195312 L 167.40625 190.195312 L 168.554688 185.625 L 176.601562 185.625 L 177.753906 135.363281 L 178.902344 135.363281 L 180.050781 104.90625 L 185.800781 104.90625 L 186.949219 53.121094 L 201.898438 53.121094 "/>
<path style="fill:none;stroke-width:1.066978;stroke-linecap:butt;stroke-linejoin:round;stroke:rgb(17.254902%,54.117647%,54.509804%);stroke-opacity:1;stroke-miterlimit:10;" d="M 29.433594 197.671875 L 53.578125 197.671875 L 54.726562 177.140625 L 61.625 177.140625 L 62.777344 135.363281 L 63.925781 135.363281 L 65.074219 85.757812 L 71.972656 85.757812 L 73.125 80.535156 L 77.722656 80.535156 L 78.871094 65.183594 L 106.46875 65.183594 L 107.617188 135.363281 L 108.765625 135.363281 L 109.917969 139.933594 L 113.367188 139.933594 L 114.515625 171.917969 L 115.664062 171.917969 L 116.816406 185.625 L 120.265625 185.625 L 121.414062 199.566406 L 165.105469 199.566406 L 166.253906 190.195312 L 167.40625 190.195312 L 168.554688 185.625 L 176.601562 185.625 L 177.753906 135.363281 L 178.902344 135.363281 L 180.050781 104.90625 L 185.800781 104.90625 L 186.949219 66.175781 L 201.898438 66.175781 "/>
<path style="fill:none;stroke-width:1.066978;stroke-linecap:butt;stroke-linejoin:round;stroke:rgb(14.117647%,65.882353%,51.764706%);stroke-opacity:1;stroke-miterlimit:10;" d="M 29.433594 189.363281 L 53.578125 189.363281 L 54.726562 177.140625 L 61.625 177.140625 L 62.777344 135.363281 L 63.925781 135.363281 L 65.074219 85.757812 L 71.972656 85.757812 L 73.125 80.535156 L 77.722656 80.535156 L 78.871094 79.804688 L 106.46875 79.804688 L 107.617188 135.363281 L 108.765625 135.363281 L 109.917969 139.933594 L 113.367188 139.933594 L 114.515625 171.917969 L 115.664062 171.917969 L 116.816406 185.625 L 120.265625 185.625 L 121.414062 190.195312 L 167.40625 190.195312 L 168.554688 185.625 L 176.601562 185.625 L 177.753906 135.363281 L 178.902344 135.363281 L 180.050781 104.90625 L 185.800781 104.90625 L 186.949219 79.230469 L 201.898438 79.230469 "/>
<path style="fill:none;stroke-width:1.066978;stroke-linecap:butt;stroke-linejoin:round;stroke:rgb(34.901961%,73.72549%,42.745098%);stroke-opacity:1;stroke-miterlimit:10;" d="M 29.433594 181.054688 L 53.578125 181.054688 L 54.726562 177.140625 L 61.625 177.140625 L 62.777344 135.363281 L 63.925781 135.363281 L 65.074219 90.910156 L 106.46875 90.910156 L 107.617188 135.363281 L 108.765625 135.363281 L 109.917969 139.933594 L 113.367188 139.933594 L 114.515625 171.917969 L 115.664062 171.917969 L 116.816406 182.261719 L 176.601562 182.261719 L 177.753906 135.363281 L 178.902344 135.363281 L 180.050781 104.90625 L 185.800781 104.90625 L 186.949219 92.285156 L 201.898438 92.285156 "/>
<path style="fill:none;stroke-width:1.066978;stroke-linecap:butt;stroke-linejoin:round;stroke:rgb(45.490196%,80%,34.509804%);stroke-opacity:1;stroke-miterlimit:10;" d="M 29.433594 173.808594 L 61.625 173.808594 L 62.777344 135.363281 L 63.925781 135.363281 L 65.074219 100.789062 L 106.46875 100.789062 L 107.617188 135.363281 L 108.765625 135.363281 L 109.917969 139.933594 L 113.367188 139.933594 L 114.515625 171.917969 L 115.664062 171.917969 L 116.816406 175.367188 L 176.601562 175.367188 L 177.753906 135.363281 L 178.902344 135.363281 L 180.050781 105.210938 L 201.898438 105.210938 "/>
<path style="fill:none;stroke-width:1.066978;stroke-linecap:butt;stroke-linejoin:round;stroke:rgb(61.176471%,84.313725%,29.019608%);stroke-opacity:1;stroke-miterlimit:10;" d="M 29.433594 167.503906 L 61.625 167.503906 L 62.777344 135.363281 L 63.925781 135.363281 L 65.074219 110.667969 L 106.46875 110.667969 L 107.617188 135.363281 L 108.765625 135.363281 L 109.917969 139.933594 L 113.367188 139.933594 L 114.515625 168.59375 L 176.601562 168.59375 L 177.753906 135.363281 L 178.902344 135.363281 L 180.050781 114.347656 L 201.898438 114.347656 "/>
<path style="fill:none;stroke-width:1.066978;stroke-linecap:butt;stroke-linejoin:round;stroke:rgb(76.078431%,86.666667%,24.705882%);stroke-opacity:1;stroke-miterlimit:10;" d="M 29.433594 161.203125 L 61.625 161.203125 L 62.777344 135.363281 L 63.925781 135.363281 L 65.074219 120.546875 L 106.46875 120.546875 L 107.617188 135.363281 L 108.765625 135.363281 L 109.917969 139.933594 L 113.367188 139.933594 L 114.515625 161.949219 L 176.601562 161.949219 L 177.753906 135.363281 L 178.902344 135.363281 L 180.050781 123.484375 L 201.898438 123.484375 "/>
<path style="fill:none;stroke-width:1.066978;stroke-linecap:butt;stroke-linejoin:round;stroke:rgb(88.627451%,89.019608%,20%);stroke-opacity:1;stroke-miterlimit:10;" d="M 29.433594 154.902344 L 61.625 154.902344 L 62.777344 135.363281 L 63.925781 135.363281 L 65.074219 130.425781 L 106.46875 130.425781 L 107.617188 135.363281 L 108.765625 135.363281 L 109.917969 139.933594 L 113.367188 139.933594 L 114.515625 155.304688 L 176.601562 155.304688 L 177.753906 135.363281 L 178.902344 135.363281 L 180.050781 132.625 L 201.898438 132.625 "/>
<path style="fill:none;stroke-width:1.066978;stroke-linecap:butt;stroke-linejoin:round;stroke:rgb(99.215686%,90.588235%,14.509804%);stroke-opacity:1;stroke-miterlimit:10;" d="M 29.433594 148.597656 L 61.625 148.597656 L 62.777344 139.824219 L 108.765625 139.824219 L 109.917969 139.933594 L 113.367188 139.933594 L 114.515625 148.65625 L 176.601562 148.65625 L 177.753906 141.179688 L 201.898438 141.179688 "/>
<path style="fill:none;stroke-width:1.066978;stroke-linecap:butt;stroke-linejoin:round;stroke:rgb(20%,20%,20%);stroke-opacity:1;stroke-miterlimit:10;" d="M 18.070312 199.332031 L 20.808594 199.332031 "/>
<path style="fill:none;stroke-width:1.066978;stroke-linecap:butt;stroke-linejoin:round;stroke:rgb(20%,20%,20%);stroke-opacity:1;stroke-miterlimit:10;" d="M 18.070312 153.640625 L 20.808594 153.640625 "/>
<path style="fill:none;stroke-width:1.066978;stroke-linecap:butt;stroke-linejoin:round;stroke:rgb(20%,20%,20%);stroke-opacity:1;stroke-miterlimit:10;" d="M 18.070312 107.949219 L 20.808594 107.949219 "/>
<path style="fill:none;stroke-width:1.066978;stroke-linecap:butt;stroke-linejoin:round;stroke:rgb(20%,20%,20%);stroke-opacity:1;stroke-miterlimit:10;" d="M 18.070312 62.261719 L 20.808594 62.261719 "/>
<path style="fill:none;stroke-width:1.066978;stroke-linecap:butt;stroke-linejoin:round;stroke:rgb(20%,20%,20%);stroke-opacity:1;stroke-miterlimit:10;" d="M 18.070312 16.570312 L 20.808594 16.570312 "/>
<path style="fill:none;stroke-width:1.066978;stroke-linecap:butt;stroke-linejoin:round;stroke:rgb(20%,20%,20%);stroke-opacity:1;stroke-miterlimit:10;" d="M 28.28125 233.929688 L 28.28125 231.191406 "/>
<path style="fill:none;stroke-width:1.066978;stroke-linecap:butt;stroke-linejoin:round;stroke:rgb(20%,20%,20%);stroke-opacity:1;stroke-miterlimit:10;" d="M 85.769531 233.929688 L 85.769531 231.191406 "/>
<path style="fill:none;stroke-width:1.066978;stroke-linecap:butt;stroke-linejoin:round;stroke:rgb(20%,20%,20%);stroke-opacity:1;stroke-miterlimit:10;" d="M 143.257812 233.929688 L 143.257812 231.191406 "/>
<path style="fill:none;stroke-width:1.066978;stroke-linecap:butt;stroke-linejoin:round;stroke:rgb(20%,20%,20%);stroke-opacity:1;stroke-miterlimit:10;" d="M 200.746094 233.929688 L 200.746094 231.191406 "/>
<path style=" stroke:none;fill-rule:nonzero;fill:rgb(0%,12.941176%,27.058824%);fill-opacity:1;" d="M 216 252 L 432 252 L 432 0 L 216 0 Z M 216 252 "/>
<g clip-path="url(#clip3)" clip-rule="nonzero">
<path style="fill:none;stroke-width:1.066978;stroke-linecap:round;stroke-linejoin:round;stroke:rgb(100%,100%,100%);stroke-opacity:1;stroke-miterlimit:10;" d="M 216 252 L 432 252 L 432 0 L 216 0 Z M 216 252 "/>
</g>
<g clip-path="url(#clip4)" clip-rule="nonzero">
<path style=" stroke:none;fill-rule:nonzero;fill:rgb(0%,12.941176%,27.058824%);fill-opacity:1;" d="M 236.808594 231.191406 L 426.519531 231.191406 L 426.519531 5.480469 L 236.808594 5.480469 Z M 236.808594 231.191406 "/>
</g>
<path style="fill:none;stroke-width:1.066978;stroke-linecap:butt;stroke-linejoin:round;stroke:rgb(26.666667%,0.392157%,32.941176%);stroke-opacity:1;stroke-miterlimit:10;" d="M 245.433594 209.542969 L 246.582031 201.253906 L 247.730469 212.652344 L 248.882812 218.871094 L 250.03125 218.871094 L 251.179688 214.726562 L 252.332031 216.796875 L 253.480469 214.726562 L 254.628906 216.949219 L 255.78125 212.347656 L 256.929688 202.441406 L 258.082031 216.796875 L 259.230469 204.359375 L 260.378906 206.433594 L 261.53125 193.996094 L 262.679688 208.507812 L 263.828125 208.507812 L 264.980469 193.996094 L 266.128906 208.507812 L 267.277344 208.507812 L 268.429688 193.996094 L 269.578125 196.070312 L 270.726562 183.632812 L 271.878906 175.34375 L 273.027344 152.542969 L 274.175781 175.34375 L 275.328125 183.234375 L 276.476562 198.941406 L 277.625 208.105469 L 278.777344 142.179688 L 279.925781 175.34375 L 281.074219 129.742188 L 282.226562 117.304688 L 283.375 129.742188 L 284.523438 144.730469 L 285.675781 128.78125 L 286.824219 109.496094 L 287.972656 154.613281 L 289.125 100.722656 L 290.273438 146.324219 L 291.421875 135.960938 L 292.574219 111.085938 L 293.722656 144.25 L 294.871094 111.085938 L 296.023438 113.160156 L 297.171875 67.558594 L 298.320312 24.03125 L 299.472656 36.464844 L 300.621094 115.230469 L 301.769531 127.667969 L 302.921875 135.960938 L 304.070312 38.539062 L 305.21875 102.796875 L 306.371094 69.632812 L 307.519531 50.976562 L 308.667969 28.175781 L 309.820312 104.800781 L 310.96875 127.804688 L 312.117188 146.253906 L 313.269531 100.722656 L 314.417969 133.886719 L 315.566406 119.378906 L 316.71875 106.941406 L 317.867188 109.015625 L 319.019531 135.339844 L 320.167969 106.105469 L 321.316406 66.9375 L 322.46875 77.921875 L 323.617188 154.613281 L 324.765625 162.90625 L 325.917969 196.070312 L 327.066406 142.179688 L 328.214844 164.976562 L 329.367188 142.179688 L 330.515625 196.070312 L 331.664062 162.90625 L 332.816406 187.777344 L 333.964844 200.214844 L 335.113281 198.144531 L 336.265625 162.90625 L 337.414062 216.796875 L 338.5625 191.925781 L 339.714844 202.289062 L 340.863281 216.796875 L 342.011719 191.925781 L 343.164062 202.289062 L 344.3125 216.796875 L 345.460938 173.269531 L 346.613281 218.871094 L 347.761719 218.871094 L 348.910156 204.359375 L 350.0625 216.796875 L 351.210938 214.726562 L 352.359375 218.871094 L 353.511719 218.871094 L 354.660156 213.34375 L 355.808594 209.199219 L 356.960938 202.792969 L 358.109375 219.238281 L 359.257812 220.78125 L 360.410156 220.921875 L 361.558594 220.929688 L 362.707031 220.929688 L 363.859375 220.921875 L 365.007812 220.773438 L 366.15625 219.253906 L 367.308594 203.992188 L 368.457031 219.222656 L 369.605469 220.769531 L 370.757812 218.871094 L 371.90625 183.632812 L 373.054688 217.089844 L 374.207031 212.070312 L 375.355469 200.507812 L 376.503906 202.289062 L 377.65625 216.796875 L 378.804688 202.289062 L 379.957031 202.289062 L 381.105469 216.796875 L 382.253906 193.996094 L 383.40625 185.707031 L 384.554688 152.542969 L 385.703125 196.070312 L 386.855469 181.5625 L 388.003906 171.195312 L 389.152344 216.796875 L 390.304688 181.5625 L 391.453125 191.925781 L 392.601562 206.433594 L 393.753906 162.90625 L 394.902344 154.613281 L 396.050781 100.722656 L 397.203125 144.25 L 398.351562 152.542969 L 399.5 164.976562 L 400.652344 142.179688 L 401.800781 144.25 L 402.949219 59.265625 L 404.101562 123.523438 L 405.25 111.085938 L 406.398438 125.597656 L 407.550781 138.03125 L 408.699219 104.867188 L 409.847656 15.738281 L 411 46.832031 L 412.148438 124.105469 L 413.296875 107.84375 L 414.449219 88.871094 L 415.597656 125.597656 L 416.746094 116.269531 L 417.898438 76.886719 "/>
<path style="fill:none;stroke-width:1.066978;stroke-linecap:butt;stroke-linejoin:round;stroke:rgb(13.72549%,65.098039%,51.764706%);stroke-opacity:1;stroke-miterlimit:10;" d="M 245.433594 209.3125 L 246.582031 211.023438 L 247.730469 212.480469 L 248.882812 213.726562 L 250.03125 214.785156 L 251.179688 214.4375 L 252.332031 214.066406 L 253.480469 213.402344 L 254.628906 212.667969 L 255.78125 211.867188 L 256.929688 210.988281 L 258.082031 210.023438 L 259.230469 208.964844 L 260.378906 207.804688 L 261.53125 206.535156 L 262.679688 205.136719 L 263.828125 203.605469 L 264.980469 201.925781 L 266.128906 200.082031 L 267.277344 198.0625 L 268.429688 194.496094 L 269.578125 190.371094 L 270.726562 185.601562 L 271.878906 180.089844 L 273.027344 173.71875 L 274.175781 177.433594 L 275.328125 180.859375 L 276.476562 184.015625 L 277.625 179.6875 L 278.777344 170.566406 L 279.925781 159.433594 L 281.074219 145.839844 L 282.226562 129.242188 L 284.523438 129.179688 L 285.675781 129.148438 L 286.824219 129.121094 L 287.972656 129.089844 L 289.125 129.058594 L 290.273438 129.023438 L 291.421875 128.992188 L 292.574219 128.957031 L 293.722656 128.921875 L 294.871094 112.535156 L 296.023438 93.230469 L 297.171875 70.488281 L 298.320312 43.695312 L 299.472656 69.78125 L 300.621094 92.027344 L 301.769531 111 L 302.921875 101.644531 L 304.070312 91.496094 L 305.21875 81.683594 L 306.371094 71.128906 L 307.519531 59.777344 L 308.667969 57.382812 L 309.820312 88.140625 L 310.96875 113.117188 L 312.117188 129.542969 L 313.269531 126.175781 L 314.417969 122.6875 L 315.566406 119.066406 L 316.71875 115.3125 L 317.867188 111.421875 L 319.019531 107.386719 L 320.167969 100.296875 L 321.316406 92.761719 L 322.46875 111.660156 L 323.617188 133.160156 L 324.765625 150.429688 L 325.917969 164.300781 L 327.066406 165.933594 L 328.214844 167.523438 L 329.367188 169.066406 L 330.515625 174.066406 L 331.664062 178.585938 L 332.816406 182.667969 L 333.964844 186.359375 L 335.113281 189.691406 L 336.265625 192.707031 L 337.414062 195.429688 L 338.5625 197.523438 L 339.714844 199.449219 L 340.863281 201.214844 L 342.011719 202.835938 L 343.164062 204.324219 L 344.3125 205.691406 L 345.460938 206.945312 L 346.613281 208.46875 L 347.761719 209.828125 L 348.910156 211.035156 L 350.0625 212.113281 L 351.210938 213.078125 L 352.359375 213.933594 L 353.511719 214.695312 L 354.660156 215.375 L 355.808594 215.980469 L 356.960938 216.523438 L 358.109375 217.003906 L 359.257812 217.433594 L 360.410156 217.816406 L 361.558594 218.15625 L 362.707031 218.460938 L 363.859375 217.988281 L 365.007812 217.429688 L 366.15625 216.765625 L 367.308594 215.976562 L 368.457031 215.035156 L 369.605469 213.917969 L 370.757812 212.585938 L 371.90625 211.007812 L 373.054688 209.996094 L 374.207031 208.878906 L 375.355469 207.652344 L 376.503906 206.300781 L 377.65625 204.808594 L 378.804688 203.167969 L 379.957031 201.355469 L 381.105469 199.363281 L 382.253906 194.363281 L 383.40625 188.207031 L 384.554688 180.625 L 385.703125 183.339844 L 386.855469 185.871094 L 388.003906 188.230469 L 389.152344 190.433594 L 390.304688 188.761719 L 391.453125 186.996094 L 392.601562 185.132812 L 393.753906 172.65625 L 394.902344 155.835938 L 396.050781 133.148438 L 397.203125 139.199219 L 398.351562 144.832031 L 399.5 150.078125 L 400.652344 138.519531 L 401.800781 125.078125 L 402.949219 109.445312 L 404.101562 111.859375 L 405.25 114.222656 L 406.398438 116.535156 L 407.550781 118.796875 L 408.699219 90.882812 L 409.847656 55.335938 L 411 73.285156 L 412.148438 89.285156 L 413.296875 97.601562 L 414.449219 105.394531 L 415.597656 112.695312 L 416.746094 103.953125 L 417.898438 94.503906 "/>
<path style="fill:none;stroke-width:1.066978;stroke-linecap:butt;stroke-linejoin:round;stroke:rgb(38.039216%,75.294118%,40.784314%);stroke-opacity:1;stroke-miterlimit:10;" d="M 245.433594 212.464844 L 246.582031 212.675781 L 247.730469 212.878906 L 248.882812 213.078125 L 251.179688 213.460938 L 252.332031 213.644531 L 253.480469 212.945312 L 254.628906 212.179688 L 255.78125 211.339844 L 256.929688 210.417969 L 258.082031 209.410156 L 259.230469 208.304688 L 260.378906 207.09375 L 261.53125 205.765625 L 262.679688 204.308594 L 263.828125 202.714844 L 264.980469 200.96875 L 266.128906 199.054688 L 267.277344 196.957031 L 268.429688 194.660156 L 269.578125 192.140625 L 270.726562 189.382812 L 271.878906 186.355469 L 273.027344 183.042969 L 274.175781 180.347656 L 275.328125 177.457031 L 276.476562 174.363281 L 277.625 171.050781 L 278.777344 164.128906 L 279.925781 156.246094 L 281.074219 147.269531 L 282.226562 137.046875 L 283.375 135.566406 L 284.523438 134.066406 L 285.675781 132.535156 L 286.824219 130.976562 L 287.972656 129.394531 L 289.125 127.78125 L 290.273438 126.140625 L 291.421875 124.472656 L 292.574219 122.773438 L 293.722656 121.042969 L 294.871094 108.757812 L 296.023438 94.964844 L 297.171875 79.472656 L 298.320312 62.074219 L 299.472656 74.949219 L 300.621094 86.777344 L 301.769531 97.648438 L 302.921875 92.441406 L 304.070312 87.011719 L 305.21875 81.355469 L 306.371094 75.457031 L 307.519531 69.3125 L 308.667969 72.359375 L 309.820312 91.265625 L 310.96875 107.765625 L 312.117188 122.164062 L 313.269531 120.042969 L 314.417969 117.875 L 315.566406 115.660156 L 316.71875 113.398438 L 317.867188 111.089844 L 319.019531 108.734375 L 320.167969 106.328125 L 321.316406 103.878906 L 322.46875 119.40625 L 323.617188 132.871094 L 324.765625 144.546875 L 325.917969 154.667969 L 327.066406 160.683594 L 328.214844 166.148438 L 329.367188 171.117188 L 330.515625 175.632812 L 331.664062 179.742188 L 332.816406 183.476562 L 333.964844 186.875 L 335.113281 189.96875 L 336.265625 192.78125 L 337.414062 195.339844 L 338.5625 197.667969 L 339.714844 199.785156 L 340.863281 201.710938 L 342.011719 203.460938 L 343.164062 205.054688 L 344.3125 206.5 L 345.460938 207.816406 L 346.613281 209.011719 L 347.761719 210.097656 L 348.910156 211.085938 L 350.0625 211.984375 L 351.210938 212.800781 L 352.359375 213.542969 L 353.511719 214.214844 L 354.660156 214.828125 L 355.808594 215.382812 L 356.960938 215.890625 L 358.109375 216.351562 L 359.257812 216.765625 L 360.410156 217.148438 L 361.558594 217.492188 L 362.707031 217.578125 L 363.859375 217.148438 L 365.007812 216.660156 L 366.15625 216.113281 L 367.308594 215.496094 L 368.457031 214.800781 L 369.605469 214.015625 L 370.757812 213.132812 L 371.90625 212.132812 L 373.054688 211.007812 L 374.207031 209.738281 L 375.355469 208.308594 L 376.503906 206.695312 L 377.65625 204.875 L 378.804688 202.820312 L 379.957031 200.507812 L 381.105469 197.898438 L 382.253906 194.953125 L 383.40625 191.636719 L 384.554688 187.890625 L 385.703125 187.109375 L 386.855469 186.308594 L 388.003906 185.488281 L 389.152344 184.648438 L 390.304688 183.789062 L 391.453125 182.910156 L 392.601562 176.597656 L 393.753906 169.234375 L 394.902344 160.648438 L 396.050781 150.640625 L 397.203125 146.59375 L 398.351562 142.316406 L 399.5 137.789062 L 400.652344 133 L 401.800781 127.9375 L 402.949219 122.585938 L 404.101562 116.921875 L 405.25 110.929688 L 406.398438 104.597656 L 407.550781 97.898438 L 408.699219 90.039062 L 409.847656 81.679688 L 411 85.539062 L 412.148438 89.289062 L 413.296875 92.9375 L 414.449219 96.484375 L 415.597656 99.929688 L 416.746094 103.179688 L 417.898438 106.34375 "/>
<path style="fill:none;stroke-width:1.066978;stroke-linecap:butt;stroke-linejoin:round;stroke:rgb(47.058824%,81.568627%,32.54902%);stroke-opacity:1;stroke-miterlimit:10;" d="M 245.433594 214.300781 L 246.582031 214.042969 L 247.730469 213.773438 L 248.882812 213.492188 L 250.03125 213.203125 L 251.179688 212.902344 L 252.332031 212.589844 L 253.480469 212.261719 L 254.628906 211.925781 L 255.78125 211.082031 L 256.929688 210.15625 L 258.082031 209.148438 L 259.230469 208.042969 L 260.378906 206.835938 L 261.53125 205.515625 L 262.679688 204.074219 L 263.828125 202.496094 L 264.980469 200.769531 L 266.128906 198.878906 L 267.277344 196.816406 L 268.429688 194.558594 L 269.578125 192.085938 L 270.726562 189.386719 L 271.878906 186.433594 L 273.027344 183.203125 L 274.175781 179.671875 L 275.328125 175.8125 L 276.476562 171.589844 L 277.625 166.910156 L 278.777344 161.785156 L 279.925781 156.175781 L 281.074219 150.035156 L 282.226562 143.308594 L 283.375 140.71875 L 284.523438 138.042969 L 285.675781 135.277344 L 286.824219 132.421875 L 287.972656 129.46875 L 289.125 126.414062 L 290.273438 123.261719 L 291.421875 120.003906 L 292.574219 116.636719 L 293.722656 113.15625 L 294.871094 105.515625 L 296.023438 97.332031 L 297.171875 88.566406 L 298.320312 79.175781 L 299.472656 80.796875 L 300.621094 82.398438 L 301.769531 83.980469 L 302.921875 82.992188 L 304.070312 82 L 305.21875 80.996094 L 306.371094 79.984375 L 307.519531 78.96875 L 308.667969 85.933594 L 309.820312 95.503906 L 310.96875 104.402344 L 312.117188 112.664062 L 313.269531 112.621094 L 314.417969 112.582031 L 315.566406 112.539062 L 316.71875 112.496094 L 317.867188 112.453125 L 319.019531 112.40625 L 321.316406 112.320312 L 322.46875 123.871094 L 323.617188 134.195312 L 324.765625 143.421875 L 325.917969 151.667969 L 327.066406 158.226562 L 328.214844 164.164062 L 329.367188 169.542969 L 330.515625 174.40625 L 331.664062 178.8125 L 332.816406 182.800781 L 333.964844 186.410156 L 335.113281 189.589844 L 336.265625 192.472656 L 337.414062 195.09375 L 338.5625 197.472656 L 339.714844 199.632812 L 340.863281 201.59375 L 342.011719 203.375 L 343.164062 204.992188 L 344.3125 206.460938 L 345.460938 207.792969 L 346.613281 209.003906 L 347.761719 210.105469 L 348.910156 211.101562 L 350.0625 212.007812 L 351.210938 212.832031 L 352.359375 213.578125 L 353.511719 214.257812 L 354.660156 214.871094 L 355.808594 215.429688 L 356.960938 215.9375 L 358.109375 216.398438 L 359.257812 216.816406 L 360.410156 217.199219 L 361.558594 217.542969 L 362.707031 217.152344 L 363.859375 216.71875 L 365.007812 216.238281 L 366.15625 215.699219 L 367.308594 215.097656 L 368.457031 214.429688 L 369.605469 213.683594 L 370.757812 212.851562 L 371.90625 211.925781 L 373.054688 210.890625 L 374.207031 209.742188 L 375.355469 208.457031 L 376.503906 207.027344 L 377.65625 205.433594 L 378.804688 203.660156 L 379.957031 201.679688 L 381.105469 199.476562 L 382.253906 197.015625 L 383.40625 194.277344 L 384.554688 191.222656 L 385.703125 189.066406 L 386.855469 186.75 L 388.003906 184.265625 L 389.152344 181.601562 L 390.304688 178.742188 L 391.453125 175.675781 L 392.601562 171.195312 L 393.753906 166.269531 L 394.902344 160.851562 L 396.050781 154.902344 L 397.203125 150.378906 L 398.351562 145.546875 L 399.5 140.382812 L 400.652344 134.863281 L 401.800781 128.96875 L 402.949219 122.667969 L 404.101562 116.917969 L 405.25 110.832031 L 406.398438 104.390625 L 407.550781 97.570312 L 408.699219 90.351562 L 409.847656 82.710938 L 411 86.136719 L 412.148438 89.476562 L 413.296875 92.734375 L 414.449219 95.914062 L 415.597656 99.011719 L 416.746094 102.035156 L 417.898438 104.980469 "/>
<path style="fill:none;stroke-width:1.066978;stroke-linecap:butt;stroke-linejoin:round;stroke:rgb(61.960784%,84.313725%,28.627451%);stroke-opacity:1;stroke-miterlimit:10;" d="M 245.433594 215.304688 L 246.582031 214.917969 L 247.730469 214.507812 L 248.882812 214.066406 L 250.03125 213.597656 L 251.179688 213.09375 L 252.332031 212.558594 L 253.480469 211.984375 L 254.628906 211.375 L 255.78125 210.515625 L 256.929688 209.578125 L 258.082031 208.5625 L 259.230469 207.449219 L 260.378906 206.238281 L 261.53125 204.921875 L 262.679688 203.484375 L 263.828125 201.917969 L 264.980469 200.210938 L 266.128906 198.351562 L 267.277344 196.324219 L 268.429688 194.113281 L 269.578125 191.707031 L 270.726562 189.085938 L 271.878906 186.226562 L 273.027344 183.113281 L 274.175781 179.71875 L 275.328125 176.023438 L 276.476562 171.992188 L 277.625 167.601562 L 278.777344 162.816406 L 279.925781 157.601562 L 281.074219 151.917969 L 282.226562 145.726562 L 283.375 142.648438 L 284.523438 139.441406 L 285.675781 136.101562 L 286.824219 132.625 L 287.972656 129.007812 L 289.125 125.242188 L 290.273438 121.324219 L 291.421875 117.242188 L 292.574219 112.382812 L 293.722656 107.296875 L 294.871094 101.96875 L 296.023438 96.394531 L 297.171875 90.558594 L 298.320312 84.449219 L 299.472656 84.25 L 301.769531 83.859375 L 302.921875 83.664062 L 304.070312 83.46875 L 305.21875 83.269531 L 306.371094 83.074219 L 307.519531 82.875 L 308.667969 89.042969 L 309.820312 94.933594 L 310.96875 100.5625 L 312.117188 105.9375 L 313.269531 107.398438 L 314.417969 108.835938 L 315.566406 110.257812 L 316.71875 111.660156 L 317.867188 113.046875 L 319.019531 114.414062 L 320.167969 115.769531 L 321.316406 117.105469 L 322.46875 126.898438 L 323.617188 135.765625 L 324.765625 143.800781 L 325.917969 151.074219 L 327.066406 157.664062 L 328.214844 163.628906 L 329.367188 169.03125 L 330.515625 173.925781 L 331.664062 178.359375 L 332.816406 182.375 L 333.964844 186.007812 L 335.113281 189.300781 L 336.265625 192.285156 L 337.414062 194.984375 L 338.5625 197.347656 L 339.714844 199.492188 L 340.863281 201.441406 L 342.011719 203.214844 L 343.164062 204.828125 L 344.3125 206.292969 L 345.460938 207.625 L 346.613281 208.835938 L 347.761719 209.9375 L 348.910156 210.9375 L 350.0625 211.847656 L 351.210938 212.675781 L 352.359375 213.425781 L 353.511719 214.109375 L 354.660156 214.734375 L 355.808594 215.296875 L 356.960938 215.8125 L 358.109375 216.277344 L 359.257812 216.703125 L 360.410156 217.085938 L 361.558594 217.4375 L 362.707031 217.050781 L 363.859375 216.617188 L 365.007812 216.136719 L 366.15625 215.605469 L 367.308594 215.011719 L 368.457031 214.351562 L 369.605469 213.621094 L 370.757812 212.808594 L 371.90625 211.90625 L 373.054688 210.902344 L 374.207031 209.789062 L 375.355469 208.550781 L 376.503906 207.175781 L 377.65625 205.648438 L 378.804688 203.949219 L 379.957031 202.066406 L 381.105469 199.96875 L 382.253906 197.644531 L 383.40625 195.058594 L 384.554688 192.183594 L 385.703125 189.742188 L 386.855469 187.097656 L 388.003906 184.222656 L 389.152344 181.109375 L 390.304688 177.726562 L 391.453125 174.0625 L 392.601562 170.082031 L 393.753906 165.765625 L 394.902344 161.082031 L 396.050781 156.003906 L 397.203125 151.285156 L 398.351562 146.226562 L 399.5 140.804688 L 400.652344 134.984375 L 401.800781 128.742188 L 402.949219 122.046875 L 404.101562 116.554688 L 405.25 110.757812 L 406.398438 104.636719 L 407.550781 98.175781 L 408.699219 91.359375 L 409.847656 84.160156 L 411 87.082031 L 412.148438 89.941406 L 413.296875 92.742188 L 414.449219 95.484375 L 415.597656 98.164062 L 416.746094 100.789062 L 417.898438 103.355469 "/>
<path style="fill:none;stroke-width:1.066978;stroke-linecap:butt;stroke-linejoin:round;stroke:rgb(72.941176%,86.27451%,25.882353%);stroke-opacity:1;stroke-miterlimit:10;" d="M 245.433594 215.863281 L 246.582031 215.417969 L 247.730469 214.9375 L 248.882812 214.410156 L 250.03125 213.839844 L 251.179688 213.222656 L 252.332031 212.546875 L 253.480469 211.8125 L 254.628906 211.015625 L 255.78125 210.148438 L 256.929688 209.207031 L 258.082031 208.179688 L 259.230469 207.066406 L 260.378906 205.855469 L 261.53125 204.535156 L 262.679688 203.101562 L 263.828125 201.542969 L 264.980469 199.851562 L 266.128906 198.007812 L 267.277344 196.003906 L 268.429688 193.828125 L 269.578125 191.457031 L 270.726562 188.882812 L 271.878906 186.082031 L 273.027344 183.039062 L 274.175781 179.730469 L 275.328125 176.132812 L 276.476562 172.222656 L 277.625 167.96875 L 278.777344 163.34375 L 279.925781 158.316406 L 281.074219 152.847656 L 282.226562 146.90625 L 283.375 143.59375 L 284.523438 140.132812 L 285.675781 136.519531 L 286.824219 132.742188 L 287.972656 128.792969 L 289.125 124.671875 L 290.273438 120.359375 L 291.421875 115.859375 L 292.574219 111.152344 L 293.722656 106.234375 L 294.871094 101.097656 L 296.023438 95.730469 L 297.171875 90.121094 L 298.320312 84.265625 L 299.472656 84.578125 L 301.769531 85.203125 L 302.921875 85.515625 L 304.070312 85.828125 L 305.21875 86.136719 L 306.371094 86.449219 L 307.519531 86.757812 L 308.667969 90.230469 L 309.820312 93.617188 L 310.96875 96.910156 L 312.117188 100.121094 L 313.269531 102.789062 L 314.417969 105.398438 L 315.566406 107.953125 L 316.71875 110.449219 L 317.867188 112.886719 L 319.019531 115.273438 L 320.167969 117.605469 L 321.316406 119.886719 L 322.46875 129.128906 L 323.617188 137.523438 L 324.765625 145.152344 L 325.917969 152.082031 L 327.066406 158.378906 L 328.214844 164.101562 L 329.367188 169.296875 L 330.515625 174.019531 L 331.664062 178.3125 L 332.816406 182.210938 L 333.964844 185.753906 L 335.113281 188.972656 L 336.265625 191.894531 L 337.414062 194.554688 L 338.5625 196.964844 L 339.714844 199.160156 L 340.863281 201.152344 L 342.011719 202.960938 L 343.164062 204.605469 L 344.3125 206.101562 L 345.460938 207.457031 L 346.613281 208.691406 L 347.761719 209.8125 L 348.910156 210.828125 L 350.0625 211.753906 L 351.210938 212.59375 L 352.359375 213.359375 L 353.511719 214.03125 L 354.660156 214.644531 L 355.808594 215.207031 L 356.960938 215.714844 L 358.109375 216.179688 L 359.257812 216.605469 L 360.410156 216.992188 L 361.558594 217.242188 L 362.707031 216.847656 L 363.859375 216.410156 L 365.007812 215.925781 L 366.15625 215.390625 L 367.308594 214.796875 L 368.457031 214.140625 L 369.605469 213.410156 L 370.757812 212.605469 L 371.90625 211.714844 L 373.054688 210.726562 L 374.207031 209.636719 L 375.355469 208.425781 L 376.503906 207.085938 L 377.65625 205.605469 L 378.804688 203.964844 L 379.957031 202.148438 L 381.105469 200.140625 L 382.253906 197.914062 L 383.40625 195.453125 L 384.554688 192.726562 L 385.703125 190.261719 L 386.855469 187.582031 L 388.003906 184.667969 L 389.152344 181.5 L 390.304688 178.054688 L 391.453125 174.308594 L 392.601562 170.238281 L 393.753906 165.8125 L 394.902344 160.996094 L 396.050781 155.761719 L 397.203125 151.046875 L 398.351562 145.996094 L 399.5 140.574219 L 400.652344 134.765625 L 401.800781 128.53125 L 402.949219 121.851562 L 404.101562 116.546875 L 405.25 110.964844 L 406.398438 105.078125 L 407.550781 98.878906 L 408.699219 92.347656 L 409.847656 85.46875 L 411 87.925781 L 412.148438 90.339844 L 413.296875 92.710938 L 414.449219 95.039062 L 415.597656 97.324219 L 416.746094 99.566406 L 417.898438 101.769531 "/>
<path style="fill:none;stroke-width:1.066978;stroke-linecap:butt;stroke-linejoin:round;stroke:rgb(81.176471%,87.45098%,23.137255%);stroke-opacity:1;stroke-miterlimit:10;" d="M 245.433594 215.816406 L 246.582031 215.371094 L 247.730469 214.886719 L 248.882812 214.359375 L 250.03125 213.789062 L 251.179688 213.167969 L 252.332031 212.492188 L 253.480469 211.753906 L 254.628906 210.957031 L 255.78125 210.089844 L 256.929688 209.144531 L 258.082031 208.117188 L 259.230469 207.003906 L 260.378906 205.789062 L 261.53125 204.472656 L 262.679688 203.039062 L 263.828125 201.484375 L 264.980469 199.792969 L 266.128906 197.953125 L 267.277344 195.953125 L 268.429688 193.78125 L 269.578125 191.417969 L 270.726562 188.851562 L 271.878906 186.058594 L 273.027344 183.027344 L 274.175781 179.730469 L 275.328125 176.148438 L 276.476562 172.253906 L 277.625 168.019531 L 278.777344 163.421875 L 279.925781 158.421875 L 281.074219 152.984375 L 282.226562 147.078125 L 283.375 143.753906 L 284.523438 140.28125 L 285.675781 136.652344 L 286.824219 132.859375 L 287.972656 128.894531 L 289.125 124.75 L 290.273438 120.417969 L 291.421875 115.890625 L 292.574219 111.160156 L 293.722656 106.214844 L 294.871094 101.042969 L 296.023438 95.640625 L 297.171875 89.996094 L 298.320312 84.097656 L 299.472656 84.484375 L 300.621094 84.871094 L 301.769531 85.261719 L 302.921875 85.648438 L 305.21875 86.421875 L 306.371094 86.808594 L 307.519531 87.195312 L 308.667969 90.359375 L 309.820312 93.449219 L 310.96875 96.460938 L 312.117188 99.40625 L 313.269531 102.28125 L 314.417969 105.085938 L 315.566406 107.820312 L 316.71875 110.496094 L 317.867188 113.101562 L 319.019531 115.648438 L 320.167969 118.136719 L 321.316406 120.5625 L 322.46875 129.664062 L 323.617188 137.9375 L 324.765625 145.464844 L 325.917969 152.308594 L 327.066406 158.53125 L 328.214844 164.1875 L 329.367188 169.335938 L 330.515625 174.015625 L 331.664062 178.269531 L 332.816406 182.136719 L 333.964844 185.65625 L 335.113281 188.855469 L 336.265625 191.765625 L 337.414062 194.414062 L 338.5625 196.816406 L 339.714844 199.007812 L 340.863281 200.996094 L 342.011719 202.804688 L 343.164062 204.449219 L 344.3125 205.945312 L 345.460938 207.304688 L 346.613281 208.542969 L 347.761719 209.667969 L 348.910156 210.691406 L 350.0625 211.621094 L 351.210938 212.46875 L 352.359375 213.234375 L 353.511719 213.921875 L 354.660156 214.550781 L 355.808594 215.121094 L 356.960938 215.640625 L 358.109375 216.113281 L 359.257812 216.542969 L 360.410156 216.933594 L 361.558594 216.960938 L 362.707031 216.554688 L 363.859375 216.109375 L 365.007812 215.621094 L 366.15625 215.078125 L 367.308594 214.480469 L 368.457031 213.824219 L 369.605469 213.101562 L 370.757812 212.304688 L 371.90625 211.425781 L 373.054688 210.460938 L 374.207031 209.394531 L 375.355469 208.21875 L 376.503906 206.925781 L 377.65625 205.5 L 378.804688 203.929688 L 379.957031 202.203125 L 381.105469 200.296875 L 382.253906 198.195312 L 383.40625 195.882812 L 384.554688 193.335938 L 385.703125 190.84375 L 386.855469 188.128906 L 388.003906 185.167969 L 389.152344 181.945312 L 390.304688 178.425781 L 391.453125 174.59375 L 392.601562 170.414062 L 393.753906 165.859375 L 394.902344 160.890625 L 396.050781 155.476562 L 397.203125 150.773438 L 398.351562 145.730469 L 399.5 140.328125 L 400.652344 134.53125 L 401.800781 128.320312 L 402.949219 121.664062 L 404.101562 116.554688 L 405.25 111.179688 L 406.398438 105.527344 L 407.550781 99.585938 L 408.699219 93.335938 L 409.847656 86.765625 L 411 88.765625 L 412.148438 90.742188 L 413.296875 92.683594 L 414.449219 94.597656 L 415.597656 96.484375 L 416.746094 98.339844 L 417.898438 100.171875 "/>
<path style="fill:none;stroke-width:1.066978;stroke-linecap:butt;stroke-linejoin:round;stroke:rgb(88.235294%,88.627451%,20.392157%);stroke-opacity:1;stroke-miterlimit:10;" d="M 245.433594 215.78125 L 246.582031 215.335938 L 247.730469 214.847656 L 248.882812 214.320312 L 250.03125 213.746094 L 251.179688 213.125 L 252.332031 212.445312 L 253.480469 211.710938 L 254.628906 210.910156 L 255.78125 210.039062 L 256.929688 209.09375 L 258.082031 208.066406 L 259.230469 206.953125 L 260.378906 205.742188 L 261.53125 204.421875 L 262.679688 202.992188 L 263.828125 201.4375 L 264.980469 199.746094 L 266.128906 197.910156 L 267.277344 195.914062 L 268.429688 193.746094 L 269.578125 191.386719 L 270.726562 188.828125 L 271.878906 186.042969 L 273.027344 183.019531 L 274.175781 179.734375 L 275.328125 176.164062 L 276.476562 172.285156 L 277.625 168.070312 L 278.777344 163.488281 L 279.925781 158.511719 L 281.074219 153.101562 L 282.226562 147.222656 L 283.375 143.890625 L 284.523438 140.410156 L 285.675781 136.769531 L 286.824219 132.964844 L 287.972656 128.988281 L 289.125 124.835938 L 290.273438 120.492188 L 291.421875 115.949219 L 292.574219 111.203125 L 293.722656 106.242188 L 294.871094 101.058594 L 296.023438 95.640625 L 297.171875 89.976562 L 298.320312 84.054688 L 299.472656 84.4375 L 301.769531 85.195312 L 302.921875 85.574219 L 305.21875 86.332031 L 306.371094 86.707031 L 307.519531 87.085938 L 308.667969 90.296875 L 309.820312 93.429688 L 310.96875 96.488281 L 312.117188 99.472656 L 313.269531 102.386719 L 314.417969 105.226562 L 315.566406 108 L 316.71875 110.707031 L 317.867188 113.347656 L 319.019531 115.921875 L 320.167969 118.4375 L 321.316406 120.890625 L 322.46875 129.917969 L 323.617188 138.132812 L 324.765625 145.605469 L 325.917969 152.402344 L 327.066406 158.589844 L 328.214844 164.214844 L 329.367188 169.335938 L 330.515625 173.992188 L 331.664062 178.230469 L 332.816406 182.085938 L 333.964844 185.59375 L 335.113281 188.785156 L 336.265625 191.6875 L 337.414062 194.328125 L 338.5625 196.730469 L 339.714844 198.917969 L 340.863281 200.90625 L 342.011719 202.714844 L 343.164062 204.359375 L 344.3125 205.859375 L 345.460938 207.21875 L 346.613281 208.460938 L 347.761719 209.585938 L 348.910156 210.613281 L 350.0625 211.542969 L 351.210938 212.394531 L 352.359375 213.164062 L 353.511719 213.867188 L 354.660156 214.507812 L 355.808594 215.085938 L 356.960938 215.617188 L 358.109375 216.097656 L 359.257812 216.535156 L 360.410156 216.933594 L 361.558594 216.734375 L 362.707031 216.324219 L 363.859375 215.871094 L 365.007812 215.378906 L 366.15625 214.835938 L 367.308594 214.242188 L 368.457031 213.585938 L 369.605469 212.871094 L 370.757812 212.082031 L 371.90625 211.21875 L 373.054688 210.273438 L 374.207031 209.234375 L 375.355469 208.09375 L 376.503906 206.839844 L 377.65625 205.464844 L 378.804688 203.957031 L 379.957031 202.304688 L 381.105469 200.488281 L 382.253906 198.492188 L 383.40625 196.304688 L 384.554688 193.90625 L 385.703125 191.394531 L 386.855469 188.648438 L 388.003906 185.648438 L 389.152344 182.367188 L 390.304688 178.785156 L 391.453125 174.867188 L 392.601562 170.585938 L 393.753906 165.910156 L 394.902344 160.796875 L 396.050781 155.210938 L 397.203125 150.511719 L 398.351562 145.476562 L 399.5 140.082031 L 400.652344 134.304688 L 401.800781 128.113281 L 402.949219 121.476562 L 404.101562 116.554688 L 405.25 111.394531 L 406.398438 105.972656 L 407.550781 100.285156 L 408.699219 94.316406 L 409.847656 88.054688 L 411 89.609375 L 412.148438 91.144531 L 413.296875 92.664062 L 414.449219 94.164062 L 415.597656 95.648438 L 416.746094 97.113281 L 417.898438 98.5625 "/>
<path style="fill:none;stroke-width:1.066978;stroke-linecap:butt;stroke-linejoin:round;stroke:rgb(94.117647%,89.803922%,17.254902%);stroke-opacity:1;stroke-miterlimit:10;" d="M 245.433594 215.742188 L 246.582031 215.292969 L 247.730469 214.804688 L 248.882812 214.277344 L 250.03125 213.699219 L 251.179688 213.074219 L 252.332031 212.394531 L 253.480469 211.660156 L 254.628906 210.855469 L 255.78125 209.984375 L 256.929688 209.039062 L 258.082031 208.011719 L 259.230469 206.898438 L 260.378906 205.683594 L 261.53125 204.367188 L 262.679688 202.9375 L 263.828125 201.382812 L 264.980469 199.695312 L 266.128906 197.859375 L 267.277344 195.867188 L 268.429688 193.703125 L 269.578125 191.351562 L 270.726562 188.796875 L 271.878906 186.019531 L 273.027344 183.007812 L 274.175781 179.730469 L 275.328125 176.175781 L 276.476562 172.3125 L 277.625 168.113281 L 278.777344 163.554688 L 279.925781 158.597656 L 281.074219 153.21875 L 282.226562 147.371094 L 283.375 144.035156 L 284.523438 140.542969 L 285.675781 136.898438 L 286.824219 133.082031 L 287.972656 129.097656 L 289.125 124.929688 L 290.273438 120.574219 L 291.421875 116.019531 L 292.574219 111.257812 L 293.722656 106.28125 L 294.871094 101.078125 L 296.023438 95.636719 L 297.171875 89.953125 L 298.320312 84.007812 L 299.472656 84.378906 L 300.621094 84.753906 L 301.769531 85.125 L 302.921875 85.496094 L 304.070312 85.863281 L 305.21875 86.234375 L 306.371094 86.601562 L 307.519531 86.972656 L 308.667969 90.230469 L 309.820312 93.410156 L 310.96875 96.515625 L 312.117188 99.542969 L 313.269531 102.496094 L 314.417969 105.378906 L 315.566406 108.1875 L 316.71875 110.929688 L 317.867188 113.605469 L 319.019531 116.210938 L 320.167969 118.757812 L 321.316406 121.238281 L 322.46875 130.191406 L 323.617188 138.335938 L 324.765625 145.753906 L 325.917969 152.503906 L 327.066406 158.648438 L 328.214844 164.238281 L 329.367188 169.332031 L 330.515625 173.964844 L 331.664062 178.183594 L 332.816406 182.023438 L 333.964844 185.515625 L 335.113281 188.699219 L 336.265625 191.59375 L 337.414062 194.230469 L 338.5625 196.628906 L 339.714844 198.8125 L 340.863281 200.800781 L 342.011719 202.609375 L 343.164062 204.253906 L 344.3125 205.753906 L 345.460938 207.117188 L 346.613281 208.359375 L 347.761719 209.488281 L 348.910156 210.519531 L 350.0625 211.453125 L 351.210938 212.304688 L 352.359375 213.082031 L 353.511719 213.789062 L 354.660156 214.429688 L 355.808594 215.015625 L 356.960938 215.546875 L 358.109375 216.03125 L 359.257812 216.472656 L 360.410156 216.875 L 361.558594 216.53125 L 362.707031 216.117188 L 363.859375 215.660156 L 365.007812 215.164062 L 366.15625 214.617188 L 367.308594 214.023438 L 368.457031 213.371094 L 369.605469 212.65625 L 370.757812 211.875 L 371.90625 211.023438 L 373.054688 210.085938 L 374.207031 209.066406 L 375.355469 207.945312 L 376.503906 206.722656 L 377.65625 205.382812 L 378.804688 203.914062 L 379.957031 202.3125 L 381.105469 200.554688 L 382.253906 198.636719 L 383.40625 196.535156 L 384.554688 194.234375 L 385.703125 191.71875 L 386.855469 188.96875 L 388.003906 185.957031 L 389.152344 182.660156 L 390.304688 179.054688 L 391.453125 175.109375 L 392.601562 170.789062 L 393.753906 166.066406 L 394.902344 160.894531 L 396.050781 155.238281 L 397.203125 150.503906 L 398.351562 145.429688 L 399.5 139.988281 L 400.652344 134.152344 L 401.800781 127.898438 L 402.949219 121.191406 L 404.101562 116.480469 L 405.25 111.546875 L 406.398438 106.378906 L 407.550781 100.964844 L 408.699219 95.300781 L 409.847656 89.363281 L 411 90.472656 L 412.148438 91.574219 L 413.296875 92.664062 L 414.449219 93.746094 L 415.597656 94.816406 L 416.746094 95.882812 L 417.898438 96.9375 "/>
<path style="fill:none;stroke-width:1.066978;stroke-linecap:butt;stroke-linejoin:round;stroke:rgb(99.215686%,90.588235%,14.509804%);stroke-opacity:1;stroke-miterlimit:10;" d="M 245.433594 215.703125 L 246.582031 215.25 L 247.730469 214.761719 L 248.882812 214.230469 L 250.03125 213.652344 L 251.179688 213.027344 L 252.332031 212.34375 L 253.480469 211.605469 L 254.628906 210.800781 L 255.78125 209.929688 L 256.929688 208.984375 L 258.082031 207.957031 L 259.230469 206.839844 L 260.378906 205.625 L 261.53125 204.308594 L 262.679688 202.878906 L 263.828125 201.324219 L 264.980469 199.636719 L 266.128906 197.804688 L 267.277344 195.816406 L 268.429688 193.65625 L 269.578125 191.308594 L 270.726562 188.761719 L 271.878906 185.996094 L 273.027344 182.992188 L 274.175781 179.726562 L 275.328125 176.183594 L 276.476562 172.335938 L 277.625 168.15625 L 278.777344 163.617188 L 279.925781 158.6875 L 281.074219 153.335938 L 282.226562 147.523438 L 283.375 144.175781 L 284.523438 140.679688 L 285.675781 137.023438 L 286.824219 133.203125 L 287.972656 129.207031 L 289.125 125.027344 L 290.273438 120.660156 L 291.421875 116.089844 L 292.574219 111.3125 L 293.722656 106.320312 L 294.871094 101.097656 L 296.023438 95.636719 L 297.171875 89.929688 L 298.320312 83.960938 L 299.472656 84.324219 L 300.621094 84.6875 L 301.769531 85.046875 L 302.921875 85.40625 L 305.21875 86.125 L 306.371094 86.484375 L 307.519531 86.84375 L 308.667969 90.160156 L 309.820312 93.390625 L 310.96875 96.546875 L 312.117188 99.621094 L 313.269531 102.617188 L 314.417969 105.542969 L 315.566406 108.394531 L 316.71875 111.175781 L 317.867188 113.886719 L 319.019531 116.527344 L 320.167969 119.105469 L 321.316406 121.621094 L 322.46875 130.480469 L 323.617188 138.554688 L 324.765625 145.90625 L 325.917969 152.601562 L 327.066406 158.699219 L 328.214844 164.253906 L 329.367188 169.3125 L 330.515625 173.921875 L 331.664062 178.117188 L 332.816406 181.9375 L 333.964844 185.421875 L 335.113281 188.589844 L 336.265625 191.480469 L 337.414062 194.109375 L 338.5625 196.503906 L 339.714844 198.6875 L 340.863281 200.671875 L 342.011719 202.484375 L 343.164062 204.128906 L 344.3125 205.632812 L 345.460938 207 L 346.613281 208.242188 L 347.761719 209.378906 L 348.910156 210.410156 L 350.0625 211.351562 L 351.210938 212.207031 L 352.359375 212.988281 L 353.511719 213.695312 L 354.660156 214.34375 L 355.808594 214.933594 L 356.960938 215.46875 L 358.109375 215.957031 L 359.257812 216.402344 L 360.410156 216.808594 L 361.558594 216.425781 L 362.707031 216.003906 L 363.859375 215.542969 L 365.007812 215.042969 L 366.15625 214.492188 L 367.308594 213.894531 L 368.457031 213.238281 L 369.605469 212.519531 L 370.757812 211.738281 L 371.90625 210.878906 L 373.054688 209.945312 L 374.207031 208.921875 L 375.355469 207.800781 L 376.503906 206.578125 L 377.65625 205.242188 L 378.804688 203.78125 L 379.957031 202.1875 L 381.105469 200.441406 L 382.253906 198.535156 L 383.40625 196.449219 L 384.554688 194.167969 L 385.703125 191.679688 L 386.855469 188.953125 L 388.003906 185.980469 L 389.152344 182.726562 L 390.304688 179.167969 L 391.453125 175.28125 L 392.601562 171.035156 L 393.753906 166.390625 L 394.902344 161.3125 L 396.050781 155.765625 L 397.203125 150.921875 L 398.351562 145.71875 L 399.5 140.128906 L 400.652344 134.125 L 401.800781 127.675781 L 402.949219 120.746094 L 404.101562 116.273438 L 405.25 111.597656 L 406.398438 106.710938 L 407.550781 101.609375 L 408.699219 96.28125 L 409.847656 90.710938 L 411 91.375 L 412.148438 92.035156 L 413.296875 92.691406 L 414.449219 93.34375 L 415.597656 93.992188 L 416.746094 94.636719 L 417.898438 95.28125 "/>
<path style="fill:none;stroke-width:1.066978;stroke-linecap:butt;stroke-linejoin:round;stroke:rgb(20%,20%,20%);stroke-opacity:1;stroke-miterlimit:10;" d="M 234.070312 220.941406 L 236.808594 220.941406 "/>
<path style="fill:none;stroke-width:1.066978;stroke-linecap:butt;stroke-linejoin:round;stroke:rgb(20%,20%,20%);stroke-opacity:1;stroke-miterlimit:10;" d="M 234.070312 169.125 L 236.808594 169.125 "/>
<path style="fill:none;stroke-width:1.066978;stroke-linecap:butt;stroke-linejoin:round;stroke:rgb(20%,20%,20%);stroke-opacity:1;stroke-miterlimit:10;" d="M 234.070312 117.304688 L 236.808594 117.304688 "/>
<path style="fill:none;stroke-width:1.066978;stroke-linecap:butt;stroke-linejoin:round;stroke:rgb(20%,20%,20%);stroke-opacity:1;stroke-miterlimit:10;" d="M 234.070312 65.484375 L 236.808594 65.484375 "/>
<path style="fill:none;stroke-width:1.066978;stroke-linecap:butt;stroke-linejoin:round;stroke:rgb(20%,20%,20%);stroke-opacity:1;stroke-miterlimit:10;" d="M 234.070312 13.667969 L 236.808594 13.667969 "/>
<path style="fill:none;stroke-width:1.066978;stroke-linecap:butt;stroke-linejoin:round;stroke:rgb(20%,20%,20%);stroke-opacity:1;stroke-miterlimit:10;" d="M 244.28125 233.929688 L 244.28125 231.191406 "/>
<path style="fill:none;stroke-width:1.066978;stroke-linecap:butt;stroke-linejoin:round;stroke:rgb(20%,20%,20%);stroke-opacity:1;stroke-miterlimit:10;" d="M 301.769531 233.929688 L 301.769531 231.191406 "/>
<path style="fill:none;stroke-width:1.066978;stroke-linecap:butt;stroke-linejoin:round;stroke:rgb(20%,20%,20%);stroke-opacity:1;stroke-miterlimit:10;" d="M 359.257812 233.929688 L 359.257812 231.191406 "/>
<path style="fill:none;stroke-width:1.066978;stroke-linecap:butt;stroke-linejoin:round;stroke:rgb(20%,20%,20%);stroke-opacity:1;stroke-miterlimit:10;" d="M 416.746094 233.929688 L 416.746094 231.191406 "/>
<path style=" stroke:none;fill-rule:nonzero;fill:rgb(0%,12.941176%,27.058824%);fill-opacity:1;" d="M 432 252 L 648 252 L 648 0 L 432 0 Z M 432 252 "/>
<g clip-path="url(#clip5)" clip-rule="nonzero">
<path style="fill:none;stroke-width:1.066978;stroke-linecap:round;stroke-linejoin:round;stroke:rgb(100%,100%,100%);stroke-opacity:1;stroke-miterlimit:10;" d="M 432 252 L 648 252 L 648 0 L 432 0 Z M 432 252 "/>
</g>
<g clip-path="url(#clip6)" clip-rule="nonzero">
<path style=" stroke:none;fill-rule:nonzero;fill:rgb(0%,12.941176%,27.058824%);fill-opacity:1;" d="M 452.808594 231.191406 L 642.519531 231.191406 L 642.519531 5.480469 L 452.808594 5.480469 Z M 452.808594 231.191406 "/>
</g>
<path style="fill:none;stroke-width:1.066978;stroke-linecap:butt;stroke-linejoin:round;stroke:rgb(26.666667%,0.392157%,32.941176%);stroke-opacity:1;stroke-miterlimit:10;" d="M 461.433594 209.441406 L 462.582031 202.113281 L 463.730469 210.925781 L 464.882812 218.597656 L 466.03125 219.132812 L 467.179688 216.300781 L 468.332031 215.820312 L 469.480469 215.628906 L 470.628906 215.757812 L 471.78125 210.488281 L 472.929688 206.300781 L 474.082031 212.699219 L 475.230469 208.039062 L 476.378906 202.464844 L 477.53125 196.734375 L 478.679688 207.425781 L 479.828125 207.269531 L 480.980469 195.886719 L 482.128906 207.257812 L 483.277344 207.4375 L 484.429688 196.847656 L 485.578125 192.496094 L 486.726562 184.886719 L 487.878906 173.269531 L 489.027344 155.1875 L 490.175781 170.703125 L 491.328125 185.359375 L 492.476562 200.019531 L 493.625 204.207031 L 494.777344 145.570312 L 495.925781 170.703125 L 497.074219 133.007812 L 498.226562 114.160156 L 499.375 128.820312 L 500.523438 143.476562 L 501.675781 126.726562 L 502.824219 112.066406 L 503.972656 149.761719 L 505.125 103.691406 L 506.273438 141.382812 L 507.421875 137.195312 L 508.574219 112.066406 L 509.722656 139.289062 L 510.871094 114.160156 L 512.023438 109.972656 L 513.171875 65.996094 L 514.320312 19.925781 L 515.472656 38.050781 L 516.621094 110.042969 L 517.769531 132.9375 L 518.921875 129.542969 L 520.070312 40.867188 L 521.21875 97.925781 L 522.371094 70.730469 L 523.519531 46.605469 L 524.667969 28.632812 L 525.820312 101.144531 L 526.96875 131.363281 L 528.117188 140.535156 L 529.269531 103.691406 L 530.417969 130.914062 L 531.566406 117.839844 L 532.71875 105.21875 L 533.867188 110.539062 L 535.019531 131.421875 L 536.167969 107.878906 L 537.316406 61.808594 L 538.46875 80.65625 L 539.617188 149.761719 L 540.765625 166.511719 L 541.917969 191.640625 L 543.066406 145.570312 L 544.214844 160.230469 L 545.367188 145.570312 L 546.515625 191.640625 L 547.664062 164.417969 L 548.816406 188.183594 L 549.964844 199.917969 L 551.113281 195.929688 L 552.265625 165.78125 L 553.414062 212.582031 L 554.5625 195.832031 L 555.714844 200.019531 L 556.863281 214.675781 L 558.011719 195.832031 L 559.164062 200.019531 L 560.3125 214.675781 L 561.460938 176.136719 L 562.613281 217.21875 L 563.761719 218.417969 L 564.910156 206.941406 L 566.0625 213.203125 L 567.210938 216.894531 L 568.359375 218.9375 L 569.511719 218.476562 L 570.660156 213.40625 L 571.808594 206.832031 L 572.960938 204.722656 L 574.109375 219.164062 L 575.257812 220.734375 L 576.410156 220.902344 L 577.558594 220.929688 L 578.707031 220.929688 L 579.859375 220.902344 L 581.007812 220.734375 L 582.15625 219.160156 L 583.308594 204.542969 L 584.457031 219.199219 L 585.605469 220.011719 L 586.757812 218.398438 L 587.90625 186.101562 L 589.054688 214.675781 L 590.207031 211.578125 L 591.355469 200.933594 L 592.503906 203.292969 L 593.65625 214.519531 L 594.804688 203.496094 L 595.957031 202.820312 L 597.105469 213.742188 L 598.253906 197.925781 L 599.40625 181.171875 L 600.554688 156.042969 L 601.703125 193.734375 L 602.855469 179.078125 L 604.003906 174.890625 L 605.152344 212.582031 L 606.304688 185.359375 L 607.453125 189.546875 L 608.601562 204.207031 L 609.753906 166.511719 L 610.902344 149.761719 L 612.050781 103.578125 L 613.203125 139.625 L 614.351562 155.707031 L 615.5 160.34375 L 616.652344 145.570312 L 617.800781 139.289062 L 618.949219 61.808594 L 620.101562 118.347656 L 621.25 112.066406 L 622.398438 126.726562 L 623.550781 133.007812 L 624.699219 105.785156 L 625.847656 15.738281 L 627 42.960938 L 628.148438 122.539062 L 629.296875 105.785156 L 630.449219 90.296875 L 631.597656 121.882812 L 632.746094 117.957031 L 633.898438 74.15625 "/>
<path style="fill:none;stroke-width:1.066978;stroke-linecap:butt;stroke-linejoin:round;stroke:rgb(13.72549%,65.098039%,51.764706%);stroke-opacity:1;stroke-miterlimit:10;" d="M 461.433594 205.429688 L 462.582031 210.230469 L 463.730469 212.964844 L 464.882812 214.53125 L 466.03125 215.386719 L 467.179688 215.746094 L 468.332031 215.703125 L 469.480469 215.238281 L 470.628906 214.25 L 471.78125 212.464844 L 472.929688 210.574219 L 474.082031 208.6875 L 475.230469 206.949219 L 476.378906 205.507812 L 477.53125 204.496094 L 478.679688 204.007812 L 479.828125 204.097656 L 480.980469 203.46875 L 482.128906 202.039062 L 483.277344 199.621094 L 484.429688 195.863281 L 485.578125 190.183594 L 486.726562 181.605469 L 487.878906 175.660156 L 489.027344 174.023438 L 490.175781 177.179688 L 491.328125 184.203125 L 492.476562 185.191406 L 493.625 180.625 L 494.777344 168.242188 L 495.925781 155.417969 L 497.074219 143.4375 L 498.226562 133.738281 L 499.375 127.597656 L 500.523438 125.894531 L 501.675781 125.199219 L 502.824219 125.539062 L 503.972656 126.898438 L 505.125 129.238281 L 506.273438 132.480469 L 507.421875 132.886719 L 508.574219 130.492188 L 509.722656 125.066406 L 510.871094 113.214844 L 512.023438 92.636719 L 513.171875 58.953125 L 514.320312 47.160156 L 515.472656 62.519531 L 516.621094 98.222656 L 517.769531 111.390625 L 518.921875 108.242188 L 520.070312 87.335938 L 521.21875 70.089844 L 522.371094 58.730469 L 523.519531 56.246094 L 524.667969 68.921875 L 525.820312 93.378906 L 526.96875 109.367188 L 528.117188 119.214844 L 529.269531 124.265625 L 530.417969 125.167969 L 531.566406 122.046875 L 532.71875 117.839844 L 533.867188 112.417969 L 535.019531 105.609375 L 536.167969 97.195312 L 537.316406 88.539062 L 538.46875 104.957031 L 539.617188 137.761719 L 540.765625 154.5625 L 541.917969 161.996094 L 543.066406 162.691406 L 544.214844 164.757812 L 545.367188 168.046875 L 546.515625 172.335938 L 547.664062 177.34375 L 548.816406 182.773438 L 549.964844 187.199219 L 551.113281 190.816406 L 552.265625 193.78125 L 553.414062 196.214844 L 554.5625 198.207031 L 555.714844 199.832031 L 556.863281 201.148438 L 558.011719 202.199219 L 559.164062 203.46875 L 560.3125 204.898438 L 561.460938 206.4375 L 562.613281 208.035156 L 563.761719 209.628906 L 564.910156 210.921875 L 566.0625 211.96875 L 567.210938 212.824219 L 568.359375 213.515625 L 569.511719 214.078125 L 570.660156 214.527344 L 571.808594 215.265625 L 572.960938 216.183594 L 574.109375 217.164062 L 575.257812 218.101562 L 576.410156 218.609375 L 577.558594 218.851562 L 578.707031 218.898438 L 579.859375 218.757812 L 581.007812 218.390625 L 582.15625 217.691406 L 583.308594 216.421875 L 584.457031 214.910156 L 585.605469 213.21875 L 586.757812 211.449219 L 587.90625 209.746094 L 589.054688 208.269531 L 590.207031 207.175781 L 591.355469 206.585938 L 592.503906 206.574219 L 593.65625 206.179688 L 594.804688 205.03125 L 595.957031 202.957031 L 597.105469 199.621094 L 598.253906 194.433594 L 599.40625 187.253906 L 600.554688 181.839844 L 601.703125 179.484375 L 602.855469 180.792969 L 604.003906 185.425781 L 605.152344 192.246094 L 606.304688 194.054688 L 607.453125 191.730469 L 608.601562 184.136719 L 609.753906 167.175781 L 610.902344 150.933594 L 612.050781 139.6875 L 613.203125 136.875 L 614.351562 143.417969 L 615.5 143.730469 L 616.652344 137.894531 L 617.800781 124.476562 L 618.949219 115.105469 L 620.101562 111.265625 L 621.25 113.589844 L 622.398438 115.488281 L 623.550781 108.789062 L 624.699219 91.816406 L 625.847656 59.984375 L 627 58.582031 L 628.148438 88.40625 L 629.296875 104.992188 L 630.449219 112.230469 L 631.597656 111.710938 L 632.746094 103.316406 L 633.898438 85.195312 "/>
<path style="fill:none;stroke-width:1.066978;stroke-linecap:butt;stroke-linejoin:round;stroke:rgb(38.039216%,75.294118%,40.784314%);stroke-opacity:1;stroke-miterlimit:10;" d="M 461.433594 207.035156 L 462.582031 210.390625 L 463.730469 212.480469 L 464.882812 213.769531 L 466.03125 214.511719 L 467.179688 214.847656 L 468.332031 214.835938 L 469.480469 214.472656 L 470.628906 213.695312 L 471.78125 212.71875 L 472.929688 211.636719 L 474.082031 210.445312 L 475.230469 209.136719 L 476.378906 207.707031 L 477.53125 206.148438 L 478.679688 204.457031 L 479.828125 202.625 L 480.980469 200.585938 L 482.128906 198.308594 L 483.277344 195.769531 L 484.429688 192.9375 L 485.578125 189.773438 L 486.726562 186.238281 L 487.878906 183.246094 L 489.027344 180.992188 L 490.175781 179.636719 L 491.328125 179.277344 L 492.476562 177.207031 L 493.625 173.167969 L 494.777344 166.640625 L 495.925781 156.714844 L 497.074219 147.117188 L 498.226562 138.484375 L 499.375 131.4375 L 500.523438 126.53125 L 501.675781 124.171875 L 502.824219 124.546875 L 503.972656 127.632812 L 505.125 130.050781 L 506.273438 131.847656 L 507.421875 130.855469 L 508.574219 126.980469 L 509.722656 119.847656 L 510.871094 108.746094 L 512.023438 92.496094 L 513.171875 69.261719 L 514.320312 60.269531 L 515.472656 68.265625 L 516.621094 90.808594 L 517.769531 99.996094 L 518.921875 98.378906 L 520.070312 85.515625 L 521.21875 74.179688 L 522.371094 64.957031 L 523.519531 64.933594 L 524.667969 74.117188 L 525.820312 90.917969 L 526.96875 105.847656 L 528.117188 115.535156 L 529.269531 121.054688 L 530.417969 123.003906 L 531.566406 121.585938 L 532.71875 116.648438 L 533.867188 111.304688 L 535.019531 105.519531 L 536.167969 99.25 L 537.316406 102.171875 L 538.46875 113.632812 L 539.617188 131.1875 L 540.765625 144.261719 L 541.917969 154.027344 L 543.066406 161.304688 L 544.214844 166.652344 L 545.367188 171.5 L 546.515625 175.894531 L 547.664062 179.878906 L 548.816406 183.5 L 549.964844 186.785156 L 551.113281 189.765625 L 552.265625 192.472656 L 553.414062 194.925781 L 554.5625 197.152344 L 555.714844 199.171875 L 556.863281 201 L 558.011719 202.65625 L 559.164062 204.226562 L 560.3125 205.707031 L 561.460938 207.097656 L 562.613281 208.398438 L 563.761719 209.613281 L 564.910156 210.746094 L 566.0625 211.792969 L 567.210938 212.761719 L 568.359375 213.652344 L 569.511719 214.46875 L 570.660156 215.214844 L 571.808594 215.894531 L 572.960938 216.507812 L 574.109375 217.0625 L 575.257812 217.554688 L 576.410156 217.847656 L 577.558594 217.980469 L 578.707031 217.972656 L 579.859375 217.824219 L 581.007812 217.511719 L 582.15625 216.984375 L 583.308594 216.164062 L 584.457031 215.226562 L 585.605469 214.175781 L 586.757812 213.003906 L 587.90625 211.722656 L 589.054688 210.339844 L 590.207031 208.867188 L 591.355469 207.320312 L 592.503906 205.726562 L 593.65625 203.902344 L 594.804688 201.808594 L 595.957031 199.398438 L 597.105469 196.625 L 598.253906 193.417969 L 599.40625 189.707031 L 600.554688 186.859375 L 601.703125 185.1875 L 602.855469 184.882812 L 604.003906 185.972656 L 605.152344 188.339844 L 606.304688 188.148438 L 607.453125 185.359375 L 608.601562 179.292969 L 609.753906 168.347656 L 610.902344 157.730469 L 612.050781 148.625 L 613.203125 142.195312 L 614.351562 139.324219 L 615.5 136.015625 L 616.652344 132.234375 L 617.800781 127.921875 L 618.949219 123.019531 L 620.101562 117.460938 L 621.25 111.164062 L 622.398438 104.03125 L 623.550781 95.953125 L 624.699219 86.804688 L 625.847656 76.421875 L 627 77.074219 L 628.148438 88.609375 L 629.296875 99.296875 L 630.449219 104.65625 L 631.597656 105.339844 L 632.746094 101.425781 L 633.898438 92.441406 "/>
<path style="fill:none;stroke-width:1.066978;stroke-linecap:butt;stroke-linejoin:round;stroke:rgb(47.058824%,81.568627%,32.54902%);stroke-opacity:1;stroke-miterlimit:10;" d="M 461.433594 207.808594 L 462.582031 210.589844 L 463.730469 212.390625 L 464.882812 213.546875 L 466.03125 214.242188 L 467.179688 214.582031 L 468.332031 214.617188 L 469.480469 214.355469 L 470.628906 213.753906 L 471.78125 212.726562 L 472.929688 211.589844 L 474.082031 210.339844 L 475.230469 208.96875 L 476.378906 207.472656 L 477.53125 205.851562 L 478.679688 204.101562 L 479.828125 202.222656 L 480.980469 200.214844 L 482.128906 198.082031 L 483.277344 195.828125 L 484.429688 193.460938 L 485.578125 190.984375 L 486.726562 188.40625 L 487.878906 185.742188 L 489.027344 183 L 490.175781 180.203125 L 491.328125 177.363281 L 492.476562 173.761719 L 493.625 169.238281 L 494.777344 163.589844 L 495.925781 156.558594 L 497.074219 147.792969 L 498.226562 139.9375 L 499.375 133.511719 L 500.523438 128.96875 L 501.675781 126.640625 L 502.824219 126.695312 L 503.972656 129.136719 L 505.125 129.898438 L 506.273438 129.023438 L 507.421875 126.464844 L 508.574219 122.082031 L 509.722656 115.636719 L 510.871094 106.746094 L 512.023438 94.875 L 513.171875 79.261719 L 514.320312 71.484375 L 515.472656 72.957031 L 516.621094 83.402344 L 517.769531 88.65625 L 518.921875 89.269531 L 520.070312 85.316406 L 521.21875 76.367188 L 522.371094 71.605469 L 523.519531 72.28125 L 524.667969 78.328125 L 525.820312 89.097656 L 526.96875 103.476562 L 528.117188 112.992188 L 529.269531 118.609375 L 530.417969 120.875 L 531.566406 120.007812 L 532.71875 115.925781 L 533.867188 108.234375 L 535.019531 104.453125 L 536.167969 104.996094 L 537.316406 110.042969 L 538.46875 119.015625 L 539.617188 130.921875 L 540.765625 141.199219 L 541.917969 150.097656 L 543.066406 157.820312 L 544.214844 164.53125 L 545.367188 170.382812 L 546.515625 175.496094 L 547.664062 179.976562 L 548.816406 183.90625 L 549.964844 187.363281 L 551.113281 190.414062 L 552.265625 193.105469 L 553.414062 195.515625 L 554.5625 197.671875 L 555.714844 199.605469 L 556.863281 201.339844 L 558.011719 202.898438 L 559.164062 204.394531 L 560.3125 205.820312 L 561.460938 207.171875 L 562.613281 208.449219 L 563.761719 209.648438 L 564.910156 210.769531 L 566.0625 211.8125 L 567.210938 212.78125 L 568.359375 213.671875 L 569.511719 214.488281 L 570.660156 215.238281 L 571.808594 215.917969 L 572.960938 216.53125 L 574.109375 217.085938 L 575.257812 217.445312 L 576.410156 217.648438 L 577.558594 217.726562 L 578.707031 217.679688 L 579.859375 217.511719 L 581.007812 217.195312 L 582.15625 216.699219 L 583.308594 215.953125 L 584.457031 215.097656 L 585.605469 214.121094 L 586.757812 213.027344 L 587.90625 211.796875 L 589.054688 210.429688 L 590.207031 208.917969 L 591.355469 207.253906 L 592.503906 205.4375 L 593.65625 203.464844 L 594.804688 201.339844 L 595.957031 199.0625 L 597.105469 196.640625 L 598.253906 194.082031 L 599.40625 191.703125 L 600.554688 189.597656 L 601.703125 187.855469 L 602.855469 186.542969 L 604.003906 185.722656 L 605.152344 185.199219 L 606.304688 183.472656 L 607.453125 180.363281 L 608.601562 175.546875 L 609.753906 168.484375 L 610.902344 161.308594 L 612.050781 154.261719 L 613.203125 147.59375 L 614.351562 141.582031 L 615.5 136.433594 L 616.652344 131.082031 L 617.800781 125.535156 L 618.949219 119.796875 L 620.101562 113.871094 L 621.25 107.765625 L 622.398438 101.492188 L 623.550781 95.054688 L 624.699219 88.464844 L 625.847656 85.097656 L 627 85.203125 L 628.148438 88.769531 L 629.296875 95.535156 L 630.449219 99.585938 L 631.597656 101.164062 L 632.746094 100.367188 L 633.898438 97.148438 "/>
<path style="fill:none;stroke-width:1.066978;stroke-linecap:butt;stroke-linejoin:round;stroke:rgb(61.960784%,84.313725%,28.627451%);stroke-opacity:1;stroke-miterlimit:10;" d="M 461.433594 208.585938 L 462.582031 210.832031 L 463.730469 212.335938 L 464.882812 213.320312 L 466.03125 213.917969 L 467.179688 214.203125 L 468.332031 214.214844 L 469.480469 213.953125 L 470.628906 213.386719 L 471.78125 212.441406 L 472.929688 211.402344 L 474.082031 210.257812 L 475.230469 209 L 476.378906 207.625 L 477.53125 206.125 L 478.679688 204.496094 L 479.828125 202.722656 L 480.980469 200.804688 L 482.128906 198.734375 L 483.277344 196.503906 L 484.429688 194.105469 L 485.578125 191.539062 L 486.726562 188.792969 L 487.878906 185.867188 L 489.027344 182.761719 L 490.175781 179.464844 L 491.328125 175.980469 L 492.476562 171.953125 L 493.625 167.28125 L 494.777344 161.859375 L 495.925781 155.554688 L 497.074219 148.199219 L 498.226562 141.5625 L 499.375 135.980469 L 500.523438 131.742188 L 501.675781 129.085938 L 502.824219 128.15625 L 503.972656 129.011719 L 505.125 128.59375 L 506.273438 126.890625 L 507.421875 123.824219 L 508.574219 119.265625 L 509.722656 113.019531 L 510.871094 104.800781 L 512.023438 94.222656 L 513.171875 86.023438 L 514.320312 80.769531 L 515.472656 78.828125 L 516.621094 80.339844 L 517.769531 81.027344 L 518.921875 80.894531 L 520.070312 79.945312 L 521.21875 78.160156 L 522.371094 75.984375 L 523.519531 77.648438 L 524.667969 83.023438 L 525.820312 91.6875 L 526.96875 102.996094 L 528.117188 110.703125 L 529.269531 115.40625 L 530.417969 117.457031 L 531.566406 117 L 532.71875 114.011719 L 533.867188 108.261719 L 535.019531 106.085938 L 536.167969 107.695312 L 537.316406 112.933594 L 538.46875 121.296875 L 539.617188 132.019531 L 540.765625 141.46875 L 541.917969 149.804688 L 543.066406 157.171875 L 544.214844 163.691406 L 545.367188 169.46875 L 546.515625 174.589844 L 547.664062 179.140625 L 548.816406 183.1875 L 549.964844 186.789062 L 551.113281 189.996094 L 552.265625 192.859375 L 553.414062 195.417969 L 554.5625 197.707031 L 555.714844 199.753906 L 556.863281 201.59375 L 558.011719 203.296875 L 559.164062 204.871094 L 560.3125 206.324219 L 561.460938 207.664062 L 562.613281 208.902344 L 563.761719 210.039062 L 564.910156 211.082031 L 566.0625 212.039062 L 567.210938 212.914062 L 568.359375 213.710938 L 569.511719 214.441406 L 570.660156 215.105469 L 571.808594 215.710938 L 572.960938 216.261719 L 574.109375 216.757812 L 575.257812 217.09375 L 576.410156 217.296875 L 577.558594 217.390625 L 578.707031 217.382812 L 579.859375 217.269531 L 581.007812 217.042969 L 582.15625 216.683594 L 583.308594 216.152344 L 584.457031 215.402344 L 585.605469 214.34375 L 586.757812 213.152344 L 587.90625 211.820312 L 589.054688 210.351562 L 590.207031 208.742188 L 591.355469 207.007812 L 592.503906 205.160156 L 593.65625 203.210938 L 594.804688 201.183594 L 595.957031 199.105469 L 597.105469 197.003906 L 598.253906 194.914062 L 599.40625 192.867188 L 600.554688 190.90625 L 601.703125 189.070312 L 602.855469 187.390625 L 604.003906 185.910156 L 605.152344 183.871094 L 606.304688 181.191406 L 607.453125 177.746094 L 608.601562 173.375 L 609.753906 167.867188 L 610.902344 162.070312 L 612.050781 156.027344 L 613.203125 149.789062 L 614.351562 143.410156 L 615.5 136.957031 L 616.652344 130.496094 L 617.800781 124.113281 L 618.949219 117.878906 L 620.101562 111.882812 L 621.25 106.210938 L 622.398438 100.941406 L 623.550781 96.160156 L 624.699219 91.949219 L 625.847656 89.402344 L 627 88.628906 L 628.148438 89.660156 L 629.296875 92.453125 L 630.449219 95.027344 L 631.597656 97.394531 L 632.746094 99.558594 L 633.898438 101.535156 "/>
<path style="fill:none;stroke-width:1.066978;stroke-linecap:butt;stroke-linejoin:round;stroke:rgb(72.941176%,86.27451%,25.882353%);stroke-opacity:1;stroke-miterlimit:10;" d="M 461.433594 209.246094 L 462.582031 211.082031 L 463.730469 212.339844 L 464.882812 213.171875 L 466.03125 213.675781 L 467.179688 213.90625 L 468.332031 213.890625 L 469.480469 213.628906 L 470.628906 213.085938 L 471.78125 212.207031 L 472.929688 211.234375 L 474.082031 210.167969 L 475.230469 208.996094 L 476.378906 207.707031 L 477.53125 206.292969 L 478.679688 204.746094 L 479.828125 203.050781 L 480.980469 201.195312 L 482.128906 199.171875 L 483.277344 196.960938 L 484.429688 194.546875 L 485.578125 191.921875 L 486.726562 189.058594 L 487.878906 185.945312 L 489.027344 182.554688 L 490.175781 178.867188 L 491.328125 174.859375 L 492.476562 170.503906 L 493.625 165.777344 L 494.777344 160.648438 L 495.925781 155.089844 L 497.074219 149.070312 L 498.226562 143.488281 L 499.375 138.527344 L 500.523438 134.355469 L 501.675781 131.125 L 502.824219 128.953125 L 503.972656 127.925781 L 505.125 126.21875 L 506.273438 123.785156 L 507.421875 120.578125 L 508.574219 116.515625 L 509.722656 111.511719 L 510.871094 105.441406 L 512.023438 98.15625 L 513.171875 91.613281 L 514.320312 85.976562 L 515.472656 81.390625 L 516.621094 77.980469 L 517.769531 75.75 L 518.921875 74.765625 L 520.070312 75.042969 L 521.21875 76.578125 L 522.371094 79.328125 L 523.519531 83.453125 L 524.667969 88.828125 L 525.820312 95.296875 L 526.96875 102.671875 L 528.117188 107.992188 L 529.269531 111.507812 L 530.417969 113.367188 L 531.566406 113.65625 L 532.71875 112.386719 L 533.867188 109.503906 L 535.019531 109.144531 L 536.167969 111.339844 L 537.316406 115.933594 L 538.46875 122.628906 L 539.617188 130.996094 L 540.765625 140.523438 L 541.917969 148.953125 L 543.066406 156.417969 L 544.214844 163.039062 L 545.367188 168.910156 L 546.515625 174.132812 L 547.664062 178.773438 L 548.816406 182.90625 L 549.964844 186.589844 L 551.113281 189.875 L 552.265625 192.808594 L 553.414062 195.429688 L 554.5625 197.773438 L 555.714844 199.90625 L 556.863281 201.847656 L 558.011719 203.605469 L 559.164062 205.207031 L 560.3125 206.664062 L 561.460938 207.988281 L 562.613281 209.1875 L 563.761719 210.28125 L 564.910156 211.273438 L 566.0625 212.175781 L 567.210938 212.996094 L 568.359375 213.742188 L 569.511719 214.417969 L 570.660156 215.03125 L 571.808594 215.589844 L 572.960938 216.097656 L 574.109375 216.554688 L 575.257812 216.871094 L 576.410156 217.0625 L 577.558594 217.148438 L 578.707031 217.136719 L 579.859375 217.027344 L 581.007812 216.804688 L 582.15625 216.460938 L 583.308594 215.960938 L 584.457031 215.261719 L 585.605469 214.296875 L 586.757812 213.152344 L 587.90625 211.878906 L 589.054688 210.472656 L 590.207031 208.933594 L 591.355469 207.265625 L 592.503906 205.484375 L 593.65625 203.589844 L 594.804688 201.605469 L 595.957031 199.550781 L 597.105469 197.441406 L 598.253906 195.3125 L 599.40625 193.191406 L 600.554688 191.105469 L 601.703125 189.09375 L 602.855469 187.1875 L 604.003906 185.421875 L 605.152344 183.210938 L 606.304688 180.480469 L 607.453125 177.144531 L 608.601562 173.085938 L 609.753906 168.15625 L 610.902344 162.171875 L 612.050781 155.945312 L 613.203125 149.535156 L 614.351562 143.019531 L 615.5 136.46875 L 616.652344 129.980469 L 617.800781 123.636719 L 618.949219 117.539062 L 620.101562 111.78125 L 621.25 106.457031 L 622.398438 101.65625 L 623.550781 97.46875 L 624.699219 93.964844 L 625.847656 91.460938 L 627 90.023438 L 628.148438 89.691406 L 629.296875 90.46875 L 630.449219 92.34375 L 631.597656 95.265625 L 632.746094 99.160156 L 633.898438 103.9375 "/>
<path style="fill:none;stroke-width:1.066978;stroke-linecap:butt;stroke-linejoin:round;stroke:rgb(81.176471%,87.45098%,23.137255%);stroke-opacity:1;stroke-miterlimit:10;" d="M 461.433594 209.953125 L 462.582031 211.328125 L 463.730469 212.304688 L 464.882812 212.96875 L 466.03125 213.386719 L 467.179688 213.585938 L 468.332031 213.585938 L 469.480469 213.386719 L 470.628906 212.972656 L 471.78125 212.304688 L 472.929688 211.332031 L 474.082031 210.257812 L 475.230469 209.078125 L 476.378906 207.78125 L 477.53125 206.355469 L 478.679688 204.789062 L 479.828125 203.078125 L 480.980469 201.203125 L 482.128906 199.15625 L 483.277344 196.921875 L 484.429688 194.480469 L 485.578125 191.824219 L 486.726562 188.929688 L 487.878906 185.785156 L 489.027344 182.371094 L 490.175781 178.667969 L 491.328125 174.652344 L 492.476562 170.308594 L 493.625 165.609375 L 494.777344 160.539062 L 495.925781 155.066406 L 497.074219 149.527344 L 498.226562 144.332031 L 499.375 139.613281 L 500.523438 135.503906 L 501.675781 132.125 L 502.824219 129.574219 L 503.972656 127.925781 L 505.125 125.714844 L 506.273438 122.902344 L 507.421875 119.4375 L 508.574219 115.257812 L 509.722656 110.289062 L 510.871094 104.433594 L 512.023438 97.578125 L 513.171875 91.429688 L 514.320312 86.132812 L 515.472656 81.8125 L 516.621094 78.574219 L 517.769531 76.5 L 518.921875 75.640625 L 520.070312 76.019531 L 521.21875 77.621094 L 522.371094 80.40625 L 523.519531 84.300781 L 524.667969 89.210938 L 525.820312 95.015625 L 526.96875 101.578125 L 528.117188 106.441406 L 529.269531 109.78125 L 530.417969 111.722656 L 531.566406 112.347656 L 532.71875 111.675781 L 533.867188 109.679688 L 535.019531 109.996094 L 536.167969 112.605469 L 537.316406 117.34375 L 538.46875 123.921875 L 539.617188 131.953125 L 540.765625 141 L 541.917969 149.085938 L 543.066406 156.3125 L 544.214844 162.773438 L 545.367188 168.550781 L 546.515625 173.722656 L 547.664062 178.359375 L 548.816406 182.515625 L 549.964844 186.246094 L 551.113281 189.597656 L 552.265625 192.613281 L 553.414062 195.324219 L 554.5625 197.769531 L 555.714844 199.972656 L 556.863281 201.960938 L 558.011719 203.753906 L 559.164062 205.371094 L 560.3125 206.832031 L 561.460938 208.152344 L 562.613281 209.347656 L 563.761719 210.425781 L 564.910156 211.398438 L 566.0625 212.28125 L 567.210938 213.074219 L 568.359375 213.796875 L 569.511719 214.4375 L 570.660156 215.007812 L 571.808594 215.519531 L 572.960938 215.972656 L 574.109375 216.382812 L 575.257812 216.664062 L 576.410156 216.835938 L 577.558594 216.914062 L 578.707031 216.898438 L 579.859375 216.792969 L 581.007812 216.589844 L 582.15625 216.269531 L 583.308594 215.816406 L 584.457031 215.195312 L 585.605469 214.347656 L 586.757812 213.234375 L 587.90625 211.996094 L 589.054688 210.625 L 590.207031 209.125 L 591.355469 207.5 L 592.503906 205.75 L 593.65625 203.886719 L 594.804688 201.925781 L 595.957031 199.878906 L 597.105469 197.769531 L 598.253906 195.617188 L 599.40625 193.449219 L 600.554688 191.292969 L 601.703125 189.183594 L 602.855469 187.148438 L 604.003906 185.222656 L 605.152344 182.875 L 606.304688 180.035156 L 607.453125 176.621094 L 608.601562 172.527344 L 609.753906 167.617188 L 610.902344 161.730469 L 612.050781 155.609375 L 613.203125 149.3125 L 614.351562 142.914062 L 615.5 136.484375 L 616.652344 130.101562 L 617.800781 123.859375 L 618.949219 117.84375 L 620.101562 112.140625 L 621.25 106.847656 L 622.398438 102.042969 L 623.550781 97.816406 L 624.699219 94.238281 L 625.847656 91.65625 L 627 90.136719 L 628.148438 89.722656 L 629.296875 90.425781 L 630.449219 92.226562 L 631.597656 95.078125 L 632.746094 98.914062 L 633.898438 103.636719 "/>
<path style="fill:none;stroke-width:1.066978;stroke-linecap:butt;stroke-linejoin:round;stroke:rgb(88.235294%,88.627451%,20.392157%);stroke-opacity:1;stroke-miterlimit:10;" d="M 461.433594 210.265625 L 462.582031 211.515625 L 463.730469 212.40625 L 464.882812 213.007812 L 466.03125 213.378906 L 467.179688 213.546875 L 468.332031 213.519531 L 469.480469 213.300781 L 470.628906 212.871094 L 471.78125 212.195312 L 472.929688 211.21875 L 474.082031 210.140625 L 475.230469 208.960938 L 476.378906 207.660156 L 477.53125 206.234375 L 478.679688 204.671875 L 479.828125 202.964844 L 480.980469 201.09375 L 482.128906 199.054688 L 483.277344 196.828125 L 484.429688 194.398438 L 485.578125 191.757812 L 486.726562 188.886719 L 487.878906 185.761719 L 489.027344 182.375 L 490.175781 178.703125 L 491.328125 174.722656 L 492.476562 170.414062 L 493.625 165.761719 L 494.777344 160.734375 L 495.925781 155.3125 L 497.074219 150.039062 L 498.226562 145.03125 L 499.375 140.398438 L 500.523438 136.246094 L 501.675781 132.679688 L 502.824219 129.789062 L 503.972656 127.648438 L 505.125 125.046875 L 506.273438 121.949219 L 507.421875 118.316406 L 508.574219 114.089844 L 509.722656 109.214844 L 510.871094 103.617188 L 512.023438 97.210938 L 513.171875 91.476562 L 514.320312 86.542969 L 515.472656 82.515625 L 516.621094 79.492188 L 517.769531 77.539062 L 518.921875 76.703125 L 520.070312 77.003906 L 521.21875 78.429688 L 522.371094 80.949219 L 523.519531 84.503906 L 524.667969 89.003906 L 525.820312 94.355469 L 526.96875 100.441406 L 528.117188 105.054688 L 529.269531 108.355469 L 530.417969 110.445312 L 531.566406 111.386719 L 532.71875 111.21875 L 533.867188 109.929688 L 535.019531 110.773438 L 536.167969 113.699219 L 537.316406 118.539062 L 538.46875 125.023438 L 539.617188 132.804688 L 540.765625 141.492188 L 541.917969 149.308594 L 543.066406 156.335938 L 544.214844 162.65625 L 545.367188 168.339844 L 546.515625 173.457031 L 547.664062 178.0625 L 548.816406 182.210938 L 549.964844 185.953125 L 551.113281 189.328125 L 552.265625 192.371094 L 553.414062 195.121094 L 554.5625 197.601562 L 555.714844 199.847656 L 556.863281 201.875 L 558.011719 203.707031 L 559.164062 205.367188 L 560.3125 206.867188 L 561.460938 208.21875 L 562.613281 209.445312 L 563.761719 210.554688 L 564.910156 211.554688 L 566.0625 212.457031 L 567.210938 213.273438 L 568.359375 214.011719 L 569.511719 214.636719 L 570.660156 215.171875 L 571.808594 215.625 L 572.960938 216.007812 L 574.109375 216.335938 L 575.257812 216.558594 L 576.410156 216.6875 L 577.558594 216.730469 L 578.707031 216.6875 L 579.859375 216.5625 L 581.007812 216.347656 L 582.15625 216.023438 L 583.308594 215.574219 L 584.457031 214.96875 L 585.605469 214.164062 L 586.757812 213.097656 L 587.90625 211.917969 L 589.054688 210.617188 L 590.207031 209.195312 L 591.355469 207.648438 L 592.503906 205.984375 L 593.65625 204.207031 L 594.804688 202.316406 L 595.957031 200.332031 L 597.105469 198.257812 L 598.253906 196.113281 L 599.40625 193.914062 L 600.554688 191.679688 L 601.703125 189.4375 L 602.855469 187.207031 L 604.003906 185.015625 L 605.152344 182.441406 L 606.304688 179.429688 L 607.453125 175.902344 L 608.601562 171.769531 L 609.753906 166.921875 L 610.902344 161.230469 L 612.050781 155.3125 L 613.203125 149.210938 L 614.351562 142.980469 L 615.5 136.6875 L 616.652344 130.394531 L 617.800781 124.179688 L 618.949219 118.117188 L 620.101562 112.375 L 621.25 107.050781 L 622.398438 102.230469 L 623.550781 98.003906 L 624.699219 94.441406 L 625.847656 91.859375 L 627 90.320312 L 628.148438 89.863281 L 629.296875 90.492188 L 630.449219 92.199219 L 631.597656 94.941406 L 632.746094 98.644531 L 633.898438 103.230469 "/>
<path style="fill:none;stroke-width:1.066978;stroke-linecap:butt;stroke-linejoin:round;stroke:rgb(94.117647%,89.803922%,17.254902%);stroke-opacity:1;stroke-miterlimit:10;" d="M 461.433594 210.59375 L 462.582031 211.707031 L 463.730469 212.5 L 464.882812 213.035156 L 466.03125 213.355469 L 467.179688 213.488281 L 468.332031 213.4375 L 469.480469 213.199219 L 470.628906 212.761719 L 471.78125 212.085938 L 472.929688 211.121094 L 474.082031 210.054688 L 475.230469 208.871094 L 476.378906 207.570312 L 477.53125 206.144531 L 478.679688 204.582031 L 479.828125 202.871094 L 480.980469 201 L 482.128906 198.957031 L 483.277344 196.722656 L 484.429688 194.289062 L 485.578125 191.644531 L 486.726562 188.773438 L 487.878906 185.664062 L 489.027344 182.300781 L 490.175781 178.667969 L 491.328125 174.742188 L 492.476562 170.515625 L 493.625 165.96875 L 494.777344 161.082031 L 495.925781 155.835938 L 497.074219 150.695312 L 498.226562 145.757812 L 499.375 141.113281 L 500.523438 136.859375 L 501.675781 133.085938 L 502.824219 129.875 L 503.972656 127.300781 L 505.125 124.359375 L 506.273438 121.015625 L 507.421875 117.234375 L 508.574219 112.980469 L 509.722656 108.203125 L 510.871094 102.855469 L 512.023438 96.875 L 513.171875 91.535156 L 514.320312 86.949219 L 515.472656 83.207031 L 516.621094 80.390625 L 517.769531 78.554688 L 518.921875 77.746094 L 520.070312 77.972656 L 521.21875 79.234375 L 522.371094 81.496094 L 523.519531 84.710938 L 524.667969 88.808594 L 525.820312 93.707031 L 526.96875 99.300781 L 528.117188 103.667969 L 529.269531 106.925781 L 530.417969 109.160156 L 531.566406 110.429688 L 532.71875 110.769531 L 533.867188 110.1875 L 535.019531 111.550781 L 536.167969 114.789062 L 537.316406 119.730469 L 538.46875 126.125 L 539.617188 133.660156 L 540.765625 141.988281 L 541.917969 149.53125 L 543.066406 156.359375 L 544.214844 162.539062 L 545.367188 168.128906 L 546.515625 173.1875 L 547.664062 177.765625 L 548.816406 181.90625 L 549.964844 185.65625 L 551.113281 189.050781 L 552.265625 192.125 L 553.414062 194.914062 L 554.5625 197.4375 L 555.714844 199.722656 L 556.863281 201.792969 L 558.011719 203.667969 L 559.164062 205.363281 L 560.3125 206.902344 L 561.460938 208.289062 L 562.613281 209.546875 L 563.761719 210.679688 L 564.910156 211.707031 L 566.0625 212.632812 L 567.210938 213.46875 L 568.359375 214.222656 L 569.511719 214.832031 L 570.660156 215.328125 L 571.808594 215.730469 L 572.960938 216.050781 L 574.109375 216.296875 L 575.257812 216.460938 L 576.410156 216.542969 L 577.558594 216.546875 L 578.707031 216.480469 L 579.859375 216.332031 L 581.007812 216.097656 L 582.15625 215.765625 L 583.308594 215.316406 L 584.457031 214.722656 L 585.605469 213.949219 L 586.757812 212.945312 L 587.90625 211.835938 L 589.054688 210.617188 L 590.207031 209.28125 L 591.355469 207.832031 L 592.503906 206.257812 L 593.65625 204.566406 L 594.804688 202.753906 L 595.957031 200.828125 L 597.105469 198.785156 L 598.253906 196.636719 L 599.40625 194.390625 L 600.554688 192.054688 L 601.703125 189.640625 L 602.855469 187.164062 L 604.003906 184.640625 L 605.152344 181.796875 L 606.304688 178.589844 L 607.453125 174.960938 L 608.601562 170.851562 L 609.753906 166.191406 L 610.902344 160.894531 L 612.050781 155.34375 L 613.203125 149.558594 L 614.351562 143.570312 L 615.5 137.410156 L 616.652344 131.109375 L 617.800781 124.707031 L 618.949219 118.253906 L 620.101562 112.207031 L 621.25 106.691406 L 622.398438 101.816406 L 623.550781 97.6875 L 624.699219 94.398438 L 625.847656 92.023438 L 627 90.613281 L 628.148438 90.203125 L 629.296875 90.804688 L 630.449219 92.402344 L 631.597656 94.960938 L 632.746094 98.417969 L 633.898438 102.699219 "/>
<path style="fill:none;stroke-width:1.066978;stroke-linecap:butt;stroke-linejoin:round;stroke:rgb(99.215686%,90.588235%,14.509804%);stroke-opacity:1;stroke-miterlimit:10;" d="M 461.433594 211.238281 L 462.582031 211.957031 L 463.730469 212.476562 L 464.882812 212.832031 L 466.03125 213.042969 L 467.179688 213.113281 L 468.332031 213.050781 L 469.480469 212.855469 L 470.628906 212.511719 L 471.78125 212.003906 L 472.929688 211.300781 L 474.082031 210.367188 L 475.230469 209.148438 L 476.378906 207.804688 L 477.53125 206.332031 L 478.679688 204.71875 L 479.828125 202.953125 L 480.980469 201.027344 L 482.128906 198.929688 L 483.277344 196.644531 L 484.429688 194.164062 L 485.578125 191.476562 L 486.726562 188.566406 L 487.878906 185.425781 L 489.027344 182.039062 L 490.175781 178.390625 L 491.328125 174.472656 L 492.476562 170.269531 L 493.625 165.769531 L 494.777344 160.960938 L 495.925781 156.132812 L 497.074219 151.347656 L 498.226562 146.664062 L 499.375 142.152344 L 500.523438 137.882812 L 501.675781 133.917969 L 502.824219 130.320312 L 503.972656 127.152344 L 505.125 123.730469 L 506.273438 120.023438 L 507.421875 116.019531 L 508.574219 111.683594 L 509.722656 107 L 510.871094 101.929688 L 512.023438 96.445312 L 513.171875 91.558594 L 514.320312 87.367188 L 515.472656 83.941406 L 516.621094 81.351562 L 517.769531 79.644531 L 518.921875 78.855469 L 520.070312 79 L 521.21875 80.074219 L 522.371094 82.0625 L 523.519531 84.917969 L 524.667969 88.589844 L 525.820312 93.011719 L 526.96875 98.101562 L 528.117188 102.214844 L 529.269531 105.445312 L 530.417969 107.855469 L 531.566406 109.492188 L 532.71875 110.382812 L 533.867188 110.554688 L 535.019531 112.4375 L 536.167969 115.953125 L 537.316406 120.933594 L 538.46875 127.164062 L 539.617188 134.378906 L 540.765625 142.285156 L 541.917969 149.632812 L 543.066406 156.324219 L 544.214844 162.414062 L 545.367188 167.949219 L 546.515625 172.976562 L 547.664062 177.546875 L 548.816406 181.691406 L 549.964844 185.453125 L 551.113281 188.863281 L 552.265625 191.960938 L 553.414062 194.765625 L 554.5625 197.3125 L 555.714844 199.621094 L 556.863281 201.714844 L 558.011719 203.613281 L 559.164062 205.332031 L 560.3125 206.890625 L 561.460938 208.300781 L 562.613281 209.578125 L 563.761719 210.730469 L 564.910156 211.773438 L 566.0625 212.714844 L 567.210938 213.5625 L 568.359375 214.328125 L 569.511719 214.929688 L 570.660156 215.398438 L 571.808594 215.753906 L 572.960938 216.015625 L 574.109375 216.199219 L 575.257812 216.304688 L 576.410156 216.34375 L 577.558594 216.316406 L 578.707031 216.222656 L 579.859375 216.054688 L 581.007812 215.804688 L 582.15625 215.46875 L 583.308594 215.019531 L 584.457031 214.441406 L 585.605469 213.707031 L 586.757812 212.765625 L 587.90625 211.730469 L 589.054688 210.59375 L 590.207031 209.347656 L 591.355469 207.984375 L 592.503906 206.503906 L 593.65625 204.898438 L 594.804688 203.164062 L 595.957031 201.292969 L 597.105469 199.285156 L 598.253906 197.140625 L 599.40625 194.851562 L 600.554688 192.421875 L 601.703125 189.851562 L 602.855469 187.144531 L 604.003906 184.300781 L 605.152344 181.1875 L 606.304688 177.78125 L 607.453125 174.054688 L 608.601562 169.96875 L 609.753906 165.488281 L 610.902344 160.570312 L 612.050781 155.261719 L 613.203125 149.703125 L 614.351562 143.898438 L 615.5 137.875 L 616.652344 131.644531 L 617.800781 125.230469 L 618.949219 118.664062 L 620.101562 112.507812 L 621.25 106.882812 L 622.398438 101.910156 L 623.550781 97.695312 L 624.699219 94.335938 L 625.847656 91.90625 L 627 90.464844 L 628.148438 90.042969 L 629.296875 90.65625 L 630.449219 92.28125 L 631.597656 94.890625 L 632.746094 98.414062 L 633.898438 102.777344 "/>
<path style="fill:none;stroke-width:1.066978;stroke-linecap:butt;stroke-linejoin:round;stroke:rgb(20%,20%,20%);stroke-opacity:1;stroke-miterlimit:10;" d="M 450.070312 220.960938 L 452.808594 220.960938 "/>
<path style="fill:none;stroke-width:1.066978;stroke-linecap:butt;stroke-linejoin:round;stroke:rgb(20%,20%,20%);stroke-opacity:1;stroke-miterlimit:10;" d="M 450.070312 168.605469 L 452.808594 168.605469 "/>
<path style="fill:none;stroke-width:1.066978;stroke-linecap:butt;stroke-linejoin:round;stroke:rgb(20%,20%,20%);stroke-opacity:1;stroke-miterlimit:10;" d="M 450.070312 116.253906 L 452.808594 116.253906 "/>
<path style="fill:none;stroke-width:1.066978;stroke-linecap:butt;stroke-linejoin:round;stroke:rgb(20%,20%,20%);stroke-opacity:1;stroke-miterlimit:10;" d="M 450.070312 63.902344 L 452.808594 63.902344 "/>
<path style="fill:none;stroke-width:1.066978;stroke-linecap:butt;stroke-linejoin:round;stroke:rgb(20%,20%,20%);stroke-opacity:1;stroke-miterlimit:10;" d="M 450.070312 11.550781 L 452.808594 11.550781 "/>
<path style="fill:none;stroke-width:1.066978;stroke-linecap:butt;stroke-linejoin:round;stroke:rgb(20%,20%,20%);stroke-opacity:1;stroke-miterlimit:10;" d="M 460.28125 233.929688 L 460.28125 231.191406 "/>
<path style="fill:none;stroke-width:1.066978;stroke-linecap:butt;stroke-linejoin:round;stroke:rgb(20%,20%,20%);stroke-opacity:1;stroke-miterlimit:10;" d="M 517.769531 233.929688 L 517.769531 231.191406 "/>
<path style="fill:none;stroke-width:1.066978;stroke-linecap:butt;stroke-linejoin:round;stroke:rgb(20%,20%,20%);stroke-opacity:1;stroke-miterlimit:10;" d="M 575.257812 233.929688 L 575.257812 231.191406 "/>
<path style="fill:none;stroke-width:1.066978;stroke-linecap:butt;stroke-linejoin:round;stroke:rgb(20%,20%,20%);stroke-opacity:1;stroke-miterlimit:10;" d="M 632.746094 233.929688 L 632.746094 231.191406 "/>
</g>
</svg>
