<?xml version="1.0" encoding="UTF-8"?>
<svg xmlns="http://www.w3.org/2000/svg" xmlns:xlink="http://www.w3.org/1999/xlink" width="648pt" height="252pt" viewBox="0 0 648 252" version="1.1">
<defs>
<clipPath id="clip1">
  <path d="M 0 0 L 216 0 L 216 252 L 0 252 Z M 0 0 "/>
</clipPath>
<clipPath id="clip2">
  <path d="M 20.808594 5.480469 L 210.519531 5.480469 L 210.519531 231.191406 L 20.808594 231.191406 Z M 20.808594 5.480469 "/>
</clipPath>
<clipPath id="clip3">
  <path d="M 216 0 L 432 0 L 432 252 L 216 252 Z M 216 0 "/>
</clipPath>
<clipPath id="clip4">
  <path d="M 236.808594 5.480469 L 426.519531 5.480469 L 426.519531 231.191406 L 236.808594 231.191406 Z M 236.808594 5.480469 "/>
</clipPath>
<clipPath id="clip5">
  <path d="M 432 0 L 648 0 L 648 252 L 432 252 Z M 432 0 "/>
</clipPath>
<clipPath id="clip6">
  <path d="M 452.808594 5.480469 L 642.519531 5.480469 L 642.519531 231.191406 L 452.808594 231.191406 Z M 452.808594 5.480469 "/>
</clipPath>
</defs>
<g id="surface39">
<rect x="0" y="0" width="648" height="252" style="fill:rgb(100%,100%,100%);fill-opacity:1;stroke:none;"/>
<path style=" stroke:none;fill-rule:nonzero;fill:rgb(0%,12.941176%,27.058824%);fill-opacity:1;" d="M 0 252 L 216 252 L 216 0 L 0 0 Z M 0 252 "/>
<g clip-path="url(#clip1)" clip-rule="nonzero">
<path style="fill:none;stroke-width:1.066978;stroke-linecap:round;stroke-linejoin:round;stroke:rgb(100%,100%,100%);stroke-opacity:1;stroke-miterlimit:10;" d="M 0 252 L 216 252 L 216 0 L 0 0 Z M 0 252 "/>
</g>
<g clip-path="url(#clip2)" clip-rule="nonzero">
<path style=" stroke:none;fill-rule:nonzero;fill:rgb(0%,12.941176%,27.058824%);fill-opacity:1;" d="M 20.808594 231.191406 L 210.519531 231.191406 L 210.519531 5.480469 L 20.808594 5.480469 Z M 20.808594 231.191406 "/>
</g>
<path style="fill:none;stroke-width:1.066978;stroke-linecap:butt;stroke-linejoin:round;stroke:rgb(26.666667%,0.392157%,32.941176%);stroke-opacity:1;stroke-miterlimit:10;" d="M 29.433594 217.152344 L 48.980469 217.152344 L 50.128906 215.347656 L 52.429688 215.347656 L 53.578125 199.097656 L 54.726562 185.558594 L 60.476562 185.558594 L 61.625 144.941406 L 63.925781 144.941406 L 65.074219 101.617188 L 66.226562 85.371094 L 69.675781 85.371094 L 70.824219 73.183594 L 74.273438 73.183594 L 75.421875 52.875 L 76.574219 39.335938 L 82.320312 39.335938 L 83.472656 31.628906 L 97.269531 31.628906 L 98.417969 36.628906 L 99.566406 69.121094 L 100.71875 69.121094 L 101.867188 105.679688 L 109.917969 105.679688 L 111.066406 150.359375 L 115.664062 150.359375 L 116.816406 155.773438 L 119.113281 155.773438 L 120.265625 182.851562 L 123.714844 182.851562 L 124.863281 199.097656 L 126.011719 220.929688 L 161.65625 220.929688 L 162.804688 215.347656 L 166.253906 215.347656 L 167.40625 204.515625 L 169.703125 204.515625 L 170.855469 166.605469 L 174.304688 166.605469 L 175.453125 148.550781 L 184.652344 148.550781 L 185.800781 93.492188 L 186.949219 93.492188 L 188.101562 52.875 L 189.25 52.875 L 190.398438 48.8125 L 193.847656 48.8125 L 195 15.738281 L 201.898438 15.738281 "/>
<path style="fill:none;stroke-width:1.066978;stroke-linecap:butt;stroke-linejoin:round;stroke:rgb(23.137255%,37.254902%,54.509804%);stroke-opacity:1;stroke-miterlimit:10;" d="M 29.433594 209.15625 L 52.429688 209.15625 L 53.578125 199.097656 L 54.726562 185.558594 L 60.476562 185.558594 L 61.625 144.941406 L 63.925781 144.941406 L 65.074219 101.617188 L 66.226562 85.371094 L 69.675781 85.371094 L 70.824219 73.183594 L 74.273438 73.183594 L 75.421875 52.875 L 76.574219 50.4375 L 98.417969 50.4375 L 99.566406 69.121094 L 100.71875 69.121094 L 101.867188 105.679688 L 109.917969 105.679688 L 111.066406 150.359375 L 115.664062 150.359375 L 116.816406 155.773438 L 119.113281 155.773438 L 120.265625 182.851562 L 123.714844 182.851562 L 124.863281 199.097656 L 126.011719 211.285156 L 166.253906 211.285156 L 167.40625 204.515625 L 169.703125 204.515625 L 170.855469 166.605469 L 174.304688 166.605469 L 175.453125 148.550781 L 184.652344 148.550781 L 185.800781 93.492188 L 186.949219 93.492188 L 188.101562 52.875 L 189.25 52.875 L 190.398438 48.8125 L 193.847656 48.8125 L 195 38.949219 L 201.898438 38.949219 "/>
<path style="fill:none;stroke-width:1.066978;stroke-linecap:butt;stroke-linejoin:round;stroke:rgb(17.254902%,54.117647%,54.509804%);stroke-opacity:1;stroke-miterlimit:10;" d="M 29.433594 201.417969 L 52.429688 201.417969 L 53.578125 199.097656 L 54.726562 185.558594 L 60.476562 185.558594 L 61.625 144.941406 L 63.925781 144.941406 L 65.074219 101.617188 L 66.226562 85.371094 L 69.675781 85.371094 L 70.824219 73.183594 L 74.273438 73.183594 L 75.421875 66.027344 L 98.417969 66.027344 L 99.566406 69.121094 L 100.71875 69.121094 L 101.867188 105.679688 L 109.917969 105.679688 L 111.066406 150.359375 L 115.664062 150.359375 L 116.816406 155.773438 L 119.113281 155.773438 L 120.265625 182.851562 L 123.714844 182.851562 L 124.863281 199.097656 L 126.011719 202.429688 L 169.703125 202.429688 L 170.855469 166.605469 L 174.304688 166.605469 L 175.453125 148.550781 L 184.652344 148.550781 L 185.800781 93.492188 L 186.949219 93.492188 L 188.101562 56.625 L 201.898438 56.625 "/>
<path style="fill:none;stroke-width:1.066978;stroke-linecap:butt;stroke-linejoin:round;stroke:rgb(14.117647%,65.882353%,51.764706%);stroke-opacity:1;stroke-miterlimit:10;" d="M 29.433594 193.929688 L 53.578125 193.929688 L 54.726562 185.558594 L 60.476562 185.558594 L 61.625 144.941406 L 63.925781 144.941406 L 65.074219 101.617188 L 66.226562 85.371094 L 69.675781 85.371094 L 70.824219 79.351562 L 100.71875 79.351562 L 101.867188 105.679688 L 109.917969 105.679688 L 111.066406 150.359375 L 115.664062 150.359375 L 116.816406 155.773438 L 119.113281 155.773438 L 120.265625 182.851562 L 123.714844 182.851562 L 124.863281 194.226562 L 169.703125 194.226562 L 170.855469 166.605469 L 174.304688 166.605469 L 175.453125 148.550781 L 184.652344 148.550781 L 185.800781 93.492188 L 186.949219 93.492188 L 188.101562 69.121094 L 201.898438 69.121094 "/>
<path style="fill:none;stroke-width:1.066978;stroke-linecap:butt;stroke-linejoin:round;stroke:rgb(34.901961%,73.72549%,42.745098%);stroke-opacity:1;stroke-miterlimit:10;" d="M 29.433594 186.542969 L 53.578125 186.542969 L 54.726562 185.558594 L 60.476562 185.558594 L 61.625 144.941406 L 63.925781 144.941406 L 65.074219 101.617188 L 66.226562 90.609375 L 100.71875 90.609375 L 101.867188 105.679688 L 109.917969 105.679688 L 111.066406 150.359375 L 115.664062 150.359375 L 116.816406 155.773438 L 119.113281 155.773438 L 120.265625 182.851562 L 123.714844 182.851562 L 124.863281 186.101562 L 169.703125 186.101562 L 170.855469 166.605469 L 174.304688 166.605469 L 175.453125 148.550781 L 184.652344 148.550781 L 185.800781 93.492188 L 186.949219 93.492188 L 188.101562 81.621094 L 201.898438 81.621094 "/>
<path style="fill:none;stroke-width:1.066978;stroke-linecap:butt;stroke-linejoin:round;stroke:rgb(45.490196%,80%,34.509804%);stroke-opacity:1;stroke-miterlimit:10;" d="M 29.433594 180.53125 L 60.476562 180.53125 L 61.625 144.941406 L 63.925781 144.941406 L 65.074219 101.617188 L 66.226562 101.09375 L 100.71875 101.09375 L 101.867188 105.679688 L 109.917969 105.679688 L 111.066406 150.359375 L 115.664062 150.359375 L 116.816406 155.773438 L 119.113281 155.773438 L 120.265625 178.421875 L 169.703125 178.421875 L 170.855469 166.605469 L 174.304688 166.605469 L 175.453125 148.550781 L 184.652344 148.550781 L 185.800781 94.035156 L 201.898438 94.035156 "/>
<path style="fill:none;stroke-width:1.066978;stroke-linecap:butt;stroke-linejoin:round;stroke:rgb(61.176471%,84.313725%,29.019608%);stroke-opacity:1;stroke-miterlimit:10;" d="M 29.433594 174.726562 L 60.476562 174.726562 L 61.625 144.941406 L 63.925781 144.941406 L 65.074219 110.144531 L 109.917969 110.144531 L 111.066406 150.359375 L 115.664062 150.359375 L 116.816406 155.773438 L 119.113281 155.773438 L 120.265625 171.035156 L 169.703125 171.035156 L 170.855469 166.605469 L 174.304688 166.605469 L 175.453125 148.550781 L 184.652344 148.550781 L 185.800781 104.867188 L 201.898438 104.867188 "/>
<path style="fill:none;stroke-width:1.066978;stroke-linecap:butt;stroke-linejoin:round;stroke:rgb(76.078431%,86.666667%,24.705882%);stroke-opacity:1;stroke-miterlimit:10;" d="M 29.433594 168.925781 L 60.476562 168.925781 L 61.625 144.941406 L 63.925781 144.941406 L 65.074219 118.269531 L 109.917969 118.269531 L 111.066406 150.359375 L 115.664062 150.359375 L 116.816406 155.773438 L 119.113281 155.773438 L 120.265625 163.898438 L 174.304688 163.898438 L 175.453125 148.550781 L 184.652344 148.550781 L 185.800781 115.695312 L 201.898438 115.695312 "/>
<path style="fill:none;stroke-width:1.066978;stroke-linecap:butt;stroke-linejoin:round;stroke:rgb(88.627451%,89.019608%,20%);stroke-opacity:1;stroke-miterlimit:10;" d="M 29.433594 163.125 L 60.476562 163.125 L 61.625 144.941406 L 63.925781 144.941406 L 65.074219 126.394531 L 109.917969 126.394531 L 111.066406 150.359375 L 115.664062 150.359375 L 116.816406 155.773438 L 119.113281 155.773438 L 120.265625 157.128906 L 174.304688 157.128906 L 175.453125 148.550781 L 184.652344 148.550781 L 185.800781 126.527344 L 201.898438 126.527344 "/>
<path style="fill:none;stroke-width:1.066978;stroke-linecap:butt;stroke-linejoin:round;stroke:rgb(99.215686%,90.588235%,14.509804%);stroke-opacity:1;stroke-miterlimit:10;" d="M 29.433594 157.320312 L 60.476562 157.320312 L 61.625 144.941406 L 63.925781 144.941406 L 65.074219 134.515625 L 109.917969 134.515625 L 111.066406 150.359375 L 115.664062 150.359375 L 116.816406 150.675781 L 174.304688 150.675781 L 175.453125 148.550781 L 184.652344 148.550781 L 185.800781 137.359375 L 201.898438 137.359375 "/>
<path style="fill:none;stroke-width:1.066978;stroke-linecap:butt;stroke-linejoin:round;stroke:rgb(20%,20%,20%);stroke-opacity:1;stroke-miterlimit:10;" d="M 18.070312 166.605469 L 20.808594 166.605469 "/>
<path style="fill:none;stroke-width:1.066978;stroke-linecap:butt;stroke-linejoin:round;stroke:rgb(20%,20%,20%);stroke-opacity:1;stroke-miterlimit:10;" d="M 18.070312 85.371094 L 20.808594 85.371094 "/>
<path style="fill:none;stroke-width:1.066978;stroke-linecap:butt;stroke-linejoin:round;stroke:rgb(20%,20%,20%);stroke-opacity:1;stroke-miterlimit:10;" d="M 28.28125 233.929688 L 28.28125 231.191406 "/>
<path style="fill:none;stroke-width:1.066978;stroke-linecap:butt;stroke-linejoin:round;stroke:rgb(20%,20%,20%);stroke-opacity:1;stroke-miterlimit:10;" d="M 85.769531 233.929688 L 85.769531 231.191406 "/>
<path style="fill:none;stroke-width:1.066978;stroke-linecap:butt;stroke-linejoin:round;stroke:rgb(20%,20%,20%);stroke-opacity:1;stroke-miterlimit:10;" d="M 143.257812 233.929688 L 143.257812 231.191406 "/>
<path style="fill:none;stroke-width:1.066978;stroke-linecap:butt;stroke-linejoin:round;stroke:rgb(20%,20%,20%);stroke-opacity:1;stroke-miterlimit:10;" d="M 200.746094 233.929688 L 200.746094 231.191406 "/>
<path style=" stroke:none;fill-rule:nonzero;fill:rgb(0%,12.941176%,27.058824%);fill-opacity:1;" d="M 216 252 L 432 252 L 432 0 L 216 0 Z M 216 252 "/>
<g clip-path="url(#clip3)" clip-rule="nonzero">
<path style="fill:none;stroke-width:1.066978;stroke-linecap:round;stroke-linejoin:round;stroke:rgb(100%,100%,100%);stroke-opacity:1;stroke-miterlimit:10;" d="M 216 252 L 432 252 L 432 0 L 216 0 Z M 216 252 "/>
</g>
<g clip-path="url(#clip4)" clip-rule="nonzero">
<path style=" stroke:none;fill-rule:nonzero;fill:rgb(0%,12.941176%,27.058824%);fill-opacity:1;" d="M 236.808594 231.191406 L 426.519531 231.191406 L 426.519531 5.480469 L 236.808594 5.480469 Z M 236.808594 231.191406 "/>
</g>
<path style="fill:none;stroke-width:1.066978;stroke-linecap:butt;stroke-linejoin:round;stroke:rgb(26.666667%,0.392157%,32.941176%);stroke-opacity:1;stroke-miterlimit:10;" d="M 245.433594 213.894531 L 246.582031 219.929688 L 247.730469 214.902344 L 248.882812 204.84375 L 250.03125 219.652344 L 251.179688 213.441406 L 252.332031 195.511719 L 253.480469 210.878906 L 254.628906 210.878906 L 255.78125 206.855469 L 256.929688 208.867188 L 258.082031 195.375 L 259.230469 203.660156 L 260.378906 209.457031 L 261.53125 196.796875 L 262.679688 218.925781 L 263.828125 215.648438 L 264.980469 211.394531 L 266.128906 204.664062 L 267.277344 202.671875 L 268.429688 200.464844 L 269.578125 193.640625 L 270.726562 184.757812 L 271.878906 179.769531 L 273.027344 174.125 L 274.175781 174.667969 L 275.328125 190.761719 L 276.476562 200.820312 L 277.625 144.488281 L 278.777344 154.550781 L 279.925781 178.691406 L 281.074219 134.429688 L 282.226562 113.175781 L 283.375 122.628906 L 284.523438 131.28125 L 285.675781 120.347656 L 286.824219 96.207031 L 287.972656 128.394531 L 289.125 116.324219 L 290.273438 120.347656 L 291.421875 100.230469 L 292.574219 45.914062 L 293.722656 110.289062 L 294.871094 90.171875 L 296.023438 64.019531 L 297.171875 104.253906 L 298.320312 148.511719 L 299.472656 55.972656 L 300.621094 98.21875 L 301.769531 15.738281 L 302.921875 59.996094 L 304.070312 82.125 L 305.21875 80.113281 L 306.371094 66.03125 L 307.519531 100.230469 L 308.667969 120.347656 L 309.820312 64.019531 L 310.96875 43.902344 L 312.117188 98.21875 L 313.269531 74.078125 L 314.417969 94.195312 L 315.566406 118.335938 L 316.71875 106.265625 L 317.867188 139.441406 L 319.019531 142.515625 L 320.167969 145.476562 L 321.316406 148.511719 L 322.46875 116.324219 L 323.617188 150.324219 L 324.765625 130.8125 L 325.917969 106.0625 L 327.066406 178.691406 L 328.214844 166.621094 L 329.367188 178.691406 L 330.515625 126.382812 L 331.664062 160.585938 L 332.816406 180.703125 L 333.964844 154.550781 L 335.113281 164.609375 L 336.265625 188.75 L 337.414062 186.738281 L 338.5625 198.808594 L 339.714844 155.269531 L 340.863281 193.34375 L 342.011719 209.992188 L 343.164062 216.101562 L 344.3125 219.332031 L 345.460938 196.796875 L 346.613281 218.925781 L 347.761719 196.796875 L 348.910156 210.878906 L 350.0625 210.878906 L 351.210938 196.796875 L 352.359375 219.074219 L 353.511719 214.605469 L 354.660156 204.988281 L 355.808594 218.925781 L 356.960938 216.914062 L 358.109375 218.925781 L 359.257812 216.914062 L 360.410156 218.925781 L 361.558594 216.914062 L 362.707031 218.925781 L 363.859375 206.855469 L 365.007812 218.925781 L 366.15625 216.914062 L 367.308594 220.929688 L 368.457031 220.929688 L 369.605469 214.902344 L 370.757812 204.84375 L 371.90625 208.867188 L 373.054688 204.84375 L 374.207031 204.84375 L 375.355469 210.878906 L 376.503906 212.890625 L 377.65625 210.878906 L 378.804688 205.179688 L 379.957031 203.699219 L 381.105469 202.089844 L 382.253906 200.351562 L 383.40625 184.726562 L 384.554688 194.785156 L 385.703125 208.867188 L 386.855469 165.820312 L 388.003906 170.640625 L 389.152344 175.054688 L 390.304688 179.101562 L 391.453125 154.550781 L 392.601562 134.429688 L 393.753906 158.574219 L 394.902344 156.5625 L 396.050781 168.632812 L 397.203125 146.5 L 398.351562 208.867188 L 399.5 146.5 L 400.652344 178.691406 L 401.800781 116.324219 L 402.949219 138.453125 L 404.101562 106.265625 L 405.25 98.21875 L 406.398438 66.03125 L 407.550781 128.394531 L 408.699219 106.265625 L 409.847656 98.21875 L 411 33.84375 L 412.148438 23.785156 L 413.296875 90.171875 L 414.449219 90.171875 L 415.597656 15.738281 L 416.746094 119.34375 L 417.898438 83.132812 "/>
<path style="fill:none;stroke-width:1.066978;stroke-linecap:butt;stroke-linejoin:round;stroke:rgb(13.72549%,65.098039%,51.764706%);stroke-opacity:1;stroke-miterlimit:10;" d="M 245.433594 215.164062 L 246.582031 214.371094 L 247.730469 213.496094 L 248.882812 212.535156 L 250.03125 211.472656 L 251.179688 210.304688 L 252.332031 209.019531 L 253.480469 208.417969 L 254.628906 207.792969 L 255.78125 207.144531 L 256.929688 206.464844 L 258.082031 205.753906 L 259.230469 206.261719 L 260.378906 206.753906 L 261.53125 207.234375 L 262.679688 207.699219 L 263.828125 208.148438 L 264.980469 206.152344 L 266.128906 203.882812 L 267.277344 201.308594 L 268.429688 198.390625 L 269.578125 195.074219 L 270.726562 191.3125 L 271.878906 187.042969 L 273.027344 184.054688 L 274.175781 180.820312 L 275.328125 177.3125 L 276.476562 173.515625 L 277.625 166.972656 L 278.777344 159.566406 L 279.925781 151.179688 L 281.074219 141.679688 L 282.226562 130.925781 L 283.375 127.480469 L 284.523438 123.90625 L 285.675781 120.199219 L 286.824219 116.351562 L 287.972656 112.363281 L 289.125 108.222656 L 290.273438 103.054688 L 291.421875 94.363281 L 292.574219 85.042969 L 293.722656 88.507812 L 294.871094 91.886719 L 296.023438 95.179688 L 297.171875 98.660156 L 298.320312 102.042969 L 299.472656 87.632812 L 300.621094 71.503906 L 301.769531 53.453125 L 302.921875 60.917969 L 304.070312 68.054688 L 305.21875 74.875 L 306.371094 81.398438 L 307.519531 87.632812 L 308.667969 90.347656 L 309.820312 79.539062 L 310.96875 67.847656 L 312.117188 79.292969 L 313.269531 89.890625 L 314.417969 100.429688 L 315.566406 110.132812 L 316.71875 119.070312 L 317.867188 127.300781 L 319.019531 134.875 L 320.167969 136.296875 L 321.316406 137.691406 L 322.46875 139.066406 L 323.617188 140.414062 L 324.765625 141.746094 L 325.917969 143.054688 L 327.066406 147.449219 L 328.214844 151.601562 L 329.367188 155.527344 L 330.515625 159.234375 L 331.664062 162.738281 L 332.816406 166.050781 L 333.964844 169.183594 L 335.113281 173.800781 L 336.265625 178.019531 L 337.414062 181.878906 L 338.5625 185.40625 L 339.714844 188.632812 L 340.863281 195.207031 L 342.011719 200.523438 L 343.164062 204.824219 L 344.3125 206.171875 L 345.460938 207.210938 L 346.613281 208.1875 L 347.761719 209.101562 L 348.910156 209.960938 L 350.0625 210.769531 L 351.210938 211.523438 L 352.359375 212.339844 L 353.511719 213.097656 L 354.660156 213.800781 L 355.808594 214.453125 L 356.960938 215.0625 L 358.109375 215.625 L 359.257812 216.148438 L 360.410156 216.632812 L 361.558594 216.441406 L 362.707031 216.246094 L 363.859375 216.042969 L 365.007812 215.835938 L 366.15625 215.621094 L 367.308594 215.398438 L 368.457031 214.722656 L 369.605469 213.988281 L 370.757812 213.183594 L 371.90625 212.3125 L 373.054688 211.359375 L 374.207031 210.324219 L 375.355469 209.191406 L 376.503906 207.960938 L 377.65625 206.621094 L 378.804688 204.777344 L 379.957031 202.722656 L 381.105469 200.4375 L 382.253906 197.65625 L 383.40625 194.53125 L 384.554688 191.019531 L 385.703125 187.074219 L 386.855469 182.640625 L 388.003906 177.660156 L 389.152344 172.066406 L 390.304688 165.777344 L 391.453125 158.714844 L 392.601562 150.78125 L 393.753906 155.386719 L 394.902344 159.695312 L 396.050781 163.734375 L 397.203125 167.511719 L 398.351562 171.046875 L 399.5 162.652344 L 400.652344 152.902344 L 401.800781 141.574219 L 402.949219 128.410156 L 404.101562 113.121094 L 405.25 105.117188 L 406.398438 99.914062 L 407.550781 94.480469 L 408.699219 88.808594 L 409.847656 77.828125 L 411 65.953125 L 412.148438 53.101562 L 413.296875 59.648438 L 414.449219 65.945312 L 415.597656 71.996094 L 416.746094 81.722656 L 417.898438 90.820312 "/>
<path style="fill:none;stroke-width:1.066978;stroke-linecap:butt;stroke-linejoin:round;stroke:rgb(38.039216%,75.294118%,40.784314%);stroke-opacity:1;stroke-miterlimit:10;" d="M 245.433594 213.410156 L 246.582031 212.96875 L 247.730469 212.507812 L 248.882812 212.023438 L 250.03125 211.515625 L 251.179688 210.988281 L 252.332031 210.433594 L 253.480469 209.988281 L 254.628906 209.527344 L 255.78125 209.050781 L 256.929688 208.558594 L 258.082031 208.046875 L 259.230469 207.515625 L 260.378906 206.964844 L 261.53125 206.398438 L 262.679688 205.808594 L 263.828125 205.199219 L 264.980469 204.570312 L 266.128906 202.53125 L 267.277344 200.265625 L 268.429688 197.746094 L 269.578125 194.953125 L 270.726562 191.84375 L 271.878906 188.394531 L 273.027344 184.558594 L 274.175781 180.300781 L 275.328125 175.570312 L 276.476562 170.3125 L 277.625 164.472656 L 278.777344 157.984375 L 279.925781 150.777344 L 281.074219 142.769531 L 282.226562 133.875 L 283.375 129.972656 L 284.523438 125.898438 L 285.675781 121.644531 L 286.824219 117.207031 L 287.972656 112.574219 L 289.125 107.734375 L 290.273438 102.683594 L 291.421875 97.414062 L 292.574219 91.910156 L 294.871094 90.988281 L 296.023438 90.523438 L 298.320312 89.59375 L 299.472656 82.804688 L 300.621094 75.667969 L 301.769531 68.167969 L 302.921875 69.871094 L 304.070312 71.554688 L 305.21875 73.21875 L 306.371094 74.867188 L 307.519531 76.492188 L 308.667969 78.105469 L 309.820312 79.695312 L 310.96875 81.273438 L 312.117188 88.242188 L 313.269531 94.871094 L 314.417969 102.507812 L 315.566406 109.683594 L 316.71875 116.4375 L 317.867188 122.785156 L 319.019531 128.757812 L 320.167969 131.988281 L 321.316406 135.105469 L 322.46875 138.117188 L 323.617188 141.027344 L 324.765625 143.835938 L 325.917969 146.546875 L 327.066406 150.007812 L 328.214844 153.316406 L 329.367188 156.46875 L 330.515625 159.484375 L 331.664062 162.359375 L 332.816406 165.109375 L 333.964844 167.730469 L 335.113281 173.949219 L 336.265625 179.464844 L 337.414062 184.363281 L 338.5625 188.707031 L 339.714844 192.5625 L 340.863281 195.984375 L 342.011719 199.019531 L 343.164062 201.710938 L 344.3125 204.101562 L 345.460938 205.558594 L 346.613281 206.902344 L 347.761719 208.140625 L 348.910156 209.285156 L 350.0625 210.339844 L 351.210938 211.316406 L 352.359375 212.214844 L 353.511719 213.042969 L 354.660156 213.808594 L 355.808594 214.515625 L 356.960938 215.167969 L 358.109375 215.769531 L 359.257812 216.324219 L 360.410156 216.835938 L 361.558594 216.628906 L 362.707031 216.417969 L 363.859375 216.199219 L 365.007812 215.972656 L 366.15625 215.738281 L 367.308594 215.5 L 368.457031 214.777344 L 369.605469 213.988281 L 370.757812 213.121094 L 371.90625 212.171875 L 373.054688 211.128906 L 374.207031 209.984375 L 375.355469 208.730469 L 376.503906 207.355469 L 377.65625 205.847656 L 378.804688 203.953125 L 379.957031 201.84375 L 381.105469 199.503906 L 382.253906 196.902344 L 383.40625 194.015625 L 384.554688 190.804688 L 385.703125 187.242188 L 386.855469 183.277344 L 388.003906 178.878906 L 389.152344 173.988281 L 390.304688 168.558594 L 391.453125 162.523438 L 392.601562 155.816406 L 393.753906 157.613281 L 394.902344 159.359375 L 396.050781 161.0625 L 397.203125 162.71875 L 398.351562 164.328125 L 399.5 157.425781 L 400.652344 149.707031 L 401.800781 141.082031 L 402.949219 131.441406 L 404.101562 120.664062 L 405.25 108.617188 L 406.398438 101.203125 L 407.550781 93.308594 L 408.699219 84.90625 L 409.847656 75.953125 L 411 66.425781 L 412.148438 56.277344 L 413.296875 62.480469 L 414.449219 68.453125 L 415.597656 74.203125 L 416.746094 79.738281 L 417.898438 85.070312 "/>
<path style="fill:none;stroke-width:1.066978;stroke-linecap:butt;stroke-linejoin:round;stroke:rgb(47.058824%,81.568627%,32.54902%);stroke-opacity:1;stroke-miterlimit:10;" d="M 245.433594 213.460938 L 246.582031 213.066406 L 247.730469 212.652344 L 248.882812 212.21875 L 250.03125 211.769531 L 251.179688 211.300781 L 252.332031 210.8125 L 253.480469 210.304688 L 254.628906 209.773438 L 255.78125 209.21875 L 256.929688 208.644531 L 258.082031 208.046875 L 259.230469 207.421875 L 260.378906 206.769531 L 261.53125 206.089844 L 262.679688 205.382812 L 263.828125 204.648438 L 264.980469 203.882812 L 266.128906 201.84375 L 267.277344 199.589844 L 268.429688 197.09375 L 269.578125 194.332031 L 270.726562 191.273438 L 271.878906 187.890625 L 273.027344 184.144531 L 274.175781 180 L 275.328125 175.410156 L 276.476562 170.332031 L 277.625 164.710938 L 278.777344 158.488281 L 279.925781 151.601562 L 281.074219 143.980469 L 282.226562 135.542969 L 283.375 128.855469 L 284.523438 125.214844 L 285.675781 121.433594 L 286.824219 117.503906 L 287.972656 113.421875 L 289.125 109.183594 L 290.273438 104.78125 L 291.421875 100.207031 L 292.574219 95.457031 L 293.722656 92.75 L 294.871094 89.984375 L 296.023438 87.160156 L 297.171875 84.273438 L 298.320312 81.328125 L 299.472656 78.320312 L 300.621094 75.25 L 301.769531 72.113281 L 302.921875 73.363281 L 304.070312 74.605469 L 305.21875 75.835938 L 306.371094 77.054688 L 307.519531 78.265625 L 308.667969 79.464844 L 309.820312 80.652344 L 310.96875 81.832031 L 312.117188 89.003906 L 313.269531 95.804688 L 314.417969 102.265625 L 315.566406 108.394531 L 316.71875 114.214844 L 317.867188 119.738281 L 319.019531 124.980469 L 320.167969 129.277344 L 321.316406 133.378906 L 322.46875 137.304688 L 323.617188 141.058594 L 324.765625 144.648438 L 325.917969 148.078125 L 327.066406 151.359375 L 328.214844 154.496094 L 329.367188 157.496094 L 330.515625 160.363281 L 331.664062 163.578125 L 332.816406 166.625 L 333.964844 169.515625 L 335.113281 175.097656 L 336.265625 180.09375 L 337.414062 184.570312 L 338.5625 188.582031 L 339.714844 192.171875 L 340.863281 195.386719 L 342.011719 198.265625 L 343.164062 200.84375 L 344.3125 203.152344 L 345.460938 204.777344 L 346.613281 206.269531 L 347.761719 207.640625 L 348.910156 208.898438 L 350.0625 210.050781 L 351.210938 211.109375 L 352.359375 212.082031 L 353.511719 212.976562 L 354.660156 213.796875 L 355.808594 214.546875 L 356.960938 215.238281 L 358.109375 215.871094 L 359.257812 216.453125 L 360.410156 216.984375 L 361.558594 216.757812 L 362.707031 216.519531 L 363.859375 216.273438 L 365.007812 216.019531 L 366.15625 215.753906 L 367.308594 215.480469 L 368.457031 214.71875 L 369.605469 213.878906 L 370.757812 212.957031 L 371.90625 211.9375 L 373.054688 210.816406 L 374.207031 209.582031 L 375.355469 208.21875 L 376.503906 206.71875 L 377.65625 205.066406 L 378.804688 203.242188 L 379.957031 201.234375 L 381.105469 199.023438 L 382.253906 196.585938 L 383.40625 193.902344 L 384.554688 190.941406 L 385.703125 187.683594 L 386.855469 184.089844 L 388.003906 180.132812 L 389.152344 175.773438 L 390.304688 170.96875 L 391.453125 165.675781 L 392.601562 159.84375 L 393.753906 159.640625 L 394.902344 159.4375 L 396.050781 159.230469 L 397.203125 159.023438 L 398.351562 158.816406 L 399.5 152.773438 L 400.652344 146.160156 L 401.800781 138.925781 L 402.949219 131.011719 L 404.101562 122.347656 L 405.25 112.867188 L 406.398438 103.664062 L 407.550781 95.488281 L 408.699219 86.75 L 409.847656 77.414062 L 411 67.4375 L 412.148438 57.511719 L 413.296875 62.890625 L 414.449219 68.097656 L 415.597656 73.128906 L 416.746094 78 L 417.898438 82.714844 "/>
<path style="fill:none;stroke-width:1.066978;stroke-linecap:butt;stroke-linejoin:round;stroke:rgb(61.960784%,84.313725%,28.627451%);stroke-opacity:1;stroke-miterlimit:10;" d="M 245.433594 213.804688 L 246.582031 213.382812 L 247.730469 212.941406 L 248.882812 212.480469 L 250.03125 211.996094 L 251.179688 211.492188 L 252.332031 210.964844 L 253.480469 210.410156 L 254.628906 209.832031 L 255.78125 209.226562 L 256.929688 208.59375 L 258.082031 207.933594 L 259.230469 207.238281 L 260.378906 206.515625 L 261.53125 205.757812 L 262.679688 204.964844 L 263.828125 204.132812 L 264.980469 203.265625 L 266.128906 201.234375 L 267.277344 198.996094 L 268.429688 196.523438 L 269.578125 193.796875 L 270.726562 190.789062 L 271.878906 187.472656 L 273.027344 183.8125 L 274.175781 179.773438 L 275.328125 175.320312 L 276.476562 170.40625 L 277.625 164.988281 L 278.777344 159.007812 L 279.925781 152.410156 L 281.074219 145.132812 L 282.226562 137.105469 L 283.375 128.824219 L 284.523438 125.195312 L 285.675781 121.425781 L 286.824219 117.511719 L 287.972656 113.445312 L 289.125 109.222656 L 290.273438 104.839844 L 291.421875 100.285156 L 292.574219 95.558594 L 293.722656 92.796875 L 294.871094 89.972656 L 296.023438 87.089844 L 297.171875 84.144531 L 298.320312 81.136719 L 299.472656 78.0625 L 300.621094 74.921875 L 301.769531 71.710938 L 302.921875 73.207031 L 304.070312 74.6875 L 305.21875 76.152344 L 306.371094 77.601562 L 307.519531 79.039062 L 308.667969 80.460938 L 309.820312 81.871094 L 310.96875 83.265625 L 312.117188 89.820312 L 313.269531 96.066406 L 314.417969 102.019531 L 315.566406 107.695312 L 316.71875 113.105469 L 317.867188 118.257812 L 319.019531 123.171875 L 320.167969 127.855469 L 321.316406 132.316406 L 322.46875 136.570312 L 323.617188 140.625 L 324.765625 144.488281 L 325.917969 148.167969 L 327.066406 151.679688 L 328.214844 155.023438 L 329.367188 158.210938 L 330.515625 161.25 L 331.664062 164.882812 L 332.816406 168.304688 L 333.964844 171.523438 L 335.113281 176.4375 L 336.265625 180.882812 L 337.414062 184.902344 L 338.5625 188.535156 L 339.714844 191.824219 L 340.863281 194.796875 L 342.011719 197.488281 L 343.164062 199.921875 L 344.3125 202.121094 L 345.460938 203.941406 L 346.613281 205.605469 L 347.761719 207.121094 L 348.910156 208.507812 L 350.0625 209.769531 L 351.210938 210.921875 L 352.359375 211.972656 L 353.511719 212.933594 L 354.660156 213.808594 L 355.808594 214.609375 L 356.960938 215.339844 L 358.109375 216.003906 L 359.257812 216.613281 L 360.410156 217.164062 L 361.558594 216.875 L 362.707031 216.574219 L 363.859375 216.253906 L 365.007812 215.917969 L 366.15625 215.566406 L 367.308594 215.195312 L 368.457031 214.429688 L 369.605469 213.589844 L 370.757812 212.664062 L 371.90625 211.648438 L 373.054688 210.535156 L 374.207031 209.308594 L 375.355469 207.960938 L 376.503906 206.480469 L 377.65625 204.855469 L 378.804688 203.066406 L 379.957031 201.105469 L 381.105469 198.945312 L 382.253906 196.574219 L 383.40625 193.972656 L 384.554688 191.109375 L 385.703125 187.964844 L 386.855469 184.507812 L 388.003906 180.710938 L 389.152344 176.539062 L 390.304688 171.957031 L 391.453125 166.917969 L 392.601562 164.910156 L 393.753906 162.828125 L 394.902344 160.671875 L 396.050781 158.4375 L 397.203125 156.121094 L 398.351562 153.722656 L 399.5 148.410156 L 400.652344 142.6875 L 401.800781 136.527344 L 402.949219 129.894531 L 404.101562 122.75 L 405.25 115.058594 L 406.398438 106.777344 L 407.550781 97.859375 L 408.699219 88.257812 L 409.847656 77.917969 L 411 66.785156 L 412.148438 60.816406 L 413.296875 64.773438 L 414.449219 68.632812 L 415.597656 72.398438 L 416.746094 76.074219 L 417.898438 79.65625 "/>
<path style="fill:none;stroke-width:1.066978;stroke-linecap:butt;stroke-linejoin:round;stroke:rgb(72.941176%,86.27451%,25.882353%);stroke-opacity:1;stroke-miterlimit:10;" d="M 245.433594 214.117188 L 246.582031 213.675781 L 247.730469 213.214844 L 248.882812 212.726562 L 250.03125 212.21875 L 251.179688 211.679688 L 252.332031 211.117188 L 253.480469 210.527344 L 254.628906 209.90625 L 255.78125 209.253906 L 256.929688 208.570312 L 258.082031 207.851562 L 259.230469 207.097656 L 260.378906 206.304688 L 261.53125 205.476562 L 262.679688 204.601562 L 263.828125 203.6875 L 264.980469 202.722656 L 266.128906 200.691406 L 267.277344 198.457031 L 268.429688 196 L 269.578125 193.292969 L 270.726562 190.316406 L 271.878906 187.042969 L 273.027344 183.4375 L 274.175781 179.472656 L 275.328125 175.105469 L 276.476562 170.304688 L 277.625 165.019531 L 278.777344 159.203125 L 279.925781 152.804688 L 281.074219 145.761719 L 282.226562 138.011719 L 283.375 129.484375 L 284.523438 125.777344 L 285.675781 121.921875 L 286.824219 117.914062 L 287.972656 113.746094 L 289.125 109.414062 L 290.273438 104.910156 L 291.421875 100.226562 L 292.574219 95.355469 L 293.722656 92.621094 L 294.871094 89.824219 L 296.023438 86.972656 L 297.171875 84.054688 L 298.320312 81.078125 L 299.472656 78.035156 L 300.621094 74.925781 L 301.769531 71.753906 L 302.921875 73.25 L 304.070312 74.730469 L 305.21875 76.199219 L 306.371094 77.648438 L 307.519531 79.089844 L 308.667969 80.511719 L 309.820312 81.921875 L 310.96875 83.316406 L 312.117188 89.851562 L 313.269531 96.082031 L 314.417969 102.023438 L 315.566406 107.683594 L 316.71875 113.078125 L 317.867188 118.222656 L 319.019531 123.125 L 320.167969 127.796875 L 321.316406 132.253906 L 322.46875 136.5 L 323.617188 140.546875 L 324.765625 144.40625 L 325.917969 148.082031 L 327.066406 151.589844 L 328.214844 154.929688 L 329.367188 158.113281 L 330.515625 161.148438 L 331.664062 165.371094 L 332.816406 169.308594 L 333.964844 172.972656 L 335.113281 177.457031 L 336.265625 181.539062 L 337.414062 185.257812 L 338.5625 188.640625 L 339.714844 191.71875 L 340.863281 194.519531 L 342.011719 197.070312 L 343.164062 199.394531 L 344.3125 201.507812 L 345.460938 203.433594 L 346.613281 205.183594 L 347.761719 206.777344 L 348.910156 208.230469 L 350.0625 209.550781 L 351.210938 210.753906 L 352.359375 211.847656 L 353.511719 212.84375 L 354.660156 213.75 L 355.808594 214.574219 L 356.960938 215.328125 L 358.109375 216.011719 L 359.257812 216.632812 L 360.410156 217.199219 L 361.558594 216.855469 L 362.707031 216.492188 L 363.859375 216.105469 L 365.007812 215.695312 L 366.15625 215.261719 L 367.308594 214.800781 L 368.457031 214.035156 L 369.605469 213.199219 L 370.757812 212.285156 L 371.90625 211.28125 L 373.054688 210.1875 L 374.207031 208.988281 L 375.355469 207.675781 L 376.503906 206.242188 L 377.65625 204.671875 L 378.804688 202.957031 L 379.957031 201.078125 L 381.105469 199.023438 L 382.253906 196.777344 L 383.40625 194.316406 L 384.554688 191.628906 L 385.703125 188.683594 L 386.855469 185.464844 L 388.003906 181.945312 L 389.152344 178.09375 L 390.304688 173.878906 L 391.453125 169.269531 L 392.601562 166.570312 L 393.753906 163.738281 L 394.902344 160.761719 L 396.050781 157.632812 L 397.203125 154.351562 L 398.351562 150.902344 L 399.5 145.800781 L 400.652344 140.339844 L 401.800781 134.496094 L 402.949219 128.234375 L 404.101562 121.527344 L 405.25 114.351562 L 406.398438 106.664062 L 407.550781 98.433594 L 408.699219 89.621094 L 409.847656 80.183594 L 411 70.078125 L 412.148438 64.078125 L 413.296875 66.660156 L 414.449219 69.199219 L 415.597656 71.695312 L 416.746094 74.148438 L 417.898438 76.566406 "/>
<path style="fill:none;stroke-width:1.066978;stroke-linecap:butt;stroke-linejoin:round;stroke:rgb(81.176471%,87.45098%,23.137255%);stroke-opacity:1;stroke-miterlimit:10;" d="M 245.433594 214.421875 L 246.582031 213.964844 L 247.730469 213.480469 L 248.882812 212.972656 L 250.03125 212.433594 L 251.179688 211.871094 L 252.332031 211.273438 L 253.480469 210.648438 L 254.628906 209.988281 L 255.78125 209.289062 L 256.929688 208.554688 L 258.082031 207.78125 L 259.230469 206.96875 L 260.378906 206.109375 L 261.53125 205.203125 L 262.679688 204.25 L 263.828125 203.246094 L 264.980469 202.183594 L 266.128906 200.15625 L 267.277344 197.925781 L 268.429688 195.480469 L 269.578125 192.796875 L 270.726562 189.847656 L 271.878906 186.609375 L 273.027344 183.058594 L 274.175781 179.15625 L 275.328125 174.875 L 276.476562 170.175781 L 277.625 165.015625 L 278.777344 159.351562 L 279.925781 153.132812 L 281.074219 146.308594 L 282.226562 138.816406 L 283.375 130.589844 L 284.523438 126.585938 L 285.675781 122.410156 L 286.824219 118.050781 L 287.972656 113.84375 L 289.125 109.464844 L 290.273438 104.914062 L 291.421875 100.175781 L 292.574219 95.25 L 293.722656 92.53125 L 294.871094 89.75 L 296.023438 86.910156 L 297.171875 84.007812 L 298.320312 81.046875 L 299.472656 78.019531 L 300.621094 74.929688 L 301.769531 71.777344 L 302.921875 73.273438 L 304.070312 74.753906 L 305.21875 76.222656 L 306.371094 77.671875 L 307.519531 79.109375 L 308.667969 80.535156 L 309.820312 81.945312 L 310.96875 83.339844 L 312.117188 89.867188 L 313.269531 96.089844 L 314.417969 102.023438 L 315.566406 107.675781 L 316.71875 113.066406 L 317.867188 118.207031 L 319.019531 123.105469 L 320.167969 127.773438 L 321.316406 132.226562 L 322.46875 136.46875 L 323.617188 140.511719 L 324.765625 144.367188 L 325.917969 148.042969 L 327.066406 151.546875 L 328.214844 154.886719 L 329.367188 158.070312 L 330.515625 161.105469 L 331.664062 165.59375 L 332.816406 169.761719 L 333.964844 173.621094 L 335.113281 177.972656 L 336.265625 181.9375 L 337.414062 185.554688 L 338.5625 188.851562 L 339.714844 191.859375 L 340.863281 194.601562 L 342.011719 197.097656 L 343.164062 199.378906 L 344.3125 201.457031 L 345.460938 203.351562 L 346.613281 205.082031 L 347.761719 206.65625 L 348.910156 208.09375 L 350.0625 209.402344 L 351.210938 210.597656 L 352.359375 211.6875 L 353.511719 212.679688 L 354.660156 213.585938 L 355.808594 214.410156 L 356.960938 215.164062 L 358.109375 215.851562 L 359.257812 216.476562 L 360.410156 217.046875 L 361.558594 216.671875 L 362.707031 216.273438 L 363.859375 215.851562 L 365.007812 215.402344 L 366.15625 214.921875 L 367.308594 214.414062 L 368.457031 213.652344 L 369.605469 212.820312 L 370.757812 211.917969 L 371.90625 210.933594 L 373.054688 209.859375 L 374.207031 208.691406 L 375.355469 207.417969 L 376.503906 206.03125 L 377.65625 204.523438 L 378.804688 202.875 L 379.957031 201.085938 L 381.105469 199.132812 L 382.253906 197.007812 L 383.40625 194.691406 L 384.554688 192.167969 L 385.703125 189.421875 L 386.855469 186.429688 L 388.003906 183.167969 L 389.152344 179.617188 L 390.304688 175.75 L 391.453125 171.535156 L 392.601562 168.203125 L 393.753906 164.65625 L 394.902344 160.882812 L 396.050781 156.859375 L 397.203125 152.578125 L 398.351562 148.019531 L 399.5 143.15625 L 400.652344 137.980469 L 401.800781 132.464844 L 402.949219 126.589844 L 404.101562 120.335938 L 405.25 113.675781 L 406.398438 106.585938 L 407.550781 99.03125 L 408.699219 90.992188 L 409.847656 82.425781 L 411 73.304688 L 412.148438 67.308594 L 413.296875 68.554688 L 414.449219 69.792969 L 415.597656 71.015625 L 416.746094 72.234375 L 417.898438 73.441406 "/>
<path style="fill:none;stroke-width:1.066978;stroke-linecap:butt;stroke-linejoin:round;stroke:rgb(88.235294%,88.627451%,20.392157%);stroke-opacity:1;stroke-miterlimit:10;" d="M 245.433594 214.722656 L 246.582031 214.25 L 247.730469 213.746094 L 248.882812 213.214844 L 250.03125 212.65625 L 251.179688 212.0625 L 252.332031 211.433594 L 253.480469 210.769531 L 254.628906 210.070312 L 255.78125 209.328125 L 256.929688 208.542969 L 258.082031 207.710938 L 259.230469 206.832031 L 260.378906 205.902344 L 261.53125 204.921875 L 262.679688 203.882812 L 263.828125 202.78125 L 264.980469 201.621094 L 266.128906 199.59375 L 267.277344 197.375 L 268.429688 194.945312 L 269.578125 192.285156 L 270.726562 189.375 L 271.878906 186.183594 L 273.027344 182.691406 L 274.175781 178.867188 L 275.328125 174.679688 L 276.476562 170.09375 L 277.625 165.074219 L 278.777344 159.574219 L 279.925781 153.554688 L 281.074219 146.964844 L 282.226562 139.746094 L 283.375 131.839844 L 284.523438 127.390625 L 285.675781 122.722656 L 286.824219 117.828125 L 287.972656 113.664062 L 289.125 109.339844 L 290.273438 104.839844 L 291.421875 100.164062 L 292.574219 95.300781 L 293.722656 92.574219 L 294.871094 89.785156 L 296.023438 86.933594 L 297.171875 84.027344 L 298.320312 81.054688 L 299.472656 78.019531 L 300.621094 74.921875 L 301.769531 71.753906 L 302.921875 73.257812 L 304.070312 74.746094 L 305.21875 76.21875 L 306.371094 77.679688 L 307.519531 79.121094 L 308.667969 80.554688 L 309.820312 81.96875 L 310.96875 83.371094 L 312.117188 89.890625 L 313.269531 96.105469 L 314.417969 102.027344 L 315.566406 107.675781 L 316.71875 113.0625 L 317.867188 118.195312 L 319.019531 123.085938 L 320.167969 127.75 L 321.316406 132.195312 L 322.46875 136.4375 L 323.617188 140.476562 L 324.765625 144.328125 L 325.917969 148.003906 L 327.066406 151.503906 L 328.214844 154.839844 L 329.367188 158.023438 L 330.515625 161.054688 L 331.664062 165.824219 L 332.816406 170.226562 L 333.964844 174.289062 L 335.113281 178.5 L 336.265625 182.347656 L 337.414062 185.859375 L 338.5625 189.066406 L 339.714844 192 L 340.863281 194.675781 L 342.011719 197.121094 L 343.164062 199.355469 L 344.3125 201.398438 L 345.460938 203.261719 L 346.613281 204.964844 L 347.761719 206.523438 L 348.910156 207.941406 L 350.0625 209.242188 L 351.210938 210.425781 L 352.359375 211.511719 L 353.511719 212.5 L 354.660156 213.402344 L 355.808594 214.230469 L 356.960938 214.984375 L 358.109375 215.671875 L 359.257812 216.300781 L 360.410156 216.878906 L 361.558594 216.5 L 362.707031 216.097656 L 363.859375 215.671875 L 365.007812 215.21875 L 366.15625 214.738281 L 367.308594 214.230469 L 368.457031 213.464844 L 369.605469 212.628906 L 370.757812 211.726562 L 371.90625 210.738281 L 373.054688 209.667969 L 374.207031 208.5 L 375.355469 207.234375 L 376.503906 205.855469 L 377.65625 204.351562 L 378.804688 202.71875 L 379.957031 200.945312 L 381.105469 199.011719 L 382.253906 196.910156 L 383.40625 194.625 L 384.554688 192.140625 L 385.703125 189.433594 L 386.855469 186.492188 L 388.003906 183.292969 L 389.152344 179.808594 L 390.304688 176.023438 L 391.453125 171.902344 L 392.601562 168.5625 L 393.753906 165.003906 L 394.902344 161.210938 L 396.050781 157.171875 L 397.203125 152.863281 L 398.351562 148.277344 L 399.5 143.390625 L 400.652344 138.183594 L 401.800781 132.636719 L 402.949219 126.722656 L 404.101562 120.425781 L 405.25 113.714844 L 406.398438 106.5625 L 407.550781 98.945312 L 408.699219 90.828125 L 409.847656 82.179688 L 411 72.964844 L 412.148438 70.503906 L 413.296875 70.457031 L 414.449219 70.414062 L 415.597656 70.367188 L 416.746094 70.324219 L 417.898438 70.28125 "/>
<path style="fill:none;stroke-width:1.066978;stroke-linecap:butt;stroke-linejoin:round;stroke:rgb(94.117647%,89.803922%,17.254902%);stroke-opacity:1;stroke-miterlimit:10;" d="M 245.433594 215.015625 L 246.582031 214.527344 L 247.730469 214.011719 L 248.882812 213.460938 L 250.03125 212.875 L 251.179688 212.253906 L 252.332031 211.597656 L 253.480469 210.898438 L 254.628906 210.15625 L 255.78125 209.367188 L 256.929688 208.53125 L 258.082031 207.644531 L 259.230469 206.703125 L 260.378906 205.703125 L 261.53125 204.640625 L 262.679688 203.511719 L 263.828125 202.316406 L 264.980469 201.046875 L 266.128906 199.023438 L 267.277344 196.816406 L 268.429688 194.40625 L 269.578125 191.777344 L 270.726562 188.898438 L 271.878906 185.757812 L 273.027344 182.328125 L 274.175781 178.582031 L 275.328125 174.488281 L 276.476562 170.019531 L 277.625 165.136719 L 278.777344 159.804688 L 279.925781 153.980469 L 281.074219 147.617188 L 282.226562 140.667969 L 283.375 133.082031 L 284.523438 128.191406 L 285.675781 123.035156 L 286.824219 117.601562 L 287.972656 113.488281 L 289.125 109.210938 L 290.273438 104.765625 L 291.421875 100.152344 L 292.574219 95.355469 L 293.722656 92.617188 L 294.871094 89.820312 L 296.023438 86.960938 L 297.171875 84.042969 L 298.320312 81.0625 L 299.472656 78.019531 L 300.621094 74.90625 L 301.769531 71.730469 L 302.921875 73.242188 L 304.070312 74.738281 L 305.21875 76.21875 L 306.371094 77.683594 L 307.519531 79.136719 L 308.667969 80.574219 L 309.820312 81.996094 L 310.96875 83.402344 L 312.117188 89.914062 L 313.269531 96.117188 L 314.417969 102.035156 L 315.566406 107.675781 L 316.71875 113.054688 L 317.867188 118.179688 L 319.019531 123.066406 L 320.167969 127.726562 L 321.316406 132.167969 L 322.46875 136.402344 L 323.617188 140.441406 L 324.765625 144.289062 L 325.917969 147.960938 L 327.066406 151.457031 L 328.214844 154.792969 L 329.367188 157.972656 L 330.515625 161.003906 L 331.664062 166.0625 L 332.816406 170.707031 L 333.964844 174.972656 L 335.113281 179.039062 L 336.265625 182.761719 L 337.414062 186.167969 L 338.5625 189.289062 L 339.714844 192.140625 L 340.863281 194.753906 L 342.011719 197.144531 L 343.164062 199.332031 L 344.3125 201.335938 L 345.460938 203.167969 L 346.613281 204.84375 L 347.761719 206.378906 L 348.910156 207.785156 L 350.0625 209.070312 L 351.210938 210.246094 L 352.359375 211.324219 L 353.511719 212.308594 L 354.660156 213.210938 L 355.808594 214.035156 L 356.960938 214.792969 L 358.109375 215.484375 L 359.257812 216.117188 L 360.410156 216.695312 L 361.558594 216.339844 L 362.707031 215.960938 L 363.859375 215.5625 L 365.007812 215.144531 L 366.15625 214.609375 L 367.308594 214.039062 L 368.457031 213.269531 L 369.605469 212.433594 L 370.757812 211.523438 L 371.90625 210.539062 L 373.054688 209.464844 L 374.207031 208.300781 L 375.355469 207.035156 L 376.503906 205.664062 L 377.65625 204.167969 L 378.804688 202.546875 L 379.957031 200.785156 L 381.105469 198.871094 L 382.253906 196.789062 L 383.40625 194.53125 L 384.554688 192.074219 L 385.703125 189.410156 L 386.855469 186.511719 L 388.003906 183.363281 L 389.152344 179.945312 L 390.304688 176.230469 L 391.453125 172.195312 L 392.601562 168.855469 L 393.753906 165.300781 L 394.902344 161.507812 L 396.050781 157.46875 L 397.203125 153.164062 L 398.351562 148.574219 L 399.5 143.6875 L 400.652344 138.472656 L 401.800781 132.921875 L 402.949219 127 L 404.101562 120.691406 L 405.25 113.96875 L 406.398438 106.804688 L 407.550781 99.167969 L 408.699219 91.027344 L 409.847656 82.355469 L 411 73.109375 L 412.148438 72.238281 L 413.296875 71.363281 L 414.449219 70.484375 L 415.597656 69.597656 L 416.746094 68.707031 L 417.898438 67.808594 "/>
<path style="fill:none;stroke-width:1.066978;stroke-linecap:butt;stroke-linejoin:round;stroke:rgb(99.215686%,90.588235%,14.509804%);stroke-opacity:1;stroke-miterlimit:10;" d="M 245.433594 215.304688 L 246.582031 214.804688 L 247.730469 214.269531 L 248.882812 213.703125 L 250.03125 213.09375 L 251.179688 212.449219 L 252.332031 211.761719 L 253.480469 211.027344 L 254.628906 210.246094 L 255.78125 209.414062 L 256.929688 208.527344 L 258.082031 207.582031 L 259.230469 206.578125 L 260.378906 205.503906 L 261.53125 204.359375 L 262.679688 203.140625 L 263.828125 201.84375 L 264.980469 200.460938 L 266.128906 198.449219 L 267.277344 196.253906 L 268.429688 193.867188 L 269.578125 191.261719 L 270.726562 188.425781 L 271.878906 185.335938 L 273.027344 181.96875 L 274.175781 178.300781 L 275.328125 174.304688 L 276.476562 169.949219 L 277.625 165.207031 L 278.777344 160.039062 L 279.925781 154.40625 L 281.074219 148.273438 L 282.226562 141.589844 L 283.375 134.304688 L 284.523438 128.988281 L 285.675781 123.351562 L 286.824219 117.378906 L 287.972656 113.308594 L 289.125 109.082031 L 290.273438 104.691406 L 291.421875 100.128906 L 292.574219 95.394531 L 293.722656 92.652344 L 294.871094 89.851562 L 296.023438 86.992188 L 297.171875 84.070312 L 298.320312 81.085938 L 299.472656 78.039062 L 300.621094 74.921875 L 301.769531 71.742188 L 302.921875 73.238281 L 304.070312 74.722656 L 305.21875 76.191406 L 306.371094 77.644531 L 307.519531 79.085938 L 308.667969 80.507812 L 309.820312 81.921875 L 310.96875 83.316406 L 312.117188 89.855469 L 313.269531 96.085938 L 314.417969 102.023438 L 315.566406 107.683594 L 316.71875 113.082031 L 317.867188 118.222656 L 319.019531 123.128906 L 320.167969 127.800781 L 321.316406 132.253906 L 322.46875 136.5 L 323.617188 140.546875 L 324.765625 144.402344 L 325.917969 148.082031 L 327.066406 151.585938 L 328.214844 154.925781 L 329.367188 158.109375 L 330.515625 161.144531 L 331.664062 166.304688 L 332.816406 171.03125 L 333.964844 175.363281 L 335.113281 179.335938 L 336.265625 182.976562 L 337.414062 186.3125 L 338.5625 189.367188 L 339.714844 192.171875 L 340.863281 194.738281 L 342.011719 197.09375 L 343.164062 199.253906 L 344.3125 201.230469 L 345.460938 203.042969 L 346.613281 204.703125 L 347.761719 206.226562 L 348.910156 207.621094 L 350.0625 208.902344 L 351.210938 210.074219 L 352.359375 211.148438 L 353.511719 212.132812 L 354.660156 213.035156 L 355.808594 213.863281 L 356.960938 214.621094 L 358.109375 215.316406 L 359.257812 215.953125 L 360.410156 216.535156 L 361.558594 216.226562 L 362.707031 215.902344 L 363.859375 215.5625 L 365.007812 215.207031 L 366.15625 214.550781 L 367.308594 213.835938 L 368.457031 213.0625 L 369.605469 212.222656 L 370.757812 211.3125 L 371.90625 210.320312 L 373.054688 209.25 L 374.207031 208.085938 L 375.355469 206.820312 L 376.503906 205.449219 L 377.65625 203.964844 L 378.804688 202.351562 L 379.957031 200.597656 L 381.105469 198.699219 L 382.253906 196.636719 L 383.40625 194.402344 L 384.554688 191.976562 L 385.703125 189.34375 L 386.855469 186.488281 L 388.003906 183.390625 L 389.152344 180.027344 L 390.304688 176.378906 L 391.453125 172.421875 L 392.601562 169.097656 L 393.753906 165.558594 L 394.902344 161.78125 L 396.050781 157.761719 L 397.203125 153.472656 L 398.351562 148.90625 L 399.5 144.035156 L 400.652344 138.847656 L 401.800781 133.316406 L 402.949219 127.421875 L 404.101562 121.140625 L 405.25 114.445312 L 406.398438 107.3125 L 407.550781 99.707031 L 408.699219 91.605469 L 409.847656 82.96875 L 411 73.761719 L 412.148438 72.507812 L 413.296875 71.242188 L 414.449219 69.964844 L 415.597656 68.679688 L 416.746094 67.382812 L 417.898438 66.074219 "/>
<path style="fill:none;stroke-width:1.066978;stroke-linecap:butt;stroke-linejoin:round;stroke:rgb(20%,20%,20%);stroke-opacity:1;stroke-miterlimit:10;" d="M 234.070312 222.949219 L 236.808594 222.949219 "/>
<path style="fill:none;stroke-width:1.066978;stroke-linecap:butt;stroke-linejoin:round;stroke:rgb(20%,20%,20%);stroke-opacity:1;stroke-miterlimit:10;" d="M 234.070312 172.65625 L 236.808594 172.65625 "/>
<path style="fill:none;stroke-width:1.066978;stroke-linecap:butt;stroke-linejoin:round;stroke:rgb(20%,20%,20%);stroke-opacity:1;stroke-miterlimit:10;" d="M 234.070312 122.359375 L 236.808594 122.359375 "/>
<path style="fill:none;stroke-width:1.066978;stroke-linecap:butt;stroke-linejoin:round;stroke:rgb(20%,20%,20%);stroke-opacity:1;stroke-miterlimit:10;" d="M 234.070312 72.066406 L 236.808594 72.066406 "/>
<path style="fill:none;stroke-width:1.066978;stroke-linecap:butt;stroke-linejoin:round;stroke:rgb(20%,20%,20%);stroke-opacity:1;stroke-miterlimit:10;" d="M 234.070312 21.773438 L 236.808594 21.773438 "/>
<path style="fill:none;stroke-width:1.066978;stroke-linecap:butt;stroke-linejoin:round;stroke:rgb(20%,20%,20%);stroke-opacity:1;stroke-miterlimit:10;" d="M 244.28125 233.929688 L 244.28125 231.191406 "/>
<path style="fill:none;stroke-width:1.066978;stroke-linecap:butt;stroke-linejoin:round;stroke:rgb(20%,20%,20%);stroke-opacity:1;stroke-miterlimit:10;" d="M 301.769531 233.929688 L 301.769531 231.191406 "/>
<path style="fill:none;stroke-width:1.066978;stroke-linecap:butt;stroke-linejoin:round;stroke:rgb(20%,20%,20%);stroke-opacity:1;stroke-miterlimit:10;" d="M 359.257812 233.929688 L 359.257812 231.191406 "/>
<path style="fill:none;stroke-width:1.066978;stroke-linecap:butt;stroke-linejoin:round;stroke:rgb(20%,20%,20%);stroke-opacity:1;stroke-miterlimit:10;" d="M 416.746094 233.929688 L 416.746094 231.191406 "/>
<path style=" stroke:none;fill-rule:nonzero;fill:rgb(0%,12.941176%,27.058824%);fill-opacity:1;" d="M 432 252 L 648 252 L 648 0 L 432 0 Z M 432 252 "/>
<g clip-path="url(#clip5)" clip-rule="nonzero">
<path style="fill:none;stroke-width:1.066978;stroke-linecap:round;stroke-linejoin:round;stroke:rgb(100%,100%,100%);stroke-opacity:1;stroke-miterlimit:10;" d="M 432 252 L 648 252 L 648 0 L 432 0 Z M 432 252 "/>
</g>
<g clip-path="url(#clip6)" clip-rule="nonzero">
<path style=" stroke:none;fill-rule:nonzero;fill:rgb(0%,12.941176%,27.058824%);fill-opacity:1;" d="M 452.808594 231.191406 L 642.519531 231.191406 L 642.519531 5.480469 L 452.808594 5.480469 Z M 452.808594 231.191406 "/>
</g>
<path style="fill:none;stroke-width:1.066978;stroke-linecap:butt;stroke-linejoin:round;stroke:rgb(26.666667%,0.392157%,32.941176%);stroke-opacity:1;stroke-miterlimit:10;" d="M 461.433594 213.746094 L 462.582031 220.6875 L 463.730469 212.253906 L 464.882812 208.121094 L 466.03125 216.980469 L 467.179688 212.730469 L 468.332031 197.871094 L 469.480469 208.488281 L 470.628906 211.011719 L 471.78125 208.859375 L 472.929688 205.019531 L 474.082031 198.351562 L 475.230469 202.558594 L 476.378906 206.628906 L 477.53125 200.527344 L 478.679688 216.800781 L 479.828125 214.726562 L 480.980469 210.808594 L 482.128906 206.519531 L 483.277344 202.585938 L 484.429688 198.527344 L 485.578125 193.148438 L 486.726562 185.953125 L 487.878906 178.496094 L 489.027344 171.253906 L 490.175781 176.117188 L 491.328125 192.390625 L 492.476562 196.457031 L 493.625 147.640625 L 494.777344 151.707031 L 495.925781 176.601562 L 497.074219 136.015625 L 498.226562 110.445312 L 499.375 122.523438 L 500.523438 127.96875 L 501.675781 120.527344 L 502.824219 97.011719 L 503.972656 123.230469 L 505.125 118.226562 L 506.273438 117.90625 L 507.421875 98.042969 L 508.574219 46.871094 L 509.722656 104.921875 L 510.871094 90.683594 L 512.023438 64.242188 L 513.171875 100.855469 L 514.320312 145.605469 L 515.472656 58.140625 L 516.621094 92.71875 L 517.769531 15.761719 L 518.921875 58.984375 L 520.070312 77.992188 L 521.21875 79.644531 L 522.371094 64.417969 L 523.519531 100.855469 L 524.667969 117.128906 L 525.820312 60.171875 L 526.96875 45.933594 L 528.117188 92.71875 L 529.269531 76.445312 L 530.417969 90.683594 L 531.566406 115.09375 L 532.71875 108.992188 L 533.867188 134.898438 L 535.019531 143.144531 L 536.167969 146.03125 L 537.316406 144.109375 L 538.46875 119.164062 L 539.617188 145.605469 L 540.765625 131.367188 L 541.917969 106.957031 L 543.066406 174.082031 L 544.214844 170.015625 L 545.367188 174.082031 L 546.515625 127.296875 L 547.664062 161.878906 L 548.816406 176.269531 L 549.964844 157.347656 L 551.113281 162.339844 L 552.265625 186.132812 L 553.414062 190.355469 L 554.5625 194.425781 L 555.714844 157.808594 L 556.863281 190.804688 L 558.011719 211.378906 L 559.164062 216.117188 L 560.3125 216.347656 L 561.460938 200.527344 L 562.613281 214.765625 L 563.761719 199.507812 L 564.910156 209.679688 L 566.0625 209.679688 L 567.210938 199.507812 L 568.359375 216.800781 L 569.511719 212.730469 L 570.660156 208.664062 L 571.808594 215.890625 L 572.960938 217.46875 L 574.109375 218.238281 L 575.257812 218.46875 L 576.410156 218.238281 L 577.558594 217.46875 L 578.707031 215.890625 L 579.859375 210.464844 L 581.007812 215.457031 L 582.15625 218.875 L 583.308594 220.929688 L 584.457031 220.339844 L 585.605469 214.0625 L 586.757812 206.597656 L 587.90625 206.828125 L 589.054688 204.03125 L 590.207031 205.757812 L 591.355469 210.84375 L 592.503906 212.183594 L 593.65625 210.867188 L 594.804688 205.832031 L 595.957031 202.496094 L 597.105469 202.34375 L 598.253906 198.253906 L 599.40625 187.722656 L 600.554688 192.390625 L 601.703125 206.628906 L 602.855469 167.980469 L 604.003906 170.015625 L 605.152344 174.082031 L 606.304688 178.152344 L 607.453125 151.707031 L 608.601562 137.46875 L 609.753906 153.742188 L 610.902344 159.84375 L 612.050781 163.914062 L 613.203125 149.671875 L 614.351562 204.59375 L 615.5 149.671875 L 616.652344 174.082031 L 617.800781 119.164062 L 618.949219 133.402344 L 620.101562 108.992188 L 621.25 92.71875 L 622.398438 68.308594 L 623.550781 123.230469 L 625.847656 94.753906 L 627 29.660156 L 628.148438 24.261719 L 629.296875 88.582031 L 630.449219 86.6875 L 631.597656 15.738281 L 632.746094 117.128906 L 633.898438 81.53125 "/>
<path style="fill:none;stroke-width:1.066978;stroke-linecap:butt;stroke-linejoin:round;stroke:rgb(13.72549%,65.098039%,51.764706%);stroke-opacity:1;stroke-miterlimit:10;" d="M 461.433594 216.664062 L 462.582031 215.339844 L 463.730469 213.910156 L 464.882812 212.421875 L 466.03125 210.917969 L 467.179688 209.46875 L 468.332031 208.136719 L 469.480469 206.988281 L 470.628906 206.082031 L 471.78125 205.46875 L 472.929688 205.183594 L 474.082031 205.238281 L 475.230469 205.632812 L 476.378906 206.339844 L 477.53125 207.324219 L 478.679688 208.527344 L 479.828125 208.792969 L 480.980469 208.164062 L 482.128906 206.523438 L 483.277344 203.535156 L 484.429688 198.539062 L 485.578125 193.394531 L 486.726562 188.484375 L 487.878906 184.242188 L 489.027344 181.082031 L 490.175781 179.335938 L 491.328125 176.683594 L 492.476562 172.96875 L 493.625 167.964844 L 494.777344 161.347656 L 495.925781 152.671875 L 497.074219 141.300781 L 498.226562 131.351562 L 499.375 123.714844 L 500.523438 119.136719 L 501.675781 115.785156 L 502.824219 113.800781 L 503.972656 113.253906 L 505.125 110.050781 L 506.273438 103.960938 L 507.421875 94.519531 L 508.574219 88.082031 L 509.722656 85.15625 L 510.871094 85.976562 L 512.023438 90.480469 L 513.171875 98.304688 L 514.320312 96.34375 L 515.472656 84.128906 L 516.621094 68.75 L 517.769531 58.628906 L 518.921875 57.875 L 520.070312 66.621094 L 521.21875 77.476562 L 522.371094 83.625 L 523.519531 85.613281 L 524.667969 83.152344 L 525.820312 76.011719 L 526.96875 73.5 L 528.117188 75.859375 L 529.269531 82.867188 L 530.417969 93.855469 L 531.566406 107.828125 L 532.71875 119.9375 L 533.867188 130.457031 L 535.019531 136.640625 L 536.167969 139.246094 L 537.316406 138.578125 L 538.46875 134.566406 L 539.617188 133.875 L 540.765625 136.574219 L 541.917969 142.371094 L 543.066406 150.621094 L 544.214844 155.707031 L 545.367188 158.191406 L 546.515625 158.355469 L 547.664062 159.757812 L 548.816406 162.316406 L 549.964844 165.886719 L 551.113281 170.28125 L 552.265625 175.265625 L 553.414062 180.605469 L 554.5625 186.070312 L 555.714844 191.570312 L 556.863281 196.871094 L 558.011719 201.777344 L 559.164062 204.96875 L 560.3125 206.976562 L 561.460938 208.101562 L 562.613281 208.515625 L 563.761719 208.269531 L 564.910156 208.371094 L 566.0625 208.820312 L 567.210938 209.578125 L 568.359375 210.597656 L 569.511719 211.8125 L 570.660156 213.144531 L 571.808594 214.523438 L 572.960938 215.523438 L 574.109375 216.238281 L 575.257812 216.734375 L 576.410156 217.042969 L 577.558594 217.195312 L 578.707031 217.203125 L 579.859375 217.066406 L 581.007812 216.773438 L 582.15625 216.296875 L 583.308594 215.605469 L 584.457031 214.632812 L 585.605469 213.289062 L 586.757812 211.972656 L 587.90625 210.738281 L 589.054688 209.664062 L 590.207031 208.800781 L 591.355469 208.207031 L 592.503906 207.414062 L 593.65625 206.398438 L 594.804688 205.113281 L 595.957031 203.515625 L 597.105469 201.535156 L 598.253906 199.089844 L 599.40625 196.0625 L 600.554688 192.316406 L 601.703125 187.652344 L 602.855469 181.824219 L 604.003906 175.652344 L 605.152344 169.246094 L 606.304688 162.757812 L 607.453125 156.351562 L 608.601562 153.074219 L 609.753906 153.429688 L 610.902344 157.363281 L 612.050781 164.273438 L 613.203125 167.753906 L 614.351562 168.347656 L 615.5 164.6875 L 616.652344 155.882812 L 617.800781 139.671875 L 618.949219 123.988281 L 620.101562 110.398438 L 621.25 100.445312 L 622.398438 95.347656 L 623.550781 95.746094 L 624.699219 91.003906 L 625.847656 80.535156 L 627 63 L 628.148438 54 L 629.296875 55.121094 L 630.449219 60.027344 L 631.597656 68.390625 L 632.746094 79.660156 L 633.898438 93.132812 "/>
<path style="fill:none;stroke-width:1.066978;stroke-linecap:butt;stroke-linejoin:round;stroke:rgb(38.039216%,75.294118%,40.784314%);stroke-opacity:1;stroke-miterlimit:10;" d="M 461.433594 216.457031 L 462.582031 215.152344 L 463.730469 213.757812 L 464.882812 212.320312 L 466.03125 210.890625 L 467.179688 209.527344 L 468.332031 208.289062 L 469.480469 207.242188 L 470.628906 206.441406 L 471.78125 205.925781 L 472.929688 205.726562 L 474.082031 205.855469 L 475.230469 206.300781 L 476.378906 207.042969 L 477.53125 207.355469 L 478.679688 207.257812 L 479.828125 206.742188 L 480.980469 205.773438 L 482.128906 204.265625 L 483.277344 202.09375 L 484.429688 199.054688 L 485.578125 195.726562 L 486.726562 192.105469 L 487.878906 188.195312 L 489.027344 184.003906 L 490.175781 179.546875 L 491.328125 174.675781 L 492.476562 169.363281 L 493.625 163.582031 L 494.777344 157.304688 L 495.925781 150.507812 L 497.074219 143.164062 L 498.226562 135.96875 L 499.375 129.097656 L 500.523438 122.71875 L 501.675781 116.996094 L 502.824219 112.089844 L 503.972656 107.871094 L 505.125 103.964844 L 506.273438 100.410156 L 507.421875 97.242188 L 508.574219 94.5 L 509.722656 92.214844 L 510.871094 90.414062 L 512.023438 89.113281 L 513.171875 88.335938 L 514.320312 85.496094 L 515.472656 80.464844 L 516.621094 73.011719 L 517.769531 68.480469 L 518.921875 67.15625 L 520.070312 69.121094 L 521.21875 74.25 L 522.371094 77.417969 L 523.519531 78.746094 L 524.667969 78.285156 L 525.820312 76.019531 L 526.96875 76.953125 L 528.117188 81.027344 L 529.269531 87.980469 L 530.417969 97.378906 L 531.566406 108.660156 L 532.71875 118.125 L 533.867188 125.433594 L 535.019531 130.933594 L 536.167969 134.882812 L 537.316406 137.460938 L 538.46875 138.78125 L 539.617188 140.441406 L 540.765625 142.425781 L 541.917969 144.703125 L 543.066406 147.25 L 544.214844 150.023438 L 545.367188 153 L 546.515625 156.132812 L 547.664062 159.808594 L 548.816406 163.921875 L 549.964844 168.363281 L 551.113281 173.007812 L 552.265625 177.757812 L 553.414062 182.496094 L 554.5625 187.132812 L 555.714844 191.585938 L 556.863281 195.78125 L 558.011719 199.671875 L 559.164062 202.613281 L 560.3125 204.828125 L 561.460938 206.488281 L 562.613281 207.699219 L 563.761719 208.542969 L 564.910156 209.414062 L 566.0625 210.300781 L 568.359375 212.082031 L 569.511719 212.957031 L 570.660156 213.8125 L 571.808594 214.636719 L 572.960938 215.269531 L 574.109375 215.738281 L 575.257812 216.074219 L 576.410156 216.285156 L 577.558594 216.386719 L 578.707031 216.386719 L 579.859375 216.28125 L 581.007812 216.0625 L 582.15625 215.726562 L 583.308594 215.253906 L 584.457031 214.613281 L 585.605469 213.78125 L 586.757812 212.894531 L 587.90625 211.960938 L 589.054688 210.984375 L 590.207031 209.960938 L 591.355469 208.898438 L 592.503906 207.800781 L 593.65625 206.492188 L 594.804688 204.929688 L 595.957031 203.066406 L 597.105469 200.839844 L 598.253906 198.175781 L 599.40625 194.96875 L 600.554688 191.105469 L 601.703125 186.421875 L 602.855469 180.726562 L 604.003906 174.59375 L 605.152344 168.671875 L 606.304688 163.238281 L 607.453125 159.316406 L 608.601562 157.273438 L 609.753906 157.289062 L 610.902344 159.363281 L 612.050781 163.308594 L 613.203125 164.570312 L 614.351562 163.3125 L 615.5 159.378906 L 616.652344 152.226562 L 617.800781 140.84375 L 618.949219 129.265625 L 620.101562 117.894531 L 621.25 107.167969 L 622.398438 97.539062 L 623.550781 89.449219 L 624.699219 81.242188 L 625.847656 72.964844 L 627 64.65625 L 628.148438 59.878906 L 629.296875 58.960938 L 630.449219 61.976562 L 631.597656 68.703125 L 632.746094 78.679688 L 633.898438 91.226562 "/>
<path style="fill:none;stroke-width:1.066978;stroke-linecap:butt;stroke-linejoin:round;stroke:rgb(47.058824%,81.568627%,32.54902%);stroke-opacity:1;stroke-miterlimit:10;" d="M 461.433594 216.074219 L 462.582031 214.867188 L 463.730469 213.597656 L 464.882812 212.300781 L 466.03125 211.019531 L 467.179688 209.792969 L 468.332031 208.667969 L 469.480469 207.699219 L 470.628906 206.921875 L 471.78125 206.375 L 472.929688 206.078125 L 474.082031 206.054688 L 475.230469 206.296875 L 476.378906 206.800781 L 477.53125 206.945312 L 478.679688 206.734375 L 479.828125 206.164062 L 480.980469 205.191406 L 482.128906 203.75 L 483.277344 201.730469 L 484.429688 198.984375 L 485.578125 195.816406 L 486.726562 192.320312 L 487.878906 188.472656 L 489.027344 184.257812 L 490.175781 179.660156 L 491.328125 174.65625 L 492.476562 169.230469 L 493.625 163.375 L 494.777344 157.082031 L 495.925781 150.335938 L 497.074219 143.136719 L 498.226562 136.09375 L 499.375 129.359375 L 500.523438 123.101562 L 501.675781 117.472656 L 502.824219 112.632812 L 503.972656 108.710938 L 505.125 104.945312 L 506.273438 101.363281 L 507.421875 97.988281 L 508.574219 94.84375 L 509.722656 91.945312 L 510.871094 89.320312 L 512.023438 86.703125 L 513.171875 84.097656 L 514.320312 81.503906 L 515.472656 78.929688 L 516.621094 76.378906 L 517.769531 74.371094 L 518.921875 72.933594 L 520.070312 72.082031 L 521.21875 71.824219 L 522.371094 72.164062 L 523.519531 73.097656 L 524.667969 74.609375 L 525.820312 76.683594 L 526.96875 80.34375 L 528.117188 85.46875 L 529.269531 91.894531 L 530.417969 99.421875 L 531.566406 107.820312 L 532.71875 116.851562 L 533.867188 123.9375 L 535.019531 129.378906 L 536.167969 133.40625 L 537.316406 136.171875 L 538.46875 137.789062 L 539.617188 139.757812 L 540.765625 142.054688 L 541.917969 144.644531 L 543.066406 147.5 L 544.214844 150.585938 L 545.367188 153.863281 L 546.515625 157.292969 L 547.664062 161.085938 L 548.816406 165.148438 L 549.964844 169.402344 L 551.113281 173.765625 L 552.265625 178.152344 L 553.414062 182.492188 L 554.5625 186.722656 L 555.714844 190.785156 L 556.863281 194.632812 L 558.011719 198.195312 L 559.164062 201.171875 L 560.3125 203.660156 L 561.460938 205.753906 L 562.613281 207.523438 L 563.761719 209.015625 L 564.910156 210.285156 L 566.0625 211.359375 L 567.210938 212.277344 L 568.359375 213.058594 L 569.511719 213.722656 L 570.660156 214.285156 L 571.808594 214.757812 L 572.960938 215.15625 L 574.109375 215.460938 L 575.257812 215.671875 L 576.410156 215.804688 L 577.558594 215.859375 L 578.707031 215.839844 L 579.859375 215.746094 L 581.007812 215.574219 L 582.15625 215.316406 L 583.308594 214.964844 L 584.457031 214.511719 L 585.605469 213.9375 L 586.757812 213.277344 L 587.90625 212.523438 L 589.054688 211.652344 L 590.207031 210.65625 L 591.355469 209.503906 L 592.503906 208.175781 L 593.65625 206.636719 L 594.804688 204.851562 L 595.957031 202.773438 L 597.105469 200.347656 L 598.253906 197.507812 L 599.40625 194.175781 L 600.554688 190.246094 L 601.703125 185.597656 L 602.855469 180.089844 L 604.003906 174.355469 L 605.152344 169.136719 L 606.304688 164.746094 L 607.453125 161.453125 L 608.601562 159.488281 L 609.753906 158.980469 L 610.902344 159.96875 L 612.050781 162.382812 L 613.203125 162.714844 L 614.351562 161 L 615.5 157.0625 L 616.652344 150.480469 L 617.800781 140.523438 L 618.949219 130.171875 L 620.101562 119.609375 L 621.25 109.042969 L 622.398438 98.707031 L 623.550781 88.84375 L 624.699219 79.710938 L 625.847656 71.550781 L 627 64.59375 L 628.148438 60.761719 L 629.296875 60.289062 L 630.449219 63.207031 L 631.597656 69.328125 L 632.746094 78.289062 L 633.898438 89.554688 "/>
<path style="fill:none;stroke-width:1.066978;stroke-linecap:butt;stroke-linejoin:round;stroke:rgb(61.960784%,84.313725%,28.627451%);stroke-opacity:1;stroke-miterlimit:10;" d="M 461.433594 215.714844 L 462.582031 214.605469 L 463.730469 213.453125 L 464.882812 212.285156 L 466.03125 211.132812 L 467.179688 210.027344 L 468.332031 209.003906 L 469.480469 208.101562 L 470.628906 207.351562 L 471.78125 206.777344 L 472.929688 206.40625 L 474.082031 206.253906 L 475.230469 206.320312 L 476.378906 206.609375 L 477.53125 206.597656 L 478.679688 206.296875 L 479.828125 205.679688 L 480.980469 204.714844 L 482.128906 203.351562 L 483.277344 201.503906 L 484.429688 199.054688 L 485.578125 195.84375 L 486.726562 192.304688 L 487.878906 188.421875 L 489.027344 184.171875 L 490.175781 179.546875 L 491.328125 174.535156 L 492.476562 169.117188 L 493.625 163.300781 L 494.777344 157.070312 L 495.925781 150.433594 L 497.074219 143.398438 L 498.226562 136.492188 L 499.375 129.863281 L 500.523438 123.664062 L 501.675781 118.042969 L 502.824219 113.136719 L 503.972656 109.078125 L 505.125 105.175781 L 506.273438 101.460938 L 507.421875 97.960938 L 508.574219 94.695312 L 509.722656 91.6875 L 510.871094 88.960938 L 512.023438 86.253906 L 513.171875 83.5625 L 514.320312 80.898438 L 515.472656 78.257812 L 516.621094 75.652344 L 517.769531 73.664062 L 518.921875 72.324219 L 520.070312 71.652344 L 521.21875 71.648438 L 522.371094 72.324219 L 523.519531 73.660156 L 524.667969 75.640625 L 525.820312 78.246094 L 526.96875 82.089844 L 528.117188 87.074219 L 529.269531 93.066406 L 530.417969 99.921875 L 531.566406 107.46875 L 532.71875 115.53125 L 533.867188 122.179688 L 535.019531 127.601562 L 536.167969 131.960938 L 537.316406 135.375 L 538.46875 137.9375 L 539.617188 139.984375 L 540.765625 142.332031 L 541.917969 144.960938 L 543.066406 147.835938 L 544.214844 150.921875 L 545.367188 154.183594 L 546.515625 157.582031 L 547.664062 161.335938 L 548.816406 165.359375 L 549.964844 169.574219 L 551.113281 173.890625 L 552.265625 178.234375 L 553.414062 182.539062 L 554.5625 186.730469 L 555.714844 190.761719 L 556.863281 194.578125 L 558.011719 198.152344 L 559.164062 201.136719 L 560.3125 203.636719 L 561.460938 205.738281 L 562.613281 207.511719 L 563.761719 209.011719 L 564.910156 210.28125 L 566.0625 211.363281 L 567.210938 212.285156 L 568.359375 213.070312 L 569.511719 213.734375 L 570.660156 214.304688 L 571.808594 214.78125 L 572.960938 215.15625 L 574.109375 215.4375 L 575.257812 215.636719 L 576.410156 215.753906 L 577.558594 215.800781 L 578.707031 215.773438 L 579.859375 215.675781 L 581.007812 215.496094 L 582.15625 215.238281 L 583.308594 214.886719 L 584.457031 214.433594 L 585.605469 213.863281 L 586.757812 213.207031 L 587.90625 212.453125 L 589.054688 211.585938 L 590.207031 210.585938 L 591.355469 209.433594 L 592.503906 208.105469 L 593.65625 206.566406 L 594.804688 204.78125 L 595.957031 202.703125 L 597.105469 200.28125 L 598.253906 197.449219 L 599.40625 194.125 L 600.554688 190.214844 L 601.703125 185.601562 L 602.855469 180.132812 L 604.003906 174.851562 L 605.152344 170.003906 L 606.304688 165.839844 L 607.453125 162.585938 L 608.601562 160.425781 L 609.753906 159.488281 L 610.902344 159.828125 L 612.050781 161.421875 L 613.203125 161.285156 L 614.351562 159.410156 L 615.5 155.628906 L 616.652344 149.613281 L 617.800781 140.804688 L 618.949219 130.40625 L 620.101562 119.800781 L 621.25 109.214844 L 622.398438 98.878906 L 623.550781 89.046875 L 624.699219 79.988281 L 625.847656 71.945312 L 627 65.15625 L 628.148438 61.363281 L 629.296875 60.800781 L 630.449219 63.492188 L 631.597656 69.285156 L 632.746094 77.832031 L 633.898438 88.648438 "/>
<path style="fill:none;stroke-width:1.066978;stroke-linecap:butt;stroke-linejoin:round;stroke:rgb(72.941176%,86.27451%,25.882353%);stroke-opacity:1;stroke-miterlimit:10;" d="M 461.433594 215.382812 L 462.582031 214.367188 L 463.730469 213.320312 L 464.882812 212.265625 L 466.03125 211.222656 L 467.179688 210.222656 L 468.332031 209.289062 L 469.480469 208.449219 L 470.628906 207.730469 L 471.78125 207.148438 L 472.929688 206.726562 L 474.082031 206.480469 L 475.230469 206.414062 L 476.378906 206.53125 L 477.53125 206.386719 L 478.679688 205.980469 L 479.828125 205.285156 L 480.980469 204.269531 L 482.128906 202.886719 L 483.277344 201.054688 L 484.429688 198.679688 L 485.578125 195.617188 L 486.726562 192.222656 L 487.878906 188.476562 L 489.027344 184.339844 L 490.175781 179.789062 L 491.328125 174.789062 L 492.476562 169.308594 L 493.625 163.316406 L 494.777344 156.773438 L 495.925781 150.109375 L 497.074219 143.421875 L 498.226562 136.824219 L 499.375 130.429688 L 500.523438 124.367188 L 501.675781 118.757812 L 502.824219 113.722656 L 503.972656 109.367188 L 505.125 105.226562 L 506.273438 101.335938 L 507.421875 97.726562 L 508.574219 94.429688 L 509.722656 91.480469 L 510.871094 88.601562 L 512.023438 85.800781 L 513.171875 83.089844 L 514.320312 80.476562 L 515.472656 77.964844 L 516.621094 75.558594 L 517.769531 73.273438 L 518.921875 71.765625 L 520.070312 71.0625 L 521.21875 71.179688 L 522.371094 72.109375 L 523.519531 73.839844 L 524.667969 76.339844 L 525.820312 79.574219 L 526.96875 83.710938 L 528.117188 88.660156 L 529.269531 94.332031 L 530.417969 100.613281 L 531.566406 107.398438 L 532.71875 114.558594 L 533.867188 120.734375 L 535.019531 126.039062 L 536.167969 130.574219 L 537.316406 134.425781 L 538.46875 137.664062 L 539.617188 140.34375 L 540.765625 142.636719 L 541.917969 145.21875 L 543.066406 148.0625 L 544.214844 151.128906 L 545.367188 154.382812 L 546.515625 157.789062 L 547.664062 161.535156 L 548.816406 165.550781 L 549.964844 169.746094 L 551.113281 174.042969 L 552.265625 178.363281 L 553.414062 182.640625 L 554.5625 186.808594 L 555.714844 190.816406 L 556.863281 194.613281 L 558.011719 198.171875 L 559.164062 201.140625 L 560.3125 203.628906 L 561.460938 205.722656 L 562.613281 207.492188 L 563.761719 208.988281 L 564.910156 210.257812 L 566.0625 211.335938 L 567.210938 212.257812 L 568.359375 213.039062 L 569.511719 213.703125 L 570.660156 214.269531 L 571.808594 214.746094 L 572.960938 215.121094 L 574.109375 215.402344 L 575.257812 215.597656 L 576.410156 215.71875 L 577.558594 215.765625 L 578.707031 215.738281 L 579.859375 215.640625 L 581.007812 215.464844 L 582.15625 215.210938 L 583.308594 214.863281 L 584.457031 214.421875 L 585.605469 213.859375 L 586.757812 213.167969 L 587.90625 212.375 L 589.054688 211.476562 L 590.207031 210.449219 L 591.355469 209.269531 L 592.503906 207.921875 L 593.65625 206.371094 L 594.804688 204.585938 L 595.957031 202.519531 L 597.105469 200.128906 L 598.253906 197.351562 L 599.40625 194.117188 L 600.554688 190.332031 L 601.703125 185.898438 L 602.855469 180.6875 L 604.003906 175.617188 L 605.152344 170.902344 L 606.304688 166.761719 L 607.453125 163.402344 L 608.601562 160.988281 L 609.753906 159.65625 L 610.902344 159.472656 L 612.050781 160.453125 L 613.203125 159.988281 L 614.351562 158.046875 L 615.5 154.496094 L 616.652344 149.070312 L 617.800781 141.363281 L 618.949219 130.757812 L 620.101562 119.960938 L 621.25 109.214844 L 622.398438 98.785156 L 623.550781 88.945312 L 624.699219 79.976562 L 625.847656 72.152344 L 627 65.714844 L 628.148438 62.101562 L 629.296875 61.511719 L 630.449219 63.980469 L 631.597656 69.371094 L 632.746094 77.382812 L 633.898438 87.582031 "/>
<path style="fill:none;stroke-width:1.066978;stroke-linecap:butt;stroke-linejoin:round;stroke:rgb(81.176471%,87.45098%,23.137255%);stroke-opacity:1;stroke-miterlimit:10;" d="M 461.433594 215.042969 L 462.582031 214.128906 L 463.730469 213.191406 L 464.882812 212.25 L 466.03125 211.324219 L 467.179688 210.425781 L 468.332031 209.578125 L 469.480469 208.800781 L 470.628906 208.105469 L 471.78125 207.519531 L 472.929688 207.046875 L 474.082031 206.707031 L 475.230469 206.503906 L 476.378906 206.449219 L 477.53125 206.167969 L 478.679688 205.648438 L 479.828125 204.875 L 480.980469 203.808594 L 482.128906 202.402344 L 483.277344 200.59375 L 484.429688 198.296875 L 485.578125 195.394531 L 486.726562 192.15625 L 487.878906 188.542969 L 489.027344 184.515625 L 490.175781 180.023438 L 491.328125 175.015625 L 492.476562 169.433594 L 493.625 163.214844 L 494.777344 156.785156 L 495.925781 150.230469 L 497.074219 143.644531 L 498.226562 137.128906 L 499.375 130.796875 L 500.523438 124.757812 L 501.675781 119.136719 L 502.824219 114.039062 L 503.972656 109.574219 L 505.125 105.328125 L 506.273438 101.339844 L 507.421875 97.640625 L 508.574219 94.265625 L 509.722656 91.25 L 510.871094 88.316406 L 512.023438 85.464844 L 513.171875 82.710938 L 514.320312 80.058594 L 515.472656 77.519531 L 516.621094 75.101562 L 517.769531 72.8125 L 518.921875 71.359375 L 520.070312 70.765625 L 521.21875 71.046875 L 522.371094 72.191406 L 523.519531 74.1875 L 524.667969 76.992188 L 525.820312 80.5625 L 526.96875 84.839844 L 528.117188 89.746094 L 529.269531 95.210938 L 530.417969 101.144531 L 531.566406 107.460938 L 532.71875 114.074219 L 533.867188 119.902344 L 535.019531 125.039062 L 536.167969 129.554688 L 537.316406 133.511719 L 538.46875 136.972656 L 539.617188 139.976562 L 540.765625 142.5625 L 541.917969 145.363281 L 543.066406 148.34375 L 544.214844 151.484375 L 545.367188 154.746094 L 546.515625 158.101562 L 547.664062 161.804688 L 548.816406 165.773438 L 549.964844 169.929688 L 551.113281 174.1875 L 552.265625 178.476562 L 553.414062 182.726562 L 554.5625 186.867188 L 555.714844 190.855469 L 556.863281 194.636719 L 558.011719 198.179688 L 559.164062 201.136719 L 560.3125 203.621094 L 561.460938 205.707031 L 562.613281 207.472656 L 563.761719 208.964844 L 564.910156 210.234375 L 566.0625 211.308594 L 567.210938 212.226562 L 568.359375 213.007812 L 569.511719 213.675781 L 570.660156 214.238281 L 571.808594 214.714844 L 572.960938 215.089844 L 574.109375 215.371094 L 575.257812 215.566406 L 576.410156 215.683594 L 577.558594 215.730469 L 578.707031 215.703125 L 579.859375 215.605469 L 581.007812 215.429688 L 582.15625 215.171875 L 583.308594 214.824219 L 584.457031 214.378906 L 585.605469 213.8125 L 586.757812 213.117188 L 587.90625 212.320312 L 589.054688 211.414062 L 590.207031 210.378906 L 591.355469 209.195312 L 592.503906 207.839844 L 593.65625 206.277344 L 594.804688 204.480469 L 595.957031 202.40625 L 597.105469 200.003906 L 598.253906 197.210938 L 599.40625 193.964844 L 600.554688 190.238281 L 601.703125 185.957031 L 602.855469 181.027344 L 604.003906 176.21875 L 605.152344 171.703125 L 606.304688 167.664062 L 607.453125 164.28125 L 608.601562 161.703125 L 609.753906 160.058594 L 610.902344 159.417969 L 612.050781 159.816406 L 613.203125 158.972656 L 614.351562 156.835938 L 615.5 153.28125 L 616.652344 148.085938 L 617.800781 140.914062 L 618.949219 131.277344 L 620.101562 120.28125 L 621.25 109.363281 L 622.398438 98.816406 L 623.550781 88.9375 L 624.699219 80.035156 L 625.847656 72.390625 L 627 66.269531 L 628.148438 62.808594 L 629.296875 62.183594 L 630.449219 64.433594 L 631.597656 69.4375 L 632.746094 76.933594 L 633.898438 86.539062 "/>
<path style="fill:none;stroke-width:1.066978;stroke-linecap:butt;stroke-linejoin:round;stroke:rgb(88.235294%,88.627451%,20.392157%);stroke-opacity:1;stroke-miterlimit:10;" d="M 461.433594 214.6875 L 462.582031 213.882812 L 463.730469 213.066406 L 464.882812 212.246094 L 466.03125 211.433594 L 467.179688 210.636719 L 468.332031 209.871094 L 469.480469 209.148438 L 470.628906 208.480469 L 471.78125 207.878906 L 472.929688 207.355469 L 474.082031 206.917969 L 475.230469 206.574219 L 476.378906 206.335938 L 477.53125 205.910156 L 478.679688 205.28125 L 479.828125 204.433594 L 480.980469 203.335938 L 482.128906 201.945312 L 483.277344 200.214844 L 484.429688 198.074219 L 485.578125 195.4375 L 486.726562 192.1875 L 487.878906 188.570312 L 489.027344 184.539062 L 490.175781 180.050781 L 491.328125 175.054688 L 492.476562 169.492188 L 493.625 163.308594 L 494.777344 156.917969 L 495.925781 150.402344 L 497.074219 143.851562 L 498.226562 137.371094 L 499.375 131.066406 L 500.523438 125.050781 L 501.675781 119.441406 L 502.824219 114.351562 L 503.972656 109.878906 L 505.125 105.589844 L 506.273438 101.511719 L 507.421875 97.679688 L 508.574219 94.128906 L 509.722656 90.886719 L 510.871094 87.777344 L 512.023438 84.816406 L 513.171875 82.019531 L 514.320312 79.394531 L 515.472656 76.953125 L 516.621094 74.707031 L 517.769531 72.667969 L 518.921875 71.433594 L 520.070312 71.027344 L 521.21875 71.449219 L 522.371094 72.703125 L 523.519531 74.757812 L 524.667969 77.589844 L 525.820312 81.144531 L 526.96875 85.375 L 528.117188 90.207031 L 529.269531 95.574219 L 530.417969 101.398438 L 531.566406 107.585938 L 532.71875 113.730469 L 533.867188 119.261719 L 535.019531 124.242188 L 536.167969 128.71875 L 537.316406 132.746094 L 538.46875 136.359375 L 539.617188 139.597656 L 540.765625 142.492188 L 541.917969 145.511719 L 543.066406 148.628906 L 544.214844 151.828125 L 545.367188 155.085938 L 546.515625 158.378906 L 547.664062 162.027344 L 548.816406 165.949219 L 549.964844 170.070312 L 551.113281 174.300781 L 552.265625 178.570312 L 553.414062 182.804688 L 554.5625 186.9375 L 555.714844 190.917969 L 556.863281 194.699219 L 558.011719 198.238281 L 559.164062 201.191406 L 560.3125 203.664062 L 561.460938 205.742188 L 562.613281 207.492188 L 563.761719 208.972656 L 564.910156 210.226562 L 566.0625 211.289062 L 567.210938 212.195312 L 568.359375 212.960938 L 569.511719 213.613281 L 570.660156 214.164062 L 571.808594 214.625 L 572.960938 214.988281 L 574.109375 215.261719 L 575.257812 215.457031 L 576.410156 215.578125 L 577.558594 215.625 L 578.707031 215.605469 L 579.859375 215.511719 L 581.007812 215.347656 L 582.15625 215.109375 L 583.308594 214.78125 L 584.457031 214.359375 L 585.605469 213.832031 L 586.757812 213.179688 L 587.90625 212.421875 L 589.054688 211.546875 L 590.207031 210.535156 L 591.355469 209.363281 L 592.503906 208.003906 L 593.65625 206.417969 L 594.804688 204.566406 L 595.957031 202.402344 L 597.105469 199.859375 L 598.253906 196.863281 L 599.40625 193.328125 L 600.554688 189.484375 L 601.703125 185.347656 L 602.855469 180.921875 L 604.003906 176.589844 L 605.152344 172.488281 L 606.304688 168.746094 L 607.453125 165.488281 L 608.601562 162.839844 L 609.753906 160.898438 L 610.902344 159.734375 L 612.050781 159.398438 L 613.203125 158.046875 L 614.351562 155.617188 L 615.5 151.984375 L 616.652344 146.972656 L 617.800781 140.316406 L 618.949219 131.652344 L 620.101562 120.480469 L 621.25 109.417969 L 622.398438 98.78125 L 623.550781 88.890625 L 624.699219 80.082031 L 625.847656 72.648438 L 627 66.863281 L 628.148438 63.5625 L 629.296875 62.90625 L 630.449219 64.929688 L 631.597656 69.53125 L 632.746094 76.488281 L 633.898438 85.460938 "/>
<path style="fill:none;stroke-width:1.066978;stroke-linecap:butt;stroke-linejoin:round;stroke:rgb(94.117647%,89.803922%,17.254902%);stroke-opacity:1;stroke-miterlimit:10;" d="M 461.433594 214.375 L 462.582031 213.667969 L 463.730469 212.953125 L 464.882812 212.234375 L 466.03125 211.511719 L 467.179688 210.800781 L 468.332031 210.105469 L 469.480469 209.4375 L 470.628906 208.796875 L 471.78125 208.195312 L 472.929688 207.644531 L 474.082031 207.144531 L 475.230469 206.703125 L 476.378906 206.332031 L 477.53125 205.789062 L 478.679688 205.066406 L 479.828125 204.132812 L 480.980469 202.972656 L 482.128906 201.535156 L 483.277344 199.785156 L 484.429688 197.652344 L 485.578125 195.066406 L 486.726562 191.929688 L 487.878906 188.421875 L 489.027344 184.507812 L 490.175781 180.128906 L 491.328125 175.234375 L 492.476562 169.757812 L 493.625 163.628906 L 494.777344 157.28125 L 495.925781 150.792969 L 497.074219 144.25 L 498.226562 137.746094 L 499.375 131.386719 L 500.523438 125.277344 L 501.675781 119.535156 L 502.824219 114.261719 L 503.972656 109.566406 L 505.125 105.542969 L 506.273438 101.625 L 507.421875 97.835938 L 508.574219 94.191406 L 509.722656 90.714844 L 510.871094 87.425781 L 512.023438 84.335938 L 513.171875 81.464844 L 514.320312 78.832031 L 515.472656 76.449219 L 516.621094 74.332031 L 517.769531 72.496094 L 518.921875 71.441406 L 520.070312 71.195312 L 521.21875 71.753906 L 522.371094 73.109375 L 523.519531 75.242188 L 524.667969 78.121094 L 525.820312 81.695312 L 526.96875 85.914062 L 528.117188 90.710938 L 529.269531 96.011719 L 530.417969 101.75 L 531.566406 107.839844 L 532.71875 113.453125 L 533.867188 118.632812 L 535.019531 123.417969 L 536.167969 127.835938 L 537.316406 131.917969 L 538.46875 135.691406 L 539.617188 139.183594 L 540.765625 142.410156 L 541.917969 145.664062 L 543.066406 148.929688 L 544.214844 152.191406 L 545.367188 155.441406 L 546.515625 158.667969 L 547.664062 162.257812 L 548.816406 166.136719 L 549.964844 170.214844 L 551.113281 174.417969 L 552.265625 178.664062 L 553.414062 182.882812 L 554.5625 187.003906 L 555.714844 190.976562 L 556.863281 194.75 L 558.011719 198.289062 L 559.164062 201.238281 L 560.3125 203.703125 L 561.460938 205.769531 L 562.613281 207.507812 L 563.761719 208.976562 L 564.910156 210.21875 L 566.0625 211.269531 L 567.210938 212.160156 L 568.359375 212.917969 L 569.511719 213.554688 L 570.660156 214.09375 L 571.808594 214.542969 L 572.960938 214.894531 L 574.109375 215.164062 L 575.257812 215.355469 L 576.410156 215.476562 L 577.558594 215.527344 L 578.707031 215.511719 L 579.859375 215.425781 L 581.007812 215.273438 L 582.15625 215.046875 L 583.308594 214.734375 L 584.457031 214.335938 L 585.605469 213.835938 L 586.757812 213.21875 L 587.90625 212.496094 L 589.054688 211.648438 L 590.207031 210.660156 L 591.355469 209.496094 L 592.503906 208.132812 L 593.65625 206.53125 L 594.804688 204.644531 L 595.957031 202.410156 L 597.105469 199.757812 L 598.253906 196.601562 L 599.40625 192.828125 L 600.554688 188.894531 L 601.703125 184.863281 L 602.855469 180.820312 L 604.003906 176.855469 L 605.152344 173.070312 L 606.304688 169.5625 L 607.453125 166.4375 L 608.601562 163.78125 L 609.753906 161.679688 L 610.902344 160.195312 L 612.050781 159.378906 L 613.203125 157.644531 L 614.351562 154.917969 L 615.5 151.074219 L 616.652344 145.945312 L 617.800781 139.285156 L 618.949219 130.765625 L 620.101562 119.945312 L 621.25 109.246094 L 622.398438 98.949219 L 623.550781 89.351562 L 624.699219 80.75 L 625.847656 73.417969 L 627 67.605469 L 628.148438 64.199219 L 629.296875 63.355469 L 630.449219 65.125 L 631.597656 69.414062 L 632.746094 76.019531 L 633.898438 84.628906 "/>
<path style="fill:none;stroke-width:1.066978;stroke-linecap:butt;stroke-linejoin:round;stroke:rgb(99.215686%,90.588235%,14.509804%);stroke-opacity:1;stroke-miterlimit:10;" d="M 461.433594 214.054688 L 462.582031 213.453125 L 463.730469 212.84375 L 464.882812 212.222656 L 466.03125 211.597656 L 467.179688 210.96875 L 468.332031 210.34375 L 469.480469 209.722656 L 470.628906 209.109375 L 471.78125 208.511719 L 472.929688 207.929688 L 474.082031 207.367188 L 475.230469 206.832031 L 476.378906 206.328125 L 477.53125 205.671875 L 478.679688 204.847656 L 479.828125 203.832031 L 480.980469 202.605469 L 482.128906 201.125 L 483.277344 199.351562 L 484.429688 197.234375 L 485.578125 194.703125 L 486.726562 191.679688 L 487.878906 188.289062 L 489.027344 184.484375 L 490.175781 180.214844 L 491.328125 175.414062 L 492.476562 170.011719 L 493.625 163.925781 L 494.777344 157.613281 L 495.925781 151.152344 L 497.074219 144.625 L 498.226562 138.121094 L 499.375 131.742188 L 500.523438 125.59375 L 501.675781 119.785156 L 502.824219 114.417969 L 503.972656 109.601562 L 505.125 105.433594 L 506.273438 101.386719 L 507.421875 97.488281 L 508.574219 93.761719 L 509.722656 90.230469 L 510.871094 86.914062 L 512.023438 83.835938 L 513.171875 81.015625 L 514.320312 78.46875 L 515.472656 76.210938 L 516.621094 74.265625 L 517.769531 72.640625 L 518.921875 71.761719 L 520.070312 71.644531 L 521.21875 72.292969 L 522.371094 73.691406 L 523.519531 75.824219 L 524.667969 78.65625 L 525.820312 82.144531 L 526.96875 86.238281 L 528.117188 90.878906 L 529.269531 96.003906 L 530.417969 101.539062 L 531.566406 107.417969 L 532.71875 112.910156 L 533.867188 118.039062 L 535.019531 122.835938 L 536.167969 127.320312 L 537.316406 131.523438 L 538.46875 135.457031 L 539.617188 139.144531 L 540.765625 142.601562 L 541.917969 145.9375 L 543.066406 149.15625 L 544.214844 152.261719 L 545.367188 155.257812 L 546.515625 158.644531 L 547.664062 162.359375 L 548.816406 166.320312 L 549.964844 170.445312 L 551.113281 174.667969 L 552.265625 178.90625 L 553.414062 183.09375 L 554.5625 187.179688 L 555.714844 191.101562 L 556.863281 194.820312 L 558.011719 198.308594 L 559.164062 201.21875 L 560.3125 203.660156 L 561.460938 205.714844 L 562.613281 207.449219 L 563.761719 208.917969 L 564.910156 210.164062 L 566.0625 211.222656 L 567.210938 212.121094 L 568.359375 212.886719 L 569.511719 213.535156 L 570.660156 214.085938 L 571.808594 214.527344 L 572.960938 214.875 L 574.109375 215.140625 L 575.257812 215.328125 L 576.410156 215.441406 L 577.558594 215.488281 L 578.707031 215.46875 L 579.859375 215.378906 L 581.007812 215.222656 L 582.15625 214.988281 L 583.308594 214.675781 L 584.457031 214.269531 L 585.605469 213.761719 L 586.757812 213.140625 L 587.90625 212.410156 L 589.054688 211.558594 L 590.207031 210.566406 L 591.355469 209.40625 L 592.503906 208.050781 L 593.65625 206.457031 L 594.804688 204.585938 L 595.957031 202.378906 L 597.105469 199.765625 L 598.253906 196.667969 L 599.40625 192.972656 L 600.554688 189.117188 L 601.703125 185.160156 L 602.855469 181.179688 L 604.003906 177.261719 L 605.152344 173.492188 L 606.304688 169.96875 L 607.453125 166.789062 L 608.601562 164.035156 L 609.753906 161.792969 L 610.902344 160.125 L 612.050781 159.082031 L 613.203125 157.171875 L 614.351562 154.320312 L 615.5 150.402344 L 616.652344 145.257812 L 617.800781 138.660156 L 618.949219 130.300781 L 620.101562 119.78125 L 621.25 109.339844 L 622.398438 99.234375 L 623.550781 89.726562 L 624.699219 81.085938 L 625.847656 73.558594 L 627 68.042969 L 628.148438 64.785156 L 629.296875 63.929688 L 630.449219 65.519531 L 631.597656 69.476562 L 632.746094 75.628906 L 633.898438 83.699219 "/>
<path style="fill:none;stroke-width:1.066978;stroke-linecap:butt;stroke-linejoin:round;stroke:rgb(20%,20%,20%);stroke-opacity:1;stroke-miterlimit:10;" d="M 450.070312 222.902344 L 452.808594 222.902344 "/>
<path style="fill:none;stroke-width:1.066978;stroke-linecap:butt;stroke-linejoin:round;stroke:rgb(20%,20%,20%);stroke-opacity:1;stroke-miterlimit:10;" d="M 450.070312 172.050781 L 452.808594 172.050781 "/>
<path style="fill:none;stroke-width:1.066978;stroke-linecap:butt;stroke-linejoin:round;stroke:rgb(20%,20%,20%);stroke-opacity:1;stroke-miterlimit:10;" d="M 450.070312 121.195312 L 452.808594 121.195312 "/>
<path style="fill:none;stroke-width:1.066978;stroke-linecap:butt;stroke-linejoin:round;stroke:rgb(20%,20%,20%);stroke-opacity:1;stroke-miterlimit:10;" d="M 450.070312 70.34375 L 452.808594 70.34375 "/>
<path style="fill:none;stroke-width:1.066978;stroke-linecap:butt;stroke-linejoin:round;stroke:rgb(20%,20%,20%);stroke-opacity:1;stroke-miterlimit:10;" d="M 450.070312 19.492188 L 452.808594 19.492188 "/>
<path style="fill:none;stroke-width:1.066978;stroke-linecap:butt;stroke-linejoin:round;stroke:rgb(20%,20%,20%);stroke-opacity:1;stroke-miterlimit:10;" d="M 460.28125 233.929688 L 460.28125 231.191406 "/>
<path style="fill:none;stroke-width:1.066978;stroke-linecap:butt;stroke-linejoin:round;stroke:rgb(20%,20%,20%);stroke-opacity:1;stroke-miterlimit:10;" d="M 517.769531 233.929688 L 517.769531 231.191406 "/>
<path style="fill:none;stroke-width:1.066978;stroke-linecap:butt;stroke-linejoin:round;stroke:rgb(20%,20%,20%);stroke-opacity:1;stroke-miterlimit:10;" d="M 575.257812 233.929688 L 575.257812 231.191406 "/>
<path style="fill:none;stroke-width:1.066978;stroke-linecap:butt;stroke-linejoin:round;stroke:rgb(20%,20%,20%);stroke-opacity:1;stroke-miterlimit:10;" d="M 632.746094 233.929688 L 632.746094 231.191406 "/>
</g>
</svg>
