<?xml version="1.0" encoding="UTF-8"?>
<svg xmlns="http://www.w3.org/2000/svg" xmlns:xlink="http://www.w3.org/1999/xlink" width="648pt" height="252pt" viewBox="0 0 648 252" version="1.1">
<defs>
<clipPath id="clip1">
  <path d="M 0 0 L 216 0 L 216 252 L 0 252 Z M 0 0 "/>
</clipPath>
<clipPath id="clip2">
  <path d="M 20.808594 5.480469 L 210.519531 5.480469 L 210.519531 231.191406 L 20.808594 231.191406 Z M 20.808594 5.480469 "/>
</clipPath>
<clipPath id="clip3">
  <path d="M 216 0 L 432 0 L 432 252 L 216 252 Z M 216 0 "/>
</clipPath>
<clipPath id="clip4">
  <path d="M 236.808594 5.480469 L 426.519531 5.480469 L 426.519531 231.191406 L 236.808594 231.191406 Z M 236.808594 5.480469 "/>
</clipPath>
<clipPath id="clip5">
  <path d="M 432 0 L 648 0 L 648 252 L 432 252 Z M 432 0 "/>
</clipPath>
<clipPath id="clip6">
  <path d="M 452.808594 5.480469 L 642.519531 5.480469 L 642.519531 231.191406 L 452.808594 231.191406 Z M 452.808594 5.480469 "/>
</clipPath>
</defs>
<g id="surface234">
<rect x="0" y="0" width="648" height="252" style="fill:rgb(100%,100%,100%);fill-opacity:1;stroke:none;"/>
<path style=" stroke:none;fill-rule:nonzero;fill:rgb(0%,12.941176%,27.058824%);fill-opacity:1;" d="M 0 252 L 216 252 L 216 0 L 0 0 Z M 0 252 "/>
<g clip-path="url(#clip1)" clip-rule="nonzero">
<path style="fill:none;stroke-width:1.066978;stroke-linecap:round;stroke-linejoin:round;stroke:rgb(100%,100%,100%);stroke-opacity:1;stroke-miterlimit:10;" d="M 0 252 L 216 252 L 216 0 L 0 0 Z M 0 252 "/>
</g>
<g clip-path="url(#clip2)" clip-rule="nonzero">
<path style=" stroke:none;fill-rule:nonzero;fill:rgb(0%,12.941176%,27.058824%);fill-opacity:1;" d="M 20.808594 231.191406 L 210.519531 231.191406 L 210.519531 5.480469 L 20.808594 5.480469 Z M 20.808594 231.191406 "/>
</g>
<path style="fill:none;stroke-width:1.066978;stroke-linecap:butt;stroke-linejoin:round;stroke:rgb(26.666667%,0.392157%,32.941176%);stroke-opacity:1;stroke-miterlimit:10;" d="M 29.433594 220.929688 L 46.679688 220.929688 L 47.828125 214.457031 L 50.128906 214.457031 L 51.277344 185.65625 L 53.578125 185.65625 L 54.726562 172.984375 L 59.328125 172.984375 L 60.476562 162.617188 L 61.625 145.335938 L 62.777344 128.058594 L 63.925781 122.296875 L 69.675781 122.296875 L 70.824219 110.777344 L 71.972656 110.777344 L 73.125 35.898438 L 75.421875 35.898438 L 76.574219 15.738281 L 89.21875 15.738281 L 90.371094 18.617188 L 96.117188 18.617188 L 97.269531 103.097656 L 106.46875 103.097656 L 107.617188 123.738281 L 111.066406 123.738281 L 112.214844 171.257812 L 117.964844 171.257812 L 119.113281 205.816406 L 122.5625 205.816406 L 123.714844 208.695312 L 126.011719 208.695312 L 127.164062 211.578125 L 132.910156 211.578125 L 134.0625 215.691406 L 165.105469 215.691406 L 166.253906 214.457031 L 167.40625 202.9375 L 169.703125 202.9375 L 170.855469 168.378906 L 173.152344 168.378906 L 174.304688 141.019531 L 177.753906 141.019531 L 178.902344 97.816406 L 182.351562 97.816406 L 183.5 84.859375 L 191.550781 84.859375 L 192.699219 32.058594 L 201.898438 32.058594 "/>
<path style="fill:none;stroke-width:1.066978;stroke-linecap:butt;stroke-linejoin:round;stroke:rgb(23.137255%,37.254902%,54.509804%);stroke-opacity:1;stroke-miterlimit:10;" d="M 29.433594 210.820312 L 50.128906 210.820312 L 51.277344 185.65625 L 53.578125 185.65625 L 54.726562 172.984375 L 59.328125 172.984375 L 60.476562 162.617188 L 61.625 145.335938 L 62.777344 128.058594 L 63.925781 122.296875 L 69.675781 122.296875 L 70.824219 110.777344 L 71.972656 110.777344 L 73.125 35.898438 L 96.117188 35.898438 L 97.269531 103.097656 L 106.46875 103.097656 L 107.617188 123.738281 L 111.066406 123.738281 L 112.214844 171.257812 L 117.964844 171.257812 L 119.113281 205.40625 L 166.253906 205.40625 L 167.40625 202.9375 L 169.703125 202.9375 L 170.855469 168.378906 L 173.152344 168.378906 L 174.304688 141.019531 L 177.753906 141.019531 L 178.902344 97.816406 L 182.351562 97.816406 L 183.5 84.859375 L 191.550781 84.859375 L 192.699219 51.257812 L 201.898438 51.257812 "/>
<path style="fill:none;stroke-width:1.066978;stroke-linecap:butt;stroke-linejoin:round;stroke:rgb(17.254902%,54.117647%,54.509804%);stroke-opacity:1;stroke-miterlimit:10;" d="M 29.433594 201.722656 L 50.128906 201.722656 L 51.277344 185.65625 L 53.578125 185.65625 L 54.726562 172.984375 L 59.328125 172.984375 L 60.476562 162.617188 L 61.625 145.335938 L 62.777344 128.058594 L 63.925781 122.296875 L 69.675781 122.296875 L 70.824219 110.777344 L 71.972656 110.777344 L 73.125 52.355469 L 96.117188 52.355469 L 97.269531 103.097656 L 106.46875 103.097656 L 107.617188 123.738281 L 111.066406 123.738281 L 112.214844 171.257812 L 117.964844 171.257812 L 119.113281 197.5625 L 169.703125 197.5625 L 170.855469 168.378906 L 173.152344 168.378906 L 174.304688 141.019531 L 177.753906 141.019531 L 178.902344 97.816406 L 182.351562 97.816406 L 183.5 84.859375 L 191.550781 84.859375 L 192.699219 70.457031 L 201.898438 70.457031 "/>
<path style="fill:none;stroke-width:1.066978;stroke-linecap:butt;stroke-linejoin:round;stroke:rgb(14.117647%,65.882353%,51.764706%);stroke-opacity:1;stroke-miterlimit:10;" d="M 29.433594 192.628906 L 50.128906 192.628906 L 51.277344 185.65625 L 53.578125 185.65625 L 54.726562 172.984375 L 59.328125 172.984375 L 60.476562 162.617188 L 61.625 145.335938 L 62.777344 128.058594 L 63.925781 122.296875 L 69.675781 122.296875 L 70.824219 110.777344 L 71.972656 110.777344 L 73.125 68.8125 L 96.117188 68.8125 L 97.269531 103.097656 L 106.46875 103.097656 L 107.617188 123.738281 L 111.066406 123.738281 L 112.214844 171.257812 L 117.964844 171.257812 L 119.113281 189.882812 L 169.703125 189.882812 L 170.855469 168.378906 L 173.152344 168.378906 L 174.304688 141.019531 L 177.753906 141.019531 L 178.902344 97.816406 L 182.351562 97.816406 L 183.5 87.398438 L 201.898438 87.398438 "/>
<path style="fill:none;stroke-width:1.066978;stroke-linecap:butt;stroke-linejoin:round;stroke:rgb(34.901961%,73.72549%,42.745098%);stroke-opacity:1;stroke-miterlimit:10;" d="M 29.433594 183.824219 L 53.578125 183.824219 L 54.726562 172.984375 L 59.328125 172.984375 L 60.476562 162.617188 L 61.625 145.335938 L 62.777344 128.058594 L 63.925781 122.296875 L 69.675781 122.296875 L 70.824219 110.777344 L 71.972656 110.777344 L 73.125 85.269531 L 96.117188 85.269531 L 97.269531 103.097656 L 106.46875 103.097656 L 107.617188 123.738281 L 111.066406 123.738281 L 112.214844 171.257812 L 117.964844 171.257812 L 119.113281 182.203125 L 169.703125 182.203125 L 170.855469 168.378906 L 173.152344 168.378906 L 174.304688 141.019531 L 177.753906 141.019531 L 178.902344 97.816406 L 182.351562 97.816406 L 183.5 97.5625 L 201.898438 97.5625 "/>
<path style="fill:none;stroke-width:1.066978;stroke-linecap:butt;stroke-linejoin:round;stroke:rgb(45.490196%,80%,34.509804%);stroke-opacity:1;stroke-miterlimit:10;" d="M 29.433594 175.96875 L 53.578125 175.96875 L 54.726562 172.984375 L 59.328125 172.984375 L 60.476562 162.617188 L 61.625 145.335938 L 62.777344 128.058594 L 63.925781 122.296875 L 69.675781 122.296875 L 70.824219 110.777344 L 71.972656 110.777344 L 73.125 101.726562 L 96.117188 101.726562 L 97.269531 103.097656 L 106.46875 103.097656 L 107.617188 123.738281 L 111.066406 123.738281 L 112.214844 171.257812 L 117.964844 171.257812 L 119.113281 174.519531 L 169.703125 174.519531 L 170.855469 168.378906 L 173.152344 168.378906 L 174.304688 141.019531 L 177.753906 141.019531 L 178.902344 105.839844 L 201.898438 105.839844 "/>
<path style="fill:none;stroke-width:1.066978;stroke-linecap:butt;stroke-linejoin:round;stroke:rgb(61.176471%,84.313725%,29.019608%);stroke-opacity:1;stroke-miterlimit:10;" d="M 29.433594 169.015625 L 59.328125 169.015625 L 60.476562 162.617188 L 61.625 145.335938 L 62.777344 128.058594 L 63.925781 122.296875 L 69.675781 122.296875 L 70.824219 113.476562 L 106.46875 113.476562 L 107.617188 123.738281 L 111.066406 123.738281 L 112.214844 167.417969 L 173.152344 167.417969 L 174.304688 141.019531 L 177.753906 141.019531 L 178.902344 114.070312 L 201.898438 114.070312 "/>
<path style="fill:none;stroke-width:1.066978;stroke-linecap:butt;stroke-linejoin:round;stroke:rgb(76.078431%,86.666667%,24.705882%);stroke-opacity:1;stroke-miterlimit:10;" d="M 29.433594 162.617188 L 60.476562 162.617188 L 61.625 145.335938 L 62.777344 128.058594 L 63.925781 123.945312 L 111.066406 123.945312 L 112.214844 161.015625 L 173.152344 161.015625 L 174.304688 141.019531 L 177.753906 141.019531 L 178.902344 122.296875 L 201.898438 122.296875 "/>
<path style="fill:none;stroke-width:1.066978;stroke-linecap:butt;stroke-linejoin:round;stroke:rgb(88.627451%,89.019608%,20%);stroke-opacity:1;stroke-miterlimit:10;" d="M 29.433594 156.445312 L 60.476562 156.445312 L 61.625 145.335938 L 62.777344 132.078125 L 111.066406 132.078125 L 112.214844 154.617188 L 173.152344 154.617188 L 174.304688 141.019531 L 177.753906 141.019531 L 178.902344 130.527344 L 201.898438 130.527344 "/>
<path style="fill:none;stroke-width:1.066978;stroke-linecap:butt;stroke-linejoin:round;stroke:rgb(99.215686%,90.588235%,14.509804%);stroke-opacity:1;stroke-miterlimit:10;" d="M 29.433594 150.273438 L 60.476562 150.273438 L 61.625 145.335938 L 62.777344 140.113281 L 111.066406 140.113281 L 112.214844 148.21875 L 173.152344 148.21875 L 174.304688 141.019531 L 177.753906 141.019531 L 178.902344 138.753906 L 201.898438 138.753906 "/>
<path style="fill:none;stroke-width:1.066978;stroke-linecap:butt;stroke-linejoin:round;stroke:rgb(20%,20%,20%);stroke-opacity:1;stroke-miterlimit:10;" d="M 18.070312 162.617188 L 20.808594 162.617188 "/>
<path style="fill:none;stroke-width:1.066978;stroke-linecap:butt;stroke-linejoin:round;stroke:rgb(20%,20%,20%);stroke-opacity:1;stroke-miterlimit:10;" d="M 18.070312 76.21875 L 20.808594 76.21875 "/>
<path style="fill:none;stroke-width:1.066978;stroke-linecap:butt;stroke-linejoin:round;stroke:rgb(20%,20%,20%);stroke-opacity:1;stroke-miterlimit:10;" d="M 28.28125 233.929688 L 28.28125 231.191406 "/>
<path style="fill:none;stroke-width:1.066978;stroke-linecap:butt;stroke-linejoin:round;stroke:rgb(20%,20%,20%);stroke-opacity:1;stroke-miterlimit:10;" d="M 85.769531 233.929688 L 85.769531 231.191406 "/>
<path style="fill:none;stroke-width:1.066978;stroke-linecap:butt;stroke-linejoin:round;stroke:rgb(20%,20%,20%);stroke-opacity:1;stroke-miterlimit:10;" d="M 143.257812 233.929688 L 143.257812 231.191406 "/>
<path style="fill:none;stroke-width:1.066978;stroke-linecap:butt;stroke-linejoin:round;stroke:rgb(20%,20%,20%);stroke-opacity:1;stroke-miterlimit:10;" d="M 200.746094 233.929688 L 200.746094 231.191406 "/>
<path style=" stroke:none;fill-rule:nonzero;fill:rgb(0%,12.941176%,27.058824%);fill-opacity:1;" d="M 216 252 L 432 252 L 432 0 L 216 0 Z M 216 252 "/>
<g clip-path="url(#clip3)" clip-rule="nonzero">
<path style="fill:none;stroke-width:1.066978;stroke-linecap:round;stroke-linejoin:round;stroke:rgb(100%,100%,100%);stroke-opacity:1;stroke-miterlimit:10;" d="M 216 252 L 432 252 L 432 0 L 216 0 Z M 216 252 "/>
</g>
<g clip-path="url(#clip4)" clip-rule="nonzero">
<path style=" stroke:none;fill-rule:nonzero;fill:rgb(0%,12.941176%,27.058824%);fill-opacity:1;" d="M 236.808594 231.191406 L 426.519531 231.191406 L 426.519531 5.480469 L 236.808594 5.480469 Z M 236.808594 231.191406 "/>
</g>
<path style="fill:none;stroke-width:1.066978;stroke-linecap:butt;stroke-linejoin:round;stroke:rgb(26.666667%,0.392157%,32.941176%);stroke-opacity:1;stroke-miterlimit:10;" d="M 245.433594 213.890625 L 246.582031 219.925781 L 247.730469 196.792969 L 248.882812 210.875 L 250.03125 212.886719 L 251.179688 210.875 L 252.332031 205.488281 L 253.480469 211.582031 L 254.628906 215.546875 L 255.78125 220.929688 L 256.929688 220.929688 L 258.082031 215.515625 L 259.230469 213.253906 L 260.378906 210.296875 L 261.53125 206.441406 L 262.679688 218.921875 L 263.828125 196.792969 L 264.980469 210.667969 L 266.128906 201.226562 L 267.277344 184.515625 L 268.429688 174.664062 L 269.578125 198.804688 L 270.726562 156.558594 L 271.878906 168.628906 L 273.027344 176.675781 L 274.175781 208.863281 L 275.328125 184.722656 L 276.476562 173.59375 L 277.625 162.71875 L 278.777344 149.453125 L 279.925781 126.382812 L 281.074219 140.464844 L 282.226562 150.523438 L 283.375 146.5 L 284.523438 178.6875 L 285.675781 154.546875 L 286.824219 134.429688 L 287.972656 148.511719 L 289.125 96.207031 L 290.273438 100.230469 L 291.421875 102.242188 L 292.574219 80.113281 L 293.722656 33.84375 L 294.871094 74.078125 L 296.023438 118.335938 L 297.171875 96.207031 L 298.320312 118.335938 L 299.472656 45.914062 L 300.621094 37.867188 L 301.769531 25.796875 L 302.921875 70.054688 L 304.070312 100.230469 L 305.21875 45.914062 L 306.371094 138.453125 L 307.519531 66.03125 L 308.667969 88.160156 L 309.820312 86.148438 L 310.96875 138.453125 L 312.117188 15.738281 L 313.269531 188.746094 L 314.417969 106.265625 L 315.566406 148.511719 L 316.71875 124.371094 L 317.867188 134.429688 L 319.019531 168.628906 L 320.167969 144.488281 L 321.316406 112.300781 L 322.46875 114.3125 L 323.617188 170.640625 L 324.765625 160.582031 L 325.917969 134.429688 L 327.066406 134.429688 L 328.214844 180.699219 L 329.367188 190.757812 L 330.515625 166.617188 L 331.664062 200.816406 L 332.816406 210.875 L 333.964844 116.324219 L 335.113281 218.921875 L 336.265625 204.839844 L 337.414062 172.652344 L 338.5625 194.78125 L 339.714844 208.863281 L 340.863281 194.78125 L 342.011719 194.78125 L 343.164062 208.863281 L 344.3125 205.175781 L 345.460938 203.695312 L 346.613281 202.089844 L 347.761719 200.347656 L 348.910156 185.867188 L 350.0625 212.609375 L 351.210938 220.066406 L 352.359375 216.910156 L 353.511719 219.382812 L 354.660156 215.980469 L 355.808594 209.328125 L 356.960938 185.867188 L 358.109375 212.609375 L 359.257812 220.066406 L 360.410156 216.910156 L 361.558594 218.921875 L 362.707031 195.082031 L 363.859375 214.292969 L 365.007812 220.257812 L 366.15625 212.832031 L 367.308594 184.886719 L 368.457031 202.550781 L 369.605469 212.015625 L 370.757812 210.875 L 371.90625 206.851562 L 373.054688 220.925781 L 374.207031 220.925781 L 375.355469 196.792969 L 376.503906 210.875 L 377.65625 210.875 L 378.804688 195.511719 L 379.957031 213.4375 L 381.105469 219.652344 L 382.253906 204.839844 L 383.40625 192.769531 L 384.554688 194.78125 L 385.703125 198.804688 L 386.855469 166.617188 L 388.003906 180.699219 L 389.152344 180.699219 L 390.304688 134.429688 L 391.453125 154.546875 L 392.601562 180.699219 L 393.753906 170.640625 L 394.902344 106.265625 L 396.050781 148.511719 L 397.203125 136.441406 L 398.351562 148.511719 L 399.5 116.324219 L 400.652344 128.394531 L 401.800781 86.148438 L 402.949219 150.523438 L 404.101562 140.464844 L 405.25 96.207031 L 406.398438 150.523438 L 407.550781 150.523438 L 408.699219 23.785156 L 409.847656 53.960938 L 411 98.21875 L 412.148438 76.089844 L 413.296875 98.21875 L 414.449219 105.007812 L 415.597656 112.804688 L 416.746094 120.097656 L 417.898438 83.132812 "/>
<path style="fill:none;stroke-width:1.066978;stroke-linecap:butt;stroke-linejoin:round;stroke:rgb(13.72549%,65.098039%,51.764706%);stroke-opacity:1;stroke-miterlimit:10;" d="M 245.433594 209.335938 L 246.582031 210.136719 L 247.730469 210.890625 L 248.882812 211.601562 L 250.03125 212.269531 L 251.179688 212.898438 L 252.332031 213.492188 L 253.480469 214.046875 L 254.628906 214.570312 L 255.78125 215.066406 L 256.929688 215.527344 L 258.082031 214.335938 L 259.230469 212.949219 L 260.378906 211.335938 L 261.53125 209.46875 L 262.679688 207.296875 L 263.828125 204.53125 L 264.980469 201.273438 L 266.128906 197.441406 L 267.277344 192.933594 L 268.429688 187.625 L 269.578125 181.382812 L 270.726562 174.03125 L 271.878906 177.898438 L 273.027344 181.457031 L 274.175781 184.734375 L 275.328125 178.453125 L 276.476562 171.140625 L 277.625 162.625 L 278.777344 152.710938 L 279.925781 141.167969 L 281.074219 145.4375 L 282.226562 149.488281 L 283.375 153.324219 L 284.523438 156.960938 L 285.675781 149.042969 L 286.824219 140.175781 L 287.972656 130.246094 L 289.125 119.125 L 290.273438 106.675781 L 291.421875 92.734375 L 292.574219 77.121094 L 293.722656 59.640625 L 294.871094 78.816406 L 296.023438 95.738281 L 297.171875 92.183594 L 298.320312 85.390625 L 299.472656 69.339844 L 300.621094 51.414062 L 301.769531 47.960938 L 302.921875 60.027344 L 304.070312 71.261719 L 305.21875 81.71875 L 306.371094 91.460938 L 307.519531 91.980469 L 308.667969 92.496094 L 309.820312 93.007812 L 310.96875 93.519531 L 312.117188 94.027344 L 313.269531 128.324219 L 314.417969 130.886719 L 315.566406 133.378906 L 316.71875 135.804688 L 317.867188 138.164062 L 319.019531 140.457031 L 320.167969 138.910156 L 321.316406 137.332031 L 322.46875 137.148438 L 323.617188 142.714844 L 324.765625 147.917969 L 325.917969 152.785156 L 327.066406 160.464844 L 328.214844 167.304688 L 329.367188 173.398438 L 330.515625 178.824219 L 331.664062 183.652344 L 332.816406 184.527344 L 333.964844 185.382812 L 335.113281 187.8125 L 336.265625 190.089844 L 337.414062 192.21875 L 338.5625 194.207031 L 339.714844 196.066406 L 340.863281 197.808594 L 342.011719 199.4375 L 343.164062 200.960938 L 344.3125 202.382812 L 345.460938 203.714844 L 346.613281 204.960938 L 347.761719 206.125 L 348.910156 207.214844 L 350.0625 208.472656 L 351.210938 209.628906 L 352.359375 210.695312 L 353.511719 211.671875 L 354.660156 211.449219 L 355.808594 211.222656 L 356.960938 210.992188 L 358.109375 210.753906 L 359.257812 210.511719 L 360.410156 210.265625 L 361.558594 209.960938 L 362.707031 209.648438 L 363.859375 209.328125 L 365.007812 209 L 366.15625 208.664062 L 367.308594 208.320312 L 368.457031 208.738281 L 369.605469 209.144531 L 370.757812 209.539062 L 371.90625 209.921875 L 373.054688 210.292969 L 374.207031 210.023438 L 375.355469 209.464844 L 376.503906 208.886719 L 377.65625 208.277344 L 378.804688 207.648438 L 379.957031 206.988281 L 381.105469 206.300781 L 382.253906 203.289062 L 383.40625 199.730469 L 384.554688 195.527344 L 385.703125 190.566406 L 386.855469 184.710938 L 388.003906 177.859375 L 389.152344 169.78125 L 390.304688 160.257812 L 391.453125 156.730469 L 392.601562 153.003906 L 393.753906 149.066406 L 394.902344 144.90625 L 396.050781 141.261719 L 397.203125 137.449219 L 398.351562 133.457031 L 399.5 129.277344 L 400.652344 124.902344 L 401.800781 120.324219 L 402.949219 122.878906 L 404.101562 125.371094 L 405.25 127.800781 L 406.398438 130.167969 L 407.550781 106.042969 L 408.699219 68.265625 L 409.847656 73.398438 L 411 80.503906 L 412.148438 87.273438 L 413.296875 93.71875 L 414.449219 99.859375 L 415.597656 105.710938 L 416.746094 104.261719 L 417.898438 102.796875 "/>
<path style="fill:none;stroke-width:1.066978;stroke-linecap:butt;stroke-linejoin:round;stroke:rgb(38.039216%,75.294118%,40.784314%);stroke-opacity:1;stroke-miterlimit:10;" d="M 245.433594 210.679688 L 246.582031 211.109375 L 247.730469 211.523438 L 248.882812 211.925781 L 250.03125 212.3125 L 251.179688 212.683594 L 252.332031 213.046875 L 253.480469 213.394531 L 254.628906 213.726562 L 255.78125 214.050781 L 256.929688 214.363281 L 258.082031 213.152344 L 259.230469 211.769531 L 260.378906 210.195312 L 261.53125 208.394531 L 262.679688 206.34375 L 263.828125 204 L 264.980469 201.328125 L 266.128906 198.277344 L 267.277344 194.796875 L 268.429688 190.824219 L 269.578125 187.066406 L 270.726562 182.875 L 271.878906 180.042969 L 273.027344 177.015625 L 274.175781 173.773438 L 275.328125 170.300781 L 276.476562 166.582031 L 277.625 162.601562 L 278.777344 158.34375 L 279.925781 153.78125 L 281.074219 152.574219 L 282.226562 151.347656 L 283.375 150.097656 L 284.523438 148.828125 L 285.675781 142.15625 L 286.824219 134.886719 L 287.972656 126.960938 L 289.125 118.320312 L 290.273438 108.90625 L 291.421875 98.640625 L 292.574219 87.453125 L 293.722656 75.261719 L 294.871094 77.453125 L 296.023438 79.609375 L 297.171875 81.738281 L 298.320312 75.730469 L 299.472656 69.46875 L 300.621094 62.941406 L 301.769531 56.132812 L 302.921875 63.320312 L 304.070312 70.195312 L 305.21875 76.777344 L 306.371094 83.074219 L 307.519531 89.105469 L 308.667969 94.871094 L 309.820312 100.394531 L 310.96875 105.675781 L 312.117188 110.730469 L 313.269531 116.578125 L 314.417969 122.125 L 315.566406 127.378906 L 316.71875 130.230469 L 317.867188 132.996094 L 319.019531 135.679688 L 320.167969 138.28125 L 321.316406 140.804688 L 322.46875 143.253906 L 323.617188 148.035156 L 324.765625 152.527344 L 325.917969 156.753906 L 327.066406 162.191406 L 328.214844 167.183594 L 329.367188 171.765625 L 330.515625 175.96875 L 331.664062 179.828125 L 332.816406 182.640625 L 333.964844 185.265625 L 335.113281 187.722656 L 336.265625 190.019531 L 337.414062 192.167969 L 338.5625 194.175781 L 339.714844 196.050781 L 340.863281 197.804688 L 342.011719 199.445312 L 343.164062 200.980469 L 344.3125 202.414062 L 345.460938 203.753906 L 346.613281 205.007812 L 347.761719 206.179688 L 348.910156 207.273438 L 350.0625 208.296875 L 351.210938 209.253906 L 352.359375 210.148438 L 353.511719 210.984375 L 355.808594 210.804688 L 356.960938 210.714844 L 358.109375 210.625 L 359.257812 210.53125 L 360.410156 210.4375 L 362.707031 210.25 L 363.859375 210.15625 L 366.15625 209.960938 L 367.308594 209.863281 L 369.605469 209.667969 L 370.757812 209.566406 L 371.90625 209.464844 L 373.054688 209.367188 L 374.207031 209.261719 L 375.355469 208.644531 L 376.503906 208 L 377.65625 207.324219 L 378.804688 206.617188 L 379.957031 205.878906 L 381.105469 205.109375 L 382.253906 202.1875 L 383.40625 198.785156 L 384.554688 194.824219 L 385.703125 190.21875 L 386.855469 184.855469 L 388.003906 178.613281 L 389.152344 171.351562 L 390.304688 162.894531 L 391.453125 158.527344 L 392.601562 153.84375 L 393.753906 148.816406 L 394.902344 143.425781 L 396.050781 140.765625 L 397.203125 138.011719 L 398.351562 135.167969 L 399.5 132.230469 L 400.652344 129.253906 L 401.800781 126.175781 L 402.949219 123.003906 L 404.101562 119.722656 L 405.25 116.335938 L 406.398438 112.835938 L 407.550781 102.558594 L 408.699219 91.316406 L 409.847656 79.027344 L 411 83.425781 L 412.148438 87.691406 L 413.296875 91.824219 L 414.449219 95.835938 L 415.597656 99.71875 L 416.746094 103.488281 L 417.898438 107.140625 "/>
<path style="fill:none;stroke-width:1.066978;stroke-linecap:butt;stroke-linejoin:round;stroke:rgb(47.058824%,81.568627%,32.54902%);stroke-opacity:1;stroke-miterlimit:10;" d="M 245.433594 211.785156 L 247.730469 212.128906 L 248.882812 212.296875 L 251.179688 212.625 L 252.332031 212.785156 L 254.628906 213.097656 L 255.78125 213.25 L 256.929688 213.402344 L 258.082031 212.191406 L 259.230469 210.828125 L 260.378906 209.292969 L 261.53125 207.5625 L 262.679688 205.613281 L 263.828125 203.417969 L 264.980469 200.941406 L 266.128906 198.152344 L 267.277344 195.007812 L 268.429688 191.46875 L 269.578125 187.476562 L 270.726562 182.984375 L 271.878906 180.449219 L 273.027344 177.753906 L 274.175781 174.886719 L 275.328125 171.839844 L 276.476562 168.601562 L 277.625 165.15625 L 278.777344 161.488281 L 279.925781 157.59375 L 281.074219 154.160156 L 282.226562 150.550781 L 283.375 146.75 L 284.523438 142.746094 L 285.675781 137.007812 L 286.824219 130.859375 L 287.972656 124.269531 L 289.125 117.210938 L 290.273438 109.644531 L 291.421875 101.539062 L 292.574219 92.851562 L 293.722656 83.546875 L 294.871094 80.359375 L 296.023438 77.097656 L 297.171875 73.761719 L 298.320312 70.347656 L 299.472656 66.851562 L 300.621094 63.269531 L 301.769531 59.601562 L 302.921875 66.226562 L 304.070312 72.582031 L 305.21875 78.679688 L 306.371094 84.53125 L 307.519531 90.144531 L 308.667969 95.535156 L 309.820312 100.710938 L 310.96875 105.679688 L 312.117188 110.453125 L 313.269531 115.03125 L 314.417969 119.425781 L 315.566406 123.640625 L 316.71875 127.6875 L 317.867188 131.566406 L 319.019531 135.289062 L 320.167969 138.859375 L 321.316406 142.28125 L 322.46875 145.5625 L 323.617188 150.488281 L 324.765625 155.097656 L 325.917969 159.417969 L 327.066406 163.765625 L 328.214844 167.816406 L 329.367188 171.589844 L 330.515625 175.105469 L 331.664062 178.378906 L 332.816406 181.429688 L 333.964844 184.273438 L 335.113281 186.921875 L 336.265625 189.386719 L 337.414062 191.683594 L 338.5625 193.824219 L 339.714844 195.816406 L 340.863281 197.613281 L 342.011719 199.289062 L 343.164062 200.851562 L 344.3125 202.316406 L 345.460938 203.679688 L 346.613281 204.953125 L 347.761719 206.144531 L 348.910156 207.257812 L 350.0625 208.292969 L 351.210938 209.265625 L 352.359375 210.167969 L 353.511719 211.015625 L 355.808594 210.84375 L 356.960938 210.757812 L 358.109375 210.671875 L 359.257812 210.582031 L 360.410156 210.496094 L 362.707031 210.316406 L 363.859375 210.226562 L 365.007812 210.136719 L 366.15625 210.042969 L 367.308594 209.953125 L 369.605469 209.765625 L 370.757812 209.671875 L 371.90625 209.578125 L 373.054688 209.480469 L 374.207031 209.386719 L 375.355469 208.585938 L 376.503906 207.742188 L 377.65625 206.847656 L 378.804688 205.902344 L 379.957031 204.898438 L 381.105469 203.78125 L 382.253906 200.9375 L 383.40625 197.675781 L 384.554688 193.925781 L 385.703125 189.625 L 386.855469 184.683594 L 388.003906 179.007812 L 389.152344 172.492188 L 390.304688 165.011719 L 391.453125 160.703125 L 392.601562 156.074219 L 393.753906 151.105469 L 394.902344 145.761719 L 396.050781 142.503906 L 397.203125 139.109375 L 398.351562 135.570312 L 399.5 131.882812 L 400.652344 128.042969 L 401.800781 124.035156 L 402.949219 119.863281 L 404.101562 115.511719 L 405.25 110.976562 L 406.398438 106.253906 L 407.550781 100.160156 L 408.699219 93.75 L 409.847656 87.007812 L 411 89.453125 L 412.148438 91.855469 L 413.296875 94.214844 L 414.449219 96.53125 L 415.597656 98.808594 L 416.746094 101.042969 L 417.898438 103.234375 "/>
<path style="fill:none;stroke-width:1.066978;stroke-linecap:butt;stroke-linejoin:round;stroke:rgb(61.960784%,84.313725%,28.627451%);stroke-opacity:1;stroke-miterlimit:10;" d="M 245.433594 212.796875 L 247.730469 212.726562 L 248.882812 212.691406 L 250.03125 212.65625 L 251.179688 212.625 L 252.332031 212.585938 L 254.628906 212.515625 L 255.78125 212.480469 L 256.929688 212.445312 L 258.082031 211.238281 L 259.230469 209.894531 L 260.378906 208.394531 L 261.53125 206.722656 L 262.679688 204.859375 L 263.828125 202.78125 L 264.980469 200.464844 L 266.128906 197.878906 L 267.277344 195 L 268.429688 191.789062 L 269.578125 188.210938 L 270.726562 184.21875 L 271.878906 181.683594 L 273.027344 178.984375 L 274.175781 176.109375 L 275.328125 173.042969 L 276.476562 169.777344 L 277.625 166.296875 L 278.777344 162.589844 L 279.925781 158.640625 L 281.074219 154.433594 L 282.226562 149.949219 L 283.375 145.171875 L 284.523438 140.082031 L 285.675781 134.660156 L 286.824219 128.882812 L 287.972656 122.726562 L 289.125 116.164062 L 290.273438 109.175781 L 291.421875 101.730469 L 292.574219 93.796875 L 293.722656 85.34375 L 294.871094 81.878906 L 296.023438 78.324219 L 297.171875 74.683594 L 298.320312 70.949219 L 299.472656 67.125 L 300.621094 63.199219 L 301.769531 59.179688 L 302.921875 65.871094 L 304.070312 72.289062 L 305.21875 78.445312 L 306.371094 84.351562 L 307.519531 90.019531 L 308.667969 95.453125 L 309.820312 100.664062 L 310.96875 105.664062 L 312.117188 110.457031 L 313.269531 115.054688 L 314.417969 119.464844 L 315.566406 123.691406 L 316.71875 127.746094 L 317.867188 131.636719 L 319.019531 135.363281 L 320.167969 138.941406 L 321.316406 142.367188 L 322.46875 145.65625 L 323.617188 150.808594 L 324.765625 155.617188 L 325.917969 160.105469 L 327.066406 164.296875 L 328.214844 168.207031 L 329.367188 171.855469 L 330.515625 175.261719 L 331.664062 178.441406 L 332.816406 181.410156 L 333.964844 184.179688 L 335.113281 186.765625 L 336.265625 189.179688 L 337.414062 191.433594 L 338.5625 193.535156 L 339.714844 195.5 L 340.863281 197.332031 L 342.011719 199.039062 L 343.164062 200.636719 L 344.3125 202.125 L 345.460938 203.515625 L 346.613281 204.8125 L 347.761719 206.023438 L 348.910156 207.152344 L 350.0625 208.207031 L 351.210938 209.191406 L 352.359375 210.109375 L 353.511719 210.964844 L 354.660156 210.886719 L 355.808594 210.804688 L 356.960938 210.722656 L 358.109375 210.644531 L 359.257812 210.5625 L 360.410156 210.476562 L 362.707031 210.3125 L 363.859375 210.226562 L 366.15625 210.054688 L 367.308594 209.96875 L 369.605469 209.796875 L 370.757812 209.707031 L 371.90625 209.621094 L 373.054688 209.53125 L 374.207031 209.441406 L 375.355469 208.574219 L 376.503906 207.648438 L 377.65625 206.667969 L 378.804688 205.621094 L 379.957031 204.507812 L 381.105469 202.109375 L 382.253906 199.402344 L 383.40625 196.34375 L 384.554688 192.886719 L 385.703125 188.980469 L 386.855469 184.566406 L 388.003906 179.582031 L 389.152344 173.945312 L 390.304688 167.578125 L 391.453125 162.78125 L 392.601562 157.574219 L 393.753906 151.914062 L 394.902344 145.765625 L 396.050781 142.445312 L 397.203125 138.980469 L 398.351562 135.367188 L 399.5 131.597656 L 400.652344 127.667969 L 401.800781 123.566406 L 402.949219 119.289062 L 404.101562 114.828125 L 405.25 110.175781 L 406.398438 105.324219 L 407.550781 100.261719 L 408.699219 94.980469 L 409.847656 89.472656 L 411 91.222656 L 412.148438 92.945312 L 413.296875 94.648438 L 414.449219 96.328125 L 415.597656 97.984375 L 416.746094 99.621094 L 417.898438 101.234375 "/>
<path style="fill:none;stroke-width:1.066978;stroke-linecap:butt;stroke-linejoin:round;stroke:rgb(72.941176%,86.27451%,25.882353%);stroke-opacity:1;stroke-miterlimit:10;" d="M 245.433594 213.746094 L 246.582031 213.539062 L 247.730469 213.328125 L 248.882812 213.113281 L 250.03125 212.890625 L 251.179688 212.664062 L 252.332031 212.433594 L 253.480469 212.195312 L 254.628906 211.953125 L 255.78125 211.707031 L 256.929688 211.453125 L 258.082031 210.257812 L 259.230469 208.941406 L 260.378906 207.488281 L 261.53125 205.878906 L 262.679688 204.109375 L 263.828125 202.152344 L 264.980469 199.992188 L 266.128906 197.605469 L 267.277344 194.972656 L 268.429688 192.066406 L 269.578125 188.859375 L 270.726562 185.320312 L 271.878906 182.707031 L 273.027344 179.914062 L 274.175781 176.929688 L 275.328125 173.738281 L 276.476562 170.320312 L 277.625 166.667969 L 278.777344 162.765625 L 279.925781 158.589844 L 281.074219 154.378906 L 282.226562 149.894531 L 283.375 145.117188 L 284.523438 140.027344 L 285.675781 134.605469 L 286.824219 128.828125 L 287.972656 122.671875 L 289.125 116.113281 L 290.273438 109.128906 L 291.421875 101.683594 L 292.574219 93.75 L 293.722656 85.300781 L 294.871094 81.820312 L 296.023438 78.253906 L 297.171875 74.59375 L 298.320312 70.84375 L 299.472656 66.996094 L 300.621094 63.054688 L 301.769531 59.015625 L 302.921875 65.757812 L 304.070312 72.21875 L 305.21875 78.417969 L 306.371094 84.363281 L 307.519531 90.0625 L 308.667969 95.527344 L 309.820312 100.765625 L 310.96875 105.789062 L 312.117188 110.605469 L 313.269531 115.222656 L 314.417969 119.648438 L 315.566406 123.890625 L 316.71875 127.957031 L 317.867188 131.855469 L 319.019531 135.59375 L 320.167969 139.179688 L 321.316406 142.613281 L 322.46875 145.910156 L 323.617188 151.007812 L 324.765625 155.773438 L 325.917969 160.21875 L 327.066406 164.371094 L 328.214844 168.25 L 329.367188 171.871094 L 330.515625 175.253906 L 331.664062 178.414062 L 332.816406 181.363281 L 333.964844 184.117188 L 335.113281 186.691406 L 336.265625 189.09375 L 337.414062 191.335938 L 338.5625 193.429688 L 339.714844 195.386719 L 340.863281 197.214844 L 342.011719 198.921875 L 343.164062 200.511719 L 344.3125 202 L 345.460938 203.386719 L 346.613281 204.683594 L 347.761719 205.894531 L 348.910156 207.023438 L 350.0625 208.082031 L 351.210938 209.066406 L 352.359375 209.984375 L 353.511719 210.84375 L 355.808594 210.710938 L 356.960938 210.644531 L 359.257812 210.511719 L 360.410156 210.445312 L 361.558594 210.375 L 362.707031 210.308594 L 363.859375 210.238281 L 365.007812 210.167969 L 366.15625 210.101562 L 367.308594 210.03125 L 369.605469 209.890625 L 370.757812 209.816406 L 373.054688 209.675781 L 374.207031 209.601562 L 375.355469 208.519531 L 376.503906 207.347656 L 377.65625 206.082031 L 378.804688 204.714844 L 379.957031 203.234375 L 381.105469 200.9375 L 382.253906 198.371094 L 383.40625 195.507812 L 384.554688 192.308594 L 385.703125 188.734375 L 386.855469 184.746094 L 388.003906 180.292969 L 389.152344 175.316406 L 390.304688 169.765625 L 391.453125 164.472656 L 392.601562 158.65625 L 393.753906 152.257812 L 394.902344 145.226562 L 396.050781 141.972656 L 397.203125 138.585938 L 398.351562 135.054688 L 399.5 131.378906 L 400.652344 127.550781 L 401.800781 123.558594 L 402.949219 119.398438 L 404.101562 115.066406 L 405.25 110.554688 L 406.398438 105.851562 L 407.550781 100.953125 L 408.699219 95.851562 L 409.847656 90.53125 L 411 91.890625 L 412.148438 93.230469 L 413.296875 94.558594 L 414.449219 95.875 L 415.597656 97.175781 L 416.746094 98.464844 L 417.898438 99.742188 "/>
<path style="fill:none;stroke-width:1.066978;stroke-linecap:butt;stroke-linejoin:round;stroke:rgb(81.176471%,87.45098%,23.137255%);stroke-opacity:1;stroke-miterlimit:10;" d="M 245.433594 214.652344 L 246.582031 214.300781 L 247.730469 213.933594 L 248.882812 213.550781 L 250.03125 213.152344 L 251.179688 212.738281 L 252.332031 212.304688 L 253.480469 211.851562 L 254.628906 211.382812 L 255.78125 210.890625 L 256.929688 210.378906 L 258.082031 209.214844 L 259.230469 207.945312 L 260.378906 206.558594 L 261.53125 205.039062 L 262.679688 203.382812 L 263.828125 201.570312 L 264.980469 199.59375 L 266.128906 197.433594 L 267.277344 195.070312 L 268.429688 192.492188 L 269.578125 189.671875 L 270.726562 186.59375 L 271.878906 183.875 L 273.027344 180.957031 L 274.175781 177.820312 L 275.328125 174.445312 L 276.476562 170.824219 L 277.625 166.925781 L 278.777344 162.742188 L 279.925781 158.242188 L 281.074219 154.050781 L 282.226562 149.585938 L 283.375 144.832031 L 284.523438 139.773438 L 285.675781 134.382812 L 286.824219 128.648438 L 287.972656 122.535156 L 289.125 116.03125 L 290.273438 109.105469 L 291.421875 101.726562 L 292.574219 93.875 L 293.722656 85.511719 L 294.871094 81.980469 L 296.023438 78.363281 L 297.171875 74.648438 L 298.320312 70.84375 L 299.472656 66.9375 L 300.621094 62.933594 L 301.769531 58.828125 L 302.921875 65.617188 L 304.070312 72.121094 L 305.21875 78.359375 L 306.371094 84.339844 L 307.519531 90.074219 L 308.667969 95.566406 L 309.820312 100.835938 L 310.96875 105.882812 L 312.117188 110.722656 L 313.269531 115.359375 L 314.417969 119.804688 L 315.566406 124.066406 L 316.71875 128.148438 L 317.867188 132.066406 L 319.019531 135.816406 L 320.167969 139.414062 L 321.316406 142.863281 L 322.46875 146.167969 L 323.617188 151.21875 L 324.765625 155.9375 L 325.917969 160.34375 L 327.066406 164.460938 L 328.214844 168.308594 L 329.367188 171.902344 L 330.515625 175.261719 L 331.664062 178.398438 L 332.816406 181.332031 L 333.964844 184.070312 L 335.113281 186.628906 L 336.265625 189.019531 L 337.414062 191.25 L 338.5625 193.335938 L 339.714844 195.285156 L 340.863281 197.105469 L 342.011719 198.808594 L 343.164062 200.398438 L 344.3125 201.878906 L 345.460938 203.265625 L 346.613281 204.5625 L 347.761719 205.773438 L 348.910156 206.902344 L 350.0625 207.957031 L 351.210938 208.945312 L 352.359375 209.867188 L 353.511719 210.726562 L 355.808594 210.617188 L 356.960938 210.5625 L 359.257812 210.453125 L 360.410156 210.398438 L 361.558594 210.34375 L 362.707031 210.285156 L 363.859375 210.230469 L 365.007812 210.175781 L 366.15625 210.117188 L 367.308594 210.058594 L 368.457031 210.003906 L 369.605469 209.945312 L 370.757812 209.886719 L 371.90625 209.828125 L 373.054688 209.773438 L 374.207031 209.714844 L 375.355469 208.515625 L 376.503906 207.207031 L 377.65625 205.78125 L 378.804688 204.058594 L 379.957031 202.164062 L 381.105469 199.941406 L 382.253906 197.484375 L 383.40625 194.761719 L 384.554688 191.746094 L 385.703125 188.410156 L 386.855469 184.71875 L 388.003906 180.628906 L 389.152344 176.105469 L 390.304688 171.097656 L 391.453125 165.550781 L 392.601562 159.414062 L 393.753906 152.621094 L 394.902344 145.101562 L 396.050781 141.894531 L 397.203125 138.554688 L 398.351562 135.078125 L 399.5 131.457031 L 400.652344 127.691406 L 401.800781 123.765625 L 402.949219 119.679688 L 404.101562 115.425781 L 405.25 110.996094 L 406.398438 106.386719 L 407.550781 101.582031 L 408.699219 96.585938 L 409.847656 91.378906 L 411 92.394531 L 412.148438 93.398438 L 413.296875 94.398438 L 414.449219 95.390625 L 415.597656 96.375 L 416.746094 97.351562 L 417.898438 98.320312 "/>
<path style="fill:none;stroke-width:1.066978;stroke-linecap:butt;stroke-linejoin:round;stroke:rgb(88.235294%,88.627451%,20.392157%);stroke-opacity:1;stroke-miterlimit:10;" d="M 245.433594 215.503906 L 246.582031 215.035156 L 247.730469 214.539062 L 248.882812 214.007812 L 250.03125 213.445312 L 251.179688 212.847656 L 252.332031 212.214844 L 253.480469 211.539062 L 254.628906 210.820312 L 255.78125 210.058594 L 256.929688 209.25 L 258.082031 208.128906 L 259.230469 206.921875 L 260.378906 205.613281 L 261.53125 204.199219 L 262.679688 202.671875 L 263.828125 201.015625 L 264.980469 199.226562 L 266.128906 197.289062 L 267.277344 195.195312 L 268.429688 192.933594 L 269.578125 190.484375 L 270.726562 187.832031 L 271.878906 185.019531 L 273.027344 181.980469 L 274.175781 178.699219 L 275.328125 175.15625 L 276.476562 171.324219 L 277.625 167.1875 L 278.777344 162.722656 L 279.925781 157.898438 L 281.074219 153.722656 L 282.226562 149.277344 L 283.375 144.550781 L 284.523438 139.519531 L 285.675781 134.164062 L 286.824219 128.464844 L 287.972656 122.402344 L 289.125 115.949219 L 290.273438 109.082031 L 291.421875 101.773438 L 292.574219 93.992188 L 293.722656 85.714844 L 294.871094 82.140625 L 296.023438 78.472656 L 297.171875 74.707031 L 298.320312 70.84375 L 299.472656 66.882812 L 300.621094 62.816406 L 301.769531 58.644531 L 302.921875 65.476562 L 304.070312 72.023438 L 305.21875 78.300781 L 306.371094 84.316406 L 307.519531 90.082031 L 308.667969 95.605469 L 309.820312 100.898438 L 310.96875 105.972656 L 312.117188 110.835938 L 313.269531 115.496094 L 314.417969 119.960938 L 315.566406 124.238281 L 316.71875 128.339844 L 317.867188 132.269531 L 319.019531 136.035156 L 320.167969 139.644531 L 321.316406 143.105469 L 322.46875 146.421875 L 323.617188 151.421875 L 324.765625 156.097656 L 325.917969 160.46875 L 327.066406 164.550781 L 328.214844 168.367188 L 329.367188 171.9375 L 330.515625 175.273438 L 331.664062 178.386719 L 332.816406 181.300781 L 333.964844 184.023438 L 335.113281 186.570312 L 336.265625 188.949219 L 337.414062 191.171875 L 338.5625 193.25 L 339.714844 195.191406 L 340.863281 197.007812 L 342.011719 198.703125 L 343.164062 200.289062 L 344.3125 201.769531 L 345.460938 203.15625 L 346.613281 204.449219 L 347.761719 205.660156 L 348.910156 206.789062 L 350.0625 207.84375 L 351.210938 208.832031 L 352.359375 209.753906 L 353.511719 210.617188 L 354.660156 210.574219 L 355.808594 210.527344 L 356.960938 210.480469 L 358.109375 210.4375 L 359.257812 210.390625 L 360.410156 210.34375 L 362.707031 210.25 L 363.859375 210.203125 L 366.15625 210.109375 L 367.308594 210.0625 L 369.605469 209.96875 L 370.757812 209.921875 L 371.90625 209.871094 L 373.054688 209.824219 L 374.207031 209.777344 L 375.355469 208.484375 L 376.503906 207.066406 L 377.65625 205.511719 L 378.804688 203.691406 L 379.957031 201.679688 L 381.105469 199.460938 L 382.253906 197.011719 L 383.40625 194.304688 L 384.554688 191.316406 L 385.703125 188.015625 L 386.855469 184.371094 L 388.003906 180.34375 L 389.152344 175.898438 L 390.304688 170.988281 L 391.453125 165.5625 L 392.601562 159.574219 L 393.753906 152.960938 L 394.902344 145.65625 L 396.050781 142.453125 L 397.203125 139.113281 L 398.351562 135.640625 L 399.5 132.019531 L 400.652344 128.25 L 401.800781 124.324219 L 402.949219 120.234375 L 404.101562 115.976562 L 405.25 111.542969 L 406.398438 106.921875 L 407.550781 102.113281 L 408.699219 97.101562 L 409.847656 91.886719 L 411 92.632812 L 412.148438 93.375 L 413.296875 94.113281 L 414.449219 94.84375 L 415.597656 95.574219 L 416.746094 96.300781 L 417.898438 97.019531 "/>
<path style="fill:none;stroke-width:1.066978;stroke-linecap:butt;stroke-linejoin:round;stroke:rgb(94.117647%,89.803922%,17.254902%);stroke-opacity:1;stroke-miterlimit:10;" d="M 245.433594 216.15625 L 246.582031 215.632812 L 247.730469 215.066406 L 248.882812 214.457031 L 250.03125 213.800781 L 251.179688 213.09375 L 252.332031 212.332031 L 253.480469 211.511719 L 254.628906 210.628906 L 255.78125 209.675781 L 256.929688 208.648438 L 258.082031 207.53125 L 259.230469 206.328125 L 260.378906 205.027344 L 261.53125 203.625 L 262.679688 202.113281 L 263.828125 200.488281 L 264.980469 198.730469 L 266.128906 196.835938 L 267.277344 194.796875 L 268.429688 192.59375 L 269.578125 190.222656 L 270.726562 187.660156 L 271.878906 184.902344 L 273.027344 181.929688 L 274.175781 178.722656 L 275.328125 175.261719 L 276.476562 171.535156 L 277.625 167.515625 L 278.777344 163.179688 L 279.925781 158.503906 L 281.074219 154.304688 L 282.226562 149.828125 L 283.375 145.058594 L 284.523438 139.980469 L 285.675781 134.570312 L 286.824219 128.808594 L 287.972656 122.667969 L 289.125 116.128906 L 290.273438 109.164062 L 291.421875 101.746094 L 292.574219 93.84375 L 293.722656 85.425781 L 294.871094 81.875 L 296.023438 78.234375 L 297.171875 74.496094 L 298.320312 70.664062 L 299.472656 66.734375 L 300.621094 62.703125 L 301.769531 58.566406 L 302.921875 65.429688 L 304.070312 72.007812 L 305.21875 78.308594 L 306.371094 84.347656 L 307.519531 90.132812 L 308.667969 95.679688 L 309.820312 100.992188 L 310.96875 106.082031 L 312.117188 110.960938 L 313.269531 115.636719 L 314.417969 120.113281 L 315.566406 124.40625 L 316.71875 128.515625 L 317.867188 132.457031 L 319.019531 136.234375 L 320.167969 139.851562 L 321.316406 143.316406 L 322.46875 146.640625 L 323.617188 151.601562 L 324.765625 156.238281 L 325.917969 160.578125 L 327.066406 164.632812 L 328.214844 168.425781 L 329.367188 171.96875 L 330.515625 175.285156 L 331.664062 178.382812 L 332.816406 181.28125 L 333.964844 183.992188 L 335.113281 186.523438 L 336.265625 188.894531 L 337.414062 191.109375 L 338.5625 193.179688 L 339.714844 195.113281 L 340.863281 196.925781 L 342.011719 198.617188 L 343.164062 200.199219 L 344.3125 201.679688 L 345.460938 203.0625 L 346.613281 204.355469 L 347.761719 205.5625 L 348.910156 206.695312 L 350.0625 207.75 L 351.210938 208.738281 L 352.359375 209.664062 L 353.511719 210.527344 L 355.808594 210.441406 L 356.960938 210.398438 L 358.109375 210.351562 L 359.257812 210.308594 L 360.410156 210.265625 L 361.558594 210.222656 L 362.707031 210.175781 L 363.859375 210.132812 L 365.007812 210.085938 L 366.15625 210.042969 L 367.308594 209.996094 L 368.457031 209.953125 L 369.605469 209.90625 L 370.757812 209.863281 L 373.054688 209.769531 L 374.207031 209.722656 L 375.355469 208.367188 L 376.503906 206.867188 L 377.65625 205.214844 L 378.804688 203.394531 L 379.957031 201.386719 L 381.105469 199.167969 L 382.253906 196.726562 L 383.40625 194.03125 L 384.554688 191.0625 L 385.703125 187.785156 L 386.855469 184.171875 L 388.003906 180.191406 L 389.152344 175.796875 L 390.304688 170.953125 L 391.453125 165.609375 L 392.601562 159.71875 L 393.753906 153.222656 L 394.902344 146.058594 L 396.050781 142.867188 L 397.203125 139.542969 L 398.351562 136.082031 L 399.5 132.472656 L 400.652344 128.71875 L 401.800781 124.804688 L 402.949219 120.730469 L 404.101562 116.484375 L 405.25 112.0625 L 406.398438 107.457031 L 407.550781 102.664062 L 408.699219 97.667969 L 409.847656 92.464844 L 411 92.929688 L 412.148438 93.394531 L 413.296875 93.855469 L 414.449219 94.316406 L 415.597656 94.777344 L 416.746094 95.234375 L 417.898438 95.691406 "/>
<path style="fill:none;stroke-width:1.066978;stroke-linecap:butt;stroke-linejoin:round;stroke:rgb(99.215686%,90.588235%,14.509804%);stroke-opacity:1;stroke-miterlimit:10;" d="M 245.433594 216.140625 L 246.582031 215.613281 L 247.730469 215.042969 L 248.882812 214.429688 L 250.03125 213.765625 L 251.179688 213.054688 L 252.332031 212.285156 L 253.480469 211.457031 L 254.628906 210.5625 L 255.78125 209.601562 L 256.929688 208.5625 L 258.082031 207.445312 L 259.230469 206.242188 L 260.378906 204.941406 L 261.53125 203.542969 L 262.679688 202.035156 L 263.828125 200.410156 L 264.980469 198.660156 L 266.128906 196.773438 L 267.277344 194.738281 L 268.429688 192.546875 L 269.578125 190.183594 L 270.726562 187.636719 L 271.878906 184.890625 L 273.027344 181.933594 L 274.175781 178.746094 L 275.328125 175.3125 L 276.476562 171.609375 L 277.625 167.621094 L 278.777344 163.320312 L 279.925781 158.6875 L 281.074219 154.480469 L 282.226562 149.996094 L 283.375 145.214844 L 284.523438 140.125 L 285.675781 134.699219 L 286.824219 128.917969 L 287.972656 122.757812 L 289.125 116.195312 L 290.273438 109.199219 L 291.421875 101.75 L 292.574219 93.808594 L 293.722656 85.347656 L 294.871094 81.796875 L 296.023438 78.148438 L 297.171875 74.410156 L 298.320312 70.574219 L 299.472656 66.640625 L 300.621094 62.601562 L 301.769531 58.460938 L 302.921875 65.355469 L 304.070312 71.960938 L 305.21875 78.292969 L 306.371094 84.355469 L 307.519531 90.164062 L 308.667969 95.730469 L 309.820312 101.0625 L 310.96875 106.171875 L 312.117188 111.066406 L 313.269531 115.757812 L 314.417969 120.25 L 315.566406 124.554688 L 316.71875 128.679688 L 317.867188 132.632812 L 319.019531 136.417969 L 320.167969 140.042969 L 321.316406 143.519531 L 322.46875 146.847656 L 323.617188 151.773438 L 324.765625 156.378906 L 325.917969 160.6875 L 327.066406 164.71875 L 328.214844 168.488281 L 329.367188 172.011719 L 330.515625 175.308594 L 331.664062 178.394531 L 332.816406 181.277344 L 333.964844 183.972656 L 335.113281 186.496094 L 336.265625 188.855469 L 337.414062 191.0625 L 338.5625 193.125 L 339.714844 195.058594 L 340.863281 196.863281 L 342.011719 198.550781 L 343.164062 200.128906 L 344.3125 201.605469 L 345.460938 202.988281 L 346.613281 204.28125 L 347.761719 205.488281 L 348.910156 206.617188 L 350.0625 207.675781 L 351.210938 208.664062 L 352.359375 209.585938 L 353.511719 210.453125 L 354.660156 210.40625 L 355.808594 210.355469 L 356.960938 210.308594 L 358.109375 210.257812 L 359.257812 210.210938 L 360.410156 210.160156 L 361.558594 210.113281 L 362.707031 210.0625 L 363.859375 210.011719 L 365.007812 209.960938 L 366.15625 209.914062 L 367.308594 209.863281 L 369.605469 209.761719 L 370.757812 209.710938 L 373.054688 209.609375 L 374.207031 209.558594 L 375.355469 208.195312 L 376.503906 206.695312 L 377.65625 205.039062 L 378.804688 203.21875 L 379.957031 201.210938 L 381.105469 199 L 382.253906 196.566406 L 383.40625 193.882812 L 384.554688 190.925781 L 385.703125 187.667969 L 386.855469 184.078125 L 388.003906 180.121094 L 389.152344 175.765625 L 390.304688 170.964844 L 391.453125 165.675781 L 392.601562 159.851562 L 393.753906 153.433594 L 394.902344 146.359375 L 396.050781 143.183594 L 397.203125 139.878906 L 398.351562 136.4375 L 399.5 132.851562 L 400.652344 129.117188 L 401.800781 125.226562 L 402.949219 121.179688 L 404.101562 116.960938 L 405.25 112.566406 L 406.398438 107.992188 L 407.550781 103.226562 L 408.699219 98.265625 L 409.847656 93.097656 L 411 93.273438 L 412.148438 93.449219 L 413.296875 93.628906 L 414.449219 93.804688 L 416.746094 94.15625 L 417.898438 94.332031 "/>
<path style="fill:none;stroke-width:1.066978;stroke-linecap:butt;stroke-linejoin:round;stroke:rgb(20%,20%,20%);stroke-opacity:1;stroke-miterlimit:10;" d="M 234.070312 222.945312 L 236.808594 222.945312 "/>
<path style="fill:none;stroke-width:1.066978;stroke-linecap:butt;stroke-linejoin:round;stroke:rgb(20%,20%,20%);stroke-opacity:1;stroke-miterlimit:10;" d="M 234.070312 172.652344 L 236.808594 172.652344 "/>
<path style="fill:none;stroke-width:1.066978;stroke-linecap:butt;stroke-linejoin:round;stroke:rgb(20%,20%,20%);stroke-opacity:1;stroke-miterlimit:10;" d="M 234.070312 122.359375 L 236.808594 122.359375 "/>
<path style="fill:none;stroke-width:1.066978;stroke-linecap:butt;stroke-linejoin:round;stroke:rgb(20%,20%,20%);stroke-opacity:1;stroke-miterlimit:10;" d="M 234.070312 72.066406 L 236.808594 72.066406 "/>
<path style="fill:none;stroke-width:1.066978;stroke-linecap:butt;stroke-linejoin:round;stroke:rgb(20%,20%,20%);stroke-opacity:1;stroke-miterlimit:10;" d="M 234.070312 21.773438 L 236.808594 21.773438 "/>
<path style="fill:none;stroke-width:1.066978;stroke-linecap:butt;stroke-linejoin:round;stroke:rgb(20%,20%,20%);stroke-opacity:1;stroke-miterlimit:10;" d="M 244.28125 233.929688 L 244.28125 231.191406 "/>
<path style="fill:none;stroke-width:1.066978;stroke-linecap:butt;stroke-linejoin:round;stroke:rgb(20%,20%,20%);stroke-opacity:1;stroke-miterlimit:10;" d="M 301.769531 233.929688 L 301.769531 231.191406 "/>
<path style="fill:none;stroke-width:1.066978;stroke-linecap:butt;stroke-linejoin:round;stroke:rgb(20%,20%,20%);stroke-opacity:1;stroke-miterlimit:10;" d="M 359.257812 233.929688 L 359.257812 231.191406 "/>
<path style="fill:none;stroke-width:1.066978;stroke-linecap:butt;stroke-linejoin:round;stroke:rgb(20%,20%,20%);stroke-opacity:1;stroke-miterlimit:10;" d="M 416.746094 233.929688 L 416.746094 231.191406 "/>
<path style=" stroke:none;fill-rule:nonzero;fill:rgb(0%,12.941176%,27.058824%);fill-opacity:1;" d="M 432 252 L 648 252 L 648 0 L 432 0 Z M 432 252 "/>
<g clip-path="url(#clip5)" clip-rule="nonzero">
<path style="fill:none;stroke-width:1.066978;stroke-linecap:round;stroke-linejoin:round;stroke:rgb(100%,100%,100%);stroke-opacity:1;stroke-miterlimit:10;" d="M 432 252 L 648 252 L 648 0 L 432 0 Z M 432 252 "/>
</g>
<g clip-path="url(#clip6)" clip-rule="nonzero">
<path style=" stroke:none;fill-rule:nonzero;fill:rgb(0%,12.941176%,27.058824%);fill-opacity:1;" d="M 452.808594 231.191406 L 642.519531 231.191406 L 642.519531 5.480469 L 452.808594 5.480469 Z M 452.808594 231.191406 "/>
</g>
<path style="fill:none;stroke-width:1.066978;stroke-linecap:butt;stroke-linejoin:round;stroke:rgb(26.666667%,0.392157%,32.941176%);stroke-opacity:1;stroke-miterlimit:10;" d="M 461.433594 213.800781 L 462.582031 218.929688 L 463.730469 198.585938 L 464.882812 209.152344 L 466.03125 212.289062 L 467.179688 211.695312 L 468.332031 206.878906 L 469.480469 209.144531 L 470.628906 215.828125 L 471.78125 220.777344 L 472.929688 220.929688 L 474.082031 217.191406 L 475.230469 211.886719 L 476.378906 208.421875 L 477.53125 209.871094 L 478.679688 214.882812 L 479.828125 200.304688 L 480.980469 207.082031 L 482.128906 203.5625 L 483.277344 181.699219 L 484.429688 176.273438 L 485.578125 194.839844 L 486.726562 159.410156 L 487.878906 163.515625 L 489.027344 179.933594 L 490.175781 204.617188 L 491.328125 187.988281 L 492.476562 170.570312 L 493.625 161.242188 L 494.777344 147.265625 L 495.925781 126.3125 L 497.074219 139.488281 L 498.226562 146.492188 L 499.375 148.664062 L 500.523438 175.828125 L 501.675781 151.199219 L 502.824219 136.832031 L 503.972656 142.992188 L 505.125 95.785156 L 506.273438 99.382812 L 507.421875 97.300781 L 508.574219 77.847656 L 509.722656 32.664062 L 510.871094 69.101562 L 512.023438 114.257812 L 513.171875 97.835938 L 514.320312 112.203125 L 515.472656 46.527344 L 516.621094 30.105469 L 517.769531 23.949219 L 518.921875 69.101562 L 520.070312 93.730469 L 521.21875 46.527344 L 522.371094 132.726562 L 523.519531 67.050781 L 524.667969 81.417969 L 525.820312 87.574219 L 526.96875 132.726562 L 528.117188 15.738281 L 529.269531 184.039062 L 530.417969 108.097656 L 531.566406 144.0625 L 532.71875 123.355469 L 533.867188 133.890625 L 535.019531 166.546875 L 536.167969 142.992188 L 537.316406 108.097656 L 538.46875 116.308594 L 539.617188 165.566406 L 540.765625 163.515625 L 541.917969 128.625 L 543.066406 135.082031 L 544.214844 181.078125 L 545.367188 187 L 546.515625 167.316406 L 547.664062 202.511719 L 548.816406 206.617188 L 549.964844 118.359375 L 551.113281 216.878906 L 552.265625 202.511719 L 553.414062 175.828125 L 554.5625 192.25 L 555.714844 207.5625 L 556.863281 195.570312 L 558.011719 195.085938 L 559.164062 206.726562 L 560.3125 205.496094 L 561.460938 204.035156 L 562.613281 202.296875 L 563.761719 197.5625 L 564.910156 187.832031 L 566.0625 212.5 L 567.210938 217.84375 L 568.359375 218.820312 L 569.511719 218.355469 L 570.660156 215.917969 L 571.808594 208.941406 L 572.960938 186.6875 L 574.109375 212.347656 L 575.257812 218.398438 L 576.410156 218.992188 L 577.558594 215.960938 L 578.707031 198.171875 L 579.859375 212.773438 L 581.007812 218.929688 L 582.15625 212.773438 L 583.308594 186.089844 L 584.457031 202.054688 L 585.605469 210.035156 L 586.757812 211.40625 L 587.90625 208.015625 L 589.054688 220.207031 L 590.207031 219.703125 L 591.355469 198.460938 L 592.503906 209.789062 L 593.65625 209.601562 L 594.804688 197.410156 L 595.957031 212.773438 L 597.105469 217.757812 L 598.253906 206.035156 L 599.40625 192.832031 L 600.554688 193.421875 L 601.703125 196.355469 L 602.855469 167.621094 L 604.003906 181.988281 L 605.152344 175.828125 L 606.304688 136.832031 L 607.453125 150.9375 L 608.601562 178.667969 L 609.753906 170.9375 L 610.902344 106.308594 L 612.050781 142.992188 L 613.203125 138.886719 L 614.351562 142.992188 L 615.5 118.359375 L 616.652344 122.464844 L 617.800781 87.574219 L 618.949219 145.042969 L 620.101562 140.9375 L 621.25 93.730469 L 622.398438 151.199219 L 623.550781 145.042969 L 624.699219 23.949219 L 625.847656 48.578125 L 627 93.730469 L 628.148438 77.3125 L 629.296875 92.527344 L 630.449219 103.5 L 631.597656 111.671875 L 632.746094 117.511719 L 633.898438 80.390625 "/>
<path style="fill:none;stroke-width:1.066978;stroke-linecap:butt;stroke-linejoin:round;stroke:rgb(13.72549%,65.098039%,51.764706%);stroke-opacity:1;stroke-miterlimit:10;" d="M 461.433594 213.207031 L 462.582031 211.359375 L 463.730469 209.949219 L 464.882812 209.207031 L 466.03125 209.25 L 467.179688 210.078125 L 468.332031 211.546875 L 469.480469 213.429688 L 470.628906 214.574219 L 471.78125 215.191406 L 472.929688 215.371094 L 474.082031 215.15625 L 475.230469 214.5 L 476.378906 213.300781 L 477.53125 211.683594 L 478.679688 209.507812 L 479.828125 206.554688 L 480.980469 202.511719 L 482.128906 196.910156 L 483.277344 189.039062 L 484.429688 181.976562 L 485.578125 177.019531 L 486.726562 175.175781 L 487.878906 176.839844 L 489.027344 181.660156 L 490.175781 182.660156 L 491.328125 180.113281 L 492.476562 173.320312 L 493.625 160.304688 L 494.777344 149.398438 L 495.925781 142.617188 L 497.074219 141.335938 L 498.226562 145.816406 L 499.375 151.910156 L 500.523438 153.75 L 501.675781 151.65625 L 502.824219 145.265625 L 503.972656 133.425781 L 505.125 113.835938 L 506.273438 95.503906 L 507.421875 80.296875 L 508.574219 69.925781 L 509.722656 68.878906 L 510.871094 77.347656 L 512.023438 93.800781 L 513.171875 96.324219 L 514.320312 85.714844 L 515.472656 58.554688 L 516.621094 43.316406 L 517.769531 43.910156 L 518.921875 60.175781 L 520.070312 71.921875 L 521.21875 79.941406 L 522.371094 84.753906 L 523.519531 86.65625 L 524.667969 85.976562 L 525.820312 89.082031 L 526.96875 95.714844 L 528.117188 105.34375 L 529.269531 117.238281 L 530.417969 126.015625 L 531.566406 132.273438 L 532.71875 136.421875 L 533.867188 138.714844 L 535.019531 139.292969 L 536.167969 138.195312 L 537.316406 135.605469 L 538.46875 135.582031 L 539.617188 138.121094 L 540.765625 143.007812 L 541.917969 149.820312 L 543.066406 158.023438 L 544.214844 167 L 545.367188 173.726562 L 546.515625 178.738281 L 547.664062 182.40625 L 548.816406 184.992188 L 549.964844 186.671875 L 551.113281 188.433594 L 552.265625 190.261719 L 553.414062 192.136719 L 554.5625 194.039062 L 555.714844 195.761719 L 556.863281 197.316406 L 558.011719 198.722656 L 559.164062 199.996094 L 560.3125 201.152344 L 561.460938 202.195312 L 562.613281 203.453125 L 563.761719 204.882812 L 564.910156 206.425781 L 566.0625 208.042969 L 567.210938 209.683594 L 568.359375 210.792969 L 569.511719 211.484375 L 570.660156 211.820312 L 571.808594 211.824219 L 572.960938 211.742188 L 574.109375 211.566406 L 575.257812 211.296875 L 576.410156 210.921875 L 577.558594 210.441406 L 578.707031 209.835938 L 579.859375 209.097656 L 581.007812 208.199219 L 582.15625 207.121094 L 583.308594 206.644531 L 584.457031 206.824219 L 585.605469 207.636719 L 586.757812 208.988281 L 587.90625 209.917969 L 589.054688 210.496094 L 590.207031 210.761719 L 591.355469 210.738281 L 592.503906 210.421875 L 593.65625 209.792969 L 594.804688 208.808594 L 595.957031 207.390625 L 597.105469 205.429688 L 598.253906 202.761719 L 599.40625 199.144531 L 600.554688 194.222656 L 601.703125 188.511719 L 602.855469 181.929688 L 604.003906 175.167969 L 605.152344 168.527344 L 606.304688 162.335938 L 607.453125 156.941406 L 608.601562 152.664062 L 609.753906 148.191406 L 610.902344 143.519531 L 612.050781 138.644531 L 613.203125 133.558594 L 614.351562 128.257812 L 615.5 122.738281 L 616.652344 120.679688 L 617.800781 122.300781 L 618.949219 127.425781 L 620.101562 129.140625 L 621.25 126.554688 L 622.398438 119.3125 L 623.550781 103.792969 L 624.699219 76.445312 L 625.847656 63.421875 L 627 69.105469 L 628.148438 80.78125 L 629.296875 97.066406 L 630.449219 105.488281 L 631.597656 107.449219 L 632.746094 103.273438 L 633.898438 92.273438 "/>
<path style="fill:none;stroke-width:1.066978;stroke-linecap:butt;stroke-linejoin:round;stroke:rgb(38.039216%,75.294118%,40.784314%);stroke-opacity:1;stroke-miterlimit:10;" d="M 461.433594 211.691406 L 462.582031 210.878906 L 463.730469 210.402344 L 464.882812 210.304688 L 466.03125 210.597656 L 467.179688 211.25 L 468.332031 212.207031 L 469.480469 213.390625 L 470.628906 214.128906 L 471.78125 214.511719 L 472.929688 214.578125 L 474.082031 214.335938 L 475.230469 213.757812 L 476.378906 212.78125 L 477.53125 211.289062 L 478.679688 209.085938 L 479.828125 205.863281 L 480.980469 201.65625 L 482.128906 196.113281 L 483.277344 190.519531 L 484.429688 185.371094 L 485.578125 181.191406 L 486.726562 178.449219 L 487.878906 177.46875 L 489.027344 178.367188 L 490.175781 177.421875 L 491.328125 174.511719 L 492.476562 169.257812 L 493.625 160.945312 L 494.777344 153.976562 L 495.925781 149.039062 L 497.074219 146.65625 L 498.226562 147.085938 L 499.375 150.28125 L 500.523438 150.382812 L 501.675781 147.394531 L 502.824219 140.9375 L 503.972656 130.144531 L 505.125 113.460938 L 506.273438 98.308594 L 507.421875 86.027344 L 508.574219 77.804688 L 509.722656 74.476562 L 510.871094 76.386719 L 512.023438 83.339844 L 513.171875 83.960938 L 514.320312 78.335938 L 515.472656 65.6875 L 516.621094 57.621094 L 517.769531 54.914062 L 518.921875 57.84375 L 520.070312 65.46875 L 521.21875 72.304688 L 522.371094 78.421875 L 523.519531 83.886719 L 524.667969 88.757812 L 525.820312 94.746094 L 526.96875 101.6875 L 528.117188 109.402344 L 529.269531 117.6875 L 530.417969 124.214844 L 531.566406 129.246094 L 532.71875 132.96875 L 533.867188 135.523438 L 535.019531 137 L 536.167969 137.449219 L 537.316406 136.882812 L 538.46875 138.164062 L 539.617188 141.207031 L 540.765625 145.824219 L 541.917969 151.742188 L 543.066406 158.613281 L 544.214844 166.074219 L 545.367188 172.046875 L 546.515625 176.832031 L 547.664062 180.648438 L 548.816406 183.664062 L 549.964844 186.007812 L 551.113281 188.222656 L 552.265625 190.3125 L 553.414062 192.285156 L 554.5625 194.148438 L 555.714844 195.902344 L 556.863281 197.5625 L 558.011719 199.132812 L 559.164062 200.617188 L 560.3125 202.019531 L 561.460938 203.355469 L 562.613281 204.617188 L 563.761719 205.8125 L 564.910156 206.949219 L 566.0625 208.019531 L 567.210938 209.03125 L 568.359375 209.820312 L 569.511719 210.414062 L 570.660156 210.835938 L 571.808594 211.101562 L 572.960938 211.21875 L 574.109375 211.1875 L 575.257812 211.015625 L 576.410156 210.691406 L 577.558594 210.199219 L 578.707031 209.527344 L 579.859375 208.984375 L 581.007812 208.578125 L 582.15625 208.332031 L 583.308594 208.265625 L 584.457031 208.378906 L 585.605469 208.667969 L 586.757812 209.125 L 587.90625 209.734375 L 589.054688 210.171875 L 590.207031 210.332031 L 591.355469 210.226562 L 592.503906 209.84375 L 593.65625 209.15625 L 594.804688 208.128906 L 595.957031 206.679688 L 597.105469 204.710938 L 598.253906 202.070312 L 599.40625 198.542969 L 600.554688 193.828125 L 601.703125 188.625 L 602.855469 182.984375 L 604.003906 176.984375 L 605.152344 170.742188 L 606.304688 164.375 L 607.453125 158.035156 L 608.601562 151.875 L 609.753906 146.054688 L 610.902344 140.714844 L 612.050781 136.003906 L 613.203125 132.042969 L 614.351562 128.933594 L 615.5 126.773438 L 616.652344 125.625 L 617.800781 125.535156 L 618.949219 126.527344 L 620.101562 124.8125 L 621.25 120.265625 L 622.398438 112.519531 L 623.550781 100.890625 L 624.699219 84.292969 L 625.847656 74.292969 L 627 72.519531 L 628.148438 79.261719 L 629.296875 93.398438 L 630.449219 101.460938 L 631.597656 104.460938 L 632.746094 102.757812 L 633.898438 96.148438 "/>
<path style="fill:none;stroke-width:1.066978;stroke-linecap:butt;stroke-linejoin:round;stroke:rgb(47.058824%,81.568627%,32.54902%);stroke-opacity:1;stroke-miterlimit:10;" d="M 461.433594 210.164062 L 462.582031 210.492188 L 463.730469 210.871094 L 464.882812 211.300781 L 466.03125 211.773438 L 467.179688 212.28125 L 468.332031 212.816406 L 469.480469 213.375 L 470.628906 213.917969 L 471.78125 214.144531 L 472.929688 214.082031 L 474.082031 213.726562 L 475.230469 213.039062 L 476.378906 211.945312 L 477.53125 210.335938 L 478.679688 208.011719 L 479.828125 204.679688 L 480.980469 200.972656 L 482.128906 196.949219 L 483.277344 192.777344 L 484.429688 188.601562 L 485.578125 184.59375 L 486.726562 180.929688 L 487.878906 177.789062 L 489.027344 175.335938 L 490.175781 172.523438 L 491.328125 169.300781 L 492.476562 165.613281 L 493.625 161.394531 L 494.777344 157.636719 L 495.925781 154.464844 L 497.074219 151.976562 L 498.226562 150.261719 L 499.375 149.378906 L 500.523438 146.808594 L 501.675781 142.382812 L 502.824219 135.78125 L 503.972656 126.519531 L 505.125 113.878906 L 506.273438 102.164062 L 507.421875 91.992188 L 508.574219 83.929688 L 509.722656 78.460938 L 510.871094 75.914062 L 512.023438 76.457031 L 513.171875 75.023438 L 514.320312 71.5625 L 515.472656 65.933594 L 516.621094 62.535156 L 517.769531 61.523438 L 518.921875 62.941406 L 520.070312 66.730469 L 521.21875 71.25 L 522.371094 76.4375 L 523.519531 82.210938 L 524.667969 88.484375 L 525.820312 95.171875 L 526.96875 102.183594 L 528.117188 109.421875 L 529.269531 116.804688 L 530.417969 122.835938 L 531.566406 127.695312 L 532.71875 131.523438 L 533.867188 134.425781 L 535.019531 136.480469 L 536.167969 137.746094 L 537.316406 138.417969 L 538.46875 140.394531 L 539.617188 143.585938 L 540.765625 147.847656 L 541.917969 152.992188 L 543.066406 158.800781 L 544.214844 165.050781 L 545.367188 170.40625 L 546.515625 175.003906 L 547.664062 178.960938 L 548.816406 182.371094 L 549.964844 185.308594 L 551.113281 187.988281 L 552.265625 190.433594 L 553.414062 192.667969 L 554.5625 194.710938 L 555.714844 196.578125 L 556.863281 198.292969 L 558.011719 199.863281 L 559.164062 201.304688 L 560.3125 202.628906 L 561.460938 203.851562 L 562.613281 204.972656 L 563.761719 206.007812 L 564.910156 206.960938 L 566.0625 207.84375 L 567.210938 208.65625 L 568.359375 209.3125 L 569.511719 209.824219 L 570.660156 210.210938 L 571.808594 210.480469 L 572.960938 210.636719 L 574.109375 210.6875 L 575.257812 210.636719 L 576.410156 210.476562 L 577.558594 210.203125 L 578.707031 209.816406 L 579.859375 209.5 L 581.007812 209.265625 L 582.15625 209.109375 L 583.308594 209.039062 L 584.457031 209.058594 L 585.605469 209.160156 L 586.757812 209.347656 L 587.90625 209.613281 L 589.054688 209.957031 L 590.207031 210.039062 L 591.355469 209.867188 L 592.503906 209.429688 L 593.65625 208.703125 L 594.804688 207.636719 L 595.957031 206.167969 L 597.105469 204.191406 L 598.253906 201.574219 L 599.40625 198.109375 L 600.554688 193.519531 L 601.703125 188.480469 L 602.855469 183.035156 L 604.003906 177.261719 L 605.152344 171.25 L 606.304688 165.109375 L 607.453125 158.976562 L 608.601562 153 L 609.753906 147.234375 L 610.902344 141.816406 L 612.050781 136.890625 L 613.203125 132.585938 L 614.351562 129.023438 L 615.5 126.296875 L 616.652344 124.492188 L 617.800781 123.660156 L 618.949219 123.820312 L 620.101562 121.886719 L 621.25 117.726562 L 622.398438 111.078125 L 623.550781 101.488281 L 624.699219 88.285156 L 625.847656 79.898438 L 627 77.355469 L 628.148438 80.96875 L 629.296875 90.289062 L 630.449219 96.625 L 631.597656 100.363281 L 632.746094 101.714844 L 633.898438 100.757812 "/>
<path style="fill:none;stroke-width:1.066978;stroke-linecap:butt;stroke-linejoin:round;stroke:rgb(61.960784%,84.313725%,28.627451%);stroke-opacity:1;stroke-miterlimit:10;" d="M 461.433594 208.738281 L 462.582031 210.160156 L 463.730469 211.269531 L 464.882812 212.132812 L 466.03125 212.789062 L 467.179688 213.265625 L 468.332031 213.589844 L 469.480469 213.769531 L 470.628906 213.816406 L 471.78125 213.679688 L 472.929688 213.347656 L 474.082031 212.796875 L 475.230469 212 L 476.378906 210.898438 L 477.53125 209.414062 L 478.679688 207.441406 L 479.828125 204.820312 L 480.980469 201.363281 L 482.128906 197.628906 L 483.277344 193.699219 L 484.429688 189.660156 L 485.578125 185.628906 L 486.726562 181.730469 L 487.878906 178.105469 L 489.027344 174.886719 L 490.175781 171.640625 L 491.328125 168.386719 L 492.476562 165.15625 L 493.625 161.972656 L 494.777344 158.867188 L 495.925781 155.867188 L 497.074219 153.003906 L 498.226562 150.304688 L 499.375 147.796875 L 500.523438 144.207031 L 501.675781 139.386719 L 502.824219 133.136719 L 503.972656 125.183594 L 505.125 115.160156 L 506.273438 105.496094 L 507.421875 96.464844 L 508.574219 88.332031 L 509.722656 81.347656 L 510.871094 75.730469 L 512.023438 71.671875 L 513.171875 68.46875 L 514.320312 66.175781 L 515.472656 64.828125 L 516.621094 64.453125 L 517.769531 65.0625 L 518.921875 66.644531 L 520.070312 69.179688 L 521.21875 72.632812 L 522.371094 76.949219 L 523.519531 82.054688 L 524.667969 87.863281 L 525.820312 94.273438 L 526.96875 101.171875 L 528.117188 108.445312 L 529.269531 115.976562 L 530.417969 122.117188 L 531.566406 127.050781 L 532.71875 130.925781 L 533.867188 133.847656 L 535.019531 135.898438 L 536.167969 137.136719 L 537.316406 138.894531 L 538.46875 141.578125 L 539.617188 145.089844 L 540.765625 149.320312 L 541.917969 154.128906 L 543.066406 159.371094 L 544.214844 164.898438 L 545.367188 169.839844 L 546.515625 174.261719 L 547.664062 178.222656 L 548.816406 181.777344 L 549.964844 184.976562 L 551.113281 187.855469 L 552.265625 190.449219 L 553.414062 192.789062 L 554.5625 194.902344 L 555.714844 196.816406 L 556.863281 198.546875 L 558.011719 200.113281 L 559.164062 201.535156 L 560.3125 202.828125 L 561.460938 204 L 562.613281 205.066406 L 563.761719 206.035156 L 564.910156 206.917969 L 566.0625 207.726562 L 567.210938 208.402344 L 568.359375 208.964844 L 569.511719 209.421875 L 570.660156 209.789062 L 571.808594 210.066406 L 572.960938 210.261719 L 574.109375 210.375 L 575.257812 210.414062 L 576.410156 210.378906 L 577.558594 210.265625 L 578.707031 210.074219 L 579.859375 209.914062 L 581.007812 209.789062 L 582.15625 209.699219 L 583.308594 209.644531 L 584.457031 209.625 L 585.605469 209.640625 L 586.757812 209.691406 L 587.90625 209.78125 L 589.054688 209.902344 L 590.207031 209.808594 L 591.355469 209.496094 L 592.503906 208.949219 L 593.65625 208.140625 L 594.804688 207.023438 L 595.957031 205.546875 L 597.105469 203.617188 L 598.253906 201.117188 L 599.40625 197.894531 L 600.554688 193.726562 L 601.703125 188.710938 L 602.855469 183.292969 L 604.003906 177.539062 L 605.152344 171.535156 L 606.304688 165.394531 L 607.453125 159.25 L 608.601562 153.246094 L 609.753906 147.53125 L 610.902344 142.269531 L 612.050781 137.613281 L 613.203125 133.707031 L 614.351562 130.191406 L 615.5 127.128906 L 616.652344 124.566406 L 617.800781 122.550781 L 618.949219 121.121094 L 620.101562 118.425781 L 621.25 114.367188 L 622.398438 108.789062 L 623.550781 101.476562 L 624.699219 92.136719 L 625.847656 85.6875 L 627 82.613281 L 628.148438 83.144531 L 629.296875 87.242188 L 630.449219 91.550781 L 631.597656 96.039062 L 632.746094 100.683594 L 633.898438 105.449219 "/>
<path style="fill:none;stroke-width:1.066978;stroke-linecap:butt;stroke-linejoin:round;stroke:rgb(72.941176%,86.27451%,25.882353%);stroke-opacity:1;stroke-miterlimit:10;" d="M 461.433594 208.546875 L 462.582031 210.167969 L 463.730469 211.398438 L 464.882812 212.320312 L 466.03125 212.992188 L 467.179688 213.453125 L 468.332031 213.730469 L 469.480469 213.832031 L 470.628906 213.773438 L 471.78125 213.542969 L 472.929688 213.132812 L 474.082031 212.515625 L 475.230469 211.660156 L 476.378906 210.515625 L 477.53125 209.003906 L 478.679688 207.027344 L 479.828125 204.445312 L 480.980469 201.203125 L 482.128906 197.707031 L 483.277344 194.015625 L 484.429688 190.191406 L 485.578125 186.320312 L 486.726562 182.496094 L 487.878906 178.824219 L 489.027344 175.40625 L 490.175781 171.976562 L 491.328125 168.558594 L 492.476562 165.191406 L 493.625 161.90625 L 494.777344 158.746094 L 495.925781 155.746094 L 497.074219 152.945312 L 498.226562 150.375 L 499.375 147.058594 L 500.523438 142.90625 L 501.675781 137.789062 L 502.824219 131.5625 L 503.972656 124.03125 L 505.125 114.953125 L 506.273438 106.128906 L 507.421875 97.75 L 508.574219 90.007812 L 509.722656 83.089844 L 510.871094 77.167969 L 512.023438 72.402344 L 513.171875 68.59375 L 514.320312 65.832031 L 515.472656 64.164062 L 516.621094 63.632812 L 517.769531 64.25 L 518.921875 65.996094 L 520.070312 68.835938 L 521.21875 72.691406 L 522.371094 77.480469 L 523.519531 82.820312 L 524.667969 88.644531 L 525.820312 94.867188 L 526.96875 101.417969 L 528.117188 108.210938 L 529.269531 115.164062 L 530.417969 121.003906 L 531.566406 125.863281 L 532.71875 129.855469 L 533.867188 133.066406 L 535.019531 135.574219 L 536.167969 137.425781 L 537.316406 139.335938 L 538.46875 142.117188 L 539.617188 145.671875 L 540.765625 149.894531 L 541.917969 154.652344 L 543.066406 159.8125 L 544.214844 165.230469 L 545.367188 170.128906 L 546.515625 174.503906 L 547.664062 178.421875 L 548.816406 181.933594 L 549.964844 185.089844 L 551.113281 187.925781 L 552.265625 190.480469 L 553.414062 192.785156 L 554.5625 194.867188 L 555.714844 196.746094 L 556.863281 198.449219 L 558.011719 199.988281 L 559.164062 201.386719 L 560.3125 202.652344 L 561.460938 203.804688 L 562.613281 204.847656 L 563.761719 205.796875 L 564.910156 206.664062 L 566.0625 207.449219 L 567.210938 208.121094 L 568.359375 208.691406 L 569.511719 209.171875 L 570.660156 209.570312 L 571.808594 209.886719 L 572.960938 210.132812 L 574.109375 210.3125 L 575.257812 210.421875 L 576.410156 210.472656 L 577.558594 210.457031 L 578.707031 210.378906 L 579.859375 210.304688 L 581.007812 210.234375 L 582.15625 210.167969 L 583.308594 210.105469 L 585.605469 209.996094 L 586.757812 209.945312 L 587.90625 209.902344 L 589.054688 209.863281 L 590.207031 209.636719 L 591.355469 209.210938 L 592.503906 208.578125 L 593.65625 207.699219 L 594.804688 206.535156 L 595.957031 205.039062 L 597.105469 203.128906 L 598.253906 200.707031 L 599.40625 197.636719 L 600.554688 193.742188 L 601.703125 188.777344 L 602.855469 183.414062 L 604.003906 177.714844 L 605.152344 171.773438 L 606.304688 165.6875 L 607.453125 159.589844 L 608.601562 153.613281 L 609.753906 147.914062 L 610.902344 142.632812 L 612.050781 137.929688 L 613.203125 133.9375 L 614.351562 130.785156 L 615.5 128 L 616.652344 125.621094 L 617.800781 122.804688 L 618.949219 119.515625 L 620.101562 115.707031 L 621.25 111.335938 L 622.398438 106.34375 L 623.550781 100.660156 L 624.699219 94.207031 L 625.847656 89.363281 L 627 86.320312 L 628.148438 85.21875 L 629.296875 86.101562 L 630.449219 88.929688 L 631.597656 93.585938 L 632.746094 99.871094 L 633.898438 107.535156 "/>
<path style="fill:none;stroke-width:1.066978;stroke-linecap:butt;stroke-linejoin:round;stroke:rgb(81.176471%,87.45098%,23.137255%);stroke-opacity:1;stroke-miterlimit:10;" d="M 461.433594 208.640625 L 462.582031 210.242188 L 463.730469 211.457031 L 464.882812 212.367188 L 466.03125 213.023438 L 467.179688 213.46875 L 468.332031 213.726562 L 469.480469 213.8125 L 470.628906 213.734375 L 471.78125 213.480469 L 472.929688 213.039062 L 474.082031 212.390625 L 475.230469 211.492188 L 476.378906 210.285156 L 477.53125 208.699219 L 478.679688 206.621094 L 479.828125 203.894531 L 480.980469 200.902344 L 482.128906 197.6875 L 483.277344 194.269531 L 484.429688 190.703125 L 485.578125 187.03125 L 486.726562 183.320312 L 487.878906 179.636719 L 489.027344 176.058594 L 490.175781 172.449219 L 491.328125 168.84375 L 492.476562 165.289062 L 493.625 161.816406 L 494.777344 158.476562 L 495.925781 155.304688 L 497.074219 152.34375 L 498.226562 149.636719 L 499.375 146.238281 L 500.523438 142.066406 L 501.675781 137.015625 L 502.824219 130.949219 L 503.972656 123.707031 L 505.125 115.078125 L 506.273438 106.636719 L 507.421875 98.535156 L 508.574219 90.941406 L 509.722656 84.003906 L 510.871094 77.871094 L 512.023438 72.679688 L 513.171875 68.535156 L 514.320312 65.527344 L 515.472656 63.71875 L 516.621094 63.144531 L 517.769531 63.8125 L 518.921875 65.703125 L 520.070312 68.777344 L 521.21875 72.964844 L 522.371094 78.175781 L 523.519531 83.691406 L 524.667969 89.472656 L 525.820312 95.472656 L 526.96875 101.636719 L 528.117188 107.914062 L 529.269531 114.261719 L 530.417969 119.777344 L 531.566406 124.554688 L 532.71875 128.671875 L 533.867188 132.195312 L 535.019531 135.171875 L 536.167969 137.65625 L 537.316406 140.019531 L 538.46875 143.039062 L 539.617188 146.632812 L 540.765625 150.71875 L 541.917969 155.195312 L 543.066406 159.964844 L 544.214844 164.917969 L 545.367188 169.960938 L 546.515625 174.449219 L 547.664062 178.441406 L 548.816406 182.007812 L 549.964844 185.195312 L 551.113281 188.046875 L 552.265625 190.601562 L 553.414062 192.898438 L 554.5625 194.960938 L 555.714844 196.816406 L 556.863281 198.488281 L 558.011719 199.996094 L 559.164062 201.355469 L 560.3125 202.585938 L 561.460938 203.699219 L 562.613281 204.703125 L 563.761719 205.613281 L 564.910156 206.4375 L 566.0625 207.183594 L 567.210938 207.832031 L 568.359375 208.398438 L 569.511719 208.890625 L 570.660156 209.308594 L 571.808594 209.664062 L 572.960938 209.957031 L 574.109375 210.195312 L 575.257812 210.375 L 576.410156 210.507812 L 577.558594 210.585938 L 578.707031 210.617188 L 579.859375 210.628906 L 581.007812 210.617188 L 582.15625 210.585938 L 583.308594 210.53125 L 584.457031 210.457031 L 585.605469 210.359375 L 586.757812 210.238281 L 587.90625 210.097656 L 589.054688 209.929688 L 590.207031 209.59375 L 591.355469 209.074219 L 592.503906 208.351562 L 593.65625 207.394531 L 594.804688 206.167969 L 595.957031 204.613281 L 597.105469 202.664062 L 598.253906 200.222656 L 599.40625 197.164062 L 600.554688 193.328125 L 601.703125 188.496094 L 602.855469 183.285156 L 604.003906 177.757812 L 605.152344 171.992188 L 606.304688 166.082031 L 607.453125 160.136719 L 608.601562 154.28125 L 609.753906 148.652344 L 610.902344 143.382812 L 612.050781 138.617188 L 613.203125 134.476562 L 614.351562 131.085938 L 615.5 127.96875 L 616.652344 125.15625 L 617.800781 122.011719 L 618.949219 118.507812 L 620.101562 114.613281 L 621.25 110.296875 L 622.398438 105.515625 L 623.550781 100.222656 L 624.699219 94.375 L 625.847656 90 L 627 87.257812 L 628.148438 86.253906 L 629.296875 87.03125 L 630.449219 89.5625 L 631.597656 93.742188 L 632.746094 99.417969 L 633.898438 106.375 "/>
<path style="fill:none;stroke-width:1.066978;stroke-linecap:butt;stroke-linejoin:round;stroke:rgb(88.235294%,88.627451%,20.392157%);stroke-opacity:1;stroke-miterlimit:10;" d="M 461.433594 208.917969 L 462.582031 210.394531 L 463.730469 211.523438 L 464.882812 212.363281 L 466.03125 212.972656 L 467.179688 213.378906 L 468.332031 213.609375 L 469.480469 213.675781 L 470.628906 213.578125 L 471.78125 213.308594 L 472.929688 212.863281 L 474.082031 212.207031 L 475.230469 211.3125 L 476.378906 210.117188 L 477.53125 208.558594 L 478.679688 206.523438 L 479.828125 203.875 L 480.980469 200.988281 L 482.128906 197.871094 L 483.277344 194.550781 L 484.429688 191.054688 L 485.578125 187.425781 L 486.726562 183.710938 L 487.878906 179.964844 L 489.027344 176.25 L 490.175781 172.632812 L 491.328125 169.007812 L 492.476562 165.414062 L 493.625 161.898438 L 494.777344 158.492188 L 495.925781 155.242188 L 497.074219 152.191406 L 498.226562 149.375 L 499.375 145.890625 L 500.523438 141.660156 L 501.675781 136.570312 L 502.824219 130.5 L 503.972656 123.285156 L 505.125 114.734375 L 506.273438 106.375 L 507.421875 98.363281 L 508.574219 90.855469 L 509.722656 84 L 510.871094 77.949219 L 512.023438 72.828125 L 513.171875 68.746094 L 514.320312 65.796875 L 515.472656 64.042969 L 516.621094 63.515625 L 517.769531 64.226562 L 518.921875 66.152344 L 520.070312 69.253906 L 521.21875 73.460938 L 522.371094 78.679688 L 523.519531 84.117188 L 524.667969 89.746094 L 525.820312 95.527344 L 526.96875 101.417969 L 528.117188 107.382812 L 529.269531 113.378906 L 530.417969 118.734375 L 531.566406 123.507812 L 532.71875 127.753906 L 533.867188 131.527344 L 535.019531 134.867188 L 536.167969 137.8125 L 537.316406 140.394531 L 538.46875 143.558594 L 539.617188 147.230469 L 540.765625 151.332031 L 541.917969 155.769531 L 543.066406 160.453125 L 544.214844 165.285156 L 545.367188 170.179688 L 546.515625 174.554688 L 547.664062 178.46875 L 548.816406 181.976562 L 549.964844 185.125 L 551.113281 187.957031 L 552.265625 190.507812 L 553.414062 192.808594 L 554.5625 194.890625 L 555.714844 196.777344 L 556.863281 198.464844 L 558.011719 199.976562 L 559.164062 201.332031 L 560.3125 202.550781 L 561.460938 203.640625 L 562.613281 204.625 L 563.761719 205.507812 L 564.910156 206.296875 L 566.0625 207.003906 L 567.210938 207.636719 L 568.359375 208.199219 L 569.511719 208.699219 L 570.660156 209.136719 L 571.808594 209.519531 L 572.960938 209.851562 L 574.109375 210.132812 L 575.257812 210.367188 L 576.410156 210.558594 L 577.558594 210.707031 L 578.707031 210.816406 L 579.859375 210.882812 L 581.007812 210.90625 L 582.15625 210.894531 L 583.308594 210.84375 L 584.457031 210.75 L 585.605469 210.617188 L 586.757812 210.441406 L 587.90625 210.222656 L 589.054688 209.960938 L 590.207031 209.539062 L 591.355469 208.941406 L 592.503906 208.148438 L 593.65625 207.128906 L 594.804688 205.847656 L 595.957031 204.246094 L 597.105469 202.265625 L 598.253906 199.808594 L 599.40625 196.765625 L 600.554688 192.984375 L 601.703125 188.265625 L 602.855469 183.1875 L 604.003906 177.8125 L 605.152344 172.199219 L 606.304688 166.441406 L 607.453125 160.632812 L 608.601562 154.890625 L 609.753906 149.332031 L 610.902344 144.082031 L 612.050781 139.265625 L 613.203125 135.011719 L 614.351562 131.425781 L 615.5 127.988281 L 616.652344 124.726562 L 617.800781 121.234375 L 618.949219 117.503906 L 620.101562 113.511719 L 621.25 109.242188 L 622.398438 104.675781 L 623.550781 99.78125 L 624.699219 94.546875 L 625.847656 90.636719 L 627 88.191406 L 628.148438 87.289062 L 629.296875 87.96875 L 630.449219 90.199219 L 631.597656 93.90625 L 632.746094 98.964844 L 633.898438 105.207031 "/>
<path style="fill:none;stroke-width:1.066978;stroke-linecap:butt;stroke-linejoin:round;stroke:rgb(94.117647%,89.803922%,17.254902%);stroke-opacity:1;stroke-miterlimit:10;" d="M 461.433594 209.179688 L 462.582031 210.542969 L 463.730469 211.585938 L 464.882812 212.367188 L 466.03125 212.929688 L 467.179688 213.300781 L 468.332031 213.503906 L 469.480469 213.546875 L 470.628906 213.429688 L 471.78125 213.152344 L 472.929688 212.695312 L 474.082031 212.035156 L 475.230469 211.140625 L 476.378906 209.957031 L 477.53125 208.417969 L 478.679688 206.425781 L 479.828125 203.847656 L 480.980469 201.03125 L 482.128906 197.996094 L 483.277344 194.753906 L 484.429688 191.335938 L 485.578125 187.765625 L 486.726562 184.09375 L 487.878906 180.359375 L 489.027344 176.621094 L 490.175781 172.933594 L 491.328125 169.234375 L 492.476562 165.558594 L 493.625 161.953125 L 494.777344 158.457031 L 495.925781 155.117188 L 497.074219 151.972656 L 498.226562 149.070312 L 499.375 145.515625 L 500.523438 141.234375 L 501.675781 136.121094 L 502.824219 130.054688 L 503.972656 122.878906 L 505.125 114.410156 L 506.273438 106.140625 L 507.421875 98.222656 L 508.574219 90.804688 L 509.722656 84.039062 L 510.871094 78.0625 L 512.023438 73.003906 L 513.171875 68.980469 L 514.320312 66.074219 L 515.472656 64.351562 L 516.621094 63.855469 L 517.769531 64.59375 L 518.921875 66.546875 L 520.070312 69.675781 L 521.21875 73.902344 L 522.371094 79.136719 L 523.519531 84.519531 L 524.667969 90.019531 L 525.820312 95.605469 L 526.96875 101.25 L 528.117188 106.921875 L 529.269531 112.589844 L 530.417969 117.773438 L 531.566406 122.507812 L 532.71875 126.835938 L 533.867188 130.792969 L 535.019531 134.410156 L 536.167969 137.71875 L 537.316406 140.738281 L 538.46875 144.199219 L 539.617188 148.039062 L 540.765625 152.1875 L 541.917969 156.566406 L 543.066406 161.105469 L 544.214844 165.730469 L 545.367188 170.375 L 546.515625 174.5625 L 547.664062 178.347656 L 548.816406 181.765625 L 549.964844 184.863281 L 551.113281 187.671875 L 552.265625 190.226562 L 553.414062 192.546875 L 554.5625 194.664062 L 555.714844 196.597656 L 556.863281 198.324219 L 558.011719 199.871094 L 559.164062 201.253906 L 560.3125 202.496094 L 561.460938 203.609375 L 562.613281 204.609375 L 563.761719 205.507812 L 564.910156 206.3125 L 566.0625 207.035156 L 567.210938 207.679688 L 568.359375 208.253906 L 569.511719 208.761719 L 570.660156 209.210938 L 571.808594 209.601562 L 572.960938 209.9375 L 574.109375 210.226562 L 575.257812 210.464844 L 576.410156 210.65625 L 577.558594 210.804688 L 578.707031 210.910156 L 579.859375 210.96875 L 581.007812 210.988281 L 582.15625 210.964844 L 583.308594 210.898438 L 584.457031 210.789062 L 585.605469 210.632812 L 586.757812 210.433594 L 587.90625 210.183594 L 589.054688 209.886719 L 590.207031 209.429688 L 591.355469 208.804688 L 592.503906 207.984375 L 593.65625 206.941406 L 594.804688 205.636719 L 595.957031 204.019531 L 597.105469 202.027344 L 598.253906 199.570312 L 599.40625 196.542969 L 600.554688 192.800781 L 601.703125 188.152344 L 602.855469 183.164062 L 604.003906 177.882812 L 605.152344 172.378906 L 606.304688 166.726562 L 607.453125 161.019531 L 608.601562 155.363281 L 609.753906 149.867188 L 610.902344 144.652344 L 612.050781 139.835938 L 613.203125 135.53125 L 614.351562 131.851562 L 615.5 128.128906 L 616.652344 124.371094 L 617.800781 120.496094 L 618.949219 116.503906 L 620.101562 112.394531 L 621.25 108.160156 L 622.398438 103.804688 L 623.550781 99.320312 L 624.699219 94.707031 L 625.847656 91.277344 L 627 89.128906 L 628.148438 88.335938 L 629.296875 88.914062 L 630.449219 90.847656 L 631.597656 94.082031 L 632.746094 98.515625 L 633.898438 104.023438 "/>
<path style="fill:none;stroke-width:1.066978;stroke-linecap:butt;stroke-linejoin:round;stroke:rgb(99.215686%,90.588235%,14.509804%);stroke-opacity:1;stroke-miterlimit:10;" d="M 461.433594 209.421875 L 462.582031 210.683594 L 463.730469 211.652344 L 464.882812 212.375 L 466.03125 212.890625 L 467.179688 213.230469 L 468.332031 213.40625 L 469.480469 213.425781 L 470.628906 213.292969 L 471.78125 213 L 472.929688 212.535156 L 474.082031 211.871094 L 475.230469 210.976562 L 476.378906 209.800781 L 477.53125 208.277344 L 478.679688 206.320312 L 479.828125 203.796875 L 480.980469 201.046875 L 482.128906 198.082031 L 483.277344 194.914062 L 484.429688 191.570312 L 485.578125 188.070312 L 486.726562 184.457031 L 487.878906 180.765625 L 489.027344 177.046875 L 490.175781 173.351562 L 491.328125 169.613281 L 492.476562 165.871094 L 493.625 162.15625 L 494.777344 158.511719 L 495.925781 154.976562 L 497.074219 151.589844 L 498.226562 148.390625 L 499.375 144.648438 L 500.523438 140.292969 L 501.675781 135.246094 L 502.824219 129.410156 L 503.972656 122.671875 L 505.125 114.890625 L 506.273438 106.585938 L 507.421875 98.625 L 508.574219 91.15625 L 509.722656 84.339844 L 510.871094 78.308594 L 512.023438 73.203125 L 513.171875 69.128906 L 514.320312 66.179688 L 515.472656 64.429688 L 516.621094 63.914062 L 517.769531 64.648438 L 518.921875 66.617188 L 520.070312 69.765625 L 521.21875 74.03125 L 522.371094 79.3125 L 523.519531 84.734375 L 524.667969 90.261719 L 525.820312 95.871094 L 526.96875 101.527344 L 528.117188 106.898438 L 529.269531 111.996094 L 530.417969 116.839844 L 531.566406 121.441406 L 532.71875 125.816406 L 533.867188 129.972656 L 535.019531 133.929688 L 536.167969 137.691406 L 537.316406 141.269531 L 538.46875 145.078125 L 539.617188 149.066406 L 540.765625 153.183594 L 541.917969 157.394531 L 543.066406 161.640625 L 544.214844 165.890625 L 545.367188 170.101562 L 546.515625 174.234375 L 547.664062 177.992188 L 548.816406 181.417969 L 549.964844 184.542969 L 551.113281 187.390625 L 552.265625 189.996094 L 553.414062 192.375 L 554.5625 194.554688 L 555.714844 196.554688 L 556.863281 198.332031 L 558.011719 199.917969 L 559.164062 201.332031 L 560.3125 202.59375 L 561.460938 203.722656 L 562.613281 204.730469 L 563.761719 205.632812 L 564.910156 206.433594 L 566.0625 207.148438 L 567.210938 207.78125 L 568.359375 208.34375 L 569.511719 208.839844 L 570.660156 209.273438 L 571.808594 209.648438 L 572.960938 209.972656 L 574.109375 210.242188 L 575.257812 210.46875 L 576.410156 210.648438 L 577.558594 210.785156 L 578.707031 210.878906 L 579.859375 210.929688 L 581.007812 210.945312 L 582.15625 210.917969 L 583.308594 210.847656 L 584.457031 210.738281 L 585.605469 210.589844 L 586.757812 210.394531 L 587.90625 210.152344 L 589.054688 209.8125 L 590.207031 209.320312 L 591.355469 208.664062 L 592.503906 207.820312 L 593.65625 206.757812 L 594.804688 205.441406 L 595.957031 203.820312 L 597.105469 201.832031 L 598.253906 199.394531 L 599.40625 196.402344 L 600.554688 192.71875 L 601.703125 188.167969 L 602.855469 183.285156 L 604.003906 178.109375 L 605.152344 172.703125 L 606.304688 167.136719 L 607.453125 161.492188 L 608.601562 155.871094 L 609.753906 150.375 L 610.902344 145.109375 L 612.050781 140.191406 L 613.203125 135.730469 L 614.351562 131.832031 L 615.5 127.867188 L 616.652344 123.855469 L 617.800781 119.792969 L 618.949219 115.695312 L 620.101562 111.570312 L 621.25 107.421875 L 622.398438 103.265625 L 623.550781 99.109375 L 624.699219 94.960938 L 625.847656 91.878906 L 627 89.9375 L 628.148438 89.195312 L 629.296875 89.671875 L 630.449219 91.347656 L 631.597656 94.183594 L 632.746094 98.105469 L 633.898438 103.003906 "/>
<path style="fill:none;stroke-width:1.066978;stroke-linecap:butt;stroke-linejoin:round;stroke:rgb(20%,20%,20%);stroke-opacity:1;stroke-miterlimit:10;" d="M 450.070312 223.035156 L 452.808594 223.035156 "/>
<path style="fill:none;stroke-width:1.066978;stroke-linecap:butt;stroke-linejoin:round;stroke:rgb(20%,20%,20%);stroke-opacity:1;stroke-miterlimit:10;" d="M 450.070312 171.726562 L 452.808594 171.726562 "/>
<path style="fill:none;stroke-width:1.066978;stroke-linecap:butt;stroke-linejoin:round;stroke:rgb(20%,20%,20%);stroke-opacity:1;stroke-miterlimit:10;" d="M 450.070312 120.414062 L 452.808594 120.414062 "/>
<path style="fill:none;stroke-width:1.066978;stroke-linecap:butt;stroke-linejoin:round;stroke:rgb(20%,20%,20%);stroke-opacity:1;stroke-miterlimit:10;" d="M 450.070312 69.101562 L 452.808594 69.101562 "/>
<path style="fill:none;stroke-width:1.066978;stroke-linecap:butt;stroke-linejoin:round;stroke:rgb(20%,20%,20%);stroke-opacity:1;stroke-miterlimit:10;" d="M 450.070312 17.792969 L 452.808594 17.792969 "/>
<path style="fill:none;stroke-width:1.066978;stroke-linecap:butt;stroke-linejoin:round;stroke:rgb(20%,20%,20%);stroke-opacity:1;stroke-miterlimit:10;" d="M 460.28125 233.929688 L 460.28125 231.191406 "/>
<path style="fill:none;stroke-width:1.066978;stroke-linecap:butt;stroke-linejoin:round;stroke:rgb(20%,20%,20%);stroke-opacity:1;stroke-miterlimit:10;" d="M 517.769531 233.929688 L 517.769531 231.191406 "/>
<path style="fill:none;stroke-width:1.066978;stroke-linecap:butt;stroke-linejoin:round;stroke:rgb(20%,20%,20%);stroke-opacity:1;stroke-miterlimit:10;" d="M 575.257812 233.929688 L 575.257812 231.191406 "/>
<path style="fill:none;stroke-width:1.066978;stroke-linecap:butt;stroke-linejoin:round;stroke:rgb(20%,20%,20%);stroke-opacity:1;stroke-miterlimit:10;" d="M 632.746094 233.929688 L 632.746094 231.191406 "/>
</g>
</svg>
