<?xml version="1.0" encoding="UTF-8"?>
<svg xmlns="http://www.w3.org/2000/svg" xmlns:xlink="http://www.w3.org/1999/xlink" width="648pt" height="252pt" viewBox="0 0 648 252" version="1.1">
<defs>
<clipPath id="clip1">
  <path d="M 0 0 L 216 0 L 216 252 L 0 252 Z M 0 0 "/>
</clipPath>
<clipPath id="clip2">
  <path d="M 20.808594 5.480469 L 210.519531 5.480469 L 210.519531 231.191406 L 20.808594 231.191406 Z M 20.808594 5.480469 "/>
</clipPath>
<clipPath id="clip3">
  <path d="M 216 0 L 432 0 L 432 252 L 216 252 Z M 216 0 "/>
</clipPath>
<clipPath id="clip4">
  <path d="M 236.808594 5.480469 L 426.519531 5.480469 L 426.519531 231.191406 L 236.808594 231.191406 Z M 236.808594 5.480469 "/>
</clipPath>
<clipPath id="clip5">
  <path d="M 432 0 L 648 0 L 648 252 L 432 252 Z M 432 0 "/>
</clipPath>
<clipPath id="clip6">
  <path d="M 452.808594 5.480469 L 642.519531 5.480469 L 642.519531 231.191406 L 452.808594 231.191406 Z M 452.808594 5.480469 "/>
</clipPath>
</defs>
<g id="surface164">
<rect x="0" y="0" width="648" height="252" style="fill:rgb(100%,100%,100%);fill-opacity:1;stroke:none;"/>
<path style=" stroke:none;fill-rule:nonzero;fill:rgb(0%,12.941176%,27.058824%);fill-opacity:1;" d="M 0 252 L 216 252 L 216 0 L 0 0 Z M 0 252 "/>
<g clip-path="url(#clip1)" clip-rule="nonzero">
<path style="fill:none;stroke-width:1.066978;stroke-linecap:round;stroke-linejoin:round;stroke:rgb(100%,100%,100%);stroke-opacity:1;stroke-miterlimit:10;" d="M 0 252 L 216 252 L 216 0 L 0 0 Z M 0 252 "/>
</g>
<g clip-path="url(#clip2)" clip-rule="nonzero">
<path style=" stroke:none;fill-rule:nonzero;fill:rgb(0%,12.941176%,27.058824%);fill-opacity:1;" d="M 20.808594 231.191406 L 210.519531 231.191406 L 210.519531 5.480469 L 20.808594 5.480469 Z M 20.808594 231.191406 "/>
</g>
<path style="fill:none;stroke-width:1.066978;stroke-linecap:butt;stroke-linejoin:round;stroke:rgb(26.666667%,0.392157%,32.941176%);stroke-opacity:1;stroke-miterlimit:10;" d="M 29.433594 220.164062 L 47.828125 220.164062 L 48.980469 206.441406 L 51.277344 206.441406 L 52.429688 201.367188 L 53.578125 196.296875 L 59.328125 196.296875 L 60.476562 186.152344 L 61.625 186.152344 L 62.777344 155.722656 L 67.375 155.722656 L 68.523438 140.507812 L 70.824219 140.507812 L 71.972656 66.964844 L 77.722656 66.964844 L 78.871094 57.90625 L 93.820312 57.90625 L 94.96875 75.296875 L 101.867188 75.296875 L 103.019531 87.25 L 104.167969 87.25 L 105.316406 105.003906 L 107.617188 105.003906 L 108.765625 110.074219 L 109.917969 155.722656 L 111.066406 163.328125 L 112.214844 163.328125 L 113.367188 198.324219 L 123.714844 198.324219 L 124.863281 216.582031 L 131.761719 216.582031 L 132.910156 220.929688 L 163.957031 220.929688 L 165.105469 193.761719 L 173.152344 193.761719 L 174.304688 186.152344 L 175.453125 186.152344 L 176.601562 178.542969 L 177.753906 178.542969 L 178.902344 170.9375 L 180.050781 170.9375 L 181.203125 163.328125 L 182.351562 163.328125 L 183.5 103.988281 L 188.101562 103.988281 L 189.25 41.605469 L 192.699219 41.605469 L 193.847656 18.78125 L 196.148438 18.78125 L 197.296875 15.738281 L 201.898438 15.738281 "/>
<path style="fill:none;stroke-width:1.066978;stroke-linecap:butt;stroke-linejoin:round;stroke:rgb(23.137255%,37.254902%,54.509804%);stroke-opacity:1;stroke-miterlimit:10;" d="M 29.433594 211.214844 L 47.828125 211.214844 L 48.980469 206.441406 L 51.277344 206.441406 L 52.429688 201.367188 L 53.578125 196.296875 L 59.328125 196.296875 L 60.476562 186.152344 L 61.625 186.152344 L 62.777344 155.722656 L 67.375 155.722656 L 68.523438 140.507812 L 70.824219 140.507812 L 71.972656 75.699219 L 101.867188 75.699219 L 103.019531 87.25 L 104.167969 87.25 L 105.316406 105.003906 L 107.617188 105.003906 L 108.765625 110.074219 L 109.917969 155.722656 L 111.066406 163.328125 L 112.214844 163.328125 L 113.367188 198.324219 L 123.714844 198.324219 L 124.863281 211.367188 L 163.957031 211.367188 L 165.105469 193.761719 L 173.152344 193.761719 L 174.304688 186.152344 L 175.453125 186.152344 L 176.601562 178.542969 L 177.753906 178.542969 L 178.902344 170.9375 L 180.050781 170.9375 L 181.203125 163.328125 L 182.351562 163.328125 L 183.5 103.988281 L 188.101562 103.988281 L 189.25 41.605469 L 192.699219 41.605469 L 193.847656 35.898438 L 201.898438 35.898438 "/>
<path style="fill:none;stroke-width:1.066978;stroke-linecap:butt;stroke-linejoin:round;stroke:rgb(17.254902%,54.117647%,54.509804%);stroke-opacity:1;stroke-miterlimit:10;" d="M 29.433594 202.890625 L 51.277344 202.890625 L 52.429688 201.367188 L 53.578125 196.296875 L 59.328125 196.296875 L 60.476562 186.152344 L 61.625 186.152344 L 62.777344 155.722656 L 67.375 155.722656 L 68.523438 140.507812 L 70.824219 140.507812 L 71.972656 86.96875 L 101.867188 86.96875 L 103.019531 87.25 L 104.167969 87.25 L 105.316406 105.003906 L 107.617188 105.003906 L 108.765625 110.074219 L 109.917969 155.722656 L 111.066406 163.328125 L 112.214844 163.328125 L 113.367188 198.324219 L 123.714844 198.324219 L 124.863281 202.671875 L 163.957031 202.671875 L 165.105469 193.761719 L 173.152344 193.761719 L 174.304688 186.152344 L 175.453125 186.152344 L 176.601562 178.542969 L 177.753906 178.542969 L 178.902344 170.9375 L 180.050781 170.9375 L 181.203125 163.328125 L 182.351562 163.328125 L 183.5 103.988281 L 188.101562 103.988281 L 189.25 50.480469 L 201.898438 50.480469 "/>
<path style="fill:none;stroke-width:1.066978;stroke-linecap:butt;stroke-linejoin:round;stroke:rgb(14.117647%,65.882353%,51.764706%);stroke-opacity:1;stroke-miterlimit:10;" d="M 29.433594 195.734375 L 59.328125 195.734375 L 60.476562 186.152344 L 61.625 186.152344 L 62.777344 155.722656 L 67.375 155.722656 L 68.523438 140.507812 L 70.824219 140.507812 L 71.972656 97.484375 L 104.167969 97.484375 L 105.316406 105.003906 L 107.617188 105.003906 L 108.765625 110.074219 L 109.917969 155.722656 L 111.066406 163.328125 L 112.214844 163.328125 L 113.367188 194.945312 L 163.957031 194.945312 L 165.105469 193.761719 L 173.152344 193.761719 L 174.304688 186.152344 L 175.453125 186.152344 L 176.601562 178.542969 L 177.753906 178.542969 L 178.902344 170.9375 L 180.050781 170.9375 L 181.203125 163.328125 L 182.351562 163.328125 L 183.5 103.988281 L 188.101562 103.988281 L 189.25 63.160156 L 201.898438 63.160156 "/>
<path style="fill:none;stroke-width:1.066978;stroke-linecap:butt;stroke-linejoin:round;stroke:rgb(34.901961%,73.72549%,42.745098%);stroke-opacity:1;stroke-miterlimit:10;" d="M 29.433594 190.097656 L 59.328125 190.097656 L 60.476562 186.152344 L 61.625 186.152344 L 62.777344 155.722656 L 67.375 155.722656 L 68.523438 140.507812 L 70.824219 140.507812 L 71.972656 107.699219 L 107.617188 107.699219 L 108.765625 110.074219 L 109.917969 155.722656 L 111.066406 163.328125 L 112.214844 163.328125 L 113.367188 189.023438 L 173.152344 189.023438 L 174.304688 186.152344 L 175.453125 186.152344 L 176.601562 178.542969 L 177.753906 178.542969 L 178.902344 170.9375 L 180.050781 170.9375 L 181.203125 163.328125 L 182.351562 163.328125 L 183.5 103.988281 L 188.101562 103.988281 L 189.25 75.839844 L 201.898438 75.839844 "/>
<path style="fill:none;stroke-width:1.066978;stroke-linecap:butt;stroke-linejoin:round;stroke:rgb(45.490196%,80%,34.509804%);stroke-opacity:1;stroke-miterlimit:10;" d="M 29.433594 184.578125 L 61.625 184.578125 L 62.777344 155.722656 L 67.375 155.722656 L 68.523438 140.507812 L 70.824219 140.507812 L 71.972656 116.992188 L 108.765625 116.992188 L 109.917969 155.722656 L 111.066406 163.328125 L 112.214844 163.328125 L 113.367188 183.386719 L 175.453125 183.386719 L 176.601562 178.542969 L 177.753906 178.542969 L 178.902344 170.9375 L 180.050781 170.9375 L 181.203125 163.328125 L 182.351562 163.328125 L 183.5 103.988281 L 188.101562 103.988281 L 189.25 88.519531 L 201.898438 88.519531 "/>
<path style="fill:none;stroke-width:1.066978;stroke-linecap:butt;stroke-linejoin:round;stroke:rgb(61.176471%,84.313725%,29.019608%);stroke-opacity:1;stroke-miterlimit:10;" d="M 29.433594 179.332031 L 61.625 179.332031 L 62.777344 155.722656 L 67.375 155.722656 L 68.523438 140.507812 L 70.824219 140.507812 L 71.972656 126.210938 L 108.765625 126.210938 L 109.917969 155.722656 L 111.066406 163.328125 L 112.214844 163.328125 L 113.367188 177.878906 L 177.753906 177.878906 L 178.902344 170.9375 L 180.050781 170.9375 L 181.203125 163.328125 L 182.351562 163.328125 L 183.5 103.988281 L 188.101562 103.988281 L 189.25 101.199219 L 201.898438 101.199219 "/>
<path style="fill:none;stroke-width:1.066978;stroke-linecap:butt;stroke-linejoin:round;stroke:rgb(76.078431%,86.666667%,24.705882%);stroke-opacity:1;stroke-miterlimit:10;" d="M 29.433594 174.085938 L 61.625 174.085938 L 62.777344 155.722656 L 67.375 155.722656 L 68.523438 140.507812 L 70.824219 140.507812 L 71.972656 135.433594 L 108.765625 135.433594 L 109.917969 155.722656 L 111.066406 163.328125 L 112.214844 163.328125 L 113.367188 172.539062 L 177.753906 172.539062 L 178.902344 170.9375 L 180.050781 170.9375 L 181.203125 163.328125 L 182.351562 163.328125 L 183.5 110.96875 L 201.898438 110.96875 "/>
<path style="fill:none;stroke-width:1.066978;stroke-linecap:butt;stroke-linejoin:round;stroke:rgb(88.627451%,89.019608%,20%);stroke-opacity:1;stroke-miterlimit:10;" d="M 29.433594 168.839844 L 61.625 168.839844 L 62.777344 155.722656 L 67.375 155.722656 L 68.523438 144.308594 L 108.765625 144.308594 L 109.917969 155.722656 L 111.066406 163.328125 L 112.214844 163.328125 L 113.367188 167.328125 L 180.050781 167.328125 L 181.203125 163.328125 L 182.351562 163.328125 L 183.5 119.921875 L 201.898438 119.921875 "/>
<path style="fill:none;stroke-width:1.066978;stroke-linecap:butt;stroke-linejoin:round;stroke:rgb(99.215686%,90.588235%,14.509804%);stroke-opacity:1;stroke-miterlimit:10;" d="M 29.433594 163.589844 L 61.625 163.589844 L 62.777344 155.722656 L 67.375 155.722656 L 68.523438 152.761719 L 108.765625 152.761719 L 109.917969 155.722656 L 111.066406 162.242188 L 182.351562 162.242188 L 183.5 128.871094 L 201.898438 128.871094 "/>
<path style="fill:none;stroke-width:1.066978;stroke-linecap:butt;stroke-linejoin:round;stroke:rgb(20%,20%,20%);stroke-opacity:1;stroke-miterlimit:10;" d="M 18.070312 186.152344 L 20.808594 186.152344 "/>
<path style="fill:none;stroke-width:1.066978;stroke-linecap:butt;stroke-linejoin:round;stroke:rgb(20%,20%,20%);stroke-opacity:1;stroke-miterlimit:10;" d="M 18.070312 125.289062 L 20.808594 125.289062 "/>
<path style="fill:none;stroke-width:1.066978;stroke-linecap:butt;stroke-linejoin:round;stroke:rgb(20%,20%,20%);stroke-opacity:1;stroke-miterlimit:10;" d="M 18.070312 64.429688 L 20.808594 64.429688 "/>
<path style="fill:none;stroke-width:1.066978;stroke-linecap:butt;stroke-linejoin:round;stroke:rgb(20%,20%,20%);stroke-opacity:1;stroke-miterlimit:10;" d="M 28.28125 233.929688 L 28.28125 231.191406 "/>
<path style="fill:none;stroke-width:1.066978;stroke-linecap:butt;stroke-linejoin:round;stroke:rgb(20%,20%,20%);stroke-opacity:1;stroke-miterlimit:10;" d="M 85.769531 233.929688 L 85.769531 231.191406 "/>
<path style="fill:none;stroke-width:1.066978;stroke-linecap:butt;stroke-linejoin:round;stroke:rgb(20%,20%,20%);stroke-opacity:1;stroke-miterlimit:10;" d="M 143.257812 233.929688 L 143.257812 231.191406 "/>
<path style="fill:none;stroke-width:1.066978;stroke-linecap:butt;stroke-linejoin:round;stroke:rgb(20%,20%,20%);stroke-opacity:1;stroke-miterlimit:10;" d="M 200.746094 233.929688 L 200.746094 231.191406 "/>
<path style=" stroke:none;fill-rule:nonzero;fill:rgb(0%,12.941176%,27.058824%);fill-opacity:1;" d="M 216 252 L 432 252 L 432 0 L 216 0 Z M 216 252 "/>
<g clip-path="url(#clip3)" clip-rule="nonzero">
<path style="fill:none;stroke-width:1.066978;stroke-linecap:round;stroke-linejoin:round;stroke:rgb(100%,100%,100%);stroke-opacity:1;stroke-miterlimit:10;" d="M 216 252 L 432 252 L 432 0 L 216 0 Z M 216 252 "/>
</g>
<g clip-path="url(#clip4)" clip-rule="nonzero">
<path style=" stroke:none;fill-rule:nonzero;fill:rgb(0%,12.941176%,27.058824%);fill-opacity:1;" d="M 236.808594 231.191406 L 426.519531 231.191406 L 426.519531 5.480469 L 236.808594 5.480469 Z M 236.808594 231.191406 "/>
</g>
<path style="fill:none;stroke-width:1.066978;stroke-linecap:butt;stroke-linejoin:round;stroke:rgb(26.666667%,0.392157%,32.941176%);stroke-opacity:1;stroke-miterlimit:10;" d="M 245.433594 213.792969 L 246.582031 212.410156 L 247.730469 210.820312 L 248.882812 205.070312 L 250.03125 205.070312 L 251.179688 209.035156 L 252.332031 197.140625 L 253.480469 218.949219 L 254.628906 216.96875 L 255.78125 220.929688 L 256.929688 220.929688 L 258.082031 205.070312 L 259.230469 205.070312 L 260.378906 211.019531 L 261.53125 211.019531 L 262.679688 207.054688 L 263.828125 218.949219 L 264.980469 185.246094 L 266.128906 195.160156 L 267.277344 209.035156 L 268.429688 195.160156 L 269.578125 175.332031 L 270.726562 201.050781 L 271.878906 191.304688 L 273.027344 177.207031 L 274.175781 191.304688 L 275.328125 201.050781 L 276.476562 187.230469 L 277.625 179.296875 L 278.777344 155.507812 L 279.925781 154.292969 L 281.074219 163.882812 L 282.226562 172.136719 L 283.375 171.367188 L 284.523438 145.59375 L 285.675781 145.59375 L 286.824219 169.386719 L 287.972656 86.121094 L 289.125 76.207031 L 290.273438 129.734375 L 291.421875 96.03125 L 292.574219 86.121094 L 293.722656 159.472656 L 294.871094 48.449219 L 296.023438 82.152344 L 297.171875 92.066406 L 298.320312 58.363281 L 299.472656 129.734375 L 300.621094 98.015625 L 301.769531 109.910156 L 302.921875 76.207031 L 304.070312 36.554688 L 305.21875 109.910156 L 306.371094 78.1875 L 307.519531 121.804688 L 308.667969 111.890625 L 309.820312 46.46875 L 310.96875 115.855469 L 312.117188 159.472656 L 313.269531 125.769531 L 314.417969 86.121094 L 315.566406 109.910156 L 316.71875 86.121094 L 317.867188 96.03125 L 319.019531 119.824219 L 320.167969 117.839844 L 321.316406 139.648438 L 322.46875 125.769531 L 323.617188 123.789062 L 324.765625 135.292969 L 325.917969 162.230469 L 327.066406 180.894531 L 328.214844 157.492188 L 329.367188 199.882812 L 330.515625 205.535156 L 331.664062 209.796875 L 332.816406 175.332031 L 333.964844 185.246094 L 335.113281 199.125 L 336.265625 185.246094 L 337.414062 185.246094 L 338.5625 189.210938 L 339.714844 176.769531 L 340.863281 212.109375 L 342.011719 220.386719 L 343.164062 185.246094 L 344.3125 195.160156 L 345.460938 211.019531 L 346.613281 211.019531 L 347.761719 187.230469 L 348.910156 218.949219 L 350.0625 207.054688 L 351.210938 209.035156 L 352.359375 195.160156 L 353.511719 203.367188 L 354.660156 214.425781 L 355.808594 219.226562 L 356.960938 214.984375 L 358.109375 214.984375 L 359.257812 218.949219 L 360.410156 207.054688 L 361.558594 218.949219 L 362.707031 214.984375 L 363.859375 213 L 365.007812 213 L 366.15625 214.984375 L 367.308594 218.949219 L 368.457031 216.96875 L 369.605469 219.09375 L 370.757812 214.691406 L 371.90625 205.21875 L 373.054688 209.878906 L 374.207031 213.300781 L 375.355469 215.824219 L 376.503906 219.667969 L 377.65625 213.546875 L 378.804688 195.878906 L 379.957031 218.949219 L 381.105469 167.402344 L 382.253906 179.296875 L 383.40625 177.253906 L 384.554688 191.316406 L 385.703125 201.046875 L 386.855469 197.140625 L 388.003906 199.84375 L 389.152344 193.71875 L 390.304688 185.964844 L 391.453125 179.296875 L 392.601562 167.402344 L 393.753906 189.210938 L 394.902344 167.402344 L 396.050781 179.296875 L 397.203125 147.578125 L 398.351562 189.210938 L 399.5 115.855469 L 400.652344 105.945312 L 401.800781 149.558594 L 402.949219 127.753906 L 404.101562 149.558594 L 405.25 66.292969 L 406.398438 86.121094 L 407.550781 111.890625 L 408.699219 94.050781 L 409.847656 72.242188 L 411 38.539062 L 412.148438 109.910156 L 413.296875 46.46875 L 414.449219 46.46875 L 415.597656 82.152344 L 416.746094 73.234375 L 417.898438 15.738281 "/>
<path style="fill:none;stroke-width:1.066978;stroke-linecap:butt;stroke-linejoin:round;stroke:rgb(13.72549%,65.098039%,51.764706%);stroke-opacity:1;stroke-miterlimit:10;" d="M 245.433594 209.550781 L 247.730469 209.886719 L 248.882812 210.054688 L 250.03125 210.21875 L 251.179688 210.882812 L 252.332031 211.511719 L 253.480469 212.109375 L 254.628906 212.675781 L 255.78125 213.210938 L 256.929688 212.28125 L 258.082031 211.257812 L 259.230469 210.140625 L 260.378906 208.917969 L 261.53125 207.574219 L 262.679688 206.105469 L 263.828125 204.492188 L 264.980469 202.726562 L 266.128906 200.789062 L 267.277344 198.667969 L 268.429688 196.34375 L 269.578125 193.796875 L 270.726562 191.953125 L 271.878906 189.996094 L 273.027344 187.917969 L 274.175781 185.703125 L 275.328125 183.351562 L 276.476562 180.378906 L 277.625 177.1875 L 278.777344 173.753906 L 279.925781 170.0625 L 281.074219 166.707031 L 282.226562 163.136719 L 283.375 159.339844 L 284.523438 151.148438 L 285.675781 141.902344 L 286.824219 131.464844 L 287.972656 119.34375 L 289.125 105.617188 L 290.273438 103.742188 L 291.421875 101.835938 L 292.574219 99.902344 L 293.722656 97.9375 L 294.871094 90.304688 L 296.023438 88.949219 L 297.171875 90.710938 L 298.320312 92.453125 L 299.472656 94.171875 L 300.621094 92.222656 L 301.769531 88.492188 L 302.921875 84.652344 L 304.070312 80.703125 L 305.21875 85.148438 L 306.371094 89.453125 L 307.519531 93.625 L 308.667969 96.683594 L 309.820312 99.671875 L 310.96875 112.335938 L 312.117188 123.699219 L 313.269531 117.484375 L 314.417969 110.882812 L 315.566406 103.871094 L 316.71875 96.414062 L 317.867188 103.710938 L 319.019531 110.585938 L 320.167969 117.0625 L 321.316406 123.167969 L 322.46875 128.917969 L 323.617188 134.339844 L 324.765625 146.566406 L 325.917969 159.601562 L 327.066406 170.40625 L 328.214844 179.371094 L 329.367188 186.804688 L 330.515625 192.96875 L 331.664062 192.507812 L 332.816406 192.039062 L 333.964844 191.566406 L 335.113281 191.082031 L 336.265625 190.589844 L 337.414062 190.089844 L 338.5625 192.253906 L 339.714844 194.273438 L 340.863281 196.160156 L 342.011719 197.921875 L 343.164062 199.570312 L 344.3125 201.109375 L 345.460938 202.546875 L 346.613281 203.890625 L 347.761719 205.144531 L 348.910156 206.320312 L 350.0625 207.414062 L 351.210938 208.441406 L 352.359375 209.398438 L 353.511719 210.289062 L 354.660156 211.125 L 355.808594 211.902344 L 356.960938 212.632812 L 358.109375 213.308594 L 359.257812 213.945312 L 360.410156 214.21875 L 361.558594 214.484375 L 362.707031 214.742188 L 363.859375 214.988281 L 365.007812 215.230469 L 366.15625 215.464844 L 367.308594 215.691406 L 368.457031 215.296875 L 369.605469 214.882812 L 370.757812 214.445312 L 371.90625 213.984375 L 373.054688 213.496094 L 374.207031 212.984375 L 375.355469 212.441406 L 376.503906 211.871094 L 377.65625 208.371094 L 378.804688 203.757812 L 379.957031 197.683594 L 381.105469 189.683594 L 382.253906 186.992188 L 383.40625 188.515625 L 384.554688 189.976562 L 385.703125 191.375 L 386.855469 192.714844 L 388.003906 193.996094 L 389.152344 191.070312 L 390.304688 187.847656 L 391.453125 184.300781 L 392.601562 180.394531 L 393.753906 176.089844 L 394.902344 171.355469 L 396.050781 166.140625 L 397.203125 159.890625 L 398.351562 152.957031 L 399.5 145.261719 L 400.652344 136.71875 L 401.800781 129.628906 L 402.949219 121.960938 L 404.101562 113.660156 L 405.25 104.679688 L 406.398438 98.699219 L 407.550781 92.417969 L 408.699219 85.816406 L 409.847656 78.882812 L 411 71.597656 L 412.148438 68.699219 L 413.296875 65.742188 L 414.449219 62.730469 L 415.597656 59.660156 L 416.746094 51.316406 L 417.898438 37.65625 "/>
<path style="fill:none;stroke-width:1.066978;stroke-linecap:butt;stroke-linejoin:round;stroke:rgb(38.039216%,75.294118%,40.784314%);stroke-opacity:1;stroke-miterlimit:10;" d="M 245.433594 210.203125 L 247.730469 210.578125 L 248.882812 210.761719 L 250.03125 210.941406 L 251.179688 211.117188 L 252.332031 211.292969 L 254.628906 211.636719 L 255.78125 211.800781 L 256.929688 211.148438 L 258.082031 210.222656 L 259.230469 209.222656 L 260.378906 208.140625 L 261.53125 206.976562 L 262.679688 205.71875 L 263.828125 204.359375 L 264.980469 202.898438 L 266.128906 201.316406 L 267.277344 199.613281 L 268.429688 197.773438 L 269.578125 195.792969 L 270.726562 193.652344 L 271.878906 191.34375 L 273.027344 188.851562 L 274.175781 186.164062 L 275.328125 183.265625 L 276.476562 180.140625 L 277.625 176.765625 L 278.777344 173.128906 L 279.925781 169.203125 L 281.074219 164.96875 L 282.226562 160.398438 L 283.375 155.46875 L 284.523438 148.207031 L 285.675781 140.15625 L 286.824219 131.242188 L 287.972656 121.363281 L 289.125 110.421875 L 290.273438 107.136719 L 291.421875 103.753906 L 292.574219 100.277344 L 293.722656 96.695312 L 294.871094 93.011719 L 296.023438 91.984375 L 297.171875 90.953125 L 298.320312 89.910156 L 299.472656 88.859375 L 300.621094 87.800781 L 301.769531 86.730469 L 302.921875 85.652344 L 304.070312 84.570312 L 305.21875 88.640625 L 306.371094 92.59375 L 307.519531 96.429688 L 308.667969 100.152344 L 309.820312 103.769531 L 310.96875 107.277344 L 312.117188 110.679688 L 313.269531 109.140625 L 314.417969 107.582031 L 315.566406 106 L 316.71875 104.394531 L 317.867188 105.542969 L 319.019531 112.597656 L 320.167969 119.230469 L 321.316406 125.460938 L 322.46875 131.320312 L 323.617188 136.828125 L 324.765625 149.011719 L 325.917969 159.46875 L 327.066406 168.449219 L 328.214844 176.15625 L 329.367188 182.773438 L 330.515625 188.453125 L 331.664062 189.257812 L 332.816406 190.042969 L 333.964844 190.808594 L 335.113281 191.554688 L 336.265625 192.285156 L 337.414062 193 L 338.5625 194.324219 L 339.714844 196 L 340.863281 197.574219 L 342.011719 199.058594 L 343.164062 200.457031 L 344.3125 201.769531 L 345.460938 203.007812 L 346.613281 204.175781 L 347.761719 205.273438 L 348.910156 206.304688 L 350.0625 207.277344 L 351.210938 208.195312 L 352.359375 209.054688 L 353.511719 209.867188 L 354.660156 210.632812 L 355.808594 211.351562 L 356.960938 212.027344 L 358.109375 212.664062 L 359.257812 213.265625 L 360.410156 213.765625 L 361.558594 214.242188 L 362.707031 214.695312 L 363.859375 215.121094 L 365.007812 215.527344 L 366.15625 215.910156 L 367.308594 216.273438 L 368.457031 215.707031 L 369.605469 215.09375 L 370.757812 214.25 L 371.90625 213.3125 L 373.054688 212.277344 L 374.207031 211.128906 L 375.355469 209.855469 L 376.503906 207.941406 L 377.65625 205.75 L 378.804688 203.234375 L 379.957031 200.351562 L 381.105469 197.042969 L 382.253906 193.253906 L 383.40625 192.699219 L 384.554688 192.136719 L 385.703125 191.5625 L 386.855469 190.976562 L 388.003906 190.378906 L 389.152344 188.441406 L 390.304688 185.382812 L 391.453125 182.058594 L 392.601562 178.4375 L 393.753906 174.496094 L 394.902344 169.917969 L 396.050781 164.910156 L 397.203125 159.429688 L 398.351562 153.429688 L 399.5 146.863281 L 400.652344 139.675781 L 401.800781 131.808594 L 402.949219 123.199219 L 404.101562 113.773438 L 405.25 103.460938 L 406.398438 98.304688 L 407.550781 92.929688 L 408.699219 87.320312 L 409.847656 81.46875 L 411 75.363281 L 412.148438 70.277344 L 413.296875 65.011719 L 414.449219 59.5625 L 415.597656 53.929688 L 416.746094 48.101562 L 417.898438 42.070312 "/>
<path style="fill:none;stroke-width:1.066978;stroke-linecap:butt;stroke-linejoin:round;stroke:rgb(47.058824%,81.568627%,32.54902%);stroke-opacity:1;stroke-miterlimit:10;" d="M 245.433594 211.132812 L 246.582031 211.140625 L 247.730469 211.144531 L 248.882812 211.152344 L 251.179688 211.160156 L 252.332031 211.167969 L 254.628906 211.175781 L 255.78125 211.183594 L 256.929688 211.1875 L 258.082031 210.253906 L 259.230469 209.242188 L 260.378906 208.15625 L 261.53125 206.976562 L 262.679688 205.707031 L 263.828125 204.335938 L 264.980469 202.855469 L 266.128906 201.257812 L 267.277344 199.53125 L 268.429688 197.667969 L 269.578125 195.65625 L 270.726562 193.484375 L 271.878906 191.136719 L 273.027344 188.605469 L 274.175781 185.871094 L 275.328125 182.917969 L 276.476562 179.640625 L 277.625 176.097656 L 278.777344 172.261719 L 279.925781 168.109375 L 281.074219 163.621094 L 282.226562 158.761719 L 283.375 153.507812 L 284.523438 146.96875 L 285.675781 139.816406 L 286.824219 131.992188 L 287.972656 123.425781 L 289.125 114.058594 L 290.273438 109.859375 L 291.421875 105.5 L 292.574219 100.96875 L 293.722656 96.265625 L 294.871094 91.378906 L 296.023438 90.917969 L 298.320312 89.988281 L 299.472656 89.523438 L 301.769531 88.585938 L 302.921875 88.113281 L 304.070312 87.640625 L 305.21875 90.324219 L 306.371094 92.957031 L 307.519531 95.535156 L 308.667969 98.0625 L 309.820312 100.542969 L 310.96875 102.96875 L 312.117188 105.351562 L 313.269531 105.84375 L 314.417969 106.335938 L 315.566406 106.824219 L 316.71875 107.3125 L 317.867188 107.796875 L 319.019531 114.949219 L 320.167969 121.660156 L 321.316406 127.949219 L 322.46875 133.851562 L 323.617188 140.671875 L 324.765625 150.449219 L 325.917969 159.0625 L 327.066406 166.65625 L 328.214844 173.34375 L 329.367188 179.238281 L 330.515625 184.429688 L 331.664062 186.382812 L 332.816406 188.234375 L 333.964844 189.996094 L 335.113281 191.664062 L 336.265625 193.25 L 337.414062 194.753906 L 338.5625 196.179688 L 339.714844 197.535156 L 340.863281 198.875 L 342.011719 200.140625 L 343.164062 201.339844 L 344.3125 202.476562 L 345.460938 203.554688 L 346.613281 204.574219 L 347.761719 205.542969 L 348.910156 206.457031 L 350.0625 207.324219 L 351.210938 208.148438 L 352.359375 208.925781 L 353.511719 209.664062 L 354.660156 210.363281 L 355.808594 211.023438 L 356.960938 211.652344 L 358.109375 212.246094 L 359.257812 212.808594 L 360.410156 213.339844 L 361.558594 213.847656 L 362.707031 214.324219 L 363.859375 214.777344 L 365.007812 215.207031 L 366.15625 215.613281 L 367.308594 216 L 368.457031 215.269531 L 369.605469 214.464844 L 370.757812 213.574219 L 371.90625 212.59375 L 373.054688 211.507812 L 374.207031 210.304688 L 375.355469 208.976562 L 376.503906 207.511719 L 377.65625 205.890625 L 378.804688 204.097656 L 379.957031 202.113281 L 381.105469 199.925781 L 382.253906 197.503906 L 383.40625 195.820312 L 384.554688 194.023438 L 385.703125 192.105469 L 386.855469 190.0625 L 388.003906 187.882812 L 389.152344 185.558594 L 390.304688 182.925781 L 391.453125 180.105469 L 392.601562 177.085938 L 393.753906 173.855469 L 394.902344 169.34375 L 396.050781 164.414062 L 397.203125 159.03125 L 398.351562 153.152344 L 399.5 146.734375 L 400.652344 139.722656 L 401.800781 132.070312 L 402.949219 123.710938 L 404.101562 114.582031 L 405.25 104.613281 L 406.398438 99.464844 L 407.550781 94.09375 L 408.699219 88.488281 L 409.847656 82.640625 L 411 76.535156 L 412.148438 71.003906 L 413.296875 65.261719 L 414.449219 59.304688 L 415.597656 53.121094 L 416.746094 46.703125 L 417.898438 40.042969 "/>
<path style="fill:none;stroke-width:1.066978;stroke-linecap:butt;stroke-linejoin:round;stroke:rgb(61.960784%,84.313725%,28.627451%);stroke-opacity:1;stroke-miterlimit:10;" d="M 245.433594 211.835938 L 247.730469 211.648438 L 248.882812 211.550781 L 250.03125 211.457031 L 251.179688 211.359375 L 252.332031 211.261719 L 253.480469 211.164062 L 254.628906 211.0625 L 255.78125 210.960938 L 256.929688 210.859375 L 258.082031 209.925781 L 259.230469 208.914062 L 260.378906 207.828125 L 261.53125 206.65625 L 262.679688 205.394531 L 263.828125 204.03125 L 264.980469 202.566406 L 266.128906 200.984375 L 267.277344 199.28125 L 268.429688 197.445312 L 269.578125 195.46875 L 270.726562 193.335938 L 271.878906 191.035156 L 273.027344 188.5625 L 274.175781 185.890625 L 275.328125 183.015625 L 276.476562 179.613281 L 277.625 175.921875 L 278.777344 171.917969 L 279.925781 167.570312 L 281.074219 162.851562 L 282.226562 157.730469 L 283.375 152.171875 L 284.523438 146.140625 L 285.675781 139.59375 L 286.824219 132.492188 L 287.972656 124.78125 L 289.125 116.414062 L 290.273438 111.644531 L 291.421875 106.664062 L 292.574219 101.457031 L 293.722656 96.019531 L 294.871094 90.339844 L 296.023438 90.234375 L 298.320312 90.023438 L 299.472656 89.917969 L 300.621094 89.808594 L 301.769531 89.703125 L 302.921875 89.597656 L 304.070312 89.492188 L 305.21875 91.371094 L 306.371094 93.222656 L 307.519531 95.046875 L 308.667969 96.847656 L 309.820312 98.621094 L 310.96875 100.371094 L 312.117188 102.09375 L 313.269531 103.792969 L 314.417969 105.46875 L 315.566406 107.121094 L 316.71875 108.75 L 317.867188 110.355469 L 319.019531 116.855469 L 320.167969 122.980469 L 321.316406 128.75 L 322.46875 134.1875 L 323.617188 143.761719 L 324.765625 152.304688 L 325.917969 159.925781 L 327.066406 166.722656 L 328.214844 172.789062 L 329.367188 178.199219 L 330.515625 183.023438 L 331.664062 185.175781 L 332.816406 187.210938 L 333.964844 189.132812 L 335.113281 190.957031 L 336.265625 192.679688 L 337.414062 194.308594 L 338.5625 195.851562 L 339.714844 197.308594 L 340.863281 198.691406 L 342.011719 199.996094 L 343.164062 201.234375 L 344.3125 202.402344 L 345.460938 203.507812 L 346.613281 204.554688 L 347.761719 205.546875 L 348.910156 206.484375 L 350.0625 207.367188 L 351.210938 208.207031 L 352.359375 209 L 353.511719 209.75 L 354.660156 210.460938 L 355.808594 211.132812 L 356.960938 211.769531 L 358.109375 212.371094 L 359.257812 212.9375 L 360.410156 213.476562 L 361.558594 213.984375 L 362.707031 214.273438 L 363.859375 214.546875 L 365.007812 214.816406 L 366.15625 215.078125 L 367.308594 215.328125 L 368.457031 214.636719 L 369.605469 213.886719 L 370.757812 213.0625 L 371.90625 212.167969 L 373.054688 211.191406 L 374.207031 210.125 L 375.355469 208.964844 L 376.503906 207.695312 L 377.65625 206.3125 L 378.804688 204.800781 L 379.957031 203.15625 L 381.105469 201.359375 L 382.253906 199.398438 L 383.40625 197.492188 L 384.554688 195.429688 L 385.703125 193.199219 L 386.855469 190.789062 L 388.003906 188.183594 L 389.152344 185.367188 L 390.304688 182.320312 L 391.453125 179.027344 L 392.601562 175.464844 L 393.753906 171.617188 L 394.902344 167.292969 L 396.050781 162.605469 L 397.203125 157.519531 L 398.351562 152.007812 L 399.5 146.027344 L 400.652344 139.546875 L 401.800781 132.519531 L 402.949219 124.898438 L 404.101562 116.636719 L 405.25 107.675781 L 406.398438 99.441406 L 407.550781 94.359375 L 408.699219 89.070312 L 409.847656 83.558594 L 411 77.824219 L 412.148438 71.851562 L 413.296875 65.632812 L 414.449219 59.160156 L 415.597656 52.417969 L 416.746094 45.402344 L 417.898438 38.09375 "/>
<path style="fill:none;stroke-width:1.066978;stroke-linecap:butt;stroke-linejoin:round;stroke:rgb(72.941176%,86.27451%,25.882353%);stroke-opacity:1;stroke-miterlimit:10;" d="M 245.433594 212.546875 L 246.582031 212.355469 L 247.730469 212.160156 L 248.882812 211.960938 L 250.03125 211.757812 L 251.179688 211.550781 L 252.332031 211.339844 L 253.480469 211.125 L 254.628906 210.90625 L 255.78125 210.683594 L 256.929688 210.457031 L 258.082031 209.566406 L 259.230469 208.613281 L 260.378906 207.589844 L 261.53125 206.492188 L 262.679688 205.214844 L 263.828125 203.835938 L 264.980469 202.351562 L 266.128906 200.75 L 267.277344 199.027344 L 268.429688 197.167969 L 269.578125 195.164062 L 270.726562 193.003906 L 271.878906 190.675781 L 273.027344 188.164062 L 274.175781 185.460938 L 275.328125 182.542969 L 276.476562 179.183594 L 277.625 175.539062 L 278.777344 171.59375 L 279.925781 167.320312 L 281.074219 162.691406 L 282.226562 157.675781 L 283.375 152.246094 L 284.523438 146.359375 L 285.675781 139.984375 L 286.824219 133.078125 L 287.972656 125.597656 L 289.125 117.496094 L 290.273438 112.503906 L 291.421875 107.277344 L 292.574219 101.804688 L 293.722656 96.074219 L 294.871094 90.070312 L 296.023438 90.015625 L 298.320312 89.90625 L 299.472656 89.855469 L 301.769531 89.746094 L 302.921875 89.695312 L 304.070312 89.640625 L 305.21875 91.476562 L 306.371094 93.285156 L 307.519531 95.074219 L 308.667969 96.835938 L 309.820312 98.570312 L 310.96875 100.285156 L 312.117188 101.972656 L 313.269531 103.640625 L 314.417969 105.285156 L 315.566406 106.902344 L 316.71875 108.503906 L 317.867188 110.078125 L 319.019531 117.140625 L 320.167969 123.761719 L 321.316406 130.484375 L 322.46875 136.753906 L 323.617188 145.429688 L 324.765625 153.234375 L 325.917969 160.25 L 327.066406 166.5625 L 328.214844 172.238281 L 329.367188 177.339844 L 330.515625 181.929688 L 331.664062 184.210938 L 332.816406 186.359375 L 333.964844 188.394531 L 335.113281 190.3125 L 336.265625 192.125 L 337.414062 193.835938 L 338.5625 195.453125 L 339.714844 196.980469 L 340.863281 198.421875 L 342.011719 199.78125 L 343.164062 201.070312 L 344.3125 202.285156 L 345.460938 203.429688 L 346.613281 204.515625 L 347.761719 205.539062 L 348.910156 206.503906 L 350.0625 207.417969 L 351.210938 208.277344 L 352.359375 209.09375 L 353.511719 209.859375 L 354.660156 210.585938 L 355.808594 211.273438 L 356.960938 211.917969 L 358.109375 212.53125 L 359.257812 213.109375 L 360.410156 213.652344 L 361.558594 214.167969 L 362.707031 214.308594 L 363.859375 214.449219 L 366.15625 214.722656 L 367.308594 214.855469 L 368.457031 214.179688 L 369.605469 213.445312 L 370.757812 212.652344 L 371.90625 211.789062 L 373.054688 210.855469 L 374.207031 209.84375 L 375.355469 208.746094 L 376.503906 207.558594 L 377.65625 206.269531 L 378.804688 204.871094 L 379.957031 203.359375 L 381.105469 201.714844 L 382.253906 199.9375 L 383.40625 198.007812 L 384.554688 195.917969 L 385.703125 193.652344 L 386.855469 191.195312 L 388.003906 188.535156 L 389.152344 185.648438 L 390.304688 182.523438 L 391.453125 179.132812 L 392.601562 175.460938 L 393.753906 171.480469 L 394.902344 167.164062 L 396.050781 162.488281 L 397.203125 157.421875 L 398.351562 151.925781 L 399.5 145.972656 L 400.652344 139.523438 L 401.800781 132.527344 L 402.949219 124.949219 L 404.101562 116.730469 L 405.25 107.820312 L 406.398438 100.320312 L 407.550781 95.105469 L 408.699219 89.671875 L 409.847656 84 L 411 78.09375 L 412.148438 71.933594 L 413.296875 65.511719 L 414.449219 58.816406 L 415.597656 51.835938 L 416.746094 44.558594 L 417.898438 36.96875 "/>
<path style="fill:none;stroke-width:1.066978;stroke-linecap:butt;stroke-linejoin:round;stroke:rgb(81.176471%,87.45098%,23.137255%);stroke-opacity:1;stroke-miterlimit:10;" d="M 245.433594 213.394531 L 246.582031 213.066406 L 247.730469 212.730469 L 248.882812 212.382812 L 250.03125 212.023438 L 251.179688 211.652344 L 252.332031 211.265625 L 253.480469 210.867188 L 254.628906 210.457031 L 255.78125 210.03125 L 256.929688 209.589844 L 258.082031 208.953125 L 259.230469 208.285156 L 260.378906 207.582031 L 261.53125 206.710938 L 262.679688 205.40625 L 263.828125 203.992188 L 264.980469 202.46875 L 266.128906 200.820312 L 267.277344 199.039062 L 268.429688 197.117188 L 269.578125 195.039062 L 270.726562 192.792969 L 271.878906 190.363281 L 273.027344 187.742188 L 274.175781 184.90625 L 275.328125 181.84375 L 276.476562 178.53125 L 277.625 174.949219 L 278.777344 171.078125 L 279.925781 166.898438 L 281.074219 162.378906 L 282.226562 157.496094 L 283.375 152.21875 L 284.523438 146.515625 L 285.675781 140.351562 L 286.824219 133.6875 L 287.972656 126.492188 L 289.125 118.710938 L 290.273438 113.480469 L 291.421875 107.988281 L 292.574219 102.21875 L 293.722656 96.160156 L 294.871094 89.796875 L 296.023438 89.785156 L 297.171875 89.769531 L 298.320312 89.757812 L 299.472656 89.742188 L 300.621094 89.730469 L 301.769531 89.714844 L 302.921875 89.703125 L 304.070312 89.691406 L 305.21875 91.523438 L 306.371094 93.328125 L 307.519531 95.113281 L 308.667969 96.871094 L 309.820312 98.605469 L 310.96875 100.316406 L 312.117188 102.003906 L 313.269531 103.664062 L 314.417969 105.304688 L 315.566406 106.925781 L 316.71875 108.519531 L 317.867188 110.09375 L 319.019531 116.820312 L 320.167969 123.144531 L 321.316406 132.039062 L 322.46875 140.144531 L 323.617188 147.542969 L 324.765625 154.28125 L 325.917969 160.417969 L 327.066406 166.003906 L 328.214844 171.089844 L 329.367188 175.722656 L 330.515625 179.941406 L 331.664062 183.78125 L 332.816406 185.984375 L 333.964844 188.0625 L 335.113281 190.023438 L 336.265625 191.875 L 337.414062 193.621094 L 338.5625 195.269531 L 339.714844 196.828125 L 340.863281 198.292969 L 342.011719 199.679688 L 343.164062 200.988281 L 344.3125 202.222656 L 345.460938 203.386719 L 346.613281 204.484375 L 347.761719 205.523438 L 348.910156 206.5 L 350.0625 207.425781 L 351.210938 208.296875 L 352.359375 209.121094 L 353.511719 209.898438 L 354.660156 210.628906 L 355.808594 211.320312 L 356.960938 211.972656 L 358.109375 212.589844 L 359.257812 213.171875 L 360.410156 213.71875 L 361.558594 214.238281 L 362.707031 214.347656 L 363.859375 214.453125 L 366.15625 214.664062 L 367.308594 214.769531 L 368.457031 214.089844 L 369.605469 213.355469 L 370.757812 212.554688 L 371.90625 211.691406 L 373.054688 210.757812 L 374.207031 209.742188 L 375.355469 208.640625 L 376.503906 207.453125 L 377.65625 206.160156 L 378.804688 204.765625 L 379.957031 203.25 L 381.105469 201.609375 L 382.253906 199.832031 L 383.40625 197.90625 L 384.554688 195.816406 L 385.703125 193.558594 L 386.855469 191.109375 L 388.003906 188.453125 L 389.152344 185.578125 L 390.304688 182.464844 L 391.453125 179.089844 L 392.601562 175.433594 L 393.753906 171.472656 L 394.902344 167.183594 L 396.050781 162.535156 L 397.203125 157.5 L 398.351562 152.042969 L 399.5 146.132812 L 400.652344 139.730469 L 401.800781 132.792969 L 402.949219 125.277344 L 404.101562 117.132812 L 405.25 108.3125 L 406.398438 101.199219 L 407.550781 95.851562 L 408.699219 90.273438 L 409.847656 84.445312 L 411 78.363281 L 412.148438 72.015625 L 413.296875 65.390625 L 414.449219 58.472656 L 415.597656 51.25 L 416.746094 43.710938 L 417.898438 35.839844 "/>
<path style="fill:none;stroke-width:1.066978;stroke-linecap:butt;stroke-linejoin:round;stroke:rgb(88.235294%,88.627451%,20.392157%);stroke-opacity:1;stroke-miterlimit:10;" d="M 245.433594 213.992188 L 246.582031 213.59375 L 247.730469 213.179688 L 248.882812 212.746094 L 250.03125 212.292969 L 251.179688 211.824219 L 252.332031 211.328125 L 253.480469 210.8125 L 254.628906 210.273438 L 255.78125 209.710938 L 256.929688 209.125 L 258.082031 208.511719 L 259.230469 207.871094 L 260.378906 207.199219 L 261.53125 206.5 L 262.679688 205.191406 L 263.828125 203.777344 L 264.980469 202.25 L 266.128906 200.601562 L 267.277344 198.824219 L 268.429688 196.898438 L 269.578125 194.824219 L 270.726562 192.582031 L 271.878906 190.164062 L 273.027344 187.550781 L 274.175781 184.726562 L 275.328125 181.679688 L 276.476562 178.390625 L 277.625 174.839844 L 278.777344 171.003906 L 279.925781 166.859375 L 281.074219 162.386719 L 282.226562 157.558594 L 283.375 152.34375 L 284.523438 146.710938 L 285.675781 140.632812 L 286.824219 134.066406 L 287.972656 126.976562 L 289.125 119.324219 L 290.273438 113.96875 L 291.421875 108.339844 L 292.574219 102.421875 L 293.722656 96.195312 L 294.871094 89.648438 L 296.023438 89.660156 L 298.320312 89.691406 L 299.472656 89.703125 L 300.621094 89.71875 L 301.769531 89.730469 L 302.921875 89.746094 L 304.070312 89.761719 L 305.21875 91.574219 L 306.371094 93.363281 L 307.519531 95.128906 L 308.667969 96.871094 L 309.820312 98.585938 L 310.96875 100.28125 L 312.117188 101.953125 L 313.269531 103.601562 L 314.417969 105.226562 L 315.566406 106.828125 L 316.71875 108.410156 L 317.867188 109.96875 L 319.019531 117.714844 L 320.167969 124.925781 L 321.316406 133.359375 L 322.46875 141.070312 L 323.617188 148.113281 L 324.765625 154.550781 L 325.917969 160.4375 L 327.066406 165.816406 L 328.214844 170.730469 L 329.367188 175.222656 L 330.515625 179.328125 L 331.664062 183.078125 L 332.816406 185.363281 L 333.964844 187.519531 L 335.113281 189.546875 L 336.265625 191.460938 L 337.414062 193.265625 L 338.5625 194.96875 L 339.714844 196.570312 L 340.863281 198.082031 L 342.011719 199.507812 L 343.164062 200.851562 L 344.3125 202.117188 L 345.460938 203.308594 L 346.613281 204.433594 L 347.761719 205.496094 L 348.910156 206.492188 L 350.0625 207.4375 L 351.210938 208.324219 L 352.359375 209.160156 L 353.511719 209.949219 L 354.660156 210.695312 L 355.808594 211.394531 L 356.960938 212.054688 L 358.109375 212.679688 L 359.257812 213.265625 L 360.410156 213.820312 L 361.558594 214.34375 L 362.707031 214.410156 L 363.859375 214.480469 L 365.007812 214.546875 L 366.15625 214.617188 L 367.308594 214.683594 L 368.457031 214 L 369.605469 213.261719 L 370.757812 212.460938 L 371.90625 211.59375 L 373.054688 210.652344 L 374.207031 209.636719 L 375.355469 208.535156 L 376.503906 207.34375 L 377.65625 206.050781 L 378.804688 204.652344 L 379.957031 203.140625 L 381.105469 201.5 L 382.253906 199.722656 L 383.40625 197.800781 L 384.554688 195.714844 L 385.703125 193.460938 L 386.855469 191.015625 L 388.003906 188.371094 L 389.152344 185.507812 L 390.304688 182.40625 L 391.453125 179.046875 L 392.601562 175.40625 L 393.753906 171.46875 L 394.902344 167.203125 L 396.050781 162.582031 L 397.203125 157.578125 L 398.351562 152.164062 L 399.5 146.296875 L 400.652344 139.941406 L 401.800781 133.0625 L 402.949219 125.613281 L 404.101562 117.542969 L 405.25 108.804688 L 406.398438 102.070312 L 407.550781 96.597656 L 408.699219 90.875 L 409.847656 84.890625 L 411 78.640625 L 412.148438 72.105469 L 413.296875 65.273438 L 414.449219 58.128906 L 415.597656 50.664062 L 416.746094 42.863281 L 417.898438 34.707031 "/>
<path style="fill:none;stroke-width:1.066978;stroke-linecap:butt;stroke-linejoin:round;stroke:rgb(94.117647%,89.803922%,17.254902%);stroke-opacity:1;stroke-miterlimit:10;" d="M 245.433594 214.347656 L 246.582031 213.925781 L 247.730469 213.484375 L 248.882812 213.023438 L 250.03125 212.539062 L 251.179688 212.03125 L 252.332031 211.496094 L 253.480469 210.9375 L 254.628906 210.347656 L 255.78125 209.730469 L 256.929688 209.085938 L 258.082031 208.40625 L 259.230469 207.695312 L 260.378906 206.949219 L 261.53125 206.167969 L 262.679688 204.851562 L 263.828125 203.433594 L 264.980469 201.902344 L 266.128906 200.25 L 267.277344 198.472656 L 268.429688 196.550781 L 269.578125 194.480469 L 270.726562 192.25 L 271.878906 189.839844 L 273.027344 187.242188 L 274.175781 184.441406 L 275.328125 181.417969 L 276.476562 178.160156 L 277.625 174.644531 L 278.777344 170.851562 L 279.925781 166.765625 L 281.074219 162.355469 L 282.226562 157.597656 L 283.375 152.46875 L 284.523438 146.933594 L 285.675781 140.964844 L 286.824219 134.53125 L 287.972656 127.589844 L 289.125 120.101562 L 290.273438 114.59375 L 291.421875 108.792969 L 292.574219 102.679688 L 293.722656 96.242188 L 294.871094 89.457031 L 296.023438 89.503906 L 297.171875 89.554688 L 298.320312 89.601562 L 299.472656 89.648438 L 300.621094 89.695312 L 301.769531 89.746094 L 302.921875 89.792969 L 304.070312 89.839844 L 305.21875 91.632812 L 306.371094 93.40625 L 307.519531 95.152344 L 308.667969 96.871094 L 309.820312 98.574219 L 310.96875 100.25 L 312.117188 101.902344 L 313.269531 103.535156 L 314.417969 105.144531 L 315.566406 106.730469 L 316.71875 108.296875 L 317.867188 109.84375 L 319.019531 118.621094 L 320.167969 126.714844 L 321.316406 134.675781 L 322.46875 141.980469 L 323.617188 148.679688 L 324.765625 154.824219 L 325.917969 160.460938 L 327.066406 165.628906 L 328.214844 170.371094 L 329.367188 174.71875 L 330.515625 178.710938 L 331.664062 182.367188 L 332.816406 184.738281 L 333.964844 186.96875 L 335.113281 189.070312 L 336.265625 191.050781 L 337.414062 192.914062 L 338.5625 194.664062 L 339.714844 196.316406 L 340.863281 197.871094 L 342.011719 199.335938 L 343.164062 200.714844 L 344.3125 202.011719 L 345.460938 203.234375 L 346.613281 204.382812 L 347.761719 205.46875 L 348.910156 206.488281 L 350.0625 207.449219 L 351.210938 208.351562 L 352.359375 209.203125 L 353.511719 210.003906 L 354.660156 210.757812 L 355.808594 211.46875 L 356.960938 212.136719 L 358.109375 212.769531 L 359.257812 213.363281 L 360.410156 213.917969 L 361.558594 214.445312 L 362.707031 214.476562 L 363.859375 214.503906 L 366.15625 214.566406 L 367.308594 214.59375 L 368.457031 213.910156 L 369.605469 213.167969 L 370.757812 212.363281 L 371.90625 211.492188 L 373.054688 210.550781 L 374.207031 209.53125 L 375.355469 208.429688 L 376.503906 207.234375 L 377.65625 205.941406 L 378.804688 204.542969 L 379.957031 203.027344 L 381.105469 201.390625 L 382.253906 199.613281 L 383.40625 197.695312 L 384.554688 195.613281 L 385.703125 193.363281 L 386.855469 190.929688 L 388.003906 188.289062 L 389.152344 185.4375 L 390.304688 182.347656 L 391.453125 179.003906 L 392.601562 175.382812 L 393.753906 171.464844 L 394.902344 167.222656 L 396.050781 162.628906 L 397.203125 157.660156 L 398.351562 152.28125 L 399.5 146.457031 L 400.652344 140.152344 L 401.800781 133.332031 L 402.949219 125.945312 L 404.101562 117.949219 L 405.25 109.296875 L 406.398438 102.9375 L 407.550781 97.339844 L 408.699219 91.476562 L 409.847656 85.339844 L 411 78.914062 L 412.148438 72.191406 L 413.296875 65.15625 L 414.449219 57.792969 L 415.597656 50.082031 L 416.746094 42.015625 L 417.898438 33.566406 "/>
<path style="fill:none;stroke-width:1.066978;stroke-linecap:butt;stroke-linejoin:round;stroke:rgb(99.215686%,90.588235%,14.509804%);stroke-opacity:1;stroke-miterlimit:10;" d="M 245.433594 214.6875 L 246.582031 214.246094 L 247.730469 213.78125 L 248.882812 213.292969 L 250.03125 212.777344 L 251.179688 212.234375 L 252.332031 211.660156 L 253.480469 211.058594 L 254.628906 210.421875 L 255.78125 209.753906 L 256.929688 209.046875 L 258.082031 208.304688 L 259.230469 207.523438 L 260.378906 206.695312 L 261.53125 205.828125 L 262.679688 204.507812 L 263.828125 203.082031 L 264.980469 201.550781 L 266.128906 199.898438 L 267.277344 198.121094 L 268.429688 196.203125 L 269.578125 194.136719 L 270.726562 191.914062 L 271.878906 189.515625 L 273.027344 186.933594 L 274.175781 184.152344 L 275.328125 181.15625 L 276.476562 177.929688 L 277.625 174.453125 L 278.777344 170.707031 L 279.925781 166.667969 L 281.074219 162.320312 L 282.226562 157.636719 L 283.375 152.589844 L 284.523438 147.152344 L 285.675781 141.296875 L 286.824219 134.988281 L 287.972656 128.1875 L 289.125 120.867188 L 290.273438 115.21875 L 291.421875 109.257812 L 292.574219 102.96875 L 293.722656 96.332031 L 294.871094 89.328125 L 296.023438 89.378906 L 298.320312 89.480469 L 299.472656 89.53125 L 301.769531 89.632812 L 302.921875 89.683594 L 304.070312 89.734375 L 305.21875 91.578125 L 306.371094 93.394531 L 307.519531 95.1875 L 308.667969 96.953125 L 309.820312 98.699219 L 310.96875 100.417969 L 312.117188 102.113281 L 313.269531 103.785156 L 314.417969 105.433594 L 315.566406 107.058594 L 316.71875 108.660156 L 317.867188 110.242188 L 319.019531 119.320312 L 320.167969 127.664062 L 321.316406 135.335938 L 322.46875 142.390625 L 323.617188 148.878906 L 324.765625 154.84375 L 325.917969 160.328125 L 327.066406 165.367188 L 328.214844 170.003906 L 329.367188 174.265625 L 330.515625 178.1875 L 331.664062 181.789062 L 332.816406 184.230469 L 333.964844 186.527344 L 335.113281 188.6875 L 336.265625 190.71875 L 337.414062 192.628906 L 338.5625 194.425781 L 339.714844 196.117188 L 340.863281 197.707031 L 342.011719 199.203125 L 343.164062 200.609375 L 344.3125 201.933594 L 345.460938 203.179688 L 346.613281 204.351562 L 347.761719 205.453125 L 348.910156 206.488281 L 350.0625 207.460938 L 351.210938 208.378906 L 352.359375 209.242188 L 353.511719 210.054688 L 354.660156 210.816406 L 355.808594 211.535156 L 356.960938 212.210938 L 358.109375 212.84375 L 359.257812 213.441406 L 360.410156 213.945312 L 361.558594 214.425781 L 362.707031 214.441406 L 363.859375 214.457031 L 366.15625 214.488281 L 367.308594 214.503906 L 368.457031 213.816406 L 369.605469 213.070312 L 370.757812 212.265625 L 371.90625 211.390625 L 373.054688 210.449219 L 374.207031 209.425781 L 375.355469 208.320312 L 376.503906 207.125 L 377.65625 205.832031 L 378.804688 204.429688 L 379.957031 202.917969 L 381.105469 201.277344 L 382.253906 199.503906 L 383.40625 197.585938 L 384.554688 195.511719 L 385.703125 193.265625 L 386.855469 190.835938 L 388.003906 188.207031 L 389.152344 185.363281 L 390.304688 182.285156 L 391.453125 178.953125 L 392.601562 175.351562 L 393.753906 171.453125 L 394.902344 167.234375 L 396.050781 162.671875 L 397.203125 157.734375 L 398.351562 152.394531 L 399.5 146.613281 L 400.652344 140.363281 L 401.800781 133.597656 L 402.949219 126.277344 L 404.101562 118.355469 L 405.25 109.789062 L 406.398438 103.804688 L 407.550781 98.078125 L 408.699219 92.078125 L 409.847656 85.785156 L 411 79.195312 L 412.148438 72.285156 L 413.296875 65.042969 L 414.449219 57.453125 L 415.597656 49.5 L 416.746094 41.164062 L 417.898438 32.425781 "/>
<path style="fill:none;stroke-width:1.066978;stroke-linecap:butt;stroke-linejoin:round;stroke:rgb(20%,20%,20%);stroke-opacity:1;stroke-miterlimit:10;" d="M 234.070312 222.914062 L 236.808594 222.914062 "/>
<path style="fill:none;stroke-width:1.066978;stroke-linecap:butt;stroke-linejoin:round;stroke:rgb(20%,20%,20%);stroke-opacity:1;stroke-miterlimit:10;" d="M 234.070312 173.351562 L 236.808594 173.351562 "/>
<path style="fill:none;stroke-width:1.066978;stroke-linecap:butt;stroke-linejoin:round;stroke:rgb(20%,20%,20%);stroke-opacity:1;stroke-miterlimit:10;" d="M 234.070312 123.789062 L 236.808594 123.789062 "/>
<path style="fill:none;stroke-width:1.066978;stroke-linecap:butt;stroke-linejoin:round;stroke:rgb(20%,20%,20%);stroke-opacity:1;stroke-miterlimit:10;" d="M 234.070312 74.222656 L 236.808594 74.222656 "/>
<path style="fill:none;stroke-width:1.066978;stroke-linecap:butt;stroke-linejoin:round;stroke:rgb(20%,20%,20%);stroke-opacity:1;stroke-miterlimit:10;" d="M 234.070312 24.660156 L 236.808594 24.660156 "/>
<path style="fill:none;stroke-width:1.066978;stroke-linecap:butt;stroke-linejoin:round;stroke:rgb(20%,20%,20%);stroke-opacity:1;stroke-miterlimit:10;" d="M 244.28125 233.929688 L 244.28125 231.191406 "/>
<path style="fill:none;stroke-width:1.066978;stroke-linecap:butt;stroke-linejoin:round;stroke:rgb(20%,20%,20%);stroke-opacity:1;stroke-miterlimit:10;" d="M 301.769531 233.929688 L 301.769531 231.191406 "/>
<path style="fill:none;stroke-width:1.066978;stroke-linecap:butt;stroke-linejoin:round;stroke:rgb(20%,20%,20%);stroke-opacity:1;stroke-miterlimit:10;" d="M 359.257812 233.929688 L 359.257812 231.191406 "/>
<path style="fill:none;stroke-width:1.066978;stroke-linecap:butt;stroke-linejoin:round;stroke:rgb(20%,20%,20%);stroke-opacity:1;stroke-miterlimit:10;" d="M 416.746094 233.929688 L 416.746094 231.191406 "/>
<path style=" stroke:none;fill-rule:nonzero;fill:rgb(0%,12.941176%,27.058824%);fill-opacity:1;" d="M 432 252 L 648 252 L 648 0 L 432 0 Z M 432 252 "/>
<g clip-path="url(#clip5)" clip-rule="nonzero">
<path style="fill:none;stroke-width:1.066978;stroke-linecap:round;stroke-linejoin:round;stroke:rgb(100%,100%,100%);stroke-opacity:1;stroke-miterlimit:10;" d="M 432 252 L 648 252 L 648 0 L 432 0 Z M 432 252 "/>
</g>
<g clip-path="url(#clip6)" clip-rule="nonzero">
<path style=" stroke:none;fill-rule:nonzero;fill:rgb(0%,12.941176%,27.058824%);fill-opacity:1;" d="M 452.808594 231.191406 L 642.519531 231.191406 L 642.519531 5.480469 L 452.808594 5.480469 Z M 452.808594 231.191406 "/>
</g>
<path style="fill:none;stroke-width:1.066978;stroke-linecap:butt;stroke-linejoin:round;stroke:rgb(26.666667%,0.392157%,32.941176%);stroke-opacity:1;stroke-miterlimit:10;" d="M 461.433594 213.679688 L 462.582031 213.074219 L 463.730469 210.996094 L 464.882812 206.523438 L 466.03125 204.824219 L 467.179688 206.878906 L 468.332031 201.308594 L 469.480469 215.613281 L 470.628906 219.632812 L 471.78125 220.929688 L 472.929688 219.578125 L 474.082031 208.546875 L 475.230469 203.011719 L 476.378906 210.507812 L 477.53125 212.105469 L 478.679688 209.722656 L 479.828125 215.257812 L 480.980469 189.570312 L 482.128906 193.523438 L 483.277344 209.328125 L 484.429688 193.523438 L 485.578125 179.691406 L 486.726562 197.476562 L 487.878906 193.523438 L 489.027344 177.71875 L 490.175781 193.523438 L 491.328125 198.019531 L 492.476562 189.910156 L 493.625 177.632812 L 494.777344 158.628906 L 495.925781 152.792969 L 497.074219 164.132812 L 498.226562 174.242188 L 499.375 170.023438 L 500.523438 147.511719 L 501.675781 146.175781 L 502.824219 167.15625 L 503.972656 90.785156 L 505.125 74.976562 L 506.273438 130.300781 L 507.421875 94.734375 L 508.574219 90.785156 L 509.722656 155.984375 L 510.871094 51.269531 L 512.023438 84.855469 L 513.171875 88.808594 L 514.320312 63.125 L 515.472656 126.347656 L 516.621094 102.636719 L 517.769531 108.566406 L 518.921875 74.976562 L 520.070312 41.390625 L 521.21875 106.589844 L 522.371094 82.3125 L 523.519531 120.15625 L 524.667969 112.785156 L 525.820312 49.863281 L 526.96875 114.492188 L 528.117188 159.9375 L 529.269531 124.371094 L 530.417969 90.785156 L 531.566406 106.695312 L 532.71875 90.46875 L 533.867188 95.050781 L 535.019531 118.339844 L 536.167969 122.394531 L 537.316406 138.203125 L 538.46875 126.253906 L 539.617188 122.683594 L 540.765625 137.914062 L 541.917969 163.984375 L 543.066406 177.71875 L 544.214844 160.710938 L 545.367188 199.105469 L 546.515625 207.699219 L 547.664062 206.582031 L 548.816406 179.691406 L 549.964844 183.644531 L 551.113281 197.761719 L 552.265625 188.707031 L 553.414062 184.511719 L 554.5625 187.308594 L 555.714844 179.691406 L 556.863281 213.28125 L 558.011719 217.234375 L 559.164062 189.570312 L 560.3125 192.8125 L 561.460938 211.464844 L 562.613281 211.148438 L 563.761719 190.285156 L 564.910156 215.257812 L 566.0625 211.304688 L 567.210938 205.941406 L 568.359375 197.761719 L 569.511719 203.113281 L 570.660156 214.695312 L 571.808594 218.105469 L 572.960938 216.585938 L 574.109375 215.902344 L 575.257812 216.359375 L 576.410156 211.304688 L 577.558594 217.234375 L 578.707031 214.933594 L 579.859375 213.199219 L 581.007812 213.496094 L 582.15625 215.644531 L 583.308594 218.476562 L 584.457031 219.015625 L 585.605469 217.953125 L 586.757812 213.28125 L 587.90625 207.851562 L 589.054688 210.308594 L 590.207031 213.292969 L 591.355469 216.234375 L 592.503906 218.714844 L 593.65625 213.28125 L 594.804688 199.449219 L 595.957031 215.257812 L 597.105469 171.789062 L 598.253906 175.742188 L 599.40625 179.917969 L 600.554688 192.851562 L 601.703125 198.546875 L 602.855469 199.996094 L 604.003906 198.679688 L 605.152344 194.105469 L 606.304688 186.621094 L 607.453125 178.695312 L 608.601562 170.804688 L 609.753906 185.621094 L 610.902344 171.789062 L 612.050781 175.742188 L 613.203125 152.03125 L 614.351562 185.621094 L 615.5 120.421875 L 616.652344 104.613281 L 617.800781 148.082031 L 618.949219 132.273438 L 620.101562 146.105469 L 621.25 71.027344 L 622.398438 84.855469 L 623.550781 110.542969 L 624.699219 96.710938 L 625.847656 73.003906 L 627 41.390625 L 628.148438 106.589844 L 629.296875 51.269531 L 630.449219 44.320312 L 631.597656 82.984375 L 632.746094 75.863281 L 633.898438 15.738281 "/>
<path style="fill:none;stroke-width:1.066978;stroke-linecap:butt;stroke-linejoin:round;stroke:rgb(13.72549%,65.098039%,51.764706%);stroke-opacity:1;stroke-miterlimit:10;" d="M 461.433594 214.0625 L 462.582031 211.375 L 463.730469 209.0625 L 464.882812 207.582031 L 466.03125 207.257812 L 467.179688 208.167969 L 468.332031 210.101562 L 469.480469 212.652344 L 470.628906 213.992188 L 471.78125 214.484375 L 472.929688 214.253906 L 474.082031 213.246094 L 475.230469 212.070312 L 476.378906 210.695312 L 477.53125 209.082031 L 478.679688 207.1875 L 479.828125 204.949219 L 480.980469 202.296875 L 482.128906 199.671875 L 483.277344 197.175781 L 484.429688 194.90625 L 485.578125 192.972656 L 486.726562 191.460938 L 487.878906 190.445312 L 489.027344 189.261719 L 490.175781 187.890625 L 491.328125 185.464844 L 492.476562 181.777344 L 493.625 176.496094 L 494.777344 171.816406 L 495.925781 168.027344 L 497.074219 165.390625 L 498.226562 164.09375 L 499.375 160.789062 L 500.523438 155.148438 L 501.675781 146.566406 L 502.824219 134.085938 L 503.972656 116.183594 L 505.125 105.628906 L 506.273438 105.035156 L 507.421875 103.335938 L 508.574219 100.476562 L 509.722656 96.382812 L 510.871094 90.929688 L 512.023438 88.035156 L 513.171875 87.875 L 514.320312 90.460938 L 515.472656 95.632812 L 516.621094 96.574219 L 517.769531 93.371094 L 518.921875 85.710938 L 520.070312 82.617188 L 521.21875 84.414062 L 522.371094 87.859375 L 523.519531 92.824219 L 524.667969 99.132812 L 525.820312 106.578125 L 526.96875 114.910156 L 528.117188 117.988281 L 529.269531 116.25 L 530.417969 109.445312 L 531.566406 105.089844 L 532.71875 103.492188 L 533.867188 104.765625 L 535.019531 108.820312 L 536.167969 114.292969 L 537.316406 120.964844 L 538.46875 128.578125 L 539.617188 137.230469 L 540.765625 147.574219 L 541.917969 158.789062 L 543.066406 170.085938 L 544.214844 180.792969 L 545.367188 190.414062 L 546.515625 194.714844 L 547.664062 195.382812 L 548.816406 192.675781 L 549.964844 190.640625 L 551.113281 189.441406 L 552.265625 189.183594 L 553.414062 189.882812 L 554.5625 191.484375 L 555.714844 193.855469 L 556.863281 196.808594 L 558.011719 199.164062 L 559.164062 201.027344 L 560.3125 202.484375 L 561.460938 203.601562 L 562.613281 204.421875 L 563.761719 204.980469 L 564.910156 205.722656 L 566.0625 206.625 L 567.210938 207.65625 L 568.359375 208.789062 L 569.511719 209.992188 L 570.660156 211.230469 L 571.808594 212.320312 L 572.960938 213.210938 L 574.109375 213.933594 L 575.257812 214.515625 L 576.410156 214.980469 L 577.558594 215.339844 L 578.707031 215.609375 L 579.859375 215.796875 L 581.007812 215.902344 L 582.15625 215.9375 L 583.308594 215.894531 L 584.457031 215.777344 L 585.605469 215.578125 L 586.757812 215.289062 L 587.90625 214.90625 L 589.054688 214.414062 L 590.207031 213.796875 L 591.355469 212.71875 L 592.503906 211.027344 L 593.65625 208.484375 L 594.804688 204.664062 L 595.957031 198.890625 L 597.105469 189.988281 L 598.253906 184.28125 L 599.40625 184.085938 L 600.554688 189.480469 L 601.703125 192.652344 L 602.855469 194.117188 L 604.003906 194.105469 L 605.152344 192.613281 L 606.304688 189.410156 L 607.453125 185.832031 L 608.601562 181.839844 L 609.753906 177.378906 L 610.902344 172.382812 L 612.050781 166.789062 L 613.203125 160.515625 L 614.351562 153.476562 L 615.5 145.574219 L 616.652344 137.652344 L 617.800781 129.886719 L 618.949219 121.972656 L 620.101562 113.992188 L 621.25 106.023438 L 622.398438 98.285156 L 623.550781 90.890625 L 624.699219 83.964844 L 625.847656 77.621094 L 627 72.566406 L 628.148438 68.953125 L 629.296875 66.890625 L 630.449219 66.441406 L 631.597656 67.625 L 632.746094 56.269531 L 633.898438 29.550781 "/>
<path style="fill:none;stroke-width:1.066978;stroke-linecap:butt;stroke-linejoin:round;stroke:rgb(38.039216%,75.294118%,40.784314%);stroke-opacity:1;stroke-miterlimit:10;" d="M 461.433594 212.035156 L 462.582031 210.855469 L 463.730469 209.976562 L 464.882812 209.476562 L 466.03125 209.402344 L 467.179688 209.761719 L 468.332031 210.515625 L 469.480469 211.601562 L 470.628906 212.289062 L 471.78125 212.636719 L 472.929688 212.675781 L 474.082031 212.414062 L 475.230469 211.824219 L 476.378906 210.851562 L 477.53125 209.410156 L 478.679688 207.351562 L 479.828125 205.171875 L 480.980469 202.902344 L 482.128906 200.582031 L 483.277344 198.257812 L 484.429688 195.976562 L 485.578125 193.796875 L 486.726562 191.765625 L 487.878906 189.941406 L 489.027344 188.148438 L 490.175781 186.113281 L 491.328125 183.808594 L 492.476562 181.203125 L 493.625 178.25 L 494.777344 174.902344 L 495.925781 171.105469 L 497.074219 166.789062 L 498.226562 161.882812 L 499.375 156.226562 L 500.523438 149.691406 L 501.675781 142.125 L 502.824219 133.347656 L 503.972656 123.132812 L 505.125 114.019531 L 506.273438 106.492188 L 507.421875 100.972656 L 508.574219 97.789062 L 509.722656 95.085938 L 510.871094 92.890625 L 512.023438 91.238281 L 513.171875 90.148438 L 514.320312 89.628906 L 515.472656 89.695312 L 516.621094 89.425781 L 517.769531 88.8125 L 518.921875 87.859375 L 520.070312 88.050781 L 521.21875 89.378906 L 522.371094 91.8125 L 523.519531 95.289062 L 524.667969 99.726562 L 525.820312 105.011719 L 526.96875 111.03125 L 528.117188 113.703125 L 529.269531 113.261719 L 530.417969 109.671875 L 531.566406 105.777344 L 532.71875 104.246094 L 533.867188 105.179688 L 535.019531 108.511719 L 536.167969 114.042969 L 537.316406 121.445312 L 538.46875 130.296875 L 539.617188 140.125 L 540.765625 150.441406 L 541.917969 160.785156 L 543.066406 170.757812 L 544.214844 179.816406 L 545.367188 185.789062 L 546.515625 189.574219 L 547.664062 191.695312 L 548.816406 192.433594 L 549.964844 191.886719 L 551.113281 191.71875 L 552.265625 191.945312 L 553.414062 192.546875 L 554.5625 193.511719 L 555.714844 194.792969 L 556.863281 196.351562 L 558.011719 197.875 L 559.164062 199.355469 L 560.3125 200.792969 L 561.460938 202.1875 L 562.613281 203.53125 L 563.761719 204.824219 L 564.910156 206.070312 L 566.0625 207.269531 L 567.210938 208.414062 L 568.359375 209.511719 L 569.511719 210.558594 L 570.660156 211.554688 L 571.808594 212.496094 L 572.960938 213.285156 L 574.109375 213.949219 L 575.257812 214.496094 L 576.410156 214.949219 L 577.558594 215.316406 L 578.707031 215.605469 L 579.859375 215.828125 L 581.007812 215.980469 L 582.15625 216.078125 L 583.308594 216.113281 L 584.457031 216.007812 L 585.605469 215.753906 L 586.757812 215.335938 L 587.90625 214.726562 L 589.054688 213.890625 L 590.207031 212.769531 L 591.355469 211.277344 L 592.503906 209.300781 L 593.65625 206.679688 L 594.804688 203.171875 L 595.957031 198.433594 L 597.105469 194.136719 L 598.253906 190.832031 L 599.40625 188.992188 L 600.554688 188.882812 L 601.703125 190.53125 L 602.855469 191.277344 L 604.003906 191.179688 L 605.152344 190.238281 L 606.304688 188.375 L 607.453125 185.433594 L 608.601562 181.988281 L 609.753906 177.945312 L 610.902344 173.191406 L 612.050781 167.589844 L 613.203125 160.96875 L 614.351562 153.800781 L 615.5 146.082031 L 616.652344 138.113281 L 617.800781 130 L 618.949219 121.839844 L 620.101562 113.757812 L 621.25 105.875 L 622.398438 98.324219 L 623.550781 91.238281 L 624.699219 84.75 L 625.847656 78.976562 L 627 74.035156 L 628.148438 70.03125 L 629.296875 66.496094 L 630.449219 63.46875 L 631.597656 60.980469 L 632.746094 52.78125 L 633.898438 37.996094 "/>
<path style="fill:none;stroke-width:1.066978;stroke-linecap:butt;stroke-linejoin:round;stroke:rgb(47.058824%,81.568627%,32.54902%);stroke-opacity:1;stroke-miterlimit:10;" d="M 461.433594 210.542969 L 462.582031 210.441406 L 463.730469 210.429688 L 464.882812 210.511719 L 466.03125 210.679688 L 467.179688 210.933594 L 468.332031 211.269531 L 469.480469 211.675781 L 470.628906 211.882812 L 471.78125 211.898438 L 472.929688 211.726562 L 474.082031 211.355469 L 475.230469 210.765625 L 476.378906 209.925781 L 477.53125 208.789062 L 478.679688 207.292969 L 479.828125 205.425781 L 480.980469 203.453125 L 482.128906 201.382812 L 483.277344 199.234375 L 484.429688 197.027344 L 485.578125 194.773438 L 486.726562 192.503906 L 487.878906 190.242188 L 489.027344 188.015625 L 490.175781 185.851562 L 491.328125 183.421875 L 492.476562 180.695312 L 493.625 177.636719 L 494.777344 174.191406 L 495.925781 170.316406 L 497.074219 165.953125 L 498.226562 161.023438 L 499.375 155.453125 L 500.523438 149.148438 L 501.675781 142 L 502.824219 133.871094 L 503.972656 124.617188 L 505.125 116.0625 L 506.273438 108.546875 L 507.421875 102.378906 L 508.574219 97.824219 L 509.722656 94.980469 L 510.871094 92.554688 L 512.023438 90.578125 L 513.171875 89.058594 L 514.320312 88.015625 L 515.472656 87.457031 L 516.621094 87.394531 L 517.769531 87.835938 L 518.921875 88.777344 L 520.070312 90.214844 L 521.21875 92.136719 L 522.371094 94.527344 L 523.519531 97.351562 L 524.667969 100.585938 L 525.820312 104.191406 L 526.96875 108.125 L 528.117188 110.222656 L 529.269531 110.585938 L 530.417969 109.222656 L 531.566406 106.078125 L 532.71875 104.773438 L 533.867188 105.890625 L 535.019531 109.371094 L 536.167969 115 L 537.316406 122.449219 L 538.46875 131.296875 L 539.617188 141.078125 L 540.765625 151.316406 L 541.917969 161.5625 L 543.066406 171.429688 L 544.214844 178.566406 L 545.367188 183.699219 L 546.515625 187.3125 L 547.664062 189.730469 L 548.816406 191.15625 L 549.964844 191.703125 L 551.113281 192.363281 L 552.265625 193.128906 L 553.414062 193.988281 L 554.5625 194.933594 L 555.714844 195.953125 L 556.863281 197.035156 L 558.011719 198.175781 L 559.164062 199.355469 L 560.3125 200.574219 L 561.460938 201.820312 L 562.613281 203.078125 L 563.761719 204.34375 L 564.910156 205.605469 L 566.0625 206.855469 L 567.210938 208.082031 L 568.359375 209.28125 L 569.511719 210.4375 L 570.660156 211.550781 L 571.808594 212.613281 L 572.960938 213.480469 L 574.109375 214.1875 L 575.257812 214.757812 L 576.410156 215.214844 L 577.558594 215.566406 L 578.707031 215.828125 L 579.859375 216.011719 L 581.007812 216.113281 L 582.15625 216.144531 L 583.308594 216.058594 L 584.457031 215.84375 L 585.605469 215.492188 L 586.757812 214.988281 L 587.90625 214.300781 L 589.054688 213.390625 L 590.207031 212.199219 L 591.355469 210.65625 L 592.503906 208.652344 L 593.65625 206.039062 L 594.804688 202.605469 L 595.957031 199.078125 L 597.105469 195.84375 L 598.253906 193.171875 L 599.40625 191.289062 L 600.554688 190.371094 L 601.703125 190.503906 L 602.855469 190.234375 L 604.003906 189.546875 L 605.152344 188.417969 L 606.304688 186.800781 L 607.453125 184.636719 L 608.601562 181.832031 L 609.753906 178.265625 L 610.902344 173.789062 L 612.050781 168.179688 L 613.203125 161.171875 L 614.351562 153.777344 L 615.5 146.058594 L 616.652344 138.105469 L 617.800781 130.007812 L 618.949219 121.882812 L 620.101562 113.84375 L 621.25 106.027344 L 622.398438 98.5625 L 623.550781 91.585938 L 624.699219 85.230469 L 625.847656 79.617188 L 627 74.863281 L 628.148438 71.0625 L 629.296875 66.742188 L 630.449219 61.855469 L 631.597656 56.359375 L 632.746094 50.203125 L 633.898438 43.328125 "/>
<path style="fill:none;stroke-width:1.066978;stroke-linecap:butt;stroke-linejoin:round;stroke:rgb(61.960784%,84.313725%,28.627451%);stroke-opacity:1;stroke-miterlimit:10;" d="M 461.433594 209.316406 L 462.582031 210.125 L 463.730469 210.765625 L 464.882812 211.25 L 466.03125 211.597656 L 467.179688 211.820312 L 468.332031 211.925781 L 469.480469 211.914062 L 470.628906 211.785156 L 471.78125 211.539062 L 472.929688 211.167969 L 474.082031 210.652344 L 475.230469 209.984375 L 476.378906 209.136719 L 477.53125 208.082031 L 478.679688 206.777344 L 479.828125 205.183594 L 480.980469 203.480469 L 482.128906 201.675781 L 483.277344 199.765625 L 484.429688 197.75 L 485.578125 195.636719 L 486.726562 193.417969 L 487.878906 191.109375 L 489.027344 188.703125 L 490.175781 186.214844 L 491.328125 183.476562 L 492.476562 180.464844 L 493.625 177.140625 L 494.777344 173.472656 L 495.925781 169.421875 L 497.074219 164.941406 L 498.226562 159.976562 L 499.375 154.476562 L 500.523438 148.367188 L 501.675781 141.578125 L 502.824219 134.023438 L 503.972656 125.605469 L 505.125 117.640625 L 506.273438 110.363281 L 507.421875 103.992188 L 508.574219 98.730469 L 509.722656 94.757812 L 510.871094 91.617188 L 512.023438 89.382812 L 513.171875 88.097656 L 514.320312 87.308594 L 515.472656 87.027344 L 516.621094 87.253906 L 517.769531 87.984375 L 518.921875 89.214844 L 520.070312 90.925781 L 521.21875 93.105469 L 522.371094 95.722656 L 523.519531 98.753906 L 524.667969 101.410156 L 525.820312 103.710938 L 526.96875 105.675781 L 528.117188 107.007812 L 529.269531 107.726562 L 530.417969 107.839844 L 531.566406 107.351562 L 532.71875 106.257812 L 533.867188 107.453125 L 535.019531 110.871094 L 536.167969 116.3125 L 537.316406 123.46875 L 538.46875 131.960938 L 539.617188 141.355469 L 540.765625 151.210938 L 541.917969 161.109375 L 543.066406 170.691406 L 544.214844 177.738281 L 545.367188 182.902344 L 546.515625 186.632812 L 547.664062 189.234375 L 548.816406 190.898438 L 549.964844 191.753906 L 551.113281 192.402344 L 552.265625 193.160156 L 553.414062 194.019531 L 554.5625 194.972656 L 555.714844 196.003906 L 556.863281 197.101562 L 558.011719 198.257812 L 559.164062 199.460938 L 560.3125 200.699219 L 561.460938 201.957031 L 562.613281 203.230469 L 563.761719 204.503906 L 564.910156 205.769531 L 566.0625 207.019531 L 567.210938 208.242188 L 568.359375 209.429688 L 569.511719 210.578125 L 570.660156 211.679688 L 571.808594 212.730469 L 572.960938 213.578125 L 574.109375 214.265625 L 575.257812 214.8125 L 576.410156 215.242188 L 577.558594 215.566406 L 578.707031 215.800781 L 579.859375 215.945312 L 581.007812 216.015625 L 582.15625 215.972656 L 583.308594 215.824219 L 584.457031 215.5625 L 585.605469 215.171875 L 586.757812 214.632812 L 587.90625 213.921875 L 589.054688 213.003906 L 590.207031 211.824219 L 591.355469 210.324219 L 592.503906 208.402344 L 593.65625 205.941406 L 594.804688 202.769531 L 595.957031 199.648438 L 597.105469 196.753906 L 598.253906 194.285156 L 599.40625 192.410156 L 600.554688 191.273438 L 601.703125 190.957031 L 602.855469 190.304688 L 604.003906 189.296875 L 605.152344 187.90625 L 606.304688 186.078125 L 607.453125 183.761719 L 608.601562 180.875 L 609.753906 177.316406 L 610.902344 172.949219 L 612.050781 167.609375 L 613.203125 161.078125 L 614.351562 154.027344 L 615.5 146.453125 L 616.652344 138.628906 L 617.800781 130.644531 L 618.949219 122.59375 L 620.101562 114.589844 L 621.25 106.75 L 622.398438 99.195312 L 623.550781 92.054688 L 624.699219 85.449219 L 625.847656 79.5 L 627 74.320312 L 628.148438 70.007812 L 629.296875 65.488281 L 630.449219 60.746094 L 631.597656 55.773438 L 632.746094 50.558594 L 633.898438 45.085938 "/>
<path style="fill:none;stroke-width:1.066978;stroke-linecap:butt;stroke-linejoin:round;stroke:rgb(72.941176%,86.27451%,25.882353%);stroke-opacity:1;stroke-miterlimit:10;" d="M 461.433594 209.621094 L 462.582031 210.304688 L 463.730469 210.84375 L 464.882812 211.25 L 466.03125 211.535156 L 467.179688 211.707031 L 468.332031 211.773438 L 469.480469 211.734375 L 470.628906 211.585938 L 471.78125 211.328125 L 472.929688 210.953125 L 474.082031 210.449219 L 475.230469 209.800781 L 476.378906 208.988281 L 477.53125 207.984375 L 478.679688 206.761719 L 479.828125 205.273438 L 480.980469 203.679688 L 482.128906 201.96875 L 483.277344 200.140625 L 484.429688 198.183594 L 485.578125 196.097656 L 486.726562 193.875 L 487.878906 191.511719 L 489.027344 189.003906 L 490.175781 186.34375 L 491.328125 183.441406 L 492.476562 180.269531 L 493.625 176.800781 L 494.777344 173.007812 L 495.925781 168.851562 L 497.074219 164.300781 L 498.226562 159.304688 L 499.375 153.828125 L 500.523438 147.808594 L 501.675781 141.191406 L 502.824219 133.910156 L 503.972656 126.046875 L 505.125 118.496094 L 506.273438 111.425781 L 507.421875 105.019531 L 508.574219 99.429688 L 509.722656 94.808594 L 510.871094 91.28125 L 512.023438 88.945312 L 513.171875 87.867188 L 514.320312 87.246094 L 515.472656 87.09375 L 516.621094 87.410156 L 517.769531 88.195312 L 518.921875 89.433594 L 520.070312 91.121094 L 521.21875 93.238281 L 522.371094 95.765625 L 523.519531 98.679688 L 524.667969 101.128906 L 525.820312 103.136719 L 526.96875 104.730469 L 528.117188 105.917969 L 529.269531 106.714844 L 530.417969 107.121094 L 531.566406 107.148438 L 532.71875 106.785156 L 533.867188 108.496094 L 535.019531 112.1875 L 536.167969 117.667969 L 537.316406 124.664062 L 538.46875 132.828125 L 539.617188 141.792969 L 540.765625 151.175781 L 541.917969 160.609375 L 543.066406 169.777344 L 544.214844 176.699219 L 545.367188 181.917969 L 546.515625 185.824219 L 547.664062 188.6875 L 548.816406 190.699219 L 549.964844 191.984375 L 551.113281 192.625 L 552.265625 193.371094 L 553.414062 194.214844 L 554.5625 195.152344 L 555.714844 196.167969 L 556.863281 197.253906 L 558.011719 198.398438 L 559.164062 199.585938 L 560.3125 200.8125 L 561.460938 202.0625 L 562.613281 203.324219 L 563.761719 204.585938 L 564.910156 205.84375 L 566.0625 207.082031 L 567.210938 208.292969 L 568.359375 209.472656 L 569.511719 210.609375 L 570.660156 211.699219 L 571.808594 212.738281 L 572.960938 213.636719 L 574.109375 214.34375 L 575.257812 214.890625 L 576.410156 215.304688 L 577.558594 215.601562 L 578.707031 215.789062 L 579.859375 215.882812 L 581.007812 215.878906 L 582.15625 215.78125 L 583.308594 215.585938 L 584.457031 215.28125 L 585.605469 214.859375 L 586.757812 214.304688 L 587.90625 213.585938 L 589.054688 212.675781 L 590.207031 211.53125 L 591.355469 210.09375 L 592.503906 208.289062 L 593.65625 206.019531 L 594.804688 203.144531 L 595.957031 200.296875 L 597.105469 197.617188 L 598.253906 195.25 L 599.40625 193.328125 L 600.554688 191.972656 L 601.703125 191.265625 L 602.855469 190.28125 L 604.003906 188.988281 L 605.152344 187.359375 L 606.304688 185.351562 L 607.453125 182.910156 L 608.601562 179.964844 L 609.753906 176.429688 L 610.902344 172.203125 L 612.050781 167.140625 L 613.203125 161.082031 L 614.351562 154.363281 L 615.5 146.902344 L 616.652344 139.183594 L 617.800781 131.277344 L 618.949219 123.277344 L 620.101562 115.285156 L 621.25 107.402344 L 622.398438 99.75 L 623.550781 92.445312 L 624.699219 85.601562 L 625.847656 79.335938 L 627 73.761719 L 628.148438 68.976562 L 629.296875 64.285156 L 630.449219 59.703125 L 631.597656 55.246094 L 632.746094 50.9375 L 633.898438 46.789062 "/>
<path style="fill:none;stroke-width:1.066978;stroke-linecap:butt;stroke-linejoin:round;stroke:rgb(81.176471%,87.45098%,23.137255%);stroke-opacity:1;stroke-miterlimit:10;" d="M 461.433594 209.910156 L 462.582031 210.480469 L 463.730469 210.921875 L 464.882812 211.253906 L 466.03125 211.480469 L 467.179688 211.601562 L 468.332031 211.628906 L 469.480469 211.5625 L 470.628906 211.394531 L 471.78125 211.125 L 472.929688 210.746094 L 474.082031 210.246094 L 475.230469 209.617188 L 476.378906 208.835938 L 477.53125 207.886719 L 478.679688 206.738281 L 479.828125 205.359375 L 480.980469 203.863281 L 482.128906 202.246094 L 483.277344 200.492188 L 484.429688 198.597656 L 485.578125 196.542969 L 486.726562 194.316406 L 487.878906 191.910156 L 489.027344 189.300781 L 490.175781 186.476562 L 491.328125 183.414062 L 492.476562 180.09375 L 493.625 176.492188 L 494.777344 172.582031 L 495.925781 168.335938 L 497.074219 163.722656 L 498.226562 158.707031 L 499.375 153.253906 L 500.523438 147.324219 L 501.675781 140.878906 L 502.824219 133.875 L 503.972656 126.257812 L 505.125 118.910156 L 506.273438 111.996094 L 507.421875 105.660156 L 508.574219 100.058594 L 509.722656 95.328125 L 510.871094 91.589844 L 512.023438 88.933594 L 513.171875 87.429688 L 514.320312 87.117188 L 515.472656 87.195312 L 516.621094 87.664062 L 517.769531 88.515625 L 518.921875 89.746094 L 520.070312 91.339844 L 521.21875 93.292969 L 522.371094 95.578125 L 523.519531 98.1875 L 524.667969 100.433594 L 525.820312 102.335938 L 526.96875 103.914062 L 528.117188 105.175781 L 529.269531 106.128906 L 530.417969 106.785156 L 531.566406 107.144531 L 532.71875 107.265625 L 533.867188 109.316406 L 535.019531 113.195312 L 536.167969 118.710938 L 537.316406 125.601562 L 538.46875 133.558594 L 539.617188 142.234375 L 540.765625 151.289062 L 541.917969 160.394531 L 543.066406 169.261719 L 544.214844 176.039062 L 545.367188 181.21875 L 546.515625 185.160156 L 547.664062 188.109375 L 548.816406 190.246094 L 549.964844 191.695312 L 551.113281 192.539062 L 552.265625 193.355469 L 553.414062 194.265625 L 554.5625 195.253906 L 555.714844 196.316406 L 556.863281 197.433594 L 558.011719 198.601562 L 559.164062 199.808594 L 560.3125 201.042969 L 561.460938 202.289062 L 562.613281 203.542969 L 563.761719 204.792969 L 564.910156 206.03125 L 566.0625 207.246094 L 567.210938 208.433594 L 568.359375 209.585938 L 569.511719 210.695312 L 570.660156 211.757812 L 571.808594 212.773438 L 572.960938 213.601562 L 574.109375 214.257812 L 575.257812 214.765625 L 576.410156 215.152344 L 577.558594 215.425781 L 578.707031 215.597656 L 579.859375 215.675781 L 581.007812 215.664062 L 582.15625 215.5625 L 583.308594 215.363281 L 584.457031 215.0625 L 585.605469 214.644531 L 586.757812 214.101562 L 587.90625 213.402344 L 589.054688 212.527344 L 590.207031 211.429688 L 591.355469 210.058594 L 592.503906 208.355469 L 593.65625 206.226562 L 594.804688 203.554688 L 595.957031 200.890625 L 597.105469 198.339844 L 598.253906 196.015625 L 599.40625 194.03125 L 600.554688 192.492188 L 601.703125 191.476562 L 602.855469 190.21875 L 604.003906 188.695312 L 605.152344 186.871094 L 606.304688 184.710938 L 607.453125 182.167969 L 608.601562 179.175781 L 609.753906 175.667969 L 610.902344 171.558594 L 612.050781 166.742188 L 613.203125 161.085938 L 614.351562 154.433594 L 615.5 147.144531 L 616.652344 139.585938 L 617.800781 131.820312 L 618.949219 123.929688 L 620.101562 116 L 621.25 108.125 L 622.398438 100.40625 L 623.550781 92.957031 L 624.699219 85.875 L 625.847656 79.273438 L 627 73.253906 L 628.148438 67.914062 L 629.296875 63 L 630.449219 58.5625 L 631.597656 54.648438 L 632.746094 51.300781 L 633.898438 48.554688 "/>
<path style="fill:none;stroke-width:1.066978;stroke-linecap:butt;stroke-linejoin:round;stroke:rgb(88.235294%,88.627451%,20.392157%);stroke-opacity:1;stroke-miterlimit:10;" d="M 461.433594 210.027344 L 462.582031 210.5625 L 463.730469 210.976562 L 464.882812 211.28125 L 466.03125 211.484375 L 467.179688 211.589844 L 468.332031 211.601562 L 469.480469 211.519531 L 470.628906 211.34375 L 471.78125 211.066406 L 472.929688 210.679688 L 474.082031 210.179688 L 475.230469 209.546875 L 476.378906 208.769531 L 477.53125 207.828125 L 478.679688 206.691406 L 479.828125 205.324219 L 480.980469 203.847656 L 482.128906 202.246094 L 483.277344 200.507812 L 484.429688 198.625 L 485.578125 196.585938 L 486.726562 194.375 L 487.878906 191.976562 L 489.027344 189.375 L 490.175781 186.554688 L 491.328125 183.488281 L 492.476562 180.160156 L 493.625 176.546875 L 494.777344 172.613281 L 495.925781 168.335938 L 497.074219 163.683594 L 498.226562 158.617188 L 499.375 153.105469 L 500.523438 147.105469 L 501.675781 140.574219 L 502.824219 133.46875 L 503.972656 126.011719 L 505.125 118.832031 L 506.273438 112.070312 L 507.421875 105.878906 L 508.574219 100.386719 L 509.722656 95.730469 L 510.871094 92.019531 L 512.023438 89.34375 L 513.171875 87.769531 L 514.320312 87.335938 L 515.472656 87.402344 L 516.621094 87.835938 L 517.769531 88.636719 L 518.921875 89.792969 L 520.070312 91.296875 L 521.21875 93.136719 L 522.371094 95.300781 L 523.519531 97.769531 L 524.667969 99.910156 L 525.820312 101.746094 L 526.96875 103.285156 L 528.117188 104.539062 L 529.269531 105.515625 L 530.417969 106.222656 L 531.566406 106.664062 L 532.71875 107.59375 L 533.867188 110.21875 L 535.019531 114.429688 L 536.167969 120.035156 L 537.316406 126.8125 L 538.46875 134.480469 L 539.617188 142.75 L 540.765625 151.335938 L 541.917969 159.960938 L 543.066406 168.378906 L 544.214844 174.980469 L 545.367188 180.171875 L 546.515625 184.242188 L 547.664062 187.410156 L 548.816406 189.84375 L 549.964844 191.65625 L 551.113281 192.9375 L 552.265625 193.738281 L 553.414062 194.628906 L 554.5625 195.59375 L 555.714844 196.625 L 556.863281 197.714844 L 558.011719 198.851562 L 559.164062 200.023438 L 560.3125 201.222656 L 561.460938 202.4375 L 562.613281 203.65625 L 563.761719 204.875 L 564.910156 206.085938 L 566.0625 207.273438 L 567.210938 208.433594 L 568.359375 209.566406 L 569.511719 210.65625 L 570.660156 211.703125 L 571.808594 212.703125 L 572.960938 213.503906 L 574.109375 214.140625 L 575.257812 214.636719 L 576.410156 215.011719 L 577.558594 215.277344 L 578.707031 215.445312 L 579.859375 215.523438 L 581.007812 215.511719 L 582.15625 215.40625 L 583.308594 215.210938 L 584.457031 214.917969 L 585.605469 214.507812 L 586.757812 213.976562 L 587.90625 213.292969 L 589.054688 212.4375 L 590.207031 211.371094 L 591.355469 210.042969 L 592.503906 208.398438 L 593.65625 206.351562 L 594.804688 203.886719 L 595.957031 201.402344 L 597.105469 198.988281 L 598.253906 196.726562 L 599.40625 194.707031 L 600.554688 193.011719 L 601.703125 191.71875 L 602.855469 190.214844 L 604.003906 188.472656 L 605.152344 186.460938 L 606.304688 184.144531 L 607.453125 181.480469 L 608.601562 178.421875 L 609.753906 174.910156 L 610.902344 170.867188 L 612.050781 166.214844 L 613.203125 160.851562 L 614.351562 154.65625 L 615.5 147.480469 L 616.652344 140.023438 L 617.800781 132.34375 L 618.949219 124.515625 L 620.101562 116.613281 L 621.25 108.726562 L 622.398438 100.945312 L 623.550781 93.363281 L 624.699219 86.085938 L 625.847656 79.210938 L 627 72.839844 L 628.148438 67.0625 L 629.296875 61.976562 L 630.449219 57.65625 L 631.597656 54.171875 L 632.746094 51.582031 L 633.898438 49.933594 "/>
<path style="fill:none;stroke-width:1.066978;stroke-linecap:butt;stroke-linejoin:round;stroke:rgb(94.117647%,89.803922%,17.254902%);stroke-opacity:1;stroke-miterlimit:10;" d="M 461.433594 210.140625 L 462.582031 210.640625 L 463.730469 211.027344 L 464.882812 211.308594 L 466.03125 211.492188 L 467.179688 211.582031 L 468.332031 211.578125 L 469.480469 211.488281 L 470.628906 211.300781 L 471.78125 211.015625 L 472.929688 210.625 L 474.082031 210.117188 L 475.230469 209.484375 L 476.378906 208.710938 L 477.53125 207.769531 L 478.679688 206.640625 L 479.828125 205.289062 L 480.980469 203.824219 L 482.128906 202.234375 L 483.277344 200.507812 L 484.429688 198.640625 L 485.578125 196.609375 L 486.726562 194.410156 L 487.878906 192.023438 L 489.027344 189.429688 L 490.175781 186.613281 L 491.328125 183.554688 L 492.476562 180.226562 L 493.625 176.609375 L 494.777344 172.667969 L 495.925781 168.371094 L 497.074219 163.6875 L 498.226562 158.578125 L 499.375 152.996094 L 500.523438 146.894531 L 501.675781 140.226562 L 502.824219 132.933594 L 503.972656 125.761719 L 505.125 118.828125 L 506.273438 112.273438 L 507.421875 106.230469 L 508.574219 100.824219 L 509.722656 96.183594 L 510.871094 92.40625 L 512.023438 89.585938 L 513.171875 87.792969 L 514.320312 87.0625 L 515.472656 87.414062 L 516.621094 88.046875 L 517.769531 88.957031 L 518.921875 90.136719 L 520.070312 91.570312 L 521.21875 93.253906 L 522.371094 95.175781 L 523.519531 97.328125 L 524.667969 99.253906 L 525.820312 100.964844 L 526.96875 102.476562 L 528.117188 103.789062 L 529.269531 104.914062 L 530.417969 105.851562 L 531.566406 106.609375 L 532.71875 107.984375 L 533.867188 110.921875 L 535.019531 115.308594 L 536.167969 120.964844 L 537.316406 127.671875 L 538.46875 135.179688 L 539.617188 143.222656 L 540.765625 151.542969 L 541.917969 159.890625 L 543.066406 168.046875 L 544.214844 174.5 L 545.367188 179.625 L 546.515625 183.683594 L 547.664062 186.882812 L 548.816406 189.371094 L 549.964844 191.265625 L 551.113281 192.652344 L 552.265625 193.582031 L 553.414062 194.578125 L 554.5625 195.632812 L 555.714844 196.738281 L 556.863281 197.882812 L 558.011719 199.058594 L 559.164062 200.257812 L 560.3125 201.46875 L 561.460938 202.683594 L 562.613281 203.894531 L 563.761719 205.097656 L 564.910156 206.28125 L 566.0625 207.441406 L 567.210938 208.570312 L 568.359375 209.664062 L 569.511719 210.71875 L 570.660156 211.726562 L 571.808594 212.691406 L 572.960938 213.464844 L 574.109375 214.078125 L 575.257812 214.554688 L 576.410156 214.914062 L 577.558594 215.167969 L 578.707031 215.328125 L 579.859375 215.394531 L 581.007812 215.375 L 582.15625 215.265625 L 583.308594 215.0625 L 584.457031 214.757812 L 585.605469 214.34375 L 586.757812 213.804688 L 587.90625 213.117188 L 589.054688 212.257812 L 590.207031 211.1875 L 591.355469 209.867188 L 592.503906 208.230469 L 593.65625 206.199219 L 594.804688 204.082031 L 595.957031 201.914062 L 597.105469 199.726562 L 598.253906 197.570312 L 599.40625 195.484375 L 600.554688 193.523438 L 601.703125 191.738281 L 602.855469 190.164062 L 604.003906 188.359375 L 605.152344 186.289062 L 606.304688 183.917969 L 607.453125 181.207031 L 608.601562 178.109375 L 609.753906 174.5625 L 610.902344 170.5 L 612.050781 165.84375 L 613.203125 160.496094 L 614.351562 154.34375 L 615.5 147.246094 L 616.652344 139.875 L 617.800781 132.289062 L 618.949219 124.546875 L 620.101562 116.730469 L 621.25 108.921875 L 622.398438 101.203125 L 623.550781 93.671875 L 624.699219 86.421875 L 625.847656 79.550781 L 627 73.152344 L 628.148438 67.324219 L 629.296875 62.148438 L 630.449219 57.703125 L 631.597656 54.0625 L 632.746094 51.28125 L 633.898438 49.40625 "/>
<path style="fill:none;stroke-width:1.066978;stroke-linecap:butt;stroke-linejoin:round;stroke:rgb(99.215686%,90.588235%,14.509804%);stroke-opacity:1;stroke-miterlimit:10;" d="M 461.433594 210.234375 L 462.582031 210.707031 L 463.730469 211.074219 L 464.882812 211.335938 L 466.03125 211.503906 L 467.179688 211.582031 L 468.332031 211.570312 L 469.480469 211.46875 L 470.628906 211.273438 L 471.78125 210.980469 L 472.929688 210.585938 L 474.082031 210.074219 L 475.230469 209.441406 L 476.378906 208.664062 L 477.53125 207.722656 L 478.679688 206.597656 L 479.828125 205.25 L 480.980469 203.792969 L 482.128906 202.207031 L 483.277344 200.488281 L 484.429688 198.625 L 485.578125 196.601562 L 486.726562 194.40625 L 487.878906 192.019531 L 489.027344 189.429688 L 490.175781 186.617188 L 491.328125 183.554688 L 492.476562 180.226562 L 493.625 176.605469 L 494.777344 172.660156 L 495.925781 168.359375 L 497.074219 163.671875 L 498.226562 158.558594 L 499.375 152.972656 L 500.523438 146.875 L 501.675781 140.210938 L 502.824219 132.929688 L 503.972656 125.765625 L 505.125 118.855469 L 506.273438 112.320312 L 507.421875 106.304688 L 508.574219 100.925781 L 509.722656 96.304688 L 510.871094 92.550781 L 512.023438 89.746094 L 513.171875 87.960938 L 514.320312 87.234375 L 515.472656 87.585938 L 516.621094 88.210938 L 517.769531 89.105469 L 518.921875 90.265625 L 520.070312 91.679688 L 521.21875 93.339844 L 522.371094 95.234375 L 523.519531 97.011719 L 524.667969 98.679688 L 525.820312 100.234375 L 526.96875 101.6875 L 528.117188 103.035156 L 529.269531 104.289062 L 530.417969 105.445312 L 531.566406 106.511719 L 532.71875 108.355469 L 533.867188 111.625 L 535.019531 116.199219 L 536.167969 121.910156 L 537.316406 128.550781 L 538.46875 135.894531 L 539.617188 143.707031 L 540.765625 151.753906 L 541.917969 159.8125 L 543.066406 167.6875 L 544.214844 173.992188 L 545.367188 179.042969 L 546.515625 183.09375 L 547.664062 186.324219 L 548.816406 188.882812 L 549.964844 190.871094 L 551.113281 192.371094 L 552.265625 193.441406 L 553.414062 194.558594 L 554.5625 195.710938 L 555.714844 196.890625 L 556.863281 198.089844 L 558.011719 199.304688 L 559.164062 200.523438 L 560.3125 201.742188 L 561.460938 202.953125 L 562.613281 204.148438 L 563.761719 205.328125 L 564.910156 206.476562 L 566.0625 207.601562 L 567.210938 208.6875 L 568.359375 209.738281 L 569.511719 210.75 L 570.660156 211.71875 L 571.808594 212.640625 L 572.960938 213.382812 L 574.109375 213.972656 L 575.257812 214.433594 L 576.410156 214.777344 L 577.558594 215.023438 L 578.707031 215.175781 L 579.859375 215.238281 L 581.007812 215.214844 L 582.15625 215.101562 L 583.308594 214.902344 L 584.457031 214.601562 L 585.605469 214.195312 L 586.757812 213.664062 L 587.90625 212.996094 L 589.054688 212.160156 L 590.207031 211.125 L 591.355469 209.847656 L 592.503906 208.273438 L 593.65625 206.335938 L 594.804688 204.308594 L 595.957031 202.21875 L 597.105469 200.097656 L 598.253906 197.984375 L 599.40625 195.914062 L 600.554688 193.925781 L 601.703125 192.066406 L 602.855469 190.375 L 604.003906 188.453125 L 605.152344 186.273438 L 606.304688 183.800781 L 607.453125 180.996094 L 608.601562 177.8125 L 609.753906 174.195312 L 610.902344 170.082031 L 612.050781 165.394531 L 613.203125 160.050781 L 614.351562 153.9375 L 615.5 146.933594 L 616.652344 139.664062 L 617.800781 132.179688 L 618.949219 124.546875 L 620.101562 116.835938 L 621.25 109.117188 L 622.398438 101.484375 L 623.550781 94.015625 L 624.699219 86.808594 L 625.847656 79.949219 L 627 73.53125 L 628.148438 67.640625 L 629.296875 62.363281 L 630.449219 57.777344 L 631.597656 53.945312 L 632.746094 50.933594 L 633.898438 48.785156 "/>
<path style="fill:none;stroke-width:1.066978;stroke-linecap:butt;stroke-linejoin:round;stroke:rgb(20%,20%,20%);stroke-opacity:1;stroke-miterlimit:10;" d="M 450.070312 223.160156 L 452.808594 223.160156 "/>
<path style="fill:none;stroke-width:1.066978;stroke-linecap:butt;stroke-linejoin:round;stroke:rgb(20%,20%,20%);stroke-opacity:1;stroke-miterlimit:10;" d="M 450.070312 173.765625 L 452.808594 173.765625 "/>
<path style="fill:none;stroke-width:1.066978;stroke-linecap:butt;stroke-linejoin:round;stroke:rgb(20%,20%,20%);stroke-opacity:1;stroke-miterlimit:10;" d="M 450.070312 124.371094 L 452.808594 124.371094 "/>
<path style="fill:none;stroke-width:1.066978;stroke-linecap:butt;stroke-linejoin:round;stroke:rgb(20%,20%,20%);stroke-opacity:1;stroke-miterlimit:10;" d="M 450.070312 74.976562 L 452.808594 74.976562 "/>
<path style="fill:none;stroke-width:1.066978;stroke-linecap:butt;stroke-linejoin:round;stroke:rgb(20%,20%,20%);stroke-opacity:1;stroke-miterlimit:10;" d="M 450.070312 25.585938 L 452.808594 25.585938 "/>
<path style="fill:none;stroke-width:1.066978;stroke-linecap:butt;stroke-linejoin:round;stroke:rgb(20%,20%,20%);stroke-opacity:1;stroke-miterlimit:10;" d="M 460.28125 233.929688 L 460.28125 231.191406 "/>
<path style="fill:none;stroke-width:1.066978;stroke-linecap:butt;stroke-linejoin:round;stroke:rgb(20%,20%,20%);stroke-opacity:1;stroke-miterlimit:10;" d="M 517.769531 233.929688 L 517.769531 231.191406 "/>
<path style="fill:none;stroke-width:1.066978;stroke-linecap:butt;stroke-linejoin:round;stroke:rgb(20%,20%,20%);stroke-opacity:1;stroke-miterlimit:10;" d="M 575.257812 233.929688 L 575.257812 231.191406 "/>
<path style="fill:none;stroke-width:1.066978;stroke-linecap:butt;stroke-linejoin:round;stroke:rgb(20%,20%,20%);stroke-opacity:1;stroke-miterlimit:10;" d="M 632.746094 233.929688 L 632.746094 231.191406 "/>
</g>
</svg>
